<?xml version="1.0" encoding="UTF-8"?>
<svg width="600px" height="100px" viewBox="0 0 600 100" version="1.1" xmlns="http://www.w3.org/2000/svg" xmlns:xlink="http://www.w3.org/1999/xlink">
    <!-- Generator: Sketch 52.6 (67491) - http://www.bohemiancoding.com/sketch -->
    <title>ECG-regular</title>
    <desc>Created with Sketch.</desc>
    <defs>
        <rect id="path-1" x="0.169967213" y="0.0460956522" width="47.6776131" height="18.9371348"></rect>
        <rect id="path-3" x="0.169967213" y="0.0460956522" width="47.6776131" height="18.9371348"></rect>
        <rect id="path-5" x="0.169967213" y="0.0460956522" width="47.6776131" height="18.9371348"></rect>
        <rect id="path-7" x="0.169967213" y="0.0460956522" width="47.6776131" height="18.9371348"></rect>
        <rect id="path-9" x="0.169967213" y="0.0460956522" width="47.6776131" height="18.9371348"></rect>
        <rect id="path-11" x="0.169967213" y="0.0460956522" width="47.6776131" height="18.9371348"></rect>
        <rect id="path-13" x="0.169967213" y="0.0460956522" width="47.6776131" height="18.9371348"></rect>
        <rect id="path-15" x="0.284852459" y="0.2705125" width="47.6776131" height="18.1480875"></rect>
        <rect id="path-17" x="0.284852459" y="0.2705125" width="47.6776131" height="18.1480875"></rect>
        <rect id="path-19" x="0.284852459" y="0.2705125" width="47.6776131" height="18.1480875"></rect>
        <rect id="path-21" x="0.284852459" y="0.2705125" width="47.6776131" height="18.1480875"></rect>
        <rect id="path-23" x="0.284852459" y="0.2705125" width="47.6776131" height="18.1480875"></rect>
        <rect id="path-25" x="0.284852459" y="0.2705125" width="47.6776131" height="18.1480875"></rect>
        <rect id="path-27" x="0.284852459" y="0.2705125" width="47.6776131" height="18.1480875"></rect>
        <rect id="path-29" x="0.663406452" y="0.387204167" width="46.9086194" height="18.1480875"></rect>
        <rect id="path-31" x="0.663406452" y="0.387204167" width="46.9086194" height="18.1480875"></rect>
        <rect id="path-33" x="0.663406452" y="0.387204167" width="46.9086194" height="18.1480875"></rect>
        <rect id="path-35" x="0.663406452" y="0.387204167" width="46.9086194" height="18.1480875"></rect>
        <rect id="path-37" x="0.663406452" y="0.387204167" width="46.9086194" height="18.1480875"></rect>
        <rect id="path-39" x="0.663406452" y="0.387204167" width="46.9086194" height="18.1480875"></rect>
        <rect id="path-41" x="0.663406452" y="0.387204167" width="46.9086194" height="18.1480875"></rect>
        <rect id="path-43" x="0.403354839" y="0.173375" width="46.9086194" height="18.1480875"></rect>
        <rect id="path-45" x="0.403354839" y="0.173375" width="46.9086194" height="18.1480875"></rect>
        <rect id="path-47" x="0.403354839" y="0.173375" width="46.9086194" height="18.1480875"></rect>
        <rect id="path-49" x="0.403354839" y="0.173375" width="46.9086194" height="18.1480875"></rect>
        <rect id="path-51" x="0.403354839" y="0.173375" width="46.9086194" height="18.1480875"></rect>
        <rect id="path-53" x="0.403354839" y="0.173375" width="46.9086194" height="18.1480875"></rect>
        <rect id="path-55" x="0.403354839" y="0.173375" width="46.9086194" height="18.1480875"></rect>
        <rect id="path-57" x="0.567483871" y="0.152475" width="46.9086194" height="18.1480875"></rect>
        <rect id="path-59" x="0.567483871" y="0.152475" width="46.9086194" height="18.1480875"></rect>
        <rect id="path-61" x="0.567483871" y="0.152475" width="46.9086194" height="18.1480875"></rect>
        <rect id="path-63" x="0.567483871" y="0.152475" width="46.9086194" height="18.1480875"></rect>
        <rect id="path-65" x="0.567483871" y="0.152475" width="46.9086194" height="18.1480875"></rect>
        <rect id="path-67" x="0.567483871" y="0.152475" width="46.9086194" height="18.1480875"></rect>
        <rect id="path-69" x="0.567483871" y="0.152475" width="46.9086194" height="18.1480875"></rect>
        <rect id="path-71" x="0.741677419" y="0.584091667" width="46.9086194" height="18.1480875"></rect>
        <rect id="path-73" x="0.741677419" y="0.584091667" width="46.9086194" height="18.1480875"></rect>
        <rect id="path-75" x="0.741677419" y="0.584091667" width="46.9086194" height="18.1480875"></rect>
        <rect id="path-77" x="0.741677419" y="0.584091667" width="46.9086194" height="18.1480875"></rect>
        <rect id="path-79" x="0.741677419" y="0.584091667" width="46.9086194" height="18.1480875"></rect>
        <rect id="path-81" x="0.741677419" y="0.584091667" width="46.9086194" height="18.1480875"></rect>
        <rect id="path-83" x="0.741677419" y="0.584091667" width="46.9086194" height="18.1480875"></rect>
    </defs>
    <g id="ECG-regular" stroke="none" stroke-width="1" fill="none" fill-rule="evenodd">
        <path d="M110,21 L111.491376,92 C111.491376,92 115.398876,78.2746645 121.790145,75.6903693 C128.267364,73.0721764 127.854331,74.4886155 141.458161,62.6249088 C150.227355,54.9773481 147.360793,73.8074334 155.892832,74.8655255 C167.088496,76.2537166 180.294413,78.1237391 184.064236,74.0866858 C193.844923,63.6140756 200.264046,83.8233933 200.264046,83.8233933 L201.657536,65.3811137 L203.331155,43.229862 L205,21.1393034" id="Path" stroke="#EB493A" stroke-width="1.5" stroke-linecap="round" stroke-linejoin="round"></path>
        <path d="M395,21 L396.491376,92 C396.491376,92 400.39808,78.2739354 406.790145,75.690462 C413.267364,73.0714769 412.854331,74.488715 426.457365,62.6245915 C435.226559,54.9770743 432.359998,73.8075368 440.892832,74.8648158 C452.088496,76.252999 465.293617,78.1230109 469.064236,74.0859805 C478.844923,63.6137527 485.264046,83.8226327 485.264046,83.8226327 L486.657536,65.3807807 L488.331155,43.229655 L490,21.1393026" id="Path" stroke="#EB493A" stroke-width="1.5" stroke-linecap="round" stroke-linejoin="round"></path>
        <path d="M205,21 L206.492172,92 C206.492172,92 210.398876,78.2746489 216.790145,75.6903507 C223.267364,73.0721549 222.854331,74.4885956 236.458161,62.6248754 C245.227355,54.977306 242.360793,73.8074127 250.892832,74.8655061 C262.089292,76.2536987 275.294413,78.1237233 279.065031,74.0866654 C288.845719,63.6141241 295.264046,83.823384 295.264046,83.823384 L296.657536,65.3810834 L298.331155,43.2298066 L300,21.1393035" id="Path" stroke="#EB493A" stroke-width="1.5" stroke-linecap="round" stroke-linejoin="round"></path>
        <path d="M490,21 L491.491376,92 C491.491376,92 495.398876,78.2739354 501.790145,75.690462 C508.267364,73.0714769 507.854331,74.488715 521.458161,62.6246722 C530.226559,54.977155 527.359998,73.8075368 535.892832,74.8648158 C547.088496,76.252999 560.293617,78.1230109 564.064236,74.0859805 C573.844923,63.6138334 580.264046,83.8226327 580.264046,83.8226327 L581.657536,65.3807807 L583.331155,43.2297357 L585,21.1393026" id="Path" stroke="#EB493A" stroke-width="1.5" stroke-linecap="round" stroke-linejoin="round"></path>
        <path d="M15,21 L16.4914529,92 C16.4914529,92 20.3984688,78.2746957 26.7898867,75.6904064 C33.2672535,73.0714123 32.8541415,74.4886553 46.4577099,62.6247334 C55.2267301,54.9771902 52.3602534,73.8074748 60.8925161,74.8655645 C72.0885592,76.2529453 85.2936589,78.1237706 89.0642707,74.0859194 C98.8449417,63.613898 105.264054,83.8226048 105.264054,83.8226048 L106.657541,65.3809321 L108.331158,43.2297308 L110,21.139303" id="Path" stroke="#EB493A" stroke-width="1.5" stroke-linecap="round" stroke-linejoin="round"></path>
        <path d="M300,21 L301.492159,92 C301.492159,92 305.398831,78.2746333 311.790046,75.6903322 C318.267211,73.0721334 317.854181,74.4885757 331.457897,62.6249227 C340.227018,54.9774254 337.360481,73.807392 345.892447,74.8654866 C357.088813,76.2536808 370.293824,78.1237075 374.064411,74.0866451 C383.845017,63.6141725 390.26329,83.8233747 390.26329,83.8233747 L391.656768,65.3811339 L393.330373,43.2299126 L395,21.1393037" id="Path" stroke="#EB493A" stroke-width="1.5" stroke-linecap="round" stroke-linejoin="round"></path>
        <g id="Group" transform="translate(229.000000, 11.000000)">
            <g id="Clipped">
                <mask id="mask-2" fill="white">
                    <use xlink:href="#path-1"></use>
                </mask>
                <g id="Rectangle"></g>
                <path d="M6.61140984,4.05947391 L6.61140984,3.42305652 C7.18268852,3.36465217 7.58085246,3.2670087 7.80668852,3.1302087 C8.0317377,2.99332609 8.20013115,2.66974783 8.31186885,2.1593087 L8.93586885,2.1593087 L8.93586885,8.7362 L8.09232787,8.7362 L8.09232787,4.05947391 L6.61140984,4.05947391 Z" id="Path" fill="#000000" mask="url(#mask-2)"></path>
            </g>
            <g id="Clipped">
                <mask id="mask-4" fill="white">
                    <use xlink:href="#path-3"></use>
                </mask>
                <g id="Rectangle"></g>
                <path d="M14.304,7.18654348 C14.3276066,7.46328261 14.3937049,7.67542174 14.5015082,7.82296087 C14.7005902,8.09053043 15.0468197,8.22427391 15.538623,8.22427391 C15.8313443,8.22427391 16.0894426,8.15736087 16.3113443,8.02361739 C16.5340328,7.88987391 16.6457705,7.68310435 16.6457705,7.4033087 C16.6457705,7.19116957 16.5560656,7.02966957 16.3774426,6.91905652 C16.2633443,6.8514 16.0375082,6.77300435 15.7007213,6.68378696 L15.0727869,6.51774348 C14.6714754,6.41324348 14.3756066,6.29635217 14.1851803,6.16723478 C13.8460328,5.94278696 13.6760656,5.63226087 13.6760656,5.23557391 C13.6760656,4.76825652 13.8358033,4.39007391 14.1568525,4.10102609 C14.4779016,3.81197826 14.9091148,3.66749565 15.4504918,3.66749565 C16.1594754,3.66749565 16.6701639,3.88574783 16.9841311,4.32241739 C17.1800656,4.59915652 17.2752787,4.89737391 17.2697705,5.21715217 L16.5222295,5.21715217 C16.5080656,5.02963043 16.4451148,4.85896087 16.333377,4.70522609 C16.1523934,4.4868913 15.8376393,4.37776522 15.3891148,4.37776522 C15.0900984,4.37776522 14.8642623,4.43773913 14.7100328,4.55760435 C14.5565902,4.67755217 14.4794754,4.83591304 14.4794754,5.03268696 C14.4794754,5.24788261 14.5809836,5.42012174 14.7832131,5.54923913 C14.8996721,5.62606522 15.0727869,5.69372174 15.3009836,5.75212609 L15.8242623,5.88586957 C16.3923934,6.03043478 16.7732459,6.1702913 16.9660328,6.30560435 C17.2737049,6.51774348 17.4279344,6.8514 17.4279344,7.3064087 C17.4279344,7.74613478 17.2689836,8.12588696 16.951082,8.44566522 C16.6331803,8.76536087 16.1492459,8.9252913 15.4992787,8.9252913 C14.7989508,8.9252913 14.3032131,8.75850435 14.0120656,8.42484783 C13.7201311,8.09127391 13.5643279,7.67847826 13.5438689,7.18654348 L14.304,7.18654348 Z" id="Path" fill="#000000" mask="url(#mask-4)"></path>
            </g>
            <g id="Clipped">
                <mask id="mask-6" fill="white">
                    <use xlink:href="#path-5"></use>
                </mask>
                <g id="Rectangle"></g>
                <path d="M20.2921967,3.68591739 C20.6258361,3.68591739 20.9492459,3.76819565 21.2632131,3.93266957 C21.5763934,4.09714348 21.8148197,4.3101087 21.9792787,4.57148261 C22.1374426,4.82054783 22.2428852,5.11108261 22.2956066,5.44316957 C22.3420328,5.67067391 22.3656393,6.0334913 22.3656393,6.53162174 L18.9167213,6.53162174 C18.9316721,7.0328087 19.0441967,7.43478261 19.255082,7.7377087 C19.4659672,8.04055217 19.7925246,8.19197391 20.2347541,8.19197391 C20.6478689,8.19197391 20.9775738,8.04897826 21.223082,7.76306957 C21.3639344,7.59702609 21.4638689,7.40479565 21.5220984,7.18654348 L22.299541,7.18654348 C22.279082,7.36795217 22.2114098,7.57009565 22.0957377,7.79297391 C21.9800656,8.01593478 21.8502295,8.19808696 21.7070164,8.33951304 C21.4662295,8.58552174 21.1695738,8.75156522 20.8146885,8.83764348 C20.6242623,8.88687826 20.4094426,8.91141304 20.1686557,8.91141304 C19.5832131,8.91141304 19.0866885,8.6877913 18.6798689,8.24038261 C18.2722623,7.79297391 18.0692459,7.16655217 18.0692459,6.36095217 C18.0692459,5.56766087 18.2738361,4.92347826 18.6838033,4.42848696 C19.0937705,3.93341304 19.6304262,3.68591739 20.2921967,3.68591739 Z M21.5527869,5.87207391 C21.5205246,5.51231304 21.4457705,5.22483478 21.3285246,5.00963913 C21.1121311,4.60989565 20.7501639,4.41006522 20.2434098,4.41006522 C19.8806557,4.41006522 19.5761311,4.5476087 19.3298361,4.82277826 C19.083541,5.09803043 18.9537049,5.44779565 18.9387541,5.87207391 L21.5527869,5.87207391 Z" id="Shape" fill="#000000" fill-rule="nonzero" mask="url(#mask-6)"></path>
            </g>
            <g id="Clipped">
                <mask id="mask-8" fill="white">
                    <use xlink:href="#path-7"></use>
                </mask>
                <g id="Rectangle"></g>
                <path d="M25.1512131,3.65361739 C25.6807869,3.65361739 26.112,3.78893043 26.4448525,4.05947391 C26.776918,4.3301 26.9767869,4.79593043 27.044459,5.45696522 L26.2756721,5.45696522 C26.228459,5.15255217 26.1222295,4.89968696 25.954623,4.69828696 C25.7878033,4.49688696 25.5202623,4.39618696 25.1512131,4.39618696 C24.6468197,4.39618696 24.2872131,4.65450435 24.0700328,5.17105652 C23.9299672,5.5062 23.8591475,5.91973913 23.8591475,6.41167391 C23.8591475,6.90674783 23.959082,7.32334348 24.1581639,7.66154348 C24.3572459,7.99982609 24.6704262,8.16892609 25.0984918,8.16892609 C25.426623,8.16892609 25.6862951,8.0636 25.8782951,7.85294783 C26.0695082,7.64237826 26.2024918,7.35407391 26.2756721,6.9882 L27.044459,6.9882 C26.9563279,7.64312174 26.7367869,8.12200435 26.3850492,8.42484783 C26.0340984,8.72777391 25.5847869,8.87919565 25.0363279,8.87919565 C24.4217705,8.87919565 23.9307541,8.64318261 23.5648525,8.17123913 C23.1989508,7.69921304 23.0156066,7.10963478 23.0156066,6.40242174 C23.0156066,5.53536087 23.2162623,4.86044783 23.6175738,4.37776522 C24.0188852,3.895 24.5303607,3.65361739 25.1512131,3.65361739 Z" id="Path" fill="#000000" mask="url(#mask-8)"></path>
            </g>
            <g id="Clipped">
                <mask id="mask-10" fill="white">
                    <use xlink:href="#path-9"></use>
                </mask>
                <g id="Rectangle"></g>
                <path d="M29.7025574,8.20114348 C30.226623,8.20114348 30.5862295,7.99288696 30.7805902,7.5762087 C30.9757377,7.15961304 31.0733115,6.69609565 31.0733115,6.18565652 C31.0733115,5.72445217 31.0024918,5.34932609 30.8624262,5.06036087 C30.6397377,4.60526957 30.2557377,4.37776522 29.7112131,4.37776522 C29.2280656,4.37776522 28.8763279,4.57148261 28.6567869,4.95883478 C28.4372459,5.34626957 28.327082,5.81366957 28.327082,6.36095217 C28.327082,6.88675652 28.4372459,7.32491304 28.6567869,7.67542174 C28.8763279,8.02593043 29.224918,8.20114348 29.7025574,8.20114348 Z M29.7332459,3.65361739 C30.3391475,3.65361739 30.8521967,3.86583913 31.2708197,4.29011739 C31.6894426,4.71439565 31.8987541,5.33858696 31.8987541,6.1626087 C31.8987541,6.95895652 31.714623,7.61701739 31.3455738,8.13662609 C30.9765246,8.65623478 30.4036721,8.91603913 29.6278033,8.91603913 C28.9801967,8.91603913 28.4663607,8.68622174 28.0855082,8.22658696 C27.7046557,7.76686957 27.5142295,7.14961739 27.5142295,6.37483043 C27.5142295,5.54461304 27.7148852,4.88357826 28.1161967,4.39156087 C28.5175082,3.89962609 29.0565246,3.65361739 29.7332459,3.65361739 Z" id="Shape" fill="#000000" fill-rule="nonzero" mask="url(#mask-10)"></path>
            </g>
            <g id="Clipped">
                <mask id="mask-12" fill="white">
                    <use xlink:href="#path-11"></use>
                </mask>
                <g id="Rectangle"></g>
                <path d="M32.839082,3.79661304 L33.5905574,3.79661304 L33.5905574,4.49763043 C33.8132459,4.20866522 34.0485246,4.00106957 34.2979672,3.8750087 C34.546623,3.74894783 34.8236066,3.68591739 35.1281311,3.68591739 C35.7954098,3.68591739 36.247082,3.93035652 36.4807869,4.41923478 C36.6098361,4.68672174 36.6743607,5.06953043 36.6743607,5.56766087 L36.6743607,8.7362 L35.8701639,8.7362 L35.8701639,5.6230087 C35.8701639,5.32165217 35.8276721,5.07878261 35.7426885,4.89431739 C35.602623,4.58684783 35.3476721,4.43311304 34.978623,4.43311304 C34.7913443,4.43311304 34.6371148,4.45310435 34.5175082,4.49308696 C34.3003279,4.56066087 34.1099016,4.69597391 33.9462295,4.89894348 C33.8140328,5.06184783 33.7290492,5.23020435 33.688918,5.40393043 C33.6495738,5.57765652 33.6299016,5.82597826 33.6299016,6.14881304 L33.6299016,8.7362 L32.839082,8.7362 L32.839082,3.79661304 Z" id="Path" fill="#000000" mask="url(#mask-12)"></path>
            </g>
            <g id="Clipped">
                <mask id="mask-14" fill="white">
                    <use xlink:href="#path-13"></use>
                </mask>
                <g id="Rectangle"></g>
                <path d="M38.3441311,6.32402609 C38.3441311,6.85288696 38.4503607,7.29566957 38.6643934,7.65237391 C38.8784262,8.00899565 39.2207213,8.18734783 39.6928525,8.18734783 C40.0587541,8.18734783 40.3593443,8.02204783 40.5954098,7.69153043 C40.8314754,7.36101304 40.9487213,6.88675652 40.9487213,6.26867826 C40.9487213,5.64456957 40.827541,5.18253913 40.5843934,4.88275217 C40.3412459,4.58296522 40.0414426,4.43311304 39.6834098,4.43311304 C39.2852459,4.43311304 38.962623,4.59296087 38.7147541,4.91273913 C38.4676721,5.23251739 38.3441311,5.70297391 38.3441311,6.32402609 Z M39.5346885,3.70896522 C39.8942951,3.70896522 40.196459,3.78893043 40.4396066,3.94886087 C40.5796721,4.04105217 40.7394098,4.20246957 40.9180328,4.43311304 L40.9180328,1.93791739 L41.6781639,1.93791739 L41.6781639,8.7362 L40.9668197,8.7362 L40.9668197,8.04897826 C40.7819016,8.3533913 40.5639344,8.57321304 40.3121311,8.70852609 C40.0603279,8.84383913 39.771541,8.91141304 39.4465574,8.91141304 C38.9224918,8.91141304 38.468459,8.6801087 38.084459,8.21733478 C37.7012459,7.75456087 37.5092459,7.13887826 37.5092459,6.37020435 C37.5092459,5.65068261 37.6839344,5.02731739 38.0340984,4.49994348 C38.3842623,3.97265217 38.8839344,3.70896522 39.5346885,3.70896522 Z" id="Shape" fill="#000000" fill-rule="nonzero" mask="url(#mask-14)"></path>
            </g>
        </g>
        <g id="Group" transform="translate(132.000000, 10.000000)">
            <g id="Clipped">
                <mask id="mask-16" fill="white">
                    <use xlink:href="#path-15"></use>
                </mask>
                <g id="Rectangle"></g>
                <path d="M6.72629508,4.11674583 L6.72629508,3.50684583 C7.29757377,3.45079583 7.6957377,3.3573 7.92157377,3.22612083 C8.14740984,3.09502083 8.31580328,2.784925 8.4267541,2.29575417 L9.0507541,2.29575417 L9.0507541,8.59860833 L8.20721311,8.59860833 L8.20721311,4.11674583 L6.72629508,4.11674583 Z" id="Path" fill="#000000" mask="url(#mask-16)"></path>
            </g>
            <g id="Clipped">
                <mask id="mask-18" fill="white">
                    <use xlink:href="#path-17"></use>
                </mask>
                <g id="Rectangle"></g>
                <path d="M14.4188852,7.11352083 C14.4424918,7.37865 14.5085902,7.58202917 14.6171803,7.72342083 C14.8162623,7.9797625 15.1617049,8.10793333 15.6535082,8.10793333 C15.9462295,8.10793333 16.2043279,8.0438875 16.4270164,7.91571667 C16.6497049,7.78754583 16.7606557,7.58939167 16.7606557,7.32125417 C16.7606557,7.117875 16.6717377,6.96318333 16.4931148,6.8571 C16.3782295,6.7922625 16.1531803,6.71713333 15.8163934,6.6317125 L15.1876721,6.4725875 C14.7863607,6.37244167 14.4912787,6.26042083 14.3008525,6.13668333 C13.960918,5.9215875 13.7909508,5.624 13.7909508,5.24384167 C13.7909508,4.79599583 13.9514754,4.43349167 14.2717377,4.15656667 C14.5927869,3.8795625 15.024,3.7411 15.565377,3.7411 C16.2743607,3.7411 16.7858361,3.95025833 17.0990164,4.36873333 C17.2949508,4.6338625 17.3901639,4.91973333 17.3846557,5.2261875 L16.6379016,5.2261875 C16.6229508,5.0464 16.56,4.88292083 16.4490492,4.73559167 C16.2672787,4.52635417 15.9525246,4.421775 15.504,4.421775 C15.2057705,4.421775 14.9791475,4.47917083 14.8257049,4.59412083 C14.6714754,4.70907083 14.5951475,4.86075417 14.5951475,5.04940833 C14.5951475,5.2556375 14.6958689,5.42062083 14.8980984,5.5444375 C15.0153443,5.6180625 15.1876721,5.6829 15.4166557,5.73887083 L15.9391475,5.86704167 C16.5072787,6.00558333 16.8881311,6.1396125 17.0817049,6.2692875 C17.3885902,6.4725875 17.5428197,6.7922625 17.5428197,7.22839167 C17.5428197,7.64979583 17.3838689,8.01364583 17.0659672,8.3201 C16.7480656,8.62655417 16.2641311,8.77982083 15.6141639,8.77982083 C14.9138361,8.77982083 14.4180984,8.61998333 14.1269508,8.30022917 C13.8358033,7.98055417 13.6792131,7.58495833 13.6587541,7.11352083 L14.4188852,7.11352083 Z" id="Path" fill="#000000" mask="url(#mask-18)"></path>
            </g>
            <g id="Clipped">
                <mask id="mask-20" fill="white">
                    <use xlink:href="#path-19"></use>
                </mask>
                <g id="Rectangle"></g>
                <path d="M20.407082,3.75875417 C20.7407213,3.75875417 21.064918,3.83760417 21.3780984,3.995225 C21.6912787,4.15284583 21.9304918,4.3569375 22.0941639,4.60734167 C22.2523279,4.84602917 22.3577705,5.1245375 22.4104918,5.44270833 C22.456918,5.6608125 22.4805246,6.0085125 22.4805246,6.4858875 L19.0323934,6.4858875 C19.0465574,6.96619167 19.159082,7.35141667 19.3699672,7.64164167 C19.5808525,7.93194583 19.9074098,8.07705833 20.3496393,8.07705833 C20.7627541,8.07705833 21.092459,7.94002083 21.3387541,7.66594583 C21.4788197,7.50682083 21.5787541,7.32267917 21.6369836,7.11352083 L22.4152131,7.11352083 C22.3939672,7.28737083 22.3262951,7.48109167 22.210623,7.69468333 C22.0949508,7.90835417 21.9651148,8.08291667 21.8219016,8.21845 C21.5819016,8.45420833 21.284459,8.61333333 20.9295738,8.695825 C20.7399344,8.74292917 20.5243279,8.76652083 20.2843279,8.76652083 C19.6980984,8.76652083 19.2015738,8.5521375 18.7947541,8.12345 C18.3879344,7.69468333 18.1841311,7.0943625 18.1841311,6.32232917 C18.1841311,5.56209167 18.3895082,4.94475 18.7994754,4.47038333 C19.2094426,3.9959375 19.7453115,3.75875417 20.407082,3.75875417 Z M21.6676721,5.85382083 C21.6354098,5.50905 21.5614426,5.23355 21.4441967,5.02724167 C21.2270164,4.64423333 20.8658361,4.45265 20.359082,4.45265 C19.995541,4.45265 19.6910164,4.58454167 19.4447213,4.84824583 C19.1992131,5.11195 19.0685902,5.44714167 19.0536393,5.85382083 L21.6676721,5.85382083 Z" id="Shape" fill="#000000" fill-rule="nonzero" mask="url(#mask-20)"></path>
            </g>
            <g id="Clipped">
                <mask id="mask-22" fill="white">
                    <use xlink:href="#path-21"></use>
                </mask>
                <g id="Rectangle"></g>
                <path d="M25.2660984,3.7278 C25.796459,3.7278 26.2276721,3.857475 26.5597377,4.11674583 C26.8925902,4.37609583 27.092459,4.82251667 27.1593443,5.45600833 L26.3905574,5.45600833 C26.3441311,5.16427917 26.2371148,4.92195 26.0702951,4.72894167 C25.9026885,4.53593333 25.6351475,4.43942917 25.2660984,4.43942917 C24.7624918,4.43942917 24.4020984,4.68690417 24.184918,5.18193333 C24.0448525,5.50319167 23.9748197,5.8995 23.9748197,6.3709375 C23.9748197,6.84530417 24.0739672,7.24462083 24.2730492,7.56872917 C24.4721311,7.8928375 24.7860984,8.05489167 25.213377,8.05489167 C25.5415082,8.05489167 25.8011803,7.95403333 25.9931803,7.75215833 C26.1851803,7.55028333 26.317377,7.27407083 26.3905574,6.92344167 L27.1593443,6.92344167 C27.072,7.551075 26.8516721,8.01000417 26.5007213,8.30022917 C26.1489836,8.59045417 25.6996721,8.73556667 25.152,8.73556667 C24.5366557,8.73556667 24.0464262,8.50946667 23.6797377,8.05710833 C23.3138361,7.60482917 23.1312787,7.03981667 23.1312787,6.36207083 C23.1312787,5.5311375 23.3319344,4.88434583 23.732459,4.421775 C24.1337705,3.959125 24.6452459,3.7278 25.2660984,3.7278 Z" id="Path" fill="#000000" mask="url(#mask-22)"></path>
            </g>
            <g id="Clipped">
                <mask id="mask-24" fill="white">
                    <use xlink:href="#path-23"></use>
                </mask>
                <g id="Rectangle"></g>
                <path d="M29.8174426,8.08584583 C30.3415082,8.08584583 30.7011148,7.88626667 30.8962623,7.48695 C31.090623,7.0877125 31.1881967,6.64350833 31.1881967,6.1543375 C31.1881967,5.71235 31.1181639,5.35285417 30.9773115,5.07592917 C30.754623,4.6398 30.370623,4.421775 29.8260984,4.421775 C29.3429508,4.421775 28.9912131,4.60734167 28.7716721,4.97863333 C28.5521311,5.349925 28.4427541,5.79785 28.4427541,6.32232917 C28.4427541,6.826225 28.5521311,7.24604583 28.7716721,7.58202917 C28.9912131,7.91793333 29.3398033,8.08584583 29.8174426,8.08584583 Z M29.8481311,3.7278 C30.4548197,3.7278 30.967082,3.9311 31.3857049,4.33777917 C31.8043279,4.74437917 32.0144262,5.3425625 32.0144262,6.13225 C32.0144262,6.89541667 31.8295082,7.52597917 31.460459,8.02401667 C31.0914098,8.521975 30.5185574,8.77095417 29.7426885,8.77095417 C29.0958689,8.77095417 28.5812459,8.5507125 28.2003934,8.11015 C27.8203279,7.66966667 27.6299016,7.07813333 27.6299016,6.33555 C27.6299016,5.54000417 27.8305574,4.90643333 28.2318689,4.43499583 C28.6323934,3.96355833 29.1714098,3.7278 29.8481311,3.7278 Z" id="Shape" fill="#000000" fill-rule="nonzero" mask="url(#mask-24)"></path>
            </g>
            <g id="Clipped">
                <mask id="mask-26" fill="white">
                    <use xlink:href="#path-25"></use>
                </mask>
                <g id="Rectangle"></g>
                <path d="M32.9539672,3.8648375 L33.7054426,3.8648375 L33.7054426,4.53664583 C33.9281311,4.25964167 34.1641967,4.060775 34.4128525,3.93996667 C34.6615082,3.81915833 34.9384918,3.75875417 35.2430164,3.75875417 C35.911082,3.75875417 36.3619672,3.99300833 36.596459,4.46151667 C36.7247213,4.71785833 36.7892459,5.08471667 36.7892459,5.56209167 L36.7892459,8.59860833 L35.9858361,8.59860833 L35.9858361,5.61513333 C35.9858361,5.32633333 35.9433443,5.09358333 35.8583607,4.91680417 C35.7175082,4.62214583 35.4625574,4.47481667 35.0935082,4.47481667 C34.9062295,4.47481667 34.7527869,4.49389583 34.6323934,4.5322125 C34.416,4.59705 34.2255738,4.726725 34.0611148,4.92115833 C33.9297049,5.07735417 33.8439344,5.23869583 33.8045902,5.40518333 C33.764459,5.57167083 33.7447869,5.80956667 33.7447869,6.11902917 L33.7447869,8.59860833 L32.9539672,8.59860833 L32.9539672,3.8648375 Z" id="Path" fill="#000000" mask="url(#mask-26)"></path>
            </g>
            <g id="Clipped">
                <mask id="mask-28" fill="white">
                    <use xlink:href="#path-27"></use>
                </mask>
                <g id="Rectangle"></g>
                <path d="M38.4590164,6.28694167 C38.4590164,6.79376667 38.5660328,7.2181 38.7792787,7.5598625 C38.9933115,7.90170417 39.3363934,8.072625 39.8077377,8.072625 C40.1736393,8.072625 40.4750164,7.9142125 40.7102951,7.59746667 C40.9463607,7.28072083 41.0643934,6.826225 41.0643934,6.2339 C41.0643934,5.63571667 40.9424262,5.19301667 40.6992787,4.90572083 C40.4561311,4.618425 40.1563279,4.47481667 39.799082,4.47481667 C39.400918,4.47481667 39.0775082,4.62800417 38.8304262,4.93445833 C38.5825574,5.2409125 38.4590164,5.69176667 38.4590164,6.28694167 Z M39.6495738,3.78084167 C40.0099672,3.78084167 40.3113443,3.857475 40.5544918,4.0106625 C40.6953443,4.09909167 40.855082,4.25378333 41.0337049,4.47481667 L41.0337049,2.0835875 L41.7930492,2.0835875 L41.7930492,8.59860833 L41.0817049,8.59860833 L41.0817049,7.94002083 C40.8975738,8.23175 40.6788197,8.4424125 40.4270164,8.5720875 C40.1752131,8.70168333 39.8864262,8.76652083 39.5614426,8.76652083 C39.037377,8.76652083 38.5833443,8.544775 38.2001311,8.1013625 C37.8161311,7.65787083 37.6241311,7.06784167 37.6241311,6.33111667 C37.6241311,5.64165417 37.7996066,5.04418333 38.1489836,4.5388625 C38.4991475,4.03354167 38.9996066,3.78084167 39.6495738,3.78084167 Z" id="Shape" fill="#000000" fill-rule="nonzero" mask="url(#mask-28)"></path>
            </g>
        </g>
        <g id="Group" transform="translate(39.000000, 10.000000)">
            <g id="Clipped">
                <mask id="mask-30" fill="white">
                    <use xlink:href="#path-29"></use>
                </mask>
                <g id="Rectangle"></g>
                <path d="M7.00110968,4.2334375 L7.00110968,3.62345833 C7.56301935,3.5674875 7.95491613,3.4739125 8.1768,3.3428125 C8.39868387,3.2117125 8.56436129,2.9015375 8.67383226,2.41244583 L9.2876129,2.41244583 L9.2876129,8.71522083 L8.45775484,8.71522083 L8.45775484,4.2334375 L7.00110968,4.2334375 Z" id="Path" fill="#000000" mask="url(#mask-30)"></path>
            </g>
            <g id="Clipped">
                <mask id="mask-32" fill="white">
                    <use xlink:href="#path-31"></use>
                </mask>
                <g id="Rectangle"></g>
                <path d="M14.5695484,7.23013333 C14.5926194,7.49534167 14.6574968,7.69864167 14.7641032,7.8401125 C14.9600516,8.09645417 15.3000774,8.224625 15.7841806,8.224625 C16.0723355,8.224625 16.3258839,8.1605 16.5449032,8.03232917 C16.7639226,7.90415833 16.8733935,7.70600417 16.8733935,7.43786667 C16.8733935,7.23456667 16.7855226,7.079875 16.6097806,6.97379167 C16.4973677,6.90895417 16.2754839,6.833825 15.944129,6.74840417 L15.3260129,6.58927917 C14.9312516,6.48905417 14.6401548,6.3771125 14.4528774,6.253375 C14.1185806,6.0382 13.9515097,5.7406125 13.9515097,5.36053333 C13.9515097,4.91260833 14.1092129,4.55018333 14.4247742,4.27317917 C14.7403355,3.99625417 15.1645935,3.8577125 15.6977032,3.8577125 C16.3950968,3.8577125 16.8979355,4.06695 17.2062194,4.48534583 C17.3993032,4.75055417 17.4929806,5.03634583 17.4871742,5.3428 L16.7523871,5.3428 C16.7379871,5.16309167 16.6760516,4.99953333 16.5665032,4.85220417 C16.3878968,4.64296667 16.0780645,4.5383875 15.6372387,4.5383875 C15.3432774,4.5383875 15.1206968,4.5958625 14.9694194,4.7108125 C14.8181419,4.82568333 14.7425032,4.97744583 14.7425032,5.16602083 C14.7425032,5.37232917 14.8419097,5.5373125 15.0407226,5.66105 C15.156,5.73475417 15.3260129,5.79959167 15.5507613,5.8555625 L16.0651355,5.98373333 C16.6241806,6.12219583 16.9987355,6.25630417 17.1889548,6.3859 C17.4915097,6.58927917 17.6427871,6.90895417 17.6427871,7.34508333 C17.6427871,7.76640833 17.4864774,8.1303375 17.1737806,8.43679167 C16.8611613,8.74324583 16.3849548,8.89643333 15.7452387,8.89643333 C15.0565935,8.89643333 14.5688516,8.73659583 14.2821677,8.41692083 C13.9954065,8.09716667 13.8419613,7.70157083 13.8218323,7.23013333 L14.5695484,7.23013333 Z" id="Path" fill="#000000" mask="url(#mask-32)"></path>
            </g>
            <g id="Clipped">
                <mask id="mask-34" fill="white">
                    <use xlink:href="#path-33"></use>
                </mask>
                <g id="Rectangle"></g>
                <path d="M20.4610065,3.87544583 C20.7894968,3.87544583 21.1079226,3.95421667 21.4162065,4.11191667 C21.7245677,4.2695375 21.9593806,4.47355 22.1208,4.72403333 C22.2764129,4.96272083 22.3801548,5.24115 22.4320258,5.5594 C22.4780903,5.777425 22.5011613,6.125125 22.5011613,6.6025 L19.1081032,6.6025 C19.1225032,7.08280417 19.2334452,7.46810833 19.440929,7.75833333 C19.6484129,8.04855833 19.9697032,8.19367083 20.4048,8.19367083 C20.8110968,8.19367083 21.1352516,8.05663333 21.3773419,7.7826375 C21.5156903,7.6235125 21.6136258,7.43937083 21.6712258,7.23013333 L22.4362839,7.23013333 C22.4161548,7.40398333 22.3491871,7.59770417 22.2353032,7.811375 C22.1214968,8.02496667 21.9939871,8.19960833 21.8527742,8.33514167 C21.6164903,8.57082083 21.324,8.72994583 20.9753806,8.81251667 C20.7880258,8.85962083 20.5762839,8.8832125 20.34,8.8832125 C19.7636129,8.8832125 19.2752516,8.66882917 18.8746839,8.2400625 C18.4741161,7.811375 18.2738323,7.210975 18.2738323,6.43894167 C18.2738323,5.67878333 18.4755871,5.06144167 18.8790194,4.58699583 C19.2824516,4.11262917 19.8097548,3.87544583 20.4610065,3.87544583 Z M21.7014968,5.97043333 C21.6698323,5.62574167 21.5963613,5.3501625 21.4810839,5.14393333 C21.267871,4.76084583 20.9119742,4.56934167 20.413471,4.56934167 C20.0561032,4.56934167 19.7564129,4.70123333 19.5144,4.9649375 C19.2723097,5.22864167 19.1441032,5.56383333 19.1297032,5.97043333 L21.7014968,5.97043333 Z" id="Shape" fill="#000000" fill-rule="nonzero" mask="url(#mask-34)"></path>
            </g>
            <g id="Clipped">
                <mask id="mask-36" fill="white">
                    <use xlink:href="#path-35"></use>
                </mask>
                <g id="Rectangle"></g>
                <path d="M25.2415742,3.84449167 C25.7631484,3.84449167 26.1874065,3.9740875 26.5145032,4.2334375 C26.8415226,4.49270833 27.0382452,4.93912917 27.1045161,5.5727 L26.3480516,5.5727 C26.3019871,5.28097083 26.1967742,5.0385625 26.0325677,4.84555417 C25.8682839,4.65254583 25.6045935,4.55604167 25.2415742,4.55604167 C24.7459355,4.55604167 24.3915097,4.80359583 24.1782194,5.298625 C24.0399484,5.61980417 23.9707355,6.0161125 23.9707355,6.48762917 C23.9707355,6.96199583 24.0687484,7.36123333 24.2646968,7.68542083 C24.4606452,8.00952917 24.768929,8.17158333 25.1897032,8.17158333 C25.5123871,8.17158333 25.7681806,8.07064583 25.956929,7.86885 C26.1456774,7.666975 26.2760516,7.3907625 26.3480516,7.04005417 L27.1045161,7.04005417 C27.0180387,7.6676875 26.8019613,8.12661667 26.456129,8.41692083 C26.1103742,8.70714583 25.668,8.85225833 25.1291613,8.85225833 C24.5240516,8.85225833 24.0413419,8.62607917 23.6811871,8.1738 C23.3209548,7.72152083 23.1408774,7.15650833 23.1408774,6.4787625 C23.1408774,5.64782917 23.3382194,5.0010375 23.7330581,4.5383875 C24.1278194,4.07581667 24.6306581,3.84449167 25.2415742,3.84449167 Z" id="Path" fill="#000000" mask="url(#mask-36)"></path>
            </g>
            <g id="Clipped">
                <mask id="mask-38" fill="white">
                    <use xlink:href="#path-37"></use>
                </mask>
                <g id="Rectangle"></g>
                <path d="M29.7197419,8.2025375 C30.2353548,8.2025375 30.5891613,8.00287917 30.7803871,7.60364167 C30.9723871,7.204325 31.0683871,6.76012083 31.0683871,6.27102917 C31.0683871,5.82904167 30.9987097,5.46954583 30.8609032,5.19254167 C30.6418065,4.7564125 30.264,4.5383875 29.7282581,4.5383875 C29.2527484,4.5383875 28.9069161,4.72403333 28.6908387,5.095325 C28.4746839,5.46661667 28.3666065,5.9144625 28.3666065,6.43894167 C28.3666065,6.9428375 28.4746839,7.3627375 28.6908387,7.69864167 C28.9069161,8.03454583 29.2498065,8.2025375 29.7197419,8.2025375 Z M29.7499355,3.84449167 C30.3460645,3.84449167 30.8508387,4.04779167 31.2627097,4.45439167 C31.6745806,4.86107083 31.8805161,5.45925417 31.8805161,6.24894167 C31.8805161,7.01210833 31.6993548,7.64267083 31.3362581,8.14062917 C30.9731613,8.63866667 30.4095484,8.88764583 29.6461935,8.88764583 C29.0091871,8.88764583 28.5034839,8.667325 28.128929,8.22684167 C27.7542968,7.78627917 27.5670194,7.19474583 27.5670194,6.45224167 C27.5670194,5.65661667 27.7643613,5.023125 28.1591226,4.5516875 C28.5539613,4.08017083 29.084129,3.84449167 29.7499355,3.84449167 Z" id="Shape" fill="#000000" fill-rule="nonzero" mask="url(#mask-38)"></path>
            </g>
            <g id="Clipped">
                <mask id="mask-40" fill="white">
                    <use xlink:href="#path-39"></use>
                </mask>
                <g id="Rectangle"></g>
                <path d="M32.8056774,3.98145 L33.5450323,3.98145 L33.5450323,4.6533375 C33.764129,4.37633333 33.9956129,4.17746667 34.2410323,4.05665833 C34.4856774,3.93585 34.7581935,3.87544583 35.0578065,3.87544583 C35.7143226,3.87544583 36.1587097,4.1097 36.3886452,4.57820833 C36.5156129,4.83455 36.5790968,5.20140833 36.5790968,5.67878333 L36.5790968,8.71522083 L35.787871,8.71522083 L35.787871,5.73174583 C35.787871,5.443025 35.7460645,5.21019583 35.6624516,5.03341667 C35.5246452,4.73875833 35.2738065,4.59142917 34.9107097,4.59142917 C34.7264516,4.59142917 34.5747097,4.6105875 34.4570323,4.64890417 C34.2433548,4.71374167 34.056,4.8433375 33.8949677,5.03785 C33.7649032,5.19404583 33.6812903,5.3553875 33.6418065,5.521875 C33.6030968,5.68828333 33.5837419,5.92625833 33.5837419,6.23564167 L33.5837419,8.71522083 L32.8056774,8.71522083 L32.8056774,3.98145 Z" id="Path" fill="#000000" mask="url(#mask-40)"></path>
            </g>
            <g id="Clipped">
                <mask id="mask-42" fill="white">
                    <use xlink:href="#path-41"></use>
                </mask>
                <g id="Rectangle"></g>
                <path d="M38.2219355,6.40363333 C38.2219355,6.91045833 38.3272258,7.3347125 38.5370323,7.67655417 C38.7476129,8.01839583 39.0843871,8.1892375 39.5489032,8.1892375 C39.9089032,8.1892375 40.2046452,8.03090417 40.4369032,7.71415833 C40.6691613,7.39733333 40.7845161,6.9428375 40.7845161,6.35059167 C40.7845161,5.75240833 40.6652903,5.30970833 40.4260645,5.0224125 C40.1868387,4.73511667 39.891871,4.59142917 39.5396129,4.59142917 C39.147871,4.59142917 38.8304516,4.74469583 38.5865806,5.05115 C38.3434839,5.357525 38.2219355,5.80837917 38.2219355,6.40363333 Z M39.3932903,3.89753333 C39.7470968,3.89753333 40.0443871,3.9740875 40.2836129,4.12735417 C40.4214194,4.21578333 40.5785806,4.370475 40.7543226,4.59142917 L40.7543226,2.20027917 L41.5021935,2.20027917 L41.5021935,8.71522083 L40.8023226,8.71522083 L40.8023226,8.05663333 C40.6203871,8.3483625 40.4059355,8.55910417 40.1581935,8.6887 C39.9104516,8.818375 39.6263226,8.8832125 39.3065806,8.8832125 C38.7909677,8.8832125 38.3442581,8.66146667 37.9664516,8.217975 C37.5894194,7.7745625 37.4005161,7.18445417 37.4005161,6.44780833 C37.4005161,5.75826667 37.5723871,5.160875 37.9169032,4.65555417 C38.2614194,4.15015417 38.7530323,3.89753333 39.3932903,3.89753333 Z" id="Shape" fill="#000000" fill-rule="nonzero" mask="url(#mask-42)"></path>
            </g>
        </g>
        <g id="Group" transform="translate(324.000000, 11.000000)">
            <g id="Clipped">
                <mask id="mask-44" fill="white">
                    <use xlink:href="#path-43"></use>
                </mask>
                <g id="Rectangle"></g>
                <path d="M6.74090323,4.01960833 L6.74090323,3.40970833 C7.30296774,3.3537375 7.69470968,3.2601625 7.91612903,3.12898333 C8.13832258,2.99788333 8.304,2.6877875 8.41316129,2.19861667 L9.02709677,2.19861667 L9.02709677,8.50147083 L8.19716129,8.50147083 L8.19716129,4.01960833 L6.74090323,4.01960833 Z" id="Path" fill="#000000" mask="url(#mask-44)"></path>
            </g>
            <g id="Clipped">
                <mask id="mask-46" fill="white">
                    <use xlink:href="#path-45"></use>
                </mask>
                <g id="Rectangle"></g>
                <path d="M14.3094194,7.01638333 C14.3326452,7.2815125 14.3969032,7.48489167 14.5037419,7.62628333 C14.6996129,7.882625 15.0394839,8.010875 15.524129,8.010875 C15.812129,8.010875 16.0652903,7.94675 16.2843871,7.81857917 C16.5034839,7.69040833 16.6134194,7.49225417 16.6134194,7.22411667 C16.6134194,7.0207375 16.5251613,6.86604583 16.3494194,6.7599625 C16.2371613,6.69520417 16.0149677,6.61999583 15.6836129,6.534575 L15.0658065,6.37545 C14.6709677,6.27530417 14.379871,6.16328333 14.1925161,6.03954583 C13.8580645,5.82445 13.6908387,5.5268625 13.6908387,5.14670417 C13.6908387,4.69885833 13.8487742,4.33643333 14.1646452,4.05942917 C14.4797419,3.782425 14.904,3.6439625 15.4374194,3.6439625 C16.1349677,3.6439625 16.6374194,3.85312083 16.9455484,4.27159583 C17.1390968,4.53680417 17.2327742,4.82259583 17.2265806,5.12905 L16.491871,5.12905 C16.4779355,4.9492625 16.416,4.78578333 16.3060645,4.63845417 C16.1272258,4.42921667 15.8175484,4.3246375 15.3770323,4.3246375 C15.0828387,4.3246375 14.8606452,4.38203333 14.7089032,4.49698333 C14.5579355,4.61193333 14.4820645,4.76369583 14.4820645,4.95227083 C14.4820645,5.1585 14.5819355,5.32348333 14.780129,5.4473 C14.8954839,5.520925 15.0658065,5.5857625 15.2903226,5.64173333 L15.8051613,5.76990417 C16.364129,5.90844583 16.7380645,6.042475 16.9285161,6.17215 C17.2312258,6.37545 17.3821935,6.69520417 17.3821935,7.13125417 C17.3821935,7.55265833 17.2258065,7.91650833 16.9138065,8.2229625 C16.6010323,8.52941667 16.1249032,8.68268333 15.4846452,8.68268333 C14.7963871,8.68268333 14.3086452,8.52284583 14.0221935,8.20309167 C13.7349677,7.88341667 13.5816774,7.48782083 13.5615484,7.01638333 L14.3094194,7.01638333 Z" id="Path" fill="#000000" mask="url(#mask-46)"></path>
            </g>
            <g id="Clipped">
                <mask id="mask-48" fill="white">
                    <use xlink:href="#path-47"></use>
                </mask>
                <g id="Rectangle"></g>
                <path d="M20.2010323,3.66161667 C20.5292903,3.66161667 20.8474839,3.74046667 21.1556129,3.8980875 C21.4645161,4.05570833 21.6990968,4.2598 21.860129,4.51028333 C22.0157419,4.74889167 22.1194839,5.0274 22.1713548,5.34565 C22.2178065,5.563675 22.2410323,5.911375 22.2410323,6.38875 L18.8477419,6.38875 C18.8624516,6.86905417 18.9731613,7.25427917 19.1806452,7.54450417 C19.388129,7.83480833 19.7094194,7.97992083 20.1445161,7.97992083 C20.5509677,7.97992083 20.8745806,7.84288333 21.1169032,7.56880833 C21.2554839,7.4097625 21.3530323,7.22554167 21.4110968,7.01638333 L22.176,7.01638333 C22.155871,7.19023333 22.0885161,7.38395417 21.9747097,7.59754583 C21.8609032,7.81121667 21.7339355,7.98577917 21.5922581,8.1213125 C21.356129,8.35707083 21.0634839,8.51619583 20.7150968,8.5986875 C20.5277419,8.64587083 20.3156129,8.66938333 20.0794839,8.66938333 C19.5034839,8.66938333 19.0149677,8.45507917 18.6147097,8.0263125 C18.2136774,7.59754583 18.0131613,6.997225 18.0131613,6.22519167 C18.0131613,5.46495417 18.2152258,4.8476125 18.6185806,4.37324583 C19.0219355,3.8988 19.5491613,3.66161667 20.2010323,3.66161667 Z M21.4412903,5.75668333 C21.4095484,5.4119125 21.336,5.1364125 21.2206452,4.93010417 C21.0077419,4.54709583 20.6516129,4.3555125 20.1530323,4.3555125 C19.796129,4.3555125 19.4957419,4.48740417 19.2541935,4.75110833 C19.011871,5.01489167 18.884129,5.35000417 18.8694194,5.75668333 L21.4412903,5.75668333 Z" id="Shape" fill="#000000" fill-rule="nonzero" mask="url(#mask-48)"></path>
            </g>
            <g id="Clipped">
                <mask id="mask-50" fill="white">
                    <use xlink:href="#path-49"></use>
                </mask>
                <g id="Rectangle"></g>
                <path d="M24.9809032,3.6306625 C25.5027097,3.6306625 25.9269677,3.7603375 26.2544516,4.01960833 C26.5811613,4.27895833 26.7778065,4.72537917 26.8443871,5.35887083 L26.088,5.35887083 C26.0415484,5.06714167 25.9362581,4.8248125 25.772129,4.63180417 C25.608,4.43879583 25.344,4.34229167 24.9809032,4.34229167 C24.4854194,4.34229167 24.1308387,4.58984583 23.9179355,5.084875 C23.7793548,5.40605417 23.7104516,5.8023625 23.7104516,6.2738 C23.7104516,6.74824583 23.8087742,7.14748333 24.0046452,7.47159167 C24.2005161,7.7957 24.5086452,7.95783333 24.9290323,7.95783333 C25.251871,7.95783333 25.508129,7.85689583 25.6962581,7.65502083 C25.8851613,7.453225 26.016,7.17693333 26.088,6.82630417 L26.8443871,6.82630417 C26.7576774,7.4539375 26.5416774,7.91286667 26.1956129,8.20309167 C25.8503226,8.49331667 25.4074839,8.63850833 24.8686452,8.63850833 C24.264,8.63850833 23.7809032,8.41232917 23.4209032,7.95997083 C23.0609032,7.50769167 22.8805161,6.94267917 22.8805161,6.26493333 C22.8805161,5.434 23.0779355,4.78720833 23.4727742,4.3246375 C23.8676129,3.8619875 24.3700645,3.6306625 24.9809032,3.6306625 Z" id="Path" fill="#000000" mask="url(#mask-50)"></path>
            </g>
            <g id="Clipped">
                <mask id="mask-52" fill="white">
                    <use xlink:href="#path-51"></use>
                </mask>
                <g id="Rectangle"></g>
                <path d="M29.4588387,7.98870833 C29.9752258,7.98870833 30.3290323,7.78912917 30.5202581,7.3898125 C30.7122581,6.990575 30.8074839,6.54637083 30.8074839,6.0572 C30.8074839,5.6152125 30.7385806,5.25571667 30.6,4.97879167 C30.3816774,4.5426625 30.003871,4.3246375 29.468129,4.3246375 C28.9927742,4.3246375 28.6467097,4.51028333 28.4307097,4.88149583 C28.2147097,5.2527875 28.1063226,5.7007125 28.1063226,6.22519167 C28.1063226,6.7290875 28.2147097,7.1489875 28.4307097,7.48489167 C28.6467097,7.82079583 28.9896774,7.98870833 29.4588387,7.98870833 Z M29.4898065,3.6306625 C30.0859355,3.6306625 30.5899355,3.8339625 31.0025806,4.24064167 C31.4144516,4.64724167 31.6203871,5.245425 31.6203871,6.0351125 C31.6203871,6.79827917 31.4392258,7.42884167 31.076129,7.92687917 C30.7130323,8.4248375 30.1494194,8.67381667 29.3860645,8.67381667 C28.7489032,8.67381667 28.2433548,8.453575 27.8686452,8.0130125 C27.4939355,7.57252917 27.3065806,6.98099583 27.3065806,6.2384125 C27.3065806,5.44286667 27.504,4.80929583 27.8988387,4.33785833 C28.2936774,3.86642083 28.824,3.6306625 29.4898065,3.6306625 Z" id="Shape" fill="#000000" fill-rule="nonzero" mask="url(#mask-52)"></path>
            </g>
            <g id="Clipped">
                <mask id="mask-54" fill="white">
                    <use xlink:href="#path-53"></use>
                </mask>
                <g id="Rectangle"></g>
                <path d="M32.5455484,3.7677 L33.2849032,3.7677 L33.2849032,4.43950833 C33.5032258,4.16258333 33.7354839,3.9636375 33.980129,3.84282917 C34.2255484,3.72202083 34.4972903,3.66161667 34.7976774,3.66161667 C35.4541935,3.66161667 35.8978065,3.89587083 36.1285161,4.36437917 C36.2554839,4.62072083 36.3189677,4.98757917 36.3189677,5.46495417 L36.3189677,8.50147083 L35.5277419,8.50147083 L35.5277419,5.51799583 C35.5277419,5.22919583 35.4859355,4.99644583 35.4023226,4.81966667 C35.2645161,4.52500833 35.0136774,4.37767917 34.6505806,4.37767917 C34.4663226,4.37767917 34.3145806,4.3968375 34.1969032,4.435075 C33.9832258,4.4999125 33.795871,4.6295875 33.6348387,4.8241 C33.5047742,4.98021667 33.4203871,5.14155833 33.3816774,5.30804583 C33.3429677,5.47453333 33.3236129,5.71250833 33.3236129,6.02189167 L33.3236129,8.50147083 L32.5455484,8.50147083 L32.5455484,3.7677 Z" id="Path" fill="#000000" mask="url(#mask-54)"></path>
            </g>
            <g id="Clipped">
                <mask id="mask-56" fill="white">
                    <use xlink:href="#path-55"></use>
                </mask>
                <g id="Rectangle"></g>
                <path d="M37.9610323,6.18980417 C37.9610323,6.69662917 38.0663226,7.1209625 38.2769032,7.46280417 C38.4874839,7.80456667 38.8242581,7.9754875 39.288,7.9754875 C39.6487742,7.9754875 39.9445161,7.817075 40.1767742,7.50032917 C40.4082581,7.18358333 40.5243871,6.7290875 40.5243871,6.1367625 C40.5243871,5.53865833 40.4051613,5.09587917 40.1659355,4.80858333 C39.9267097,4.5212875 39.6309677,4.37767917 39.2794839,4.37767917 C38.8877419,4.37767917 38.5703226,4.53086667 38.3264516,4.83732083 C38.0833548,5.143775 37.9610323,5.59462917 37.9610323,6.18980417 Z M39.1323871,3.68370417 C39.4869677,3.68370417 39.7842581,3.7603375 40.0234839,3.913525 C40.1612903,4.00195417 40.3184516,4.15664583 40.4941935,4.37767917 L40.4941935,1.98645 L41.2420645,1.98645 L41.2420645,8.50147083 L40.5414194,8.50147083 L40.5414194,7.84288333 C40.3602581,8.1346125 40.1458065,8.345275 39.8980645,8.47495 C39.6503226,8.60454583 39.3661935,8.66938333 39.0464516,8.66938333 C38.5300645,8.66938333 38.084129,8.4476375 37.7063226,8.004225 C37.3285161,7.56073333 37.1403871,6.97070417 37.1403871,6.23405833 C37.1403871,5.54451667 37.3122581,4.947125 37.6567742,4.441725 C38.0012903,3.93640417 38.4929032,3.68370417 39.1323871,3.68370417 Z" id="Shape" fill="#000000" fill-rule="nonzero" mask="url(#mask-56)"></path>
            </g>
        </g>
        <g id="Group" transform="translate(417.000000, 11.000000)">
            <g id="Clipped">
                <mask id="mask-58" fill="white">
                    <use xlink:href="#path-57"></use>
                </mask>
                <g id="Rectangle"></g>
                <path d="M6.90503226,3.99870833 L6.90503226,3.38880833 C7.46709677,3.33275833 7.85883871,3.2392625 8.08103226,3.10808333 C8.30245161,2.97698333 8.46812903,2.6668875 8.57806452,2.17771667 L9.192,2.17771667 L9.192,8.48057083 L8.36206452,8.48057083 L8.36206452,3.99870833 L6.90503226,3.99870833 Z" id="Path" fill="#000000" mask="url(#mask-58)"></path>
            </g>
            <g id="Clipped">
                <mask id="mask-60" fill="white">
                    <use xlink:href="#path-59"></use>
                </mask>
                <g id="Rectangle"></g>
                <path d="M14.4735484,6.99540417 C14.4967742,7.2606125 14.5618065,7.46399167 14.667871,7.60538333 C14.8645161,7.861725 15.2043871,7.98989583 15.6882581,7.98989583 C15.9762581,7.98989583 16.2301935,7.92585 16.4492903,7.79767917 C16.6683871,7.66950833 16.7775484,7.47135417 16.7775484,7.20321667 C16.7775484,6.9998375 16.6892903,6.84514583 16.5135484,6.7390625 C16.4012903,6.674225 16.179871,6.59909583 15.8485161,6.513675 L15.2299355,6.35455 C14.8350968,6.25440417 14.544,6.14238333 14.3566452,6.01864583 C14.0229677,5.80355 13.8557419,5.5059625 13.8557419,5.12580417 C13.8557419,4.67795833 14.0136774,4.31545417 14.3287742,4.03852917 C14.6446452,3.761525 15.0689032,3.6230625 15.6015484,3.6230625 C16.2990968,3.6230625 16.8023226,3.83222083 17.1104516,4.25069583 C17.3032258,4.515825 17.3969032,4.80169583 17.3914839,5.10815 L16.6567742,5.10815 C16.6420645,4.9283625 16.580129,4.76488333 16.4709677,4.61755417 C16.292129,4.40831667 15.9824516,4.3037375 15.5411613,4.3037375 C15.2477419,4.3037375 15.0247742,4.36113333 14.8738065,4.47608333 C14.7220645,4.59103333 14.6461935,4.74271667 14.6461935,4.93137083 C14.6461935,5.1376 14.7460645,5.30258333 14.9450323,5.4264 C15.0603871,5.500025 15.2299355,5.5648625 15.4552258,5.62083333 L15.9692903,5.74900417 C16.5282581,5.88754583 16.9029677,6.021575 17.0934194,6.15125 C17.3953548,6.35455 17.5470968,6.674225 17.5470968,7.11035417 C17.5470968,7.53175833 17.3907097,7.89560833 17.0779355,8.2020625 C16.7651613,8.50851667 16.2890323,8.66178333 15.6495484,8.66178333 C14.9605161,8.66178333 14.4727742,8.50186667 14.1863226,8.18219167 C13.899871,7.86251667 13.7458065,7.46692083 13.7256774,6.99540417 L14.4735484,6.99540417 Z" id="Path" fill="#000000" mask="url(#mask-60)"></path>
            </g>
            <g id="Clipped">
                <mask id="mask-62" fill="white">
                    <use xlink:href="#path-61"></use>
                </mask>
                <g id="Rectangle"></g>
                <path d="M20.3651613,3.64071667 C20.6934194,3.64071667 21.0123871,3.71956667 21.3205161,3.8771875 C21.6286452,4.03480833 21.8632258,4.2389 22.0250323,4.48930417 C22.1806452,4.72799167 22.2843871,5.0065 22.3362581,5.32467083 C22.3819355,5.542775 22.4051613,5.890475 22.4051613,6.36785 L19.011871,6.36785 C19.0265806,6.848075 19.1372903,7.23337917 19.3447742,7.52360417 C19.5522581,7.81382917 19.8735484,7.95902083 20.3086452,7.95902083 C20.7150968,7.95902083 21.0394839,7.82198333 21.2818065,7.54790833 C21.4196129,7.38878333 21.5179355,7.20464167 21.5752258,6.99540417 L22.340129,6.99540417 C22.32,7.16933333 22.2534194,7.36305417 22.1396129,7.57664583 C22.0258065,7.79031667 21.8980645,7.96487917 21.7571613,8.1004125 C21.5202581,8.33617083 21.2283871,8.49529583 20.8792258,8.5777875 C20.691871,8.62489167 20.4805161,8.64848333 20.2443871,8.64848333 C19.6676129,8.64848333 19.1790968,8.4341 18.7788387,8.0054125 C18.3785806,7.57664583 18.1780645,6.976325 18.1780645,6.20429167 C18.1780645,5.44405417 18.3793548,4.8267125 18.7827097,4.35234583 C19.1868387,3.8779 19.7140645,3.64071667 20.3651613,3.64071667 Z M21.6054194,5.73578333 C21.5736774,5.3910125 21.500129,5.1155125 21.3855484,4.90920417 C21.171871,4.52619583 20.8157419,4.3346125 20.3171613,4.3346125 C19.9602581,4.3346125 19.6606452,4.46650417 19.4183226,4.73020833 C19.1767742,4.9939125 19.0482581,5.32910417 19.0335484,5.73578333 L21.6054194,5.73578333 Z" id="Shape" fill="#000000" fill-rule="nonzero" mask="url(#mask-62)"></path>
            </g>
            <g id="Clipped">
                <mask id="mask-64" fill="white">
                    <use xlink:href="#path-63"></use>
                </mask>
                <g id="Rectangle"></g>
                <path d="M25.1458065,3.6097625 C25.6668387,3.6097625 26.091871,3.7394375 26.4185806,3.99870833 C26.7452903,4.25805833 26.9419355,4.70447917 27.0085161,5.33797083 L26.252129,5.33797083 C26.2064516,5.04624167 26.1011613,4.8039125 25.9362581,4.61090417 C25.772129,4.41789583 25.5089032,4.32139167 25.1458065,4.32139167 C24.6503226,4.32139167 24.2957419,4.56886667 24.0820645,5.06389583 C23.9442581,5.385075 23.8745806,5.7814625 23.8745806,6.2529 C23.8745806,6.72726667 23.9729032,7.12658333 24.1687742,7.45069167 C24.3646452,7.7748 24.6727742,7.93685417 25.0939355,7.93685417 C25.4167742,7.93685417 25.6722581,7.83599583 25.8611613,7.63412083 C26.0500645,7.43224583 26.180129,7.15603333 26.252129,6.80540417 L27.0085161,6.80540417 C26.9218065,7.4330375 26.7058065,7.89196667 26.3605161,8.18219167 C26.0144516,8.47241667 25.5723871,8.61752917 25.0335484,8.61752917 C24.428129,8.61752917 23.9458065,8.39142917 23.5850323,7.93907083 C23.2250323,7.48679167 23.0446452,6.92177917 23.0446452,6.24403333 C23.0446452,5.4131 23.2420645,4.76630833 23.6369032,4.3037375 C24.0317419,3.8410875 24.5349677,3.6097625 25.1458065,3.6097625 Z" id="Path" fill="#000000" mask="url(#mask-64)"></path>
            </g>
            <g id="Clipped">
                <mask id="mask-66" fill="white">
                    <use xlink:href="#path-65"></use>
                </mask>
                <g id="Rectangle"></g>
                <path d="M29.6237419,7.96780833 C30.1393548,7.96780833 30.4931613,7.76822917 30.6851613,7.3689125 C30.8763871,6.969675 30.9723871,6.52547083 30.9723871,6.0363 C30.9723871,5.5943125 30.9027097,5.23481667 30.7649032,4.9578125 C30.5458065,4.5217625 30.168,4.3037375 29.6322581,4.3037375 C29.1569032,4.3037375 28.8108387,4.48930417 28.5948387,4.86059583 C28.3788387,5.2318875 28.2704516,5.6798125 28.2704516,6.20429167 C28.2704516,6.70810833 28.3788387,7.12800833 28.5948387,7.46399167 C28.8108387,7.79989583 29.1538065,7.96780833 29.6237419,7.96780833 Z M29.6539355,3.6097625 C30.2500645,3.6097625 30.7548387,3.8130625 31.1667097,4.21974167 C31.5785806,4.62634167 31.7845161,5.224525 31.7845161,6.0142125 C31.7845161,6.77737917 31.6033548,7.40794167 31.2402581,7.90597917 C30.8771613,8.4039375 30.3135484,8.65291667 29.5501935,8.65291667 C28.9130323,8.65291667 28.4074839,8.432675 28.0327742,7.9921125 C27.6580645,7.55162917 27.4707097,6.96009583 27.4707097,6.2175125 C27.4707097,5.42196667 27.668129,4.78839583 28.0629677,4.31695833 C28.4578065,3.84552083 28.988129,3.6097625 29.6539355,3.6097625 Z" id="Shape" fill="#000000" fill-rule="nonzero" mask="url(#mask-66)"></path>
            </g>
            <g id="Clipped">
                <mask id="mask-68" fill="white">
                    <use xlink:href="#path-67"></use>
                </mask>
                <g id="Rectangle"></g>
                <path d="M32.7096774,3.7468 L33.4490323,3.7468 L33.4490323,4.41860833 C33.668129,4.14160417 33.8996129,3.9427375 34.1450323,3.82192917 C34.3896774,3.70112083 34.6621935,3.64071667 34.9618065,3.64071667 C35.6190968,3.64071667 36.0627097,3.87497083 36.2934194,4.34347917 C36.4196129,4.59982083 36.4830968,4.96667917 36.4830968,5.44405417 L36.4830968,8.48057083 L35.691871,8.48057083 L35.691871,5.49709583 C35.691871,5.20829583 35.6508387,4.97554583 35.5672258,4.79876667 C35.4286452,4.50410833 35.1778065,4.35677917 34.8147097,4.35677917 C34.6304516,4.35677917 34.4794839,4.37585833 34.3610323,4.414175 C34.1473548,4.4790125 33.9607742,4.6086875 33.7989677,4.80312083 C33.6696774,4.95931667 33.5852903,5.12065833 33.5465806,5.28714583 C33.5070968,5.45363333 33.4877419,5.69152917 33.4877419,6.00099167 L33.4877419,8.48057083 L32.7096774,8.48057083 L32.7096774,3.7468 Z" id="Path" fill="#000000" mask="url(#mask-68)"></path>
            </g>
            <g id="Clipped">
                <mask id="mask-70" fill="white">
                    <use xlink:href="#path-69"></use>
                </mask>
                <g id="Rectangle"></g>
                <path d="M38.1259355,6.16890417 C38.1259355,6.67572917 38.2312258,7.1000625 38.4410323,7.441825 C38.6516129,7.78366667 38.9891613,7.9545875 39.4529032,7.9545875 C39.8129032,7.9545875 40.1086452,7.796175 40.3409032,7.47942917 C40.5731613,7.16268333 40.6892903,6.70810833 40.6892903,6.1158625 C40.6892903,5.51767917 40.5692903,5.07497917 40.3300645,4.78768333 C40.0908387,4.5003875 39.795871,4.35677917 39.4443871,4.35677917 C39.051871,4.35677917 38.7344516,4.50996667 38.4913548,4.81642083 C38.2474839,5.122875 38.1259355,5.57372917 38.1259355,6.16890417 Z M39.2972903,3.66280417 C39.651871,3.66280417 39.9483871,3.7394375 40.1876129,3.892625 C40.3261935,3.98105417 40.4825806,4.13574583 40.6583226,4.35677917 L40.6583226,1.96555 L41.4061935,1.96555 L41.4061935,8.48057083 L40.7063226,8.48057083 L40.7063226,7.82198333 C40.5243871,8.1137125 40.3099355,8.324375 40.0621935,8.45405 C39.8144516,8.58364583 39.5303226,8.64848333 39.2105806,8.64848333 C38.6949677,8.64848333 38.2482581,8.4267375 37.8704516,7.983325 C37.4934194,7.53983333 37.3045161,6.94980417 37.3045161,6.21307917 C37.3045161,5.52361667 37.4763871,4.92614583 37.8209032,4.420825 C38.1654194,3.91550417 38.6570323,3.66280417 39.2972903,3.66280417 Z" id="Shape" fill="#000000" fill-rule="nonzero" mask="url(#mask-70)"></path>
            </g>
        </g>
        <g id="Group" transform="translate(514.000000, 10.000000)">
            <g id="Clipped">
                <mask id="mask-72" fill="white">
                    <use xlink:href="#path-71"></use>
                </mask>
                <g id="Rectangle"></g>
                <path d="M7.08,4.430325 L7.08,3.82034583 C7.64129032,3.764375 8.03380645,3.6708 8.25522581,3.5397 C8.47741935,3.4086 8.64309677,3.098425 8.75225806,2.60925417 L9.36619355,2.60925417 L9.36619355,8.91210833 L8.53625806,8.91210833 L8.53625806,4.430325 L7.08,4.430325 Z" id="Path" fill="#000000" mask="url(#mask-72)"></path>
            </g>
            <g id="Clipped">
                <mask id="mask-74" fill="white">
                    <use xlink:href="#path-73"></use>
                </mask>
                <g id="Rectangle"></g>
                <path d="M14.6485161,7.42702083 C14.6709677,7.69222917 14.736,7.89552917 14.8428387,8.037 C15.0387097,8.29334167 15.3785806,8.4215125 15.8624516,8.4215125 C16.1512258,8.4215125 16.4043871,8.3573875 16.6234839,8.22921667 C16.8425806,8.10104583 16.9517419,7.90289167 16.9517419,7.63475417 C16.9517419,7.43145417 16.8642581,7.2767625 16.6885161,7.17067917 C16.5762581,7.10584167 16.3540645,7.0307125 16.0227097,6.9452125 L15.4049032,6.78616667 C15.0100645,6.68594167 14.7189677,6.574 14.5316129,6.45018333 C14.1971613,6.2350875 14.0299355,5.9375 14.0299355,5.55742083 C14.0299355,5.10949583 14.187871,4.74707083 14.5037419,4.47006667 C14.8188387,4.19314167 15.2430968,4.0546 15.7765161,4.0546 C16.4740645,4.0546 16.9765161,4.2638375 17.2846452,4.68223333 C17.4781935,4.94744167 17.571871,5.23323333 17.5656774,5.5396875 L16.8309677,5.5396875 C16.8162581,5.35997917 16.7543226,5.19642083 16.6451613,5.04909167 C16.4663226,4.83985417 16.1566452,4.735275 15.716129,4.735275 C15.4219355,4.735275 15.1989677,4.79275 15.048,4.9077 C14.8970323,5.02257083 14.8211613,5.17433333 14.8211613,5.36290833 C14.8211613,5.56921667 14.9202581,5.7342 15.1192258,5.8579375 C15.2345806,5.93164167 15.4049032,5.9964 15.6294194,6.05245 L16.1434839,6.18062083 C16.7024516,6.31908333 17.0771613,6.45319167 17.2676129,6.5827875 C17.5703226,6.78616667 17.7212903,7.10584167 17.7212903,7.54197083 C17.7212903,7.96329583 17.5649032,8.327225 17.252129,8.63367917 C16.940129,8.94013333 16.4632258,9.09332083 15.8237419,9.09332083 C15.1354839,9.09332083 14.6477419,8.93348333 14.3605161,8.61380833 C14.0740645,8.29405417 13.9207742,7.89845833 13.9006452,7.42702083 L14.6485161,7.42702083 Z" id="Path" fill="#000000" mask="url(#mask-74)"></path>
            </g>
            <g id="Clipped">
                <mask id="mask-76" fill="white">
                    <use xlink:href="#path-75"></use>
                </mask>
                <g id="Rectangle"></g>
                <path d="M20.5393548,4.07225417 C20.8683871,4.07225417 21.1865806,4.15110417 21.4947097,4.308725 C21.8028387,4.466425 22.0381935,4.6704375 22.1992258,4.92092083 C22.3548387,5.15960833 22.4585806,5.4380375 22.5104516,5.7562875 C22.5569032,5.9743125 22.580129,6.3220125 22.580129,6.7993875 L19.1868387,6.7993875 C19.2007742,7.27969167 19.3122581,7.66499583 19.5197419,7.95522083 C19.7272258,8.24544583 20.0485161,8.39055833 20.4836129,8.39055833 C20.8900645,8.39055833 21.2136774,8.25352083 21.456,7.979525 C21.5945806,7.8204 21.692129,7.63625833 21.7501935,7.42702083 L22.5150968,7.42702083 C22.4949677,7.60087083 22.4276129,7.79459167 22.3138065,8.0082625 C22.2,8.22185417 22.0722581,8.39649583 21.9313548,8.53202917 C21.6952258,8.76770833 21.4025806,8.92683333 21.0541935,9.009325 C20.8668387,9.05650833 20.6547097,9.0801 20.4185806,9.0801 C19.8425806,9.0801 19.3540645,8.86571667 18.9530323,8.43695 C18.5527742,8.0082625 18.3522581,7.4078625 18.3522581,6.63582917 C18.3522581,5.87559167 18.5543226,5.25832917 18.9576774,4.78388333 C19.3610323,4.30951667 19.8882581,4.07225417 20.5393548,4.07225417 Z M21.7803871,6.16732083 C21.7486452,5.82255 21.6750968,5.54705 21.5597419,5.34082083 C21.3468387,4.95773333 20.9907097,4.76622917 20.492129,4.76622917 C20.1344516,4.76622917 19.8348387,4.89812083 19.5932903,5.161825 C19.3509677,5.42552917 19.2224516,5.76072083 19.2085161,6.16732083 L21.7803871,6.16732083 Z" id="Shape" fill="#000000" fill-rule="nonzero" mask="url(#mask-76)"></path>
            </g>
            <g id="Clipped">
                <mask id="mask-78" fill="white">
                    <use xlink:href="#path-77"></use>
                </mask>
                <g id="Rectangle"></g>
                <path d="M25.32,4.04137917 C25.8418065,4.04137917 26.2660645,4.170975 26.5927742,4.430325 C26.9202581,4.68959583 27.1169032,5.13601667 27.1834839,5.7695875 L26.4263226,5.7695875 C26.3806452,5.47785833 26.2753548,5.23545 26.1112258,5.04244167 C25.9470968,4.84943333 25.6830968,4.75292917 25.32,4.75292917 C24.8245161,4.75292917 24.4699355,5.00048333 24.2570323,5.4955125 C24.1184516,5.81669167 24.0495484,6.213 24.0495484,6.6844375 C24.0495484,7.15888333 24.1470968,7.55812083 24.3429677,7.88230833 C24.5396129,8.20641667 24.8477419,8.36847083 25.268129,8.36847083 C25.5909677,8.36847083 25.8464516,8.26753333 26.0353548,8.0657375 C26.2242581,7.8638625 26.3543226,7.58765 26.4263226,7.23694167 L27.1834839,7.23694167 C27.0967742,7.864575 26.8807742,8.32350417 26.5347097,8.61380833 C26.1886452,8.90403333 25.7465806,9.04914583 25.2077419,9.04914583 C24.6023226,9.04914583 24.12,8.82296667 23.76,8.3706875 C23.3992258,7.91840833 23.2196129,7.35339583 23.2196129,6.67565 C23.2196129,5.84471667 23.4170323,5.197925 23.811871,4.735275 C24.2067097,4.272625 24.7091613,4.04137917 25.32,4.04137917 Z" id="Path" fill="#000000" mask="url(#mask-78)"></path>
            </g>
            <g id="Clipped">
                <mask id="mask-80" fill="white">
                    <use xlink:href="#path-79"></use>
                </mask>
                <g id="Rectangle"></g>
                <path d="M29.7979355,8.399425 C30.3143226,8.399425 30.6673548,8.19976667 30.8593548,7.80052917 C31.0505806,7.4012125 31.1465806,6.95700833 31.1465806,6.46791667 C31.1465806,6.02592917 31.0776774,5.66643333 30.9390968,5.38942917 C30.72,4.9533 30.3429677,4.735275 29.8064516,4.735275 C29.3310968,4.735275 28.9858065,4.92092083 28.7698065,5.2922125 C28.5530323,5.66350417 28.4454194,6.11135 28.4454194,6.63582917 C28.4454194,7.139725 28.5530323,7.559625 28.7698065,7.89552917 C28.9858065,8.23143333 29.3287742,8.399425 29.7979355,8.399425 Z M29.828129,4.04137917 C30.4250323,4.04137917 30.9290323,4.24467917 31.3409032,4.65127917 C31.7535484,5.05795833 31.9594839,5.65614167 31.9594839,6.44582917 C31.9594839,7.20899583 31.7775484,7.83955833 31.4144516,8.33751667 C31.0513548,8.835475 30.4885161,9.08453333 29.7243871,9.08453333 C29.088,9.08453333 28.5824516,8.8642125 28.2077419,8.42372917 C27.8330323,7.98316667 27.6456774,7.39163333 27.6456774,6.64912917 C27.6456774,5.85350417 27.8430968,5.2200125 28.2379355,4.748575 C28.6327742,4.27705833 29.1630968,4.04137917 29.828129,4.04137917 Z" id="Shape" fill="#000000" fill-rule="nonzero" mask="url(#mask-80)"></path>
            </g>
            <g id="Clipped">
                <mask id="mask-82" fill="white">
                    <use xlink:href="#path-81"></use>
                </mask>
                <g id="Rectangle"></g>
                <path d="M32.8846452,4.1783375 L33.6232258,4.1783375 L33.6232258,4.850225 C33.8423226,4.57322083 34.0745806,4.37435417 34.3192258,4.25354583 C34.5646452,4.1327375 34.8363871,4.07225417 35.136,4.07225417 C35.7932903,4.07225417 36.2369032,4.3065875 36.4676129,4.77509583 C36.5945806,5.0314375 36.6580645,5.39829583 36.6580645,5.87559167 L36.6580645,8.91210833 L35.8668387,8.91210833 L35.8668387,5.92863333 C35.8668387,5.6399125 35.8250323,5.40708333 35.7414194,5.23030417 C35.6028387,4.93564583 35.3527742,4.78831667 34.9896774,4.78831667 C34.8046452,4.78831667 34.6536774,4.807475 34.5352258,4.84579167 C34.3223226,4.91062917 34.1349677,5.040225 33.9739355,5.2347375 C33.843871,5.39093333 33.7594839,5.55219583 33.7207742,5.71868333 C33.6820645,5.88517083 33.6627097,6.12314583 33.6627097,6.43252917 L33.6627097,8.91210833 L32.8846452,8.91210833 L32.8846452,4.1783375 Z" id="Path" fill="#000000" mask="url(#mask-82)"></path>
            </g>
            <g id="Clipped">
                <mask id="mask-84" fill="white">
                    <use xlink:href="#path-83"></use>
                </mask>
                <g id="Rectangle"></g>
                <path d="M38.300129,6.60052083 C38.300129,7.10734583 38.4054194,7.5316 38.616,7.87344167 C38.8258065,8.21528333 39.1633548,8.386125 39.6270968,8.386125 C39.9870968,8.386125 40.2836129,8.22779167 40.515871,7.91104583 C40.7473548,7.59422083 40.8634839,7.139725 40.8634839,6.54747917 C40.8634839,5.94929583 40.7442581,5.50659583 40.5050323,5.2193 C40.2658065,4.93200417 39.9700645,4.78831667 39.6185806,4.78831667 C39.2268387,4.78831667 38.9086452,4.94158333 38.6655484,5.24795833 C38.4216774,5.5544125 38.300129,6.00526667 38.300129,6.60052083 Z M39.4714839,4.09442083 C39.8260645,4.09442083 40.1225806,4.170975 40.3618065,4.32424167 C40.5003871,4.41259167 40.6575484,4.5673625 40.8332903,4.78831667 L40.8332903,2.39716667 L41.5811613,2.39716667 L41.5811613,8.91210833 L40.8805161,8.91210833 L40.8805161,8.25352083 C40.6993548,8.54525 40.4849032,8.75599167 40.2363871,8.8855875 C39.9886452,9.0152625 39.7052903,9.0801 39.3855484,9.0801 C38.8691613,9.0801 38.4224516,8.85835417 38.0454194,8.4148625 C37.6676129,7.97145 37.4787097,7.38134167 37.4787097,6.64469583 C37.4787097,5.95515417 37.6513548,5.3577625 37.995871,4.85244167 C38.3396129,4.34704167 38.832,4.09442083 39.4714839,4.09442083 Z" id="Shape" fill="#000000" fill-rule="nonzero" mask="url(#mask-84)"></path>
            </g>
        </g>
        <g id="Group" transform="translate(210.000000, 19.000000)" stroke="#000000" stroke-linejoin="round" stroke-width="0.5">
            <polyline id="Path" points="8.46829126 0.897916667 4.64215534 4.42458333 0.732427184 8.02791667 8.75648544 14.8435833"></polyline>
            <polyline id="Path" points="73.5046408 14.6140833 81.9984078 7.79841667 73.8103495 0.668416667"></polyline>
            <path d="M1.39718447,8.03841667 L80.9093204,7.77325" id="Path"></path>
        </g>
        <g id="Group" transform="translate(115.000000, 17.000000)" stroke="#000000" stroke-linejoin="round" stroke-width="0.5">
            <polyline id="Path" points="7.78840777 0.302916667 3.96227184 3.82958333 0.0533398058 7.43283333 8.07660194 14.2485833"></polyline>
            <polyline id="Path" points="72.8247573 14.0190833 81.3185243 7.20341667 73.130466 0.0734166667"></polyline>
            <path d="M0.717300971,7.44333333 L80.2294369,7.17825" id="Path"></path>
        </g>
        <g id="Group" transform="translate(22.000000, 17.000000)" stroke="#000000" stroke-linejoin="round" stroke-width="0.5">
            <polyline id="Path" points="8.41982308 0.757833333 4.63063462 4.2845 0.759130769 7.88783333 8.70571923 14.7035"></polyline>
            <polyline id="Path" points="72.8309808 14.474 81.2430769 7.65833333 73.13375 0.528333333"></polyline>
            <path d="M1.41702308,7.89833333 L80.1644615,7.63316667" id="Path"></path>
        </g>
        <g id="Group" transform="translate(305.000000, 19.000000)" stroke="#000000" stroke-linejoin="round" stroke-width="0.5">
            <polyline id="Path" points="7.91419417 1.034 4.08885437 4.56066667 0.179126214 8.164 8.20318447 14.9796667"></polyline>
            <polyline id="Path" points="72.9513398 14.7501667 81.4443107 7.9345 73.2562524 0.8045"></polyline>
            <path d="M0.843883495,8.17441667 L80.3560194,7.90933333" id="Path"></path>
        </g>
        <g id="Group" transform="translate(398.000000, 17.000000)" stroke="#000000" stroke-linejoin="round" stroke-width="0.5">
            <polyline id="Path" points="8.08376699 1.012 4.25763107 4.53866667 0.348699029 8.14191667 8.37196117 14.9576667"></polyline>
            <polyline id="Path" points="73.1201165 14.7281667 81.6138835 7.91241667 73.4258252 0.7825"></polyline>
            <path d="M1.01266019,8.15241667 L80.5247961,7.88733333" id="Path"></path>
        </g>
        <g id="Group" transform="translate(495.000000, 17.000000)" stroke="#000000" stroke-linejoin="round" stroke-width="0.5">
            <polyline id="Path" points="8.2628932 0.633 4.43675728 4.15958333 0.527825243 7.76291667 8.5518835 14.5785833"></polyline>
            <polyline id="Path" points="73.3000388 14.3490833 81.7930097 7.53341667 73.6049515 0.4035"></polyline>
            <path d="M1.19178641,7.77341667 L80.7047184,7.50825" id="Path"></path>
        </g>
    </g>
</svg>