<?xml version="1.0" encoding="UTF-8"?>
<svg width="600px" height="100px" viewBox="0 0 600 100" version="1.1" xmlns="http://www.w3.org/2000/svg" xmlns:xlink="http://www.w3.org/1999/xlink">
    <!-- Generator: Sketch 52.6 (67491) - http://www.bohemiancoding.com/sketch -->
    <title>ECG-variable</title>
    <desc>Created with Sketch.</desc>
    <defs>
        <rect id="path-1" x="0.478486957" y="0.520125" width="53.3399478" height="18.1480875"></rect>
        <rect id="path-3" x="0.478486957" y="0.520125" width="53.3399478" height="18.1480875"></rect>
        <rect id="path-5" x="0.478486957" y="0.520125" width="53.3399478" height="18.1480875"></rect>
        <rect id="path-7" x="0.478486957" y="0.520125" width="53.3399478" height="18.1480875"></rect>
        <rect id="path-9" x="0.478486957" y="0.520125" width="53.3399478" height="18.1480875"></rect>
        <rect id="path-11" x="0.478486957" y="0.520125" width="53.3399478" height="18.1480875"></rect>
        <rect id="path-13" x="0.478486957" y="0.520125" width="53.3399478" height="18.1480875"></rect>
        <rect id="path-15" x="0.478486957" y="0.520125" width="53.3399478" height="18.1480875"></rect>
        <rect id="path-17" x="0.478486957" y="0.520125" width="53.3399478" height="18.1480875"></rect>
        <rect id="path-19" x="0.478486957" y="0.520125" width="53.3399478" height="18.1480875"></rect>
        <rect id="path-21" x="0.678967742" y="0.293708333" width="46.9086194" height="18.1480875"></rect>
        <rect id="path-23" x="0.678967742" y="0.293708333" width="46.9086194" height="18.1480875"></rect>
        <rect id="path-25" x="0.678967742" y="0.293708333" width="46.9086194" height="18.1480875"></rect>
        <rect id="path-27" x="0.678967742" y="0.293708333" width="46.9086194" height="18.1480875"></rect>
        <rect id="path-29" x="0.678967742" y="0.293708333" width="46.9086194" height="18.1480875"></rect>
        <rect id="path-31" x="0.678967742" y="0.293708333" width="46.9086194" height="18.1480875"></rect>
        <rect id="path-33" x="0.678967742" y="0.293708333" width="46.9086194" height="18.1480875"></rect>
        <rect id="path-35" x="0.102535211" y="0.286583333" width="55.4283268" height="18.1480875"></rect>
        <rect id="path-37" x="0.102535211" y="0.286583333" width="55.4283268" height="18.1480875"></rect>
        <rect id="path-39" x="0.102535211" y="0.286583333" width="55.4283268" height="18.1480875"></rect>
        <rect id="path-41" x="0.102535211" y="0.286583333" width="55.4283268" height="18.1480875"></rect>
        <rect id="path-43" x="0.102535211" y="0.286583333" width="55.4283268" height="18.1480875"></rect>
        <rect id="path-45" x="0.102535211" y="0.286583333" width="55.4283268" height="18.1480875"></rect>
        <rect id="path-47" x="0.102535211" y="0.286583333" width="55.4283268" height="18.1480875"></rect>
        <rect id="path-49" x="0.102535211" y="0.286583333" width="55.4283268" height="18.1480875"></rect>
        <rect id="path-51" x="0.102535211" y="0.286583333" width="55.4283268" height="18.1480875"></rect>
        <rect id="path-53" x="0.102535211" y="0.286583333" width="55.4283268" height="18.1480875"></rect>
        <rect id="path-55" x="0.197041096" y="0.0156956522" width="57.4538466" height="18.9371348"></rect>
        <rect id="path-57" x="0.197041096" y="0.0156956522" width="57.4538466" height="18.9371348"></rect>
        <rect id="path-59" x="0.197041096" y="0.0156956522" width="57.4538466" height="18.9371348"></rect>
        <rect id="path-61" x="0.197041096" y="0.0156956522" width="57.4538466" height="18.9371348"></rect>
        <rect id="path-63" x="0.197041096" y="0.0156956522" width="57.4538466" height="18.9371348"></rect>
        <rect id="path-65" x="0.197041096" y="0.0156956522" width="57.4538466" height="18.9371348"></rect>
        <rect id="path-67" x="0.197041096" y="0.0156956522" width="57.4538466" height="18.9371348"></rect>
        <rect id="path-69" x="0.197041096" y="0.0156956522" width="57.4538466" height="18.9371348"></rect>
        <rect id="path-71" x="0.197041096" y="0.0156956522" width="57.4538466" height="18.9371348"></rect>
        <rect id="path-73" x="0.197041096" y="0.0156956522" width="57.4538466" height="18.9371348"></rect>
        <rect id="path-75" x="0.20426087" y="0.0239565217" width="53.2258435" height="18.9371348"></rect>
        <rect id="path-77" x="0.20426087" y="0.0239565217" width="53.2258435" height="18.9371348"></rect>
        <rect id="path-79" x="0.20426087" y="0.0239565217" width="53.2258435" height="18.9371348"></rect>
        <rect id="path-81" x="0.20426087" y="0.0239565217" width="53.2258435" height="18.9371348"></rect>
        <rect id="path-83" x="0.20426087" y="0.0239565217" width="53.2258435" height="18.9371348"></rect>
        <rect id="path-85" x="0.20426087" y="0.0239565217" width="53.2258435" height="18.9371348"></rect>
        <rect id="path-87" x="0.20426087" y="0.0239565217" width="53.2258435" height="18.9371348"></rect>
        <rect id="path-89" x="0.20426087" y="0.0239565217" width="53.2258435" height="18.9371348"></rect>
        <rect id="path-91" x="0.20426087" y="0.0239565217" width="53.2258435" height="18.9371348"></rect>
        <rect id="path-93" x="0.20426087" y="0.0239565217" width="53.2258435" height="18.9371348"></rect>
        <rect id="path-95" x="0.11252459" y="0.758416667" width="47.6776131" height="18.1480875"></rect>
        <rect id="path-97" x="0.11252459" y="0.758416667" width="47.6776131" height="18.1480875"></rect>
        <rect id="path-99" x="0.11252459" y="0.758416667" width="47.6776131" height="18.1480875"></rect>
        <rect id="path-101" x="0.11252459" y="0.758416667" width="47.6776131" height="18.1480875"></rect>
        <rect id="path-103" x="0.11252459" y="0.758416667" width="47.6776131" height="18.1480875"></rect>
        <rect id="path-105" x="0.11252459" y="0.758416667" width="47.6776131" height="18.1480875"></rect>
        <rect id="path-107" x="0.11252459" y="0.758416667" width="47.6776131" height="18.1480875"></rect>
    </defs>
    <g id="ECG-variable" stroke="none" stroke-width="1" fill="none" fill-rule="evenodd">
        <path d="M102,18 L103.663606,89 C103.663606,89 108.023538,75.2747269 115.15509,72.6904434 C122.382543,70.0722625 121.921266,71.4886951 137.099789,59.6245581 C146.884868,51.9774357 143.686052,70.8075161 153.206412,71.8656034 C165.698913,73.2537882 180.433596,75.1238022 184.640562,71.0867672 C195.553469,60.6140433 202.715931,80.8226234 202.715931,80.8226234 L204.270955,62.3807505 L206.138251,40.2303259 L208,18.1396256" id="Path" stroke="#EB493A" stroke-width="1.5" stroke-linecap="round" stroke-linejoin="round"></path>
        <path d="M396,18 L397.287727,89 C397.287727,89 400.660193,75.2745709 406.176733,72.690258 C409.51873,71.1253041 410.735897,71.0018188 413.681794,68.6225077 C415.663899,67.0204274 418.429386,64.3973741 423.152923,59.6250313 C430.722129,51.9770149 428.247705,70.8073093 435.612446,71.8654087 C445.276815,73.2536092 456.674724,75.1236444 459.929322,71.0865636 C468.370911,60.6137206 473.911506,80.8233375 473.911506,80.8233375 L475.11424,62.381255 L476.559125,40.2297715 L478,18.1388201" id="Path" stroke="#EB493A" stroke-width="1.5" stroke-linecap="round" stroke-linejoin="round"></path>
        <path d="M208,18 L209.051891,89 C209.051891,89 211.807891,75.2747269 216.315207,72.6904434 C220.883102,70.0722625 220.592003,71.4886951 230.186473,59.6245581 C236.370362,51.9774357 234.34919,70.8075161 240.366287,71.8656034 C248.262154,73.2537882 257.575752,75.1238022 260.234981,71.0867672 C267.132457,60.6140433 271.659441,80.8234304 271.659441,80.8234304 L272.642097,62.3807505 L273.823016,40.2303259 L275,18.1396256" id="Path" stroke="#EB493A" stroke-width="1.5" stroke-linecap="round" stroke-linejoin="round"></path>
        <path d="M478,20 L479.727025,91 C479.727025,91 484.251435,77.2739198 491.651837,74.6904434 C499.151495,72.0714554 498.673486,73.4886951 514.424751,61.6245581 C524.578866,53.9766287 521.259801,72.8075161 531.13918,73.8647964 C544.102589,75.2529811 559.393314,77.1229951 563.758917,73.0859601 C575.083439,62.6140433 582.516397,82.8226234 582.516397,82.8226234 L584.129875,64.3807505 L586.06732,42.2295188 L588,20.1388185" id="Path" stroke="#EB493A" stroke-width="1.5" stroke-linecap="round" stroke-linejoin="round"></path>
        <path d="M18,18 L19.3188087,89 C19.3188087,89 22.7733992,75.2739198 28.4248121,72.6904434 C34.1521282,70.0714554 33.7869184,71.4886951 45.8153949,59.6245581 C53.569049,51.9774357 51.034517,70.8075161 58.5789008,71.8647964 C68.4785102,73.2529811 80.1549705,75.1229951 83.4883543,71.0859601 C92.1365539,60.6140433 97.8130029,80.8226234 97.8130029,80.8226234 L99.0449402,62.3807505 L100.524854,40.2295188 L102,18.1396256" id="Path" stroke="#EB493A" stroke-width="1.5" stroke-linecap="round" stroke-linejoin="round"></path>
        <path d="M275,18 L276.899829,89 C276.899829,89 281.875948,75.2739198 290.016595,72.6904434 C298.266938,70.0714554 297.740709,71.4878881 315.067304,59.6245581 C326.236547,51.9766287 322.585538,70.8075161 333.452716,71.8647964 C347.712559,73.2529811 364.532003,75.1229951 369.334038,71.0859601 C381.791826,60.6132362 389.967448,80.8226234 389.967448,80.8226234 L391.742476,62.3807505 L393.873623,40.2295188 L396,18.1388185" id="Path" stroke="#EB493A" stroke-width="1.5" stroke-linecap="round" stroke-linejoin="round"></path>
        <g id="Group" transform="translate(34.000000, 15.000000)">
            <g id="Clipped">
                <mask id="mask-2" fill="white">
                    <use xlink:href="#path-1"></use>
                </mask>
                <g id="Rectangle"></g>
                <path d="M5.4414,2.51829167 C6.25124348,2.51829167 6.83671304,2.85633333 7.19788696,3.53083333 C7.4775913,4.05254167 7.61736522,4.766625 7.61736522,5.67466667 C7.61736522,6.53520833 7.49066087,7.246125 7.23725217,7.809 C6.8702087,8.6165 6.27018261,9.02025 5.43709565,9.02025 C4.68555652,9.02025 4.12622609,8.690125 3.75926087,8.029875 C3.45333913,7.478875 3.30041739,6.73945833 3.30041739,5.811625 C3.30041739,5.09279167 3.39221739,4.47529167 3.57573913,3.959125 C3.91946087,2.99883333 4.54132174,2.51829167 5.4414,2.51829167 Z M5.43271304,8.29508333 C5.84053043,8.29508333 6.16531304,8.113 6.40706087,7.74725 C6.6488087,7.38229167 6.76972174,6.70145833 6.76972174,5.70554167 C6.76972174,4.98670833 6.68230435,4.39454167 6.50754783,3.930625 C6.3327913,3.46670833 5.99345217,3.23475 5.48953043,3.23475 C5.02630435,3.23475 4.68774783,3.45483333 4.47362609,3.89579167 C4.25950435,4.33595833 4.15244348,4.985125 4.15244348,5.8425 C4.15244348,6.48770833 4.22092174,7.00625 4.3578,7.398125 C4.56753913,7.996625 4.92581739,8.29508333 5.43271304,8.29508333 Z" id="Shape" fill="#000000" fill-rule="nonzero" mask="url(#mask-2)"></path>
            </g>
            <g id="Clipped">
                <mask id="mask-4" fill="white">
                    <use xlink:href="#path-3"></use>
                </mask>
                <g id="Rectangle"></g>
                <polygon id="Path" fill="#000000" mask="url(#mask-4)" points="8.76216522 7.88420833 9.67531304 7.88420833 9.67531304 8.84766667 8.76216522 8.84766667"></polygon>
            </g>
            <g id="Clipped">
                <mask id="mask-6" fill="white">
                    <use xlink:href="#path-5"></use>
                </mask>
                <g id="Rectangle"></g>
                <path d="M11.6721391,7.31895833 C11.6954609,7.75754167 11.8629391,8.06154167 12.1746522,8.229375 C12.3348522,8.31725 12.5154,8.36158333 12.7164522,8.36158333 C13.0921826,8.36158333 13.4125826,8.20325 13.6776522,7.88658333 C13.9427217,7.56991667 14.1306261,6.92708333 14.2413652,5.95729167 C14.0665304,6.23754167 13.8502957,6.433875 13.5925043,6.54708333 C13.334713,6.66108333 13.0572,6.71729167 12.7601217,6.71729167 C12.1571217,6.71729167 11.6801217,6.52729167 11.3291217,6.14729167 C10.9781217,5.76729167 10.8026609,5.27804167 10.8026609,4.68033333 C10.8026609,4.10558333 10.9759304,3.59970833 11.3226261,3.16429167 C11.6692435,2.72808333 12.1804435,2.50958333 12.8562261,2.50958333 C13.7679652,2.50958333 14.3971826,2.92520833 14.7438,3.75645833 C14.936087,4.21325 15.0321913,4.78483333 15.0321913,5.47120833 C15.0321913,6.24625 14.9171478,6.932625 14.6869826,7.531125 C14.3053826,8.52704167 13.658713,9.025 12.7469739,9.025 C12.135287,9.025 11.6706522,8.86270833 11.3531478,8.53891667 C11.0356435,8.21433333 10.8769304,7.80741667 10.8769304,7.31895833 L11.6721391,7.31895833 Z M12.8649913,6.01904167 C13.1766261,6.01904167 13.4614174,5.91533333 13.7192087,5.70791667 C13.977,5.49970833 14.1058957,5.13633333 14.1058957,4.61779167 C14.1058957,4.15229167 13.9900696,3.80554167 13.7584957,3.57754167 C13.5269217,3.34875 13.2320348,3.23475 12.8737565,3.23475 C12.4891826,3.23475 12.1841217,3.365375 11.9583391,3.62583333 C11.7325565,3.88629167 11.6197043,4.234625 11.6197043,4.67083333 C11.6197043,5.08329167 11.7187826,5.41183333 11.9168609,5.654875 C12.1149391,5.89791667 12.4309565,6.01904167 12.8649913,6.01904167 Z" id="Shape" fill="#000000" fill-rule="nonzero" mask="url(#mask-6)"></path>
            </g>
            <g id="Clipped">
                <mask id="mask-8" fill="white">
                    <use xlink:href="#path-7"></use>
                </mask>
                <g id="Rectangle"></g>
                <path d="M18.9908609,7.3625 C19.0141043,7.62770833 19.079687,7.83116667 19.1874522,7.972875 C19.3855304,8.229375 19.7292522,8.357625 20.2186174,8.357625 C20.5099043,8.357625 20.766287,8.2935 20.9876087,8.16525 C21.2090087,8.037 21.3196696,7.83908333 21.3196696,7.57070833 C21.3196696,7.36725 21.2308435,7.212875 21.0531913,7.10679167 C20.9395565,7.041875 20.7152609,6.96666667 20.3803043,6.88116667 L19.7554696,6.72204167 C19.3564174,6.6215 19.0622348,6.509875 18.8728435,6.386375 C18.5349913,6.17104167 18.3660261,5.873375 18.3660261,5.493375 C18.3660261,5.04529167 18.5255217,4.68270833 18.8444348,4.405625 C19.1634261,4.12854167 19.5923739,3.99079167 20.1312,3.99079167 C20.8361739,3.99079167 21.3444783,4.19979167 21.656113,4.61779167 C21.8512957,4.883 21.9459913,5.16879167 21.9401217,5.47516667 L21.1973478,5.47516667 C21.1827913,5.29545833 21.1201826,5.132375 21.0094435,4.985125 C20.8288957,4.77533333 20.5157739,4.67083333 20.0700783,4.67083333 C19.7729217,4.67083333 19.5479217,4.728625 19.395,4.84341667 C19.2420783,4.95820833 19.1656174,5.11020833 19.1656174,5.298625 C19.1656174,5.50525 19.2661043,5.66991667 19.4670783,5.79341667 C19.5836087,5.86704167 19.7554696,5.93195833 19.9826609,5.98816667 L20.5026261,6.11641667 C21.0677478,6.25495833 21.4464522,6.38875 21.6386609,6.51858333 C21.9445043,6.72204167 22.0974261,7.041875 22.0974261,7.47808333 C22.0974261,7.89925 21.9394174,8.26341667 21.6234,8.56979167 C21.3073043,8.87616667 20.826,9.02895833 20.1793304,9.02895833 C19.4831217,9.02895833 18.9900783,8.86904167 18.7002783,8.54920833 C18.4104,8.23016667 18.255287,7.83433333 18.2349391,7.3625 L18.9908609,7.3625 Z" id="Path" fill="#000000" mask="url(#mask-8)"></path>
            </g>
            <g id="Clipped">
                <mask id="mask-10" fill="white">
                    <use xlink:href="#path-9"></use>
                </mask>
                <g id="Rectangle"></g>
                <path d="M24.9462783,4.00820833 C25.2783391,4.00820833 25.6002261,4.08658333 25.9119391,4.24491667 C26.2235739,4.40245833 26.4610174,4.60591667 26.624113,4.856875 C26.7814174,5.09516667 26.886287,5.37383333 26.9387217,5.69208333 C26.985287,5.90979167 27.0086087,6.258125 27.0086087,6.7355 L23.5786696,6.7355 C23.5932261,7.21525 23.7053739,7.60079167 23.915113,7.89133333 C24.1248522,8.18108333 24.4496348,8.32675 24.8894609,8.32675 C25.3001739,8.32675 25.6279304,8.189 25.8725739,7.91508333 C26.0124261,7.75595833 26.1114261,7.57229167 26.1697304,7.3625 L26.9431043,7.3625 C26.9226783,7.53666667 26.8549826,7.730625 26.7399391,7.944375 C26.6248174,8.15733333 26.4959217,8.33229167 26.3532522,8.46766667 C26.1143217,8.70358333 25.8187304,8.86270833 25.4662435,8.94504167 C25.2769304,8.99254167 25.0628087,9.01629167 24.8239565,9.01629167 C24.2413826,9.01629167 23.7476348,8.80175 23.342713,8.37266667 C22.9377913,7.944375 22.7354087,7.3435 22.7354087,6.571625 C22.7354087,5.811625 22.9392783,5.194125 23.3470957,4.71991667 C23.754913,4.24570833 24.2879478,4.00820833 24.9462783,4.00820833 Z M26.2002522,6.10295833 C26.1682435,5.75858333 26.0939739,5.48308333 25.9774435,5.27645833 C25.761913,4.89329167 25.4021478,4.70170833 24.8982261,4.70170833 C24.5370522,4.70170833 24.2341043,4.83391667 23.9893826,5.09754167 C23.7447391,5.36116667 23.6150609,5.69683333 23.6005043,6.10295833 L26.2002522,6.10295833 Z" id="Shape" fill="#000000" fill-rule="nonzero" mask="url(#mask-10)"></path>
            </g>
            <g id="Clipped">
                <mask id="mask-12" fill="white">
                    <use xlink:href="#path-11"></use>
                </mask>
                <g id="Rectangle"></g>
                <path d="M29.7788087,3.97733333 C30.3060522,3.97733333 30.735,4.10716667 31.0655739,4.36604167 C31.3962261,4.62570833 31.5950087,5.07220833 31.662,5.70554167 L30.8973913,5.70554167 C30.8507478,5.41341667 30.7443913,5.17116667 30.5784,4.978 C30.4123304,4.785625 30.1458522,4.68904167 29.7788087,4.68904167 C29.2777826,4.68904167 28.9195043,4.93604167 28.7038957,5.431625 C28.5641217,5.75225 28.4942348,6.148875 28.4942348,6.61991667 C28.4942348,7.09491667 28.5932348,7.49391667 28.791313,7.81770833 C28.9893913,8.14229167 29.3011043,8.30458333 29.7263739,8.30458333 C30.0526435,8.30458333 30.3111391,8.20325 30.5019391,8.001375 C30.6927391,7.7995 30.8245304,7.52320833 30.8973913,7.1725 L31.662,7.1725 C31.5745826,7.80029167 31.3561565,8.25945833 31.0065652,8.54920833 C30.6570522,8.83975 30.2099478,8.984625 29.6651739,8.984625 C29.053487,8.984625 28.5656087,8.759 28.2014609,8.30616667 C27.837313,7.854125 27.6552783,7.288875 27.6552783,6.61120833 C27.6552783,5.78075 27.8548435,5.13395833 28.2538957,4.67083333 C28.6529478,4.2085 29.1612522,3.97733333 29.7788087,3.97733333 Z" id="Path" fill="#000000" mask="url(#mask-12)"></path>
            </g>
            <g id="Clipped">
                <mask id="mask-14" fill="white">
                    <use xlink:href="#path-13"></use>
                </mask>
                <g id="Rectangle"></g>
                <path d="M34.3054957,8.33545833 C34.8268696,8.33545833 35.1844435,8.13595833 35.3781391,7.73616667 C35.5718348,7.33716667 35.6687217,6.89304167 35.6687217,6.40379167 C35.6687217,5.96204167 35.5987565,5.602625 35.4589826,5.32554167 C35.2375826,4.88933333 34.8559826,4.67083333 34.3141826,4.67083333 C33.8335826,4.67083333 33.4839913,4.856875 33.2655652,5.22816667 C33.0470609,5.59945833 32.937887,6.04754167 32.937887,6.571625 C32.937887,7.07591667 33.0470609,7.4955 33.2655652,7.83116667 C33.4839913,8.167625 33.830687,8.33545833 34.3054957,8.33545833 Z M34.3360174,3.97733333 C34.9390174,3.97733333 35.4488087,4.18079167 35.865313,4.58691667 C36.2817391,4.99383333 36.489913,5.59154167 36.489913,6.381625 C36.489913,7.14479167 36.3067826,7.77575 35.9395826,8.27370833 C35.5725391,8.77166667 35.003113,9.02025 34.2311478,9.02025 C33.5874522,9.02025 33.0762522,8.80016667 32.6975478,8.35920833 C32.3188435,7.91904167 32.1295304,7.32766667 32.1295304,6.58508333 C32.1295304,5.78945833 32.3290174,5.156125 32.7281478,4.68429167 C33.1272,4.21325 33.6631304,3.97733333 34.3360174,3.97733333 Z" id="Shape" fill="#000000" fill-rule="nonzero" mask="url(#mask-14)"></path>
            </g>
            <g id="Clipped">
                <mask id="mask-16" fill="white">
                    <use xlink:href="#path-15"></use>
                </mask>
                <g id="Rectangle"></g>
                <path d="M37.4251304,4.11429167 L38.1725217,4.11429167 L38.1725217,4.78641667 C38.394,4.50933333 38.628,4.30983333 38.876087,4.1895 C39.1233913,4.068375 39.3988696,4.00820833 39.7017391,4.00820833 C40.3653913,4.00820833 40.8146087,4.24254167 41.0470435,4.71120833 C41.1753913,4.96691667 41.2395652,5.33425 41.2395652,5.811625 L41.2395652,8.84766667 L40.4397391,8.84766667 L40.4397391,5.86466667 C40.4397391,5.57570833 40.3974783,5.34295833 40.3129565,5.16641667 C40.1736522,4.871125 39.920087,4.723875 39.5530435,4.723875 C39.3667826,4.723875 39.2133913,4.74366667 39.0944348,4.78166667 C38.8784348,4.84658333 38.6890435,4.97641667 38.5262609,5.170375 C38.3955652,5.32633333 38.3102609,5.48783333 38.2703478,5.654875 C38.2312174,5.821125 38.2116522,6.058625 38.2116522,6.36816667 L38.2116522,8.84766667 L37.4251304,8.84766667 L37.4251304,4.11429167 Z" id="Path" fill="#000000" mask="url(#mask-16)"></path>
            </g>
            <g id="Clipped">
                <mask id="mask-18" fill="white">
                    <use xlink:href="#path-17"></use>
                </mask>
                <g id="Rectangle"></g>
                <path d="M42.9002609,6.536 C42.9002609,7.04345833 43.0066957,7.46779167 43.2187826,7.809 C43.4316522,8.151 43.772087,8.322 44.2416522,8.322 C44.6055652,8.322 44.9045217,8.16366667 45.1393043,7.847 C45.374087,7.53033333 45.4906957,7.07591667 45.4906957,6.48295833 C45.4906957,5.88525 45.3701739,5.44270833 45.1283478,5.15533333 C44.8865217,4.86795833 44.5883478,4.723875 44.2330435,4.723875 C43.8362609,4.723875 43.5153913,4.87745833 43.2688696,5.18383333 C43.0231304,5.49020833 42.9002609,5.94145833 42.9002609,6.536 Z M44.0843478,4.030375 C44.442,4.030375 44.7425217,4.10716667 44.9843478,4.25995833 C45.1236522,4.348625 45.2825217,4.503 45.4601739,4.723875 L45.4601739,2.33304167 L46.2161739,2.33304167 L46.2161739,8.84766667 L45.5086957,8.84766667 L45.5086957,8.189 C45.3247826,8.481125 45.108,8.69170833 44.8575652,8.82154167 C44.6071304,8.951375 44.319913,9.01629167 43.9966957,9.01629167 C43.4754783,9.01629167 43.023913,8.79383333 42.642,8.3505 C42.2608696,7.90716667 42.069913,7.317375 42.069913,6.58033333 C42.069913,5.89079167 42.2436522,5.293875 42.591913,4.788 C42.9401739,4.28291667 43.4371304,4.030375 44.0843478,4.030375 Z" id="Shape" fill="#000000" fill-rule="nonzero" mask="url(#mask-18)"></path>
            </g>
            <g id="Clipped">
                <mask id="mask-20" fill="white">
                    <use xlink:href="#path-19"></use>
                </mask>
                <g id="Rectangle"></g>
                <path d="M47.8463478,7.3625 C47.8690435,7.62770833 47.9347826,7.83116667 48.0427826,7.972875 C48.2407826,8.229375 48.5843478,8.357625 49.0742609,8.357625 C49.3653913,8.357625 49.6213043,8.2935 49.8427826,8.16525 C50.0642609,8.037 50.1746087,7.83908333 50.1746087,7.57070833 C50.1746087,7.36725 50.0861739,7.212875 49.9085217,7.10679167 C49.7950435,7.041875 49.5704348,6.96666667 49.2354783,6.88116667 L48.6109565,6.72204167 C48.2118261,6.6215 47.9175652,6.509875 47.7281739,6.386375 C47.390087,6.17104167 47.2210435,5.873375 47.2210435,5.493375 C47.2210435,5.04529167 47.3806957,4.68270833 47.7,4.405625 C48.0185217,4.12854167 48.4473913,3.99079167 48.9866087,3.99079167 C49.6917391,3.99079167 50.1996522,4.19979167 50.5111304,4.61779167 C50.7067826,4.883 50.8014783,5.16879167 50.7952174,5.47516667 L50.0525217,5.47516667 C50.0384348,5.29545833 49.9758261,5.132375 49.8646957,4.985125 C49.683913,4.77533333 49.3708696,4.67083333 48.9255652,4.67083333 C48.6281739,4.67083333 48.4035652,4.728625 48.2501739,4.84341667 C48.0975652,4.95820833 48.0208696,5.11020833 48.0208696,5.298625 C48.0208696,5.50525 48.1210435,5.66991667 48.3221739,5.79341667 C48.4387826,5.86704167 48.6109565,5.93195833 48.837913,5.98816667 L49.3575652,6.11641667 C49.9233913,6.25495833 50.3013913,6.38875 50.493913,6.51858333 C50.799913,6.72204167 50.9525217,7.041875 50.9525217,7.47808333 C50.9525217,7.89925 50.7944348,8.26341667 50.4790435,8.56979167 C50.1628696,8.87616667 49.6815652,9.02895833 49.0343478,9.02895833 C48.3386087,9.02895833 47.8455652,8.86904167 47.5552174,8.54920833 C47.2656522,8.23016667 47.1106957,7.83433333 47.0903478,7.3625 L47.8463478,7.3625 Z" id="Path" fill="#000000" mask="url(#mask-20)"></path>
            </g>
        </g>
        <g id="Group" transform="translate(128.000000, 15.000000)">
            <g id="Clipped">
                <mask id="mask-22" fill="white">
                    <use xlink:href="#path-21"></use>
                </mask>
                <g id="Rectangle"></g>
                <path d="M7.01729032,4.14041667 L7.01729032,3.53004167 C7.57858065,3.47383333 7.97109677,3.38041667 8.19251613,3.24979167 C8.41470968,3.118375 8.5803871,2.80804167 8.68954839,2.31879167 L9.30348387,2.31879167 L9.30348387,8.62204167 L8.47354839,8.62204167 L8.47354839,4.14041667 L7.01729032,4.14041667 Z" id="Path" fill="#000000" mask="url(#mask-22)"></path>
            </g>
            <g id="Clipped">
                <mask id="mask-24" fill="white">
                    <use xlink:href="#path-23"></use>
                </mask>
                <g id="Rectangle"></g>
                <path d="M14.5858065,7.136875 C14.6082581,7.40208333 14.6732903,7.60554167 14.780129,7.74645833 C14.976,8.00295833 15.315871,8.13120833 15.7997419,8.13120833 C16.0885161,8.13120833 16.3416774,8.06708333 16.5607742,7.93883333 C16.779871,7.81058333 16.8890323,7.61266667 16.8890323,7.34429167 C16.8890323,7.14083333 16.8015484,6.98645833 16.6258065,6.880375 C16.5135484,6.81545833 16.2913548,6.74025 15.96,6.65475 L15.3421935,6.495625 C14.9473548,6.395875 14.6562581,6.28345833 14.4689032,6.15995833 C14.1344516,5.944625 13.9672258,5.64695833 13.9672258,5.26695833 C13.9672258,4.818875 14.1251613,4.45708333 14.4410323,4.18 C14.756129,3.90291667 15.1803871,3.764375 15.7138065,3.764375 C16.4105806,3.764375 16.9138065,3.973375 17.2219355,4.39216667 C17.4154839,4.657375 17.5091613,4.94316667 17.5029677,5.24954167 L16.7682581,5.24954167 C16.7535484,5.06983333 16.6916129,4.90595833 16.5824516,4.75870833 C16.4036129,4.54970833 16.0939355,4.44520833 15.6534194,4.44520833 C15.3592258,4.44520833 15.1362581,4.50220833 14.9852903,4.61779167 C14.8343226,4.73258333 14.7584516,4.88379167 14.7584516,5.073 C14.7584516,5.27883333 14.8575484,5.44429167 15.0565161,5.56779167 C15.171871,5.64141667 15.3421935,5.70633333 15.5667097,5.76254167 L16.0807742,5.89 C16.6397419,6.02854167 17.0144516,6.163125 17.2049032,6.29216667 C17.5076129,6.495625 17.6585806,6.81545833 17.6585806,7.25166667 C17.6585806,7.67283333 17.5021935,8.037 17.1894194,8.343375 C16.8774194,8.64975 16.4005161,8.80333333 15.7610323,8.80333333 C15.0727742,8.80333333 14.5850323,8.64341667 14.2978065,8.32358333 C14.0113548,8.00375 13.8580645,7.60791667 13.8379355,7.136875 L14.5858065,7.136875 Z" id="Path" fill="#000000" mask="url(#mask-24)"></path>
            </g>
            <g id="Clipped">
                <mask id="mask-26" fill="white">
                    <use xlink:href="#path-25"></use>
                </mask>
                <g id="Rectangle"></g>
                <path d="M20.4766452,3.78179167 C20.8056774,3.78179167 21.123871,3.86095833 21.432,4.0185 C21.740129,4.17604167 21.9754839,4.38029167 22.1365161,4.63045833 C22.292129,4.86954167 22.395871,5.14741667 22.4477419,5.46566667 C22.4941935,5.68416667 22.5174194,6.03170833 22.5174194,6.50908333 L19.124129,6.50908333 C19.1380645,6.989625 19.2495484,7.374375 19.4570323,7.66491667 C19.6645161,7.95545833 19.9858065,8.10033333 20.4209032,8.10033333 C20.8273548,8.10033333 21.1509677,7.963375 21.3932903,7.68945833 C21.531871,7.53033333 21.6294194,7.345875 21.6874839,7.136875 L22.4523871,7.136875 C22.4322581,7.31025 22.3649032,7.50420833 22.2510968,7.71795833 C22.1372903,7.93170833 22.0095484,8.105875 21.8686452,8.24204167 C21.6325161,8.47716667 21.339871,8.63629167 20.9914839,8.71941667 C20.804129,8.766125 20.592,8.789875 20.355871,8.789875 C19.779871,8.789875 19.2913548,8.57533333 18.8903226,8.14704167 C18.4900645,7.71795833 18.2895484,7.117875 18.2895484,6.34520833 C18.2895484,5.58520833 18.4916129,4.96770833 18.8949677,4.4935 C19.2983226,4.01929167 19.8255484,3.78179167 20.4766452,3.78179167 Z M21.7176774,5.87733333 C21.6859355,5.53216667 21.6123871,5.25666667 21.4970323,5.05083333 C21.2833548,4.66766667 20.928,4.47608333 20.4294194,4.47608333 C20.0717419,4.47608333 19.772129,4.6075 19.5305806,4.87191667 C19.2882581,5.13554167 19.1597419,5.47041667 19.1458065,5.87733333 L21.7176774,5.87733333 Z" id="Shape" fill="#000000" fill-rule="nonzero" mask="url(#mask-26)"></path>
            </g>
            <g id="Clipped">
                <mask id="mask-28" fill="white">
                    <use xlink:href="#path-27"></use>
                </mask>
                <g id="Rectangle"></g>
                <path d="M25.2572903,3.75091667 C25.7790968,3.75091667 26.2033548,3.88075 26.5300645,4.14041667 C26.8575484,4.39929167 27.0541935,4.84579167 27.1207742,5.479125 L26.3636129,5.479125 C26.3179355,5.18779167 26.2126452,4.94554167 26.0485161,4.752375 C25.8843871,4.55920833 25.6203871,4.462625 25.2572903,4.462625 C24.7618065,4.462625 24.4072258,4.71041667 24.1943226,5.20520833 C24.0557419,5.526625 23.9868387,5.92245833 23.9868387,6.39429167 C23.9868387,6.8685 24.0843871,7.2675 24.2802581,7.59208333 C24.4769032,7.915875 24.7850323,8.07816667 25.2054194,8.07816667 C25.5282581,8.07816667 25.7837419,7.977625 25.9726452,7.77575 C26.1615484,7.573875 26.2916129,7.29758333 26.3636129,6.946875 L27.1207742,6.946875 C27.0340645,7.57466667 26.8180645,8.03304167 26.472,8.32358333 C26.1259355,8.614125 25.683871,8.759 25.1450323,8.759 C24.5396129,8.759 24.0572903,8.53258333 23.6972903,8.08054167 C23.3365161,7.6285 23.1569032,7.06325 23.1569032,6.38558333 C23.1569032,5.55433333 23.3543226,4.90754167 23.7491613,4.44520833 C24.144,3.98208333 24.6464516,3.75091667 25.2572903,3.75091667 Z" id="Path" fill="#000000" mask="url(#mask-28)"></path>
            </g>
            <g id="Clipped">
                <mask id="mask-30" fill="white">
                    <use xlink:href="#path-29"></use>
                </mask>
                <g id="Rectangle"></g>
                <path d="M29.7352258,8.10904167 C30.2516129,8.10904167 30.6046452,7.90954167 30.7966452,7.51054167 C30.987871,7.11075 31.083871,6.666625 31.083871,6.177375 C31.083871,5.735625 31.0149677,5.37620833 30.8763871,5.099125 C30.6572903,4.66291667 30.2802581,4.44520833 29.7437419,4.44520833 C29.2683871,4.44520833 28.9230968,4.63045833 28.7063226,5.00175 C28.4903226,5.37304167 28.3827097,5.821125 28.3827097,6.34520833 C28.3827097,6.8495 28.4903226,7.26908333 28.7063226,7.60554167 C28.9230968,7.94120833 29.2660645,8.10904167 29.7352258,8.10904167 Z M29.7654194,3.75091667 C30.3623226,3.75091667 30.8663226,3.954375 31.2781935,4.36129167 C31.6908387,4.76741667 31.8967742,5.36591667 31.8967742,6.15520833 C31.8967742,6.918375 31.7148387,7.54933333 31.3517419,8.04729167 C30.9886452,8.54525 30.4258065,8.794625 29.6616774,8.794625 C29.0252903,8.794625 28.5197419,8.57375 28.1450323,8.13358333 C27.7703226,7.692625 27.5829677,7.10125 27.5829677,6.35866667 C27.5829677,5.56304167 27.7803871,4.92970833 28.1752258,4.45866667 C28.5700645,3.98683333 29.1003871,3.75091667 29.7654194,3.75091667 Z" id="Shape" fill="#000000" fill-rule="nonzero" mask="url(#mask-30)"></path>
            </g>
            <g id="Clipped">
                <mask id="mask-32" fill="white">
                    <use xlink:href="#path-31"></use>
                </mask>
                <g id="Rectangle"></g>
                <path d="M32.8219355,3.887875 L33.5605161,3.887875 L33.5605161,4.56 C33.7796129,4.28291667 34.011871,4.08420833 34.2565161,3.96308333 C34.5019355,3.84275 34.7736774,3.78179167 35.0732903,3.78179167 C35.7305806,3.78179167 36.1741935,4.016125 36.4049032,4.48479167 C36.531871,4.74129167 36.5953548,5.10783333 36.5953548,5.58520833 L36.5953548,8.62204167 L35.804129,8.62204167 L35.804129,5.63825 C35.804129,5.34929167 35.7623226,5.11654167 35.6787097,4.94 C35.540129,4.6455 35.2900645,4.49825 34.9269677,4.49825 C34.7419355,4.49825 34.5909677,4.51725 34.4725161,4.55525 C34.2596129,4.62016667 34.0722581,4.75 33.9112258,4.94475 C33.7811613,5.10070833 33.6967742,5.26220833 33.6580645,5.42845833 C33.6193548,5.59470833 33.6,5.833 33.6,6.14254167 L33.6,8.62204167 L32.8219355,8.62204167 L32.8219355,3.887875 Z" id="Path" fill="#000000" mask="url(#mask-32)"></path>
            </g>
            <g id="Clipped">
                <mask id="mask-34" fill="white">
                    <use xlink:href="#path-33"></use>
                </mask>
                <g id="Rectangle"></g>
                <path d="M38.2374194,6.310375 C38.2374194,6.81704167 38.3427097,7.241375 38.5532903,7.583375 C38.7630968,7.925375 39.1006452,8.09558333 39.5643871,8.09558333 C39.9243871,8.09558333 40.2209032,7.93725 40.4531613,7.62058333 C40.6846452,7.30391667 40.8007742,6.8495 40.8007742,6.25733333 C40.8007742,5.65883333 40.6807742,5.21629167 40.4423226,4.92891667 C40.2030968,4.64154167 39.9073548,4.49825 39.555871,4.49825 C39.164129,4.49825 38.8459355,4.65104167 38.6028387,4.95741667 C38.3589677,5.26379167 38.2374194,5.71504167 38.2374194,6.310375 Z M39.4087742,3.80395833 C39.7633548,3.80395833 40.059871,3.88075 40.2990968,4.03433333 C40.4376774,4.12220833 40.5948387,4.277375 40.7705806,4.49825 L40.7705806,2.106625 L41.5184516,2.106625 L41.5184516,8.62204167 L40.8178065,8.62204167 L40.8178065,7.963375 C40.6366452,8.25470833 40.4214194,8.46608333 40.1736774,8.595125 C39.9259355,8.72495833 39.6425806,8.789875 39.3228387,8.789875 C38.8064516,8.789875 38.3597419,8.56820833 37.9827097,8.124875 C37.6049032,7.68154167 37.416,7.09095833 37.416,6.35470833 C37.416,5.66516667 37.5886452,5.06745833 37.9331613,4.562375 C38.2769032,4.0565 38.7692903,3.80395833 39.4087742,3.80395833 Z" id="Shape" fill="#000000" fill-rule="nonzero" mask="url(#mask-34)"></path>
            </g>
        </g>
        <g id="Group" transform="translate(215.000000, 15.000000)">
            <g id="Clipped">
                <mask id="mask-36" fill="white">
                    <use xlink:href="#path-35"></use>
                </mask>
                <g id="Rectangle"></g>
                <path d="M5.93994366,2.28475 C6.75628169,2.28475 7.34625352,2.62279167 7.71064789,3.29729167 C7.99222535,3.819 8.13340845,4.53308333 8.13340845,5.441125 C8.13340845,6.300875 8.0056338,7.01258333 7.75008451,7.57545833 C7.38016901,8.38295833 6.77521127,8.78670833 5.936,8.78670833 C5.17802817,8.78670833 4.61487324,8.45658333 4.24495775,7.79633333 C3.93656338,7.24533333 3.78197183,6.50591667 3.78197183,5.57808333 C3.78197183,4.85925 3.87504225,4.24175 4.05960563,3.72558333 C4.40585915,2.76529167 5.03290141,2.28475 5.93994366,2.28475 Z M5.93126761,8.06154167 C6.34219718,8.06154167 6.66952113,7.87945833 6.91323944,7.51370833 C7.15695775,7.14875 7.27842254,6.46791667 7.27842254,5.472 C7.27842254,4.75316667 7.19087324,4.161 7.01419718,3.69708333 C6.83830986,3.23316667 6.49678873,3.00120833 5.98884507,3.00120833 C5.52191549,3.00120833 5.18039437,3.22129167 4.96507042,3.66145833 C4.74895775,4.10241667 4.64090141,4.75158333 4.64090141,5.60895833 C4.64090141,6.25416667 4.71030986,6.77270833 4.84833803,7.16458333 C5.05971831,7.76308333 5.42016901,8.06154167 5.93126761,8.06154167 Z" id="Shape" fill="#000000" fill-rule="nonzero" mask="url(#mask-36)"></path>
            </g>
            <g id="Clipped">
                <mask id="mask-38" fill="white">
                    <use xlink:href="#path-37"></use>
                </mask>
                <g id="Rectangle"></g>
                <polygon id="Path" fill="#000000" mask="url(#mask-38)" points="9.28653521 7.65066667 10.2069859 7.65066667 10.2069859 8.614125 9.28653521 8.614125"></polygon>
            </g>
            <g id="Clipped">
                <mask id="mask-40" fill="white">
                    <use xlink:href="#path-39"></use>
                </mask>
                <g id="Rectangle"></g>
                <path d="M13.4747042,4.93683333 C13.8241127,4.93683333 14.0970141,4.83866667 14.2934085,4.643125 C14.4905915,4.44679167 14.5883944,4.21325 14.5883944,3.9425 C14.5883944,3.70658333 14.4945352,3.49045833 14.3068169,3.29254167 C14.1190986,3.09541667 13.8327887,2.99645833 13.4478873,2.99645833 C13.0661408,2.99645833 12.7908732,3.09541667 12.620507,3.29254167 C12.4501408,3.49045833 12.3649577,3.721625 12.3649577,3.98683333 C12.3649577,4.2845 12.4745915,4.51725 12.6954366,4.68508333 C12.915493,4.85291667 13.1749859,4.93683333 13.4747042,4.93683333 Z M13.5228169,8.07104167 C13.8903662,8.07104167 14.1948169,7.97129167 14.4369577,7.77258333 C14.6790986,7.57308333 14.7997746,7.27620833 14.7997746,6.88195833 C14.7997746,6.471875 14.6751549,6.16154167 14.4259155,5.949375 C14.1758873,5.73720833 13.8564507,5.631125 13.4660282,5.631125 C13.0874366,5.631125 12.7782535,5.73958333 12.5384789,5.95570833 C12.299493,6.172625 12.1796056,6.471875 12.1796056,6.85504167 C12.1796056,7.18516667 12.2892394,7.47016667 12.5077183,7.71083333 C12.7269859,7.95070833 13.0653521,8.07104167 13.5228169,8.07104167 Z M12.3957183,5.241625 C12.175662,5.14741667 12.0037183,5.037375 11.8806761,4.91070833 C11.6487887,4.67479167 11.5328451,4.36841667 11.5328451,3.99079167 C11.5328451,3.51975 11.7032113,3.11441667 12.0431549,2.77558333 C12.3838873,2.43675 12.8665915,2.26733333 13.4920563,2.26733333 C14.0970141,2.26733333 14.5710423,2.42725 14.9149296,2.74708333 C15.2580282,3.06691667 15.4299718,3.43979167 15.4299718,3.86729167 C15.4299718,4.26233333 15.3298028,4.58216667 15.1302535,4.82679167 C15.0190423,4.96533333 14.8455211,5.10070833 14.6104789,5.23291667 C14.872338,5.35404167 15.0774085,5.49258333 15.2272676,5.64854167 C15.5064789,5.94304167 15.6452958,6.32620833 15.6452958,6.79804167 C15.6452958,7.35458333 15.4591549,7.82720833 15.0860845,8.21433333 C14.7138028,8.60145833 14.1861408,8.79541667 13.5054648,8.79541667 C12.891831,8.79541667 12.3728451,8.628375 11.948507,8.29429167 C11.524169,7.95941667 11.3127887,7.474125 11.3127887,6.837625 C11.3127887,6.46316667 11.403493,6.14016667 11.5856901,5.86704167 C11.7670986,5.59470833 12.0376338,5.3865 12.3957183,5.241625 Z" id="Shape" fill="#000000" fill-rule="nonzero" mask="url(#mask-40)"></path>
            </g>
            <g id="Clipped">
                <mask id="mask-42" fill="white">
                    <use xlink:href="#path-41"></use>
                </mask>
                <g id="Rectangle"></g>
                <path d="M19.5952676,7.12895833 C19.6189296,7.39416667 19.6851831,7.597625 19.7940282,7.73933333 C19.9935775,7.99583333 20.339831,8.12408333 20.8327887,8.12408333 C21.1261972,8.12408333 21.3849014,8.05995833 21.6081127,7.93170833 C21.8313239,7.80345833 21.9425352,7.60475 21.9425352,7.33716667 C21.9425352,7.13370833 21.8534085,6.97933333 21.6743662,6.87325 C21.5592113,6.80833333 21.3336338,6.733125 20.9960563,6.647625 L20.3658592,6.4885 C19.9636056,6.38795833 19.667831,6.27633333 19.4769577,6.15283333 C19.1362254,5.9375 18.9658592,5.63983333 18.9658592,5.25983333 C18.9658592,4.81175 19.1267606,4.44916667 19.4477746,4.17208333 C19.7695775,3.895 20.2018028,3.75645833 20.7452394,3.75645833 C21.4550986,3.75645833 21.9677746,3.96625 22.2816901,4.38425 C22.4780845,4.64945833 22.5735211,4.93525 22.568,5.241625 L21.819493,5.241625 C21.804507,5.06191667 21.7414085,4.89883333 21.6301972,4.75158333 C21.448,4.54179167 21.132507,4.43729167 20.6829296,4.43729167 C20.384,4.43729167 20.1568451,4.49508333 20.0030423,4.609875 C19.8484507,4.72466667 19.7719437,4.87666667 19.7719437,5.06508333 C19.7719437,5.27170833 19.8729014,5.436375 20.0756056,5.559875 C20.1931268,5.6335 20.3658592,5.69841667 20.5953803,5.754625 L21.1190986,5.882875 C21.6885634,6.02141667 22.0703099,6.15520833 22.264338,6.28504167 C22.5719437,6.4885 22.7265352,6.80833333 22.7265352,7.24454167 C22.7265352,7.66570833 22.5672113,8.02908333 22.2485634,8.33625 C21.9299155,8.642625 21.4448451,8.79541667 20.7933521,8.79541667 C20.0913803,8.79541667 19.5944789,8.6355 19.3026479,8.31566667 C19.0108169,7.996625 18.8546479,7.60079167 18.8333521,7.12895833 L19.5952676,7.12895833 Z" id="Path" fill="#000000" mask="url(#mask-42)"></path>
            </g>
            <g id="Clipped">
                <mask id="mask-44" fill="white">
                    <use xlink:href="#path-43"></use>
                </mask>
                <g id="Rectangle"></g>
                <path d="M25.5975211,3.77466667 C25.9319437,3.77466667 26.2569014,3.85304167 26.5708169,4.011375 C26.8847324,4.16891667 27.124507,4.372375 27.2885634,4.62333333 C27.4470986,4.861625 27.5527887,5.14029167 27.6056338,5.45854167 C27.652169,5.67625 27.675831,6.02458333 27.675831,6.50195833 L24.2196056,6.50195833 C24.2338028,6.98170833 24.3465915,7.36725 24.5579718,7.65779167 C24.7693521,7.94754167 25.0966761,8.09241667 25.5399437,8.09241667 C25.9540282,8.09241667 26.284507,7.95545833 26.5313803,7.68154167 C26.6717746,7.52241667 26.7719437,7.33875 26.8303099,7.12895833 L27.6103662,7.12895833 C27.5890704,7.303125 27.5212394,7.49708333 27.4052958,7.71083333 C27.2893521,7.92379167 27.1592113,8.09875 27.015662,8.234125 C26.7750986,8.47004167 26.4769577,8.62916667 26.1212394,8.7115 C25.9311549,8.759 25.7150423,8.78195833 25.4744789,8.78195833 C24.8868732,8.78195833 24.3891831,8.56820833 23.9814085,8.139125 C23.5736338,7.71083333 23.3693521,7.10995833 23.3693521,6.33808333 C23.3693521,5.57808333 23.5752113,4.96058333 23.9861408,4.486375 C24.3970704,4.011375 24.9341972,3.77466667 25.5975211,3.77466667 Z M26.8610704,5.86941667 C26.8287324,5.52504167 26.7545915,5.24954167 26.6370704,5.04291667 C26.4193803,4.65975 26.0573521,4.46816667 25.5494085,4.46816667 C25.1850141,4.46816667 24.8797746,4.600375 24.6329014,4.864 C24.3868169,5.127625 24.2558873,5.46329167 24.2409014,5.86941667 L26.8610704,5.86941667 Z" id="Shape" fill="#000000" fill-rule="nonzero" mask="url(#mask-44)"></path>
            </g>
            <g id="Clipped">
                <mask id="mask-46" fill="white">
                    <use xlink:href="#path-45"></use>
                </mask>
                <g id="Rectangle"></g>
                <path d="M30.4679437,3.74379167 C30.9995493,3.74379167 31.4317746,3.873625 31.7646197,4.1325 C32.0982535,4.39216667 32.2985915,4.837875 32.3656338,5.472 L31.5950423,5.472 C31.548507,5.179875 31.4412394,4.937625 31.2740282,4.74445833 C31.1060282,4.55208333 30.8378592,4.4555 30.4679437,4.4555 C29.9631549,4.4555 29.6019155,4.7025 29.3850141,5.19808333 C29.243831,5.51870833 29.1736338,5.91533333 29.1736338,6.386375 C29.1736338,6.861375 29.2730141,7.260375 29.4725634,7.58416667 C29.6721127,7.90875 29.9868169,8.07104167 30.4150986,8.07104167 C30.744,8.07104167 31.0042817,7.96970833 31.1967324,7.76783333 C31.3891831,7.56595833 31.5216901,7.28966667 31.5950423,6.93895833 L32.3656338,6.93895833 C32.2780845,7.56675 32.0572394,8.02591667 31.7054648,8.31566667 C31.3529014,8.60620833 30.9025352,8.75108333 30.3535775,8.75108333 C29.7367887,8.75108333 29.2454085,8.52545833 28.8778592,8.072625 C28.5110986,7.62058333 28.3281127,7.05533333 28.3281127,6.37766667 C28.3281127,5.54720833 28.5292394,4.90041667 28.9307042,4.43729167 C29.3329577,3.97495833 29.8456338,3.74379167 30.4679437,3.74379167 Z" id="Path" fill="#000000" mask="url(#mask-46)"></path>
            </g>
            <g id="Clipped">
                <mask id="mask-48" fill="white">
                    <use xlink:href="#path-47"></use>
                </mask>
                <g id="Rectangle"></g>
                <path d="M35.0299718,8.10191667 C35.5552676,8.10191667 35.9157183,7.901625 36.1113239,7.502625 C36.3061408,7.103625 36.4039437,6.6595 36.4039437,6.17025 C36.4039437,5.7285 36.3337465,5.36829167 36.1925634,5.092 C35.9693521,4.65579167 35.5844507,4.43729167 35.0386479,4.43729167 C34.5543662,4.43729167 34.2018028,4.62333333 33.9817465,4.994625 C33.7616901,5.36591667 33.6520563,5.81320833 33.6520563,6.33808333 C33.6520563,6.84158333 33.7616901,7.26195833 33.9817465,7.597625 C34.2018028,7.93408333 34.5512113,8.10191667 35.0299718,8.10191667 Z M35.0607324,3.74379167 C35.6688451,3.74379167 36.1823099,3.94725 36.6019155,4.353375 C37.0215211,4.76029167 37.2321127,5.358 37.2321127,6.14808333 C37.2321127,6.91125 37.0467606,7.54141667 36.6768451,8.039375 C36.3069296,8.538125 35.7327324,8.78670833 34.9550423,8.78670833 C34.3067042,8.78670833 33.7908732,8.566625 33.4091268,8.12566667 C33.028169,7.6855 32.8372958,7.094125 32.8372958,6.35154167 C32.8372958,5.55591667 33.0384225,4.92258333 33.4406761,4.45075 C33.8421408,3.97970833 34.3824225,3.74379167 35.0607324,3.74379167 Z" id="Shape" fill="#000000" fill-rule="nonzero" mask="url(#mask-48)"></path>
            </g>
            <g id="Clipped">
                <mask id="mask-50" fill="white">
                    <use xlink:href="#path-49"></use>
                </mask>
                <g id="Rectangle"></g>
                <path d="M38.1738592,3.88075 L38.9270986,3.88075 L38.9270986,4.55208333 C39.1503099,4.27579167 39.3869296,4.07629167 39.636169,3.95595833 C39.8854085,3.83483333 40.1630423,3.77466667 40.4682817,3.77466667 C41.1379155,3.77466667 41.5898592,4.009 41.8249014,4.47766667 C41.9534648,4.733375 42.0181408,5.10070833 42.0181408,5.57808333 L42.0181408,8.614125 L41.2128451,8.614125 L41.2128451,5.631125 C41.2128451,5.34216667 41.1702535,5.10941667 41.0850704,4.932875 C40.9438873,4.63758333 40.688338,4.49033333 40.3184225,4.49033333 C40.1307042,4.49033333 39.9769014,4.50933333 39.8562254,4.548125 C39.6393239,4.61304167 39.4484507,4.742875 39.2836056,4.93683333 C39.1518873,5.09279167 39.0659155,5.25429167 39.0264789,5.42133333 C38.9862535,5.58758333 38.9665352,5.82508333 38.9665352,6.134625 L38.9665352,8.614125 L38.1738592,8.614125 L38.1738592,3.88075 Z" id="Path" fill="#000000" mask="url(#mask-50)"></path>
            </g>
            <g id="Clipped">
                <mask id="mask-52" fill="white">
                    <use xlink:href="#path-51"></use>
                </mask>
                <g id="Rectangle"></g>
                <path d="M43.691831,6.30245833 C43.691831,6.80991667 43.7990986,7.23425 44.0128451,7.57545833 C44.2273803,7.91745833 44.5712676,8.08845833 45.0437183,8.08845833 C45.4104789,8.08845833 45.7125634,7.930125 45.9483944,7.61345833 C46.1850141,7.29679167 46.3033239,6.84158333 46.3033239,6.24941667 C46.3033239,5.65170833 46.1810704,5.20916667 45.9373521,4.92179167 C45.6936338,4.63441667 45.3931268,4.49033333 45.0350423,4.49033333 C44.6359437,4.49033333 44.3117746,4.64391667 44.0641127,4.95029167 C43.815662,5.25666667 43.691831,5.707125 43.691831,6.30245833 Z M44.8851831,3.79683333 C45.2464225,3.79683333 45.548507,3.873625 45.7922254,4.02641667 C45.9334085,4.11508333 46.0935211,4.26945833 46.2725634,4.49033333 L46.2725634,2.0995 L47.0336901,2.0995 L47.0336901,8.614125 L46.3206761,8.614125 L46.3206761,7.95545833 C46.1361127,8.24758333 45.9168451,8.45816667 45.6644507,8.588 C45.4120563,8.71783333 45.1225915,8.78195833 44.7968451,8.78195833 C44.2715493,8.78195833 43.8164507,8.56029167 43.432338,8.11695833 C43.0474366,7.673625 42.8549859,7.08383333 42.8549859,6.34679167 C42.8549859,5.65725 43.0308732,5.06033333 43.3810704,4.55445833 C43.7320563,4.049375 44.2336901,3.79683333 44.8851831,3.79683333 Z" id="Shape" fill="#000000" fill-rule="nonzero" mask="url(#mask-52)"></path>
            </g>
            <g id="Clipped">
                <mask id="mask-54" fill="white">
                    <use xlink:href="#path-53"></use>
                </mask>
                <g id="Rectangle"></g>
                <path d="M48.6766197,7.12895833 C48.7002817,7.39416667 48.7657465,7.597625 48.8745915,7.73933333 C49.0741408,7.99583333 49.4211831,8.12408333 49.9141408,8.12408333 C50.2075493,8.12408333 50.4662535,8.05995833 50.6886761,7.93170833 C50.9118873,7.80345833 51.0238873,7.60475 51.0238873,7.33716667 C51.0238873,7.13370833 50.9339718,6.97933333 50.7549296,6.87325 C50.6405634,6.80833333 50.4141972,6.733125 50.0766197,6.647625 L49.4472113,6.4885 C49.0449577,6.38795833 48.7483944,6.27633333 48.5575211,6.15283333 C48.2167887,5.9375 48.0472113,5.63983333 48.0472113,5.25983333 C48.0472113,4.81175 48.2073239,4.44916667 48.5291268,4.17208333 C48.8509296,3.895 49.2831549,3.75645833 49.8258028,3.75645833 C50.5364507,3.75645833 51.048338,3.96625 51.3630423,4.38425 C51.5594366,4.64945833 51.6548732,4.93525 51.6493521,5.241625 L50.9000563,5.241625 C50.8858592,5.06191667 50.8227606,4.89883333 50.7107606,4.75158333 C50.5293521,4.54179167 50.2130704,4.43729167 49.7642817,4.43729167 C49.4645634,4.43729167 49.2381972,4.49508333 49.0836056,4.609875 C48.9298028,4.72466667 48.852507,4.87666667 48.852507,5.06508333 C48.852507,5.27170833 48.9542535,5.436375 49.1569577,5.559875 C49.2736901,5.6335 49.4472113,5.69841667 49.6759437,5.754625 L50.2004507,5.882875 C50.7699155,6.02141667 51.151662,6.15520833 51.3449014,6.28504167 C51.6532958,6.4885 51.8078873,6.80833333 51.8078873,7.24454167 C51.8078873,7.66570833 51.6485634,8.02908333 51.3299155,8.33625 C51.0112676,8.642625 50.5261972,8.79541667 49.8747042,8.79541667 C49.1727324,8.79541667 48.675831,8.6355 48.384,8.31566667 C48.0913803,7.996625 47.9352113,7.60079167 47.9147042,7.12895833 L48.6766197,7.12895833 Z" id="Path" fill="#000000" mask="url(#mask-54)"></path>
            </g>
        </g>
        <g id="Group" transform="translate(310.000000, 18.000000)">
            <g id="Clipped">
                <mask id="mask-56" fill="white">
                    <use xlink:href="#path-55"></use>
                </mask>
                <g id="Rectangle"></g>
                <path d="M5.29865753,4.02882609 L5.29865753,3.39273913 C5.87547945,3.33408696 6.27750685,3.2366087 6.50553425,3.09947826 C6.73276712,2.96317391 6.90279452,2.63934783 7.01561644,2.12882609 L7.64567123,2.12882609 L7.64567123,8.70613043 L6.79394521,8.70613043 L6.79394521,4.02882609 L5.29865753,4.02882609 Z" id="Path" fill="#000000" mask="url(#mask-56)"></path>
            </g>
            <g id="Clipped">
                <mask id="mask-58" fill="white">
                    <use xlink:href="#path-57"></use>
                </mask>
                <g id="Rectangle"></g>
                <polygon id="Path" fill="#000000" mask="url(#mask-58)" points="10.2580548 7.69995652 11.1852603 7.69995652 11.1852603 8.70613043 10.2580548 8.70613043"></polygon>
            </g>
            <g id="Clipped">
                <mask id="mask-60" fill="white">
                    <use xlink:href="#path-59"></use>
                </mask>
                <g id="Rectangle"></g>
                <path d="M12.8752055,4.02882609 L12.8752055,3.39273913 C13.4520274,3.33408696 13.8540548,3.2366087 14.0820822,3.09947826 C14.3093151,2.96317391 14.4793425,2.63934783 14.5921644,2.12882609 L15.2214247,2.12882609 L15.2214247,8.70613043 L14.3696986,8.70613043 L14.3696986,4.02882609 L12.8752055,4.02882609 Z" id="Path" fill="#000000" mask="url(#mask-60)"></path>
            </g>
            <g id="Clipped">
                <mask id="mask-62" fill="white">
                    <use xlink:href="#path-61"></use>
                </mask>
                <g id="Rectangle"></g>
                <path d="M20.6424384,7.1563913 C20.666274,7.43313043 20.7322192,7.6446087 20.841863,7.79247826 C21.0428767,8.06013043 21.3916712,8.19395652 21.8890411,8.19395652 C22.1846027,8.19395652 22.4452055,8.12704348 22.6692603,7.99321739 C22.8941096,7.8593913 23.0069315,7.65286957 23.0069315,7.37282609 C23.0069315,7.16052174 22.9163562,6.99943478 22.736,6.88873913 C22.6207945,6.821 22.3927671,6.74252174 22.0527123,6.65330435 L21.4186849,6.48726087 C21.0134795,6.38317391 20.7147397,6.26586957 20.5224658,6.137 C20.1792329,5.91230435 20.008411,5.60169565 20.008411,5.20517391 C20.008411,4.7376087 20.1696986,4.35926087 20.493863,4.07095652 C20.8172329,3.78182609 21.2534247,3.63726087 21.8000548,3.63726087 C22.5159178,3.63726087 23.0315616,3.85534783 23.3485753,4.29234783 C23.546411,4.56908696 23.6425479,4.86730435 23.6369863,5.187 L22.8821918,5.187 C22.8678904,4.99947826 22.8043288,4.82847826 22.6915068,4.67482609 C22.5087671,4.45673913 22.1901644,4.34769565 21.7380822,4.34769565 C21.4361644,4.34769565 21.208137,4.40717391 21.052411,4.52695652 C20.8974795,4.64673913 20.8196164,4.80534783 20.8196164,5.00195652 C20.8196164,5.21756522 20.9221096,5.3893913 21.1263014,5.51908696 C21.2438904,5.59591304 21.4186849,5.66365217 21.6490959,5.72147826 L22.1774521,5.85530435 C22.7510959,5.99986957 23.1356438,6.14030435 23.3303014,6.27495652 C23.6409589,6.48726087 23.7966849,6.821 23.7966849,7.27617391 C23.7966849,7.71565217 23.6361918,8.09565217 23.3152055,8.41534783 C22.9942192,8.73504348 22.505589,8.89530435 21.8493151,8.89530435 C21.1421918,8.89530435 20.6416438,8.72843478 20.3476712,8.39469565 C20.0529041,8.06095652 19.895589,7.64791304 19.8749315,7.1563913 L20.6424384,7.1563913 Z" id="Path" fill="#000000" mask="url(#mask-62)"></path>
            </g>
            <g id="Clipped">
                <mask id="mask-64" fill="white">
                    <use xlink:href="#path-63"></use>
                </mask>
                <g id="Rectangle"></g>
                <path d="M26.6887397,3.65543478 C27.0256164,3.65543478 27.3521644,3.73804348 27.6691781,3.90243478 C27.9853973,4.06682609 28.226137,4.27995652 28.3921918,4.541 C28.5518904,4.79047826 28.6583562,5.08043478 28.711589,5.41252174 C28.7584658,5.64052174 28.7823014,6.00317391 28.7823014,6.50130435 L25.2999178,6.50130435 C25.3150137,7.00273913 25.4286301,7.40421739 25.6415616,7.7073913 C25.8544932,8.00973913 26.1842192,8.16173913 26.6307397,8.16173913 C27.047863,8.16173913 27.3807671,8.01882609 27.6286575,7.733 C27.7708767,7.56695652 27.8717808,7.37447826 27.9305753,7.1563913 L28.7155616,7.1563913 C28.6949041,7.33730435 28.6265753,7.53969565 28.5097808,7.76273913 C28.3929863,7.98578261 28.2618904,8.16752174 28.1164932,8.30878261 C27.8741644,8.55495652 27.5738356,8.721 27.2163014,8.80691304 C27.0240274,8.85647826 26.8071233,8.88126087 26.564,8.88126087 C25.9728767,8.88126087 25.4715342,8.6573913 25.0607671,8.20965217 C24.6492055,7.76273913 24.4442192,7.13573913 24.4442192,6.33030435 C24.4442192,5.53726087 24.6507945,4.89291304 25.0647397,4.39808696 C25.4786849,3.90326087 26.0205479,3.65543478 26.6887397,3.65543478 Z M27.9615616,5.84208696 C27.9289863,5.48191304 27.8535068,5.19443478 27.7351233,4.97882609 C27.5166301,4.57982609 27.1511507,4.37991304 26.6394795,4.37991304 C26.2732055,4.37991304 25.965726,4.51704348 25.7170411,4.79213043 C25.4683562,5.06721739 25.3372603,5.41747826 25.3221644,5.84208696 L27.9615616,5.84208696 Z" id="Shape" fill="#000000" fill-rule="nonzero" mask="url(#mask-64)"></path>
            </g>
            <g id="Clipped">
                <mask id="mask-66" fill="white">
                    <use xlink:href="#path-65"></use>
                </mask>
                <g id="Rectangle"></g>
                <path d="M31.5949041,3.62321739 C32.1296164,3.62321739 32.5650137,3.75869565 32.9010959,4.02882609 C33.2363836,4.29978261 33.4381918,4.76569565 33.5065205,5.42656522 L32.730274,5.42656522 C32.6826027,5.12256522 32.5745479,4.86895652 32.4061096,4.66821739 C32.2376712,4.46665217 31.9675342,4.36586957 31.5949041,4.36586957 C31.0856164,4.36586957 30.7225205,4.62443478 30.5032329,5.14073913 C30.3610137,5.47613043 30.2903014,5.88917391 30.2903014,6.38152174 C30.2903014,6.87634783 30.3912055,7.29269565 30.5922192,7.6313913 C30.7932329,7.96926087 31.1094521,8.1386087 31.5416712,8.1386087 C31.8721918,8.1386087 32.1351781,8.03286957 32.3290411,7.82221739 C32.5221096,7.61156522 32.6563836,7.32408696 32.730274,6.95813043 L33.5065205,6.95813043 C33.4175342,7.6123913 33.195863,8.09152174 32.8407123,8.39469565 C32.4863562,8.69704348 32.0318904,8.84904348 31.4789041,8.84904348 C30.8583836,8.84904348 30.3626027,8.61278261 29.9931507,8.14108696 C29.6236986,7.66856522 29.4385753,7.07956522 29.4385753,6.37243478 C29.4385753,5.50504348 29.6411781,4.83013043 30.0463836,4.34769565 C30.451589,3.86443478 30.9680274,3.62321739 31.5949041,3.62321739 Z" id="Path" fill="#000000" mask="url(#mask-66)"></path>
            </g>
            <g id="Clipped">
                <mask id="mask-68" fill="white">
                    <use xlink:href="#path-67"></use>
                </mask>
                <g id="Rectangle"></g>
                <path d="M36.190411,8.17082609 C36.7195616,8.17082609 37.0826575,7.96265217 37.2789041,7.54547826 C37.4759452,7.12913043 37.5744658,6.66569565 37.5744658,6.15517391 C37.5744658,5.69421739 37.5029589,5.31917391 37.3615342,5.03004348 C37.1366849,4.57486957 36.7489589,4.34769565 36.1991507,4.34769565 C35.7113151,4.34769565 35.3561644,4.541 35.1344932,4.92843478 C34.9128219,5.31586957 34.801589,5.78343478 34.801589,6.33030435 C34.801589,6.85652174 34.9128219,7.29434783 35.1344932,7.6446087 C35.3561644,7.99569565 35.708137,8.17082609 36.190411,8.17082609 Z M36.2213973,3.62321739 C36.8331781,3.62321739 37.3512055,3.83552174 37.7738904,4.26013043 C38.1965753,4.68391304 38.4079178,5.30843478 38.4079178,6.13204348 C38.4079178,6.9283913 38.222,7.58678261 37.8493699,8.1063913 C37.4767397,8.626 36.8983288,8.8853913 36.1149315,8.8853913 C35.4610411,8.8853913 34.9422192,8.65573913 34.5576712,8.19643478 C34.1731233,7.73630435 33.9808493,7.11921739 33.9808493,6.34434783 C33.9808493,5.51413043 34.1834521,4.85326087 34.5886575,4.36091304 C34.993863,3.8693913 35.5381096,3.62321739 36.2213973,3.62321739 Z" id="Shape" fill="#000000" fill-rule="nonzero" mask="url(#mask-68)"></path>
            </g>
            <g id="Clipped">
                <mask id="mask-70" fill="white">
                    <use xlink:href="#path-69"></use>
                </mask>
                <g id="Rectangle"></g>
                <path d="M39.3573699,3.76613043 L40.116137,3.76613043 L40.116137,4.46747826 C40.3409863,4.17834783 40.5785479,3.971 40.830411,3.8446087 C41.0814795,3.71821739 41.3611507,3.65543478 41.6686301,3.65543478 C42.3423836,3.65543478 42.7984384,3.89995652 43.034411,4.389 C43.1647123,4.65665217 43.229863,5.03913043 43.229863,5.53726087 L43.229863,8.70613043 L42.417863,8.70613043 L42.417863,5.5926087 C42.417863,5.29108696 42.3749589,5.04821739 42.2891507,4.864 C42.147726,4.55669565 41.8903014,4.40304348 41.5176712,4.40304348 C41.3285753,4.40304348 41.1728493,4.42286957 41.0520822,4.46252174 C40.8327945,4.53026087 40.6405205,4.66573913 40.4752603,4.86813043 C40.3417808,5.03169565 40.2559726,5.20021739 40.2154521,5.37369565 C40.175726,5.54717391 40.155863,5.79582609 40.155863,6.118 L40.155863,8.70613043 L39.3573699,8.70613043 L39.3573699,3.76613043 Z" id="Path" fill="#000000" mask="url(#mask-70)"></path>
            </g>
            <g id="Clipped">
                <mask id="mask-72" fill="white">
                    <use xlink:href="#path-71"></use>
                </mask>
                <g id="Rectangle"></g>
                <path d="M44.9158356,6.29395652 C44.9158356,6.82265217 45.0230959,7.26543478 45.2392055,7.62230435 C45.4553151,7.97834783 45.8009315,8.15678261 46.2776438,8.15678261 C46.6470959,8.15678261 46.9506027,7.99156522 47.1889589,7.66113043 C47.4273151,7.33069565 47.5456986,6.85652174 47.5456986,6.2386087 C47.5456986,5.61408696 47.4233425,5.15230435 47.1778356,4.85243478 C46.9323288,4.55256522 46.6288219,4.40304348 46.2681096,4.40304348 C45.8660822,4.40304348 45.5403288,4.56247826 45.2900548,4.88217391 C45.0405753,5.20186957 44.9158356,5.67273913 44.9158356,6.29395652 Z M46.1179452,3.67856522 C46.4810411,3.67856522 46.786137,3.75869565 47.0316438,3.91813043 C47.1730685,4.01065217 47.3343562,4.17173913 47.5147123,4.40304348 L47.5147123,1.90743478 L48.2822192,1.90743478 L48.2822192,8.70613043 L47.5639726,8.70613043 L47.5639726,8.01882609 C47.3772603,8.32282609 47.1571781,8.54256522 46.9029315,8.67804348 C46.6486849,8.81352174 46.3570959,8.88126087 46.0289589,8.88126087 C45.4998082,8.88126087 45.0413699,8.64995652 44.6536438,8.18734783 C44.2667123,7.72391304 44.0728493,7.10847826 44.0728493,6.3393913 C44.0728493,5.62069565 44.2492329,4.997 44.6027945,4.46995652 C44.9563562,3.94208696 45.4608767,3.67856522 46.1179452,3.67856522 Z" id="Shape" fill="#000000" fill-rule="nonzero" mask="url(#mask-72)"></path>
            </g>
            <g id="Clipped">
                <mask id="mask-74" fill="white">
                    <use xlink:href="#path-73"></use>
                </mask>
                <g id="Rectangle"></g>
                <path d="M49.9372055,7.1563913 C49.9602466,7.43313043 50.0269863,7.6446087 50.1366301,7.79247826 C50.3376438,8.06013043 50.6864384,8.19395652 51.1830137,8.19395652 C51.4793699,8.19395652 51.7391781,8.12704348 51.9640274,7.99321739 C52.1888767,7.8593913 52.3009041,7.65286957 52.3009041,7.37282609 C52.3009041,7.16052174 52.2111233,6.99943478 52.0307671,6.88873913 C51.9155616,6.821 51.6875342,6.74252174 51.3474795,6.65330435 L50.7134521,6.48726087 C50.3082466,6.38317391 50.0095068,6.26586957 49.8172329,6.137 C49.474,5.91230435 49.3023836,5.60169565 49.3023836,5.20517391 C49.3023836,4.7376087 49.4644658,4.35926087 49.7886301,4.07095652 C50.112,3.78182609 50.5473973,3.63726087 51.0948219,3.63726087 C51.8106849,3.63726087 52.3263288,3.85534783 52.6425479,4.29234783 C52.8411781,4.56908696 52.9373151,4.86730435 52.9309589,5.187 L52.1769589,5.187 C52.161863,4.99947826 52.0983014,4.82847826 51.986274,4.67482609 C51.8027397,4.45673913 51.4849315,4.34769565 51.0328493,4.34769565 C50.7309315,4.34769565 50.5021096,4.40717391 50.3471781,4.52695652 C50.1922466,4.64673913 50.1143836,4.80534783 50.1143836,5.00195652 C50.1143836,5.21756522 50.2160822,5.3893913 50.420274,5.51908696 C50.5386575,5.59591304 50.7134521,5.66365217 50.943863,5.72147826 L51.4714247,5.85530435 C52.0450685,5.99986957 52.4296164,6.14030435 52.6250685,6.27495652 C52.935726,6.48726087 53.0906575,6.821 53.0906575,7.27617391 C53.0906575,7.71565217 52.9301644,8.09565217 52.6091781,8.41534783 C52.2889863,8.73504348 51.7995616,8.89530435 51.1432877,8.89530435 C50.4369589,8.89530435 49.936411,8.72843478 49.6416438,8.39469565 C49.3476712,8.06095652 49.1903562,7.64791304 49.1696986,7.1563913 L49.9372055,7.1563913 Z" id="Path" fill="#000000" mask="url(#mask-74)"></path>
            </g>
        </g>
        <g id="Group" transform="translate(407.000000, 20.000000)">
            <g id="Clipped">
                <mask id="mask-76" fill="white">
                    <use xlink:href="#path-75"></use>
                </mask>
                <g id="Rectangle"></g>
                <path d="M5.11043478,2.109 C5.91965217,2.109 6.50582609,2.46091304 6.8666087,3.16556522 C7.146,3.70995652 7.28608696,4.45508696 7.28608696,5.4026087 C7.28608696,6.29973913 7.15930435,7.0423913 6.90573913,7.62973913 C6.53869565,8.47234783 5.93921739,8.89365217 5.10573913,8.89365217 C4.35443478,8.89365217 3.79486957,8.54917391 3.42782609,7.86021739 C3.12182609,7.28526087 2.96921739,6.51369565 2.96921739,5.54552174 C2.96921739,4.7946087 3.06078261,4.15108696 3.24469565,3.61247826 C3.58826087,2.61043478 4.21043478,2.109 5.11043478,2.109 Z M5.10182609,8.13695652 C5.50956522,8.13695652 5.83434783,7.94613043 6.07617391,7.56530435 C6.318,7.18365217 6.43852174,6.47404348 6.43852174,5.43482609 C6.43852174,4.68391304 6.35086957,4.06682609 6.17634783,3.58273913 C6.00182609,3.09865217 5.66217391,2.8566087 5.15817391,2.8566087 C4.69486957,2.8566087 4.35678261,3.08626087 4.14234783,3.54556522 C3.92869565,4.00569565 3.82147826,4.68308696 3.82147826,5.57773913 C3.82147826,6.251 3.88956522,6.79208696 4.02652174,7.201 C4.23626087,7.82469565 4.59469565,8.13695652 5.10182609,8.13695652 Z" id="Shape" fill="#000000" fill-rule="nonzero" mask="url(#mask-76)"></path>
            </g>
            <g id="Clipped">
                <mask id="mask-78" fill="white">
                    <use xlink:href="#path-77"></use>
                </mask>
                <g id="Rectangle"></g>
                <polygon id="Path" fill="#000000" mask="url(#mask-78)" points="8.43104348 7.70821739 9.34434783 7.70821739 9.34434783 8.71356522 8.43104348 8.71356522"></polygon>
            </g>
            <g id="Clipped">
                <mask id="mask-80" fill="white">
                    <use xlink:href="#path-79"></use>
                </mask>
                <g id="Rectangle"></g>
                <path d="M11.3407826,7.11756522 C11.3642609,7.57604348 11.5317391,7.89243478 11.8432174,8.0683913 C12.0036522,8.16008696 12.1844348,8.20634783 12.3855652,8.20634783 C12.7612174,8.20634783 13.0813043,8.04113043 13.3466087,7.71069565 C13.611913,7.38026087 13.7997391,6.70865217 13.910087,5.69752174 C13.7355652,5.98913043 13.5187826,6.19482609 13.2613043,6.31295652 C13.0038261,6.43108696 12.726,6.49056522 12.4286087,6.49056522 C11.826,6.49056522 11.3486087,6.29230435 10.998,5.89578261 C10.6466087,5.49926087 10.4713043,4.98873913 10.4713043,4.36421739 C10.4713043,3.76530435 10.6450435,3.23743478 10.9917391,2.78226087 C11.3384348,2.32708696 11.8494783,2.09991304 12.5248696,2.09991304 C13.4366087,2.09991304 14.0658261,2.5336087 14.4125217,3.40017391 C14.6050435,3.87682609 14.7013043,4.47326087 14.7013043,5.19030435 C14.7013043,5.99904348 14.5862609,6.71526087 14.3561739,7.33895652 C13.9742609,8.37817391 13.3278261,8.89778261 12.416087,8.89778261 C11.804087,8.89778261 11.3392174,8.72926087 11.0222609,8.39056522 C10.7045217,8.05269565 10.5456522,7.62808696 10.5456522,7.11756522 L11.3407826,7.11756522 Z M12.5334783,5.76195652 C12.8457391,5.76195652 13.1306087,5.65373913 13.388087,5.43647826 C13.6455652,5.22004348 13.7746957,4.84086957 13.7746957,4.29978261 C13.7746957,3.81404348 13.6588696,3.45221739 13.4272174,3.21347826 C13.1955652,2.97556522 12.9005217,2.8566087 12.5428696,2.8566087 C12.1578261,2.8566087 11.8526087,2.99208696 11.6272174,3.26469565 C11.4010435,3.53647826 11.2883478,3.89995652 11.2883478,4.35513043 C11.2883478,4.78552174 11.3877391,5.12752174 11.5857391,5.38113043 C11.7837391,5.63473913 12.099913,5.76195652 12.5334783,5.76195652 Z" id="Shape" fill="#000000" fill-rule="nonzero" mask="url(#mask-80)"></path>
            </g>
            <g id="Clipped">
                <mask id="mask-82" fill="white">
                    <use xlink:href="#path-81"></use>
                </mask>
                <g id="Rectangle"></g>
                <path d="M18.6597391,7.16382609 C18.6832174,7.44056522 18.7481739,7.65286957 18.8561739,7.80073913 C19.0541739,8.0683913 19.3977391,8.2013913 19.8876522,8.2013913 C20.1787826,8.2013913 20.4346957,8.13447826 20.6561739,8.00147826 C20.8776522,7.86765217 20.9887826,7.66030435 20.9887826,7.38108696 C20.9887826,7.16878261 20.8995652,7.00686957 20.721913,6.89617391 C20.6084348,6.82926087 20.3838261,6.75078261 20.0488696,6.66156522 L19.4243478,6.49552174 C19.0252174,6.3906087 18.7309565,6.27413043 18.5415652,6.14443478 C18.2034783,5.92056522 18.0352174,5.60995652 18.0352174,5.21343478 C18.0352174,4.74586957 18.194087,4.36752174 18.5133913,4.0783913 C18.831913,3.78926087 19.2607826,3.64469565 19.8,3.64469565 C20.5051304,3.64469565 21.0130435,3.8636087 21.3253043,4.29978261 C21.5201739,4.57652174 21.6148696,4.87473913 21.6086087,5.19443478 L20.865913,5.19443478 C20.8518261,5.00691304 20.7892174,4.83673913 20.678087,4.68308696 C20.498087,4.46417391 20.1842609,4.35513043 19.7389565,4.35513043 C19.4415652,4.35513043 19.2169565,4.41543478 19.0635652,4.53521739 C18.9109565,4.655 18.8342609,4.8136087 18.8342609,5.01021739 C18.8342609,5.225 18.9352174,5.39765217 19.1355652,5.52652174 C19.2521739,5.60334783 19.4243478,5.67108696 19.6513043,5.72973913 L20.1717391,5.86356522 C20.7367826,6.00813043 21.1155652,6.14773913 21.3073043,6.28321739 C21.6133043,6.49552174 21.765913,6.82926087 21.765913,7.2836087 C21.765913,7.72391304 21.6086087,8.10308696 21.2924348,8.42278261 C20.9762609,8.74330435 20.4949565,8.90273913 19.8477391,8.90273913 C19.152,8.90273913 18.6589565,8.73586957 18.3693913,8.40213043 C18.0790435,8.0683913 17.924087,7.65617391 17.9037391,7.16382609 L18.6597391,7.16382609 Z" id="Path" fill="#000000" mask="url(#mask-82)"></path>
            </g>
            <g id="Clipped">
                <mask id="mask-84" fill="white">
                    <use xlink:href="#path-83"></use>
                </mask>
                <g id="Rectangle"></g>
                <path d="M24.6153913,3.66369565 C24.9472174,3.66369565 25.2688696,3.74547826 25.5803478,3.90986957 C25.8926087,4.07508696 26.1297391,4.2873913 26.2933043,4.54926087 C26.4506087,4.79791304 26.5554783,5.08869565 26.607913,5.42078261 C26.654087,5.64795652 26.6775652,6.0106087 26.6775652,6.50873913 L23.2473913,6.50873913 C23.2622609,7.01017391 23.3741739,7.41247826 23.583913,7.71482609 C23.7936522,8.018 24.1184348,8.16917391 24.5582609,8.16917391 C24.9691304,8.16917391 25.2970435,8.02626087 25.5412174,7.74043478 C25.6813043,7.5743913 25.779913,7.38273913 25.8386087,7.16382609 L26.6118261,7.16382609 C26.5914783,7.34556522 26.5241739,7.54795652 26.4083478,7.77017391 C26.2933043,7.99321739 26.1649565,8.17578261 26.0217391,8.31704348 C25.7830435,8.56321739 25.4872174,8.72926087 25.1350435,8.81517391 C24.9456522,8.86473913 24.732,8.88869565 24.4925217,8.88869565 C23.9102609,8.88869565 23.4164348,8.66565217 23.0118261,8.21791304 C22.6064348,7.77017391 22.4045217,7.144 22.4045217,6.33856522 C22.4045217,5.54552174 22.608,4.90117391 23.0157391,4.40634783 C23.4234783,3.91069565 23.9564348,3.66369565 24.6153913,3.66369565 Z M25.8691304,5.84952174 C25.8370435,5.49017391 25.7626957,5.20269565 25.646087,4.98708696 C25.4308696,4.58726087 25.0708696,4.38734783 24.5668696,4.38734783 C24.206087,4.38734783 23.9032174,4.52530435 23.6582609,4.8003913 C23.4133043,5.07547826 23.2841739,5.42491304 23.2693043,5.84952174 L25.8691304,5.84952174 Z" id="Shape" fill="#000000" fill-rule="nonzero" mask="url(#mask-84)"></path>
            </g>
            <g id="Clipped">
                <mask id="mask-86" fill="white">
                    <use xlink:href="#path-85"></use>
                </mask>
                <g id="Rectangle"></g>
                <path d="M29.448,3.63147826 C29.9746957,3.63147826 30.4035652,3.76613043 30.7346087,4.03708696 C31.0648696,4.30721739 31.2636522,4.77313043 31.3309565,5.43482609 L30.5663478,5.43482609 C30.5193913,5.13 30.4129565,4.87721739 30.2470435,4.67565217 C30.0811304,4.47408696 29.8142609,4.37330435 29.448,4.37330435 C28.9463478,4.37330435 28.5886957,4.63186957 28.3726957,5.14817391 C28.2326087,5.48356522 28.1629565,5.89743478 28.1629565,6.38895652 C28.1629565,6.8846087 28.2623478,7.30095652 28.4603478,7.63882609 C28.6583478,7.97752174 28.9698261,8.14604348 29.3955652,8.14604348 C29.7211304,8.14604348 29.9801739,8.04113043 30.1711304,7.83047826 C30.3613043,7.61982609 30.4935652,7.33152174 30.5663478,6.96556522 L31.3309565,6.96556522 C31.2433043,7.62065217 31.0249565,8.09978261 30.6751304,8.40213043 C30.326087,8.70530435 29.8784348,8.85647826 29.3337391,8.85647826 C28.7225217,8.85647826 28.2341739,8.62104348 27.8702609,8.14852174 C27.5063478,7.67682609 27.324,7.087 27.324,6.37986957 C27.324,5.51247826 27.5235652,4.8383913 27.9226957,4.35513043 C28.3218261,3.87269565 28.8297391,3.63147826 29.448,3.63147826 Z" id="Path" fill="#000000" mask="url(#mask-86)"></path>
            </g>
            <g id="Clipped">
                <mask id="mask-88" fill="white">
                    <use xlink:href="#path-87"></use>
                </mask>
                <g id="Rectangle"></g>
                <path d="M33.9746087,8.17908696 C34.4958261,8.17908696 34.8534783,7.97008696 35.0467826,7.55373913 C35.2408696,7.1373913 35.337913,6.67395652 35.337913,6.16343478 C35.337913,5.70165217 35.2674783,5.3266087 35.1281739,5.03747826 C34.9066957,4.58313043 34.5247826,4.35513043 33.9832174,4.35513043 C33.5026957,4.35513043 33.1528696,4.54926087 32.9345217,4.93669565 C32.7161739,5.32413043 32.6066087,5.79086957 32.6066087,6.33856522 C32.6066087,6.86395652 32.7161739,7.3026087 32.9345217,7.65286957 C33.1528696,8.00313043 33.4995652,8.17908696 33.9746087,8.17908696 Z M34.0051304,3.63147826 C34.6077391,3.63147826 35.1172174,3.84295652 35.5343478,4.26756522 C35.9506957,4.69217391 36.1588696,5.31586957 36.1588696,6.14030435 C36.1588696,6.93665217 35.9757391,7.59421739 35.6086957,8.11382609 C35.2416522,8.63343478 34.671913,8.89365217 33.9002609,8.89365217 C33.2561739,8.89365217 32.7451304,8.664 32.3663478,8.20386957 C31.9875652,7.74456522 31.7981739,7.12747826 31.7981739,6.3526087 C31.7981739,5.5223913 31.9977391,4.86069565 32.3968696,4.36917391 C32.796,3.87682609 33.332087,3.63147826 34.0051304,3.63147826 Z" id="Shape" fill="#000000" fill-rule="nonzero" mask="url(#mask-88)"></path>
            </g>
            <g id="Clipped">
                <mask id="mask-90" fill="white">
                    <use xlink:href="#path-89"></use>
                </mask>
                <g id="Rectangle"></g>
                <path d="M37.094087,3.7743913 L37.8414783,3.7743913 L37.8414783,4.47491304 C38.0621739,4.18578261 38.2969565,3.97843478 38.5442609,3.85286957 C38.7923478,3.72647826 39.0678261,3.66369565 39.3706957,3.66369565 C40.0343478,3.66369565 40.4835652,3.90821739 40.716,4.39643478 C40.8443478,4.66408696 40.9085217,5.0473913 40.9085217,5.54552174 L40.9085217,8.71356522 L40.1086957,8.71356522 L40.1086957,5.60086957 C40.1086957,5.29934783 40.0664348,5.05647826 39.981913,4.87143478 C39.8426087,4.56413043 39.5890435,4.41047826 39.222,4.41047826 C39.0357391,4.41047826 38.8823478,4.43030435 38.7633913,4.47078261 C38.5473913,4.53852174 38.358,4.67317391 38.1952174,4.8763913 C38.0637391,5.03913043 37.9784348,5.20765217 37.9393043,5.38113043 C37.9001739,5.55543478 37.8806087,5.80326087 37.8806087,6.12626087 L37.8806087,8.71356522 L37.094087,8.71356522 L37.094087,3.7743913 Z" id="Path" fill="#000000" mask="url(#mask-90)"></path>
            </g>
            <g id="Clipped">
                <mask id="mask-92" fill="white">
                    <use xlink:href="#path-91"></use>
                </mask>
                <g id="Rectangle"></g>
                <path d="M42.5684348,6.3013913 C42.5684348,6.83008696 42.6748696,7.27286957 42.8877391,7.62973913 C43.1006087,7.9866087 43.4410435,8.16504348 43.9106087,8.16504348 C44.2745217,8.16504348 44.5734783,7.99982609 44.8082609,7.6693913 C45.0422609,7.33813043 45.1596522,6.86395652 45.1596522,6.24604348 C45.1596522,5.62234783 45.0391304,5.15973913 44.7973043,4.85986957 C44.5554783,4.56082609 44.2565217,4.41047826 43.9012174,4.41047826 C43.5052174,4.41047826 43.1843478,4.57073913 42.9378261,4.89043478 C42.692087,5.21013043 42.5684348,5.68017391 42.5684348,6.3013913 Z M43.7533043,3.68682609 C44.1109565,3.68682609 44.4114783,3.76613043 44.6533043,3.9263913 C44.7926087,4.01891304 44.9514783,4.18 45.1291304,4.41047826 L45.1291304,1.91569565 L45.8851304,1.91569565 L45.8851304,8.71356522 L45.1776522,8.71356522 L45.1776522,8.02626087 C44.9937391,8.33108696 44.7769565,8.55082609 44.5265217,8.68630435 C44.276087,8.82095652 43.9888696,8.88869565 43.6656522,8.88869565 C43.1444348,8.88869565 42.6928696,8.6573913 42.3109565,8.19478261 C41.9298261,7.73217391 41.7388696,7.11673913 41.7388696,6.34765217 C41.7388696,5.62813043 41.9126087,5.00443478 42.2608696,4.4773913 C42.6091304,3.95034783 43.106087,3.68682609 43.7533043,3.68682609 Z" id="Shape" fill="#000000" fill-rule="nonzero" mask="url(#mask-92)"></path>
            </g>
            <g id="Clipped">
                <mask id="mask-94" fill="white">
                    <use xlink:href="#path-93"></use>
                </mask>
                <g id="Rectangle"></g>
                <path d="M47.5153043,7.16382609 C47.538,7.44056522 47.6037391,7.65286957 47.7117391,7.80073913 C47.9097391,8.0683913 48.2533043,8.2013913 48.7424348,8.2013913 C49.0343478,8.2013913 49.2902609,8.13447826 49.5117391,8.00147826 C49.7332174,7.86765217 49.8435652,7.66030435 49.8435652,7.38108696 C49.8435652,7.16878261 49.7551304,7.00686957 49.5774783,6.89617391 C49.464,6.82926087 49.2393913,6.75078261 48.9044348,6.66156522 L48.279913,6.49552174 C47.8807826,6.3906087 47.5865217,6.27413043 47.3971304,6.14443478 C47.0590435,5.92056522 46.89,5.60995652 46.89,5.21343478 C46.89,4.74586957 47.0496522,4.36752174 47.3689565,4.0783913 C47.6874783,3.78926087 48.1163478,3.64469565 48.6555652,3.64469565 C49.359913,3.64469565 49.8686087,3.8636087 50.180087,4.29978261 C50.3757391,4.57652174 50.4704348,4.87473913 50.4641739,5.19443478 L49.7214783,5.19443478 C49.7066087,5.00691304 49.644,4.83673913 49.5336522,4.68308696 C49.3528696,4.46417391 49.0398261,4.35513043 48.5945217,4.35513043 C48.2971304,4.35513043 48.0717391,4.41543478 47.9191304,4.53521739 C47.7665217,4.655 47.6898261,4.8136087 47.6898261,5.01021739 C47.6898261,5.225 47.79,5.39765217 47.9911304,5.52652174 C48.1077391,5.60334783 48.279913,5.67108696 48.5068696,5.72973913 L49.0265217,5.86356522 C49.5915652,6.00813043 49.9703478,6.14773913 50.1628696,6.28321739 C50.4688696,6.49552174 50.6214783,6.82926087 50.6214783,7.2836087 C50.6214783,7.72391304 50.4633913,8.10308696 50.1472174,8.42278261 C49.8318261,8.74330435 49.3497391,8.90273913 48.7033043,8.90273913 C48.0075652,8.90273913 47.5145217,8.73586957 47.2241739,8.40213043 C46.9346087,8.0683913 46.7796522,7.65617391 46.7593043,7.16382609 L47.5153043,7.16382609 Z" id="Path" fill="#000000" mask="url(#mask-94)"></path>
            </g>
        </g>
        <g id="Group" transform="translate(506.000000, 18.000000)">
            <g id="Clipped">
                <mask id="mask-96" fill="white">
                    <use xlink:href="#path-95"></use>
                </mask>
                <g id="Rectangle"></g>
                <path d="M6.55396721,4.60433333 L6.55396721,3.99475 C7.1252459,3.93854167 7.52340984,3.845125 7.7492459,3.71370833 C7.97429508,3.58308333 8.14268852,3.27275 8.25442623,2.7835 L8.87842623,2.7835 L8.87842623,9.08675 L8.03488525,9.08675 L8.03488525,4.60433333 L6.55396721,4.60433333 Z" id="Path" fill="#000000" mask="url(#mask-96)"></path>
            </g>
            <g id="Clipped">
                <mask id="mask-98" fill="white">
                    <use xlink:href="#path-97"></use>
                </mask>
                <g id="Rectangle"></g>
                <path d="M14.2465574,7.60158333 C14.2701639,7.86679167 14.3362623,8.07025 14.4440656,8.21116667 C14.6439344,8.46766667 14.989377,8.59591667 15.4811803,8.59591667 C15.7739016,8.59591667 16.032,8.53179167 16.2546885,8.40354167 C16.477377,8.27529167 16.5883279,8.077375 16.5883279,7.809 C16.5883279,7.60554167 16.498623,7.45116667 16.32,7.34508333 C16.2059016,7.28016667 15.9808525,7.20495833 15.6440656,7.11945833 L15.0153443,6.96033333 C14.6140328,6.86058333 14.3181639,6.74816667 14.1277377,6.62466667 C13.7885902,6.40933333 13.618623,6.11166667 13.618623,5.73166667 C13.618623,5.28358333 13.7791475,4.92179167 14.0994098,4.64470833 C14.420459,4.367625 14.8516721,4.22908333 15.3930492,4.22908333 C16.1020328,4.22908333 16.6135082,4.43808333 16.9266885,4.856875 C17.122623,5.12208333 17.2178361,5.407875 17.2123279,5.71425 L16.4655738,5.71425 C16.450623,5.53454167 16.3876721,5.37066667 16.2767213,5.22341667 C16.0949508,5.01441667 15.7801967,4.90991667 15.3316721,4.90991667 C15.0334426,4.90991667 14.8068197,4.96691667 14.653377,5.08170833 C14.4991475,5.19729167 14.4228197,5.3485 14.4228197,5.53691667 C14.4228197,5.74354167 14.523541,5.90820833 14.7257705,6.0325 C14.8430164,6.106125 15.0153443,6.17104167 15.2443279,6.22645833 L15.7668197,6.35470833 C16.3349508,6.49325 16.7158033,6.62783333 16.909377,6.756875 C17.2162623,6.96033333 17.3704918,7.28016667 17.3704918,7.716375 C17.3704918,8.13754167 17.211541,8.50170833 16.8936393,8.80808333 C16.5757377,9.11445833 16.0918033,9.26804167 15.4418361,9.26804167 C14.7415082,9.26804167 14.2457705,9.108125 13.954623,8.78829167 C13.6634754,8.46845833 13.5068852,8.072625 13.4864262,7.60158333 L14.2465574,7.60158333 Z" id="Path" fill="#000000" mask="url(#mask-98)"></path>
            </g>
            <g id="Clipped">
                <mask id="mask-100" fill="white">
                    <use xlink:href="#path-99"></use>
                </mask>
                <g id="Rectangle"></g>
                <path d="M20.2347541,4.2465 C20.5683934,4.2465 20.8925902,4.32566667 21.2057705,4.48320833 C21.5189508,4.64075 21.757377,4.845 21.9218361,5.09516667 C22.08,5.33425 22.1854426,5.612125 22.2381639,5.930375 C22.2845902,6.148875 22.3081967,6.49641667 22.3081967,6.97379167 L18.8592787,6.97379167 C18.8742295,7.45433333 18.9867541,7.83908333 19.1976393,8.129625 C19.4085246,8.42016667 19.735082,8.56504167 20.1773115,8.56504167 C20.5904262,8.56504167 20.9201311,8.42808333 21.1664262,8.15416667 C21.3064918,7.99504167 21.4064262,7.81058333 21.4646557,7.60158333 L22.2420984,7.60158333 C22.2216393,7.77495833 22.1539672,7.96891667 22.0382951,8.18266667 C21.922623,8.39641667 21.7927869,8.57058333 21.6495738,8.70595833 C21.4087869,8.941875 21.1121311,9.101 20.7572459,9.18333333 C20.5668197,9.23083333 20.352,9.25458333 20.112,9.25458333 C19.5257705,9.25458333 19.0292459,9.04004167 18.6224262,8.61095833 C18.2156066,8.18266667 18.0118033,7.58258333 18.0118033,6.80991667 C18.0118033,6.04991667 18.2163934,5.43241667 18.6271475,4.95820833 C19.0371148,4.484 19.5729836,4.2465 20.2347541,4.2465 Z M21.4953443,6.34204167 C21.463082,5.996875 21.3883279,5.721375 21.2718689,5.51554167 C21.0546885,5.132375 20.6927213,4.94079167 20.1867541,4.94079167 C19.8232131,4.94079167 19.5186885,5.07220833 19.2723934,5.33583333 C19.0268852,5.60025 18.8962623,5.935125 18.8813115,6.34204167 L21.4953443,6.34204167 Z" id="Shape" fill="#000000" fill-rule="nonzero" mask="url(#mask-100)"></path>
            </g>
            <g id="Clipped">
                <mask id="mask-102" fill="white">
                    <use xlink:href="#path-101"></use>
                </mask>
                <g id="Rectangle"></g>
                <path d="M25.0937705,4.215625 C25.6241311,4.215625 26.0553443,4.34545833 26.3874098,4.60433333 C26.7194754,4.864 26.9201311,5.3105 26.9870164,5.94383333 L26.2182295,5.94383333 C26.1718033,5.6525 26.0647869,5.40945833 25.8979672,5.21708333 C25.7303607,5.02391667 25.4628197,4.92733333 25.0937705,4.92733333 C24.5901639,4.92733333 24.2297705,5.175125 24.0125902,5.66991667 C23.8725246,5.99133333 23.8017049,6.38716667 23.8017049,6.859 C23.8017049,7.33320833 23.9016393,7.73220833 24.1007213,8.05679167 C24.2998033,8.38058333 24.6129836,8.542875 25.0410492,8.542875 C25.3691803,8.542875 25.6288525,8.44154167 25.8208525,8.23966667 C26.0128525,8.03858333 26.1450492,7.76229167 26.2182295,7.41158333 L26.9870164,7.41158333 C26.8988852,8.03858333 26.6793443,8.49775 26.3283934,8.78829167 C25.9766557,9.07804167 25.5273443,9.22370833 24.9796721,9.22370833 C24.3643279,9.22370833 23.8740984,8.99729167 23.5074098,8.54525 C23.1415082,8.09241667 22.9581639,7.52795833 22.9581639,6.85029167 C22.9581639,6.01904167 23.1588197,5.37225 23.5601311,4.90991667 C23.9614426,4.44679167 24.472918,4.215625 25.0937705,4.215625 Z" id="Path" fill="#000000" mask="url(#mask-102)"></path>
            </g>
            <g id="Clipped">
                <mask id="mask-104" fill="white">
                    <use xlink:href="#path-103"></use>
                </mask>
                <g id="Rectangle"></g>
                <path d="M29.6451148,8.57375 C30.1691803,8.57375 30.5287869,8.37425 30.7239344,7.97445833 C30.9182951,7.57545833 31.0158689,7.13133333 31.0158689,6.64208333 C31.0158689,6.20033333 30.9450492,5.84091667 30.8049836,5.56383333 C30.5822951,5.127625 30.1982951,4.90991667 29.6537705,4.90991667 C29.170623,4.90991667 28.8188852,5.09516667 28.5993443,5.46645833 C28.3798033,5.83775 28.2696393,6.28583333 28.2696393,6.80991667 C28.2696393,7.31420833 28.3798033,7.73379167 28.5993443,8.07025 C28.8188852,8.40591667 29.1674754,8.57375 29.6451148,8.57375 Z M29.6758033,4.215625 C30.2817049,4.215625 30.7947541,4.41908333 31.213377,4.826 C31.632,5.232125 31.8413115,5.830625 31.8413115,6.61991667 C31.8413115,7.38308333 31.6571803,8.01404167 31.2881311,8.512 C30.919082,9.00995833 30.3462295,9.25854167 29.5703607,9.25854167 C28.9227541,9.25854167 28.408918,9.03845833 28.0280656,8.59829167 C27.6472131,8.15733333 27.4575738,7.56595833 27.4575738,6.823375 C27.4575738,6.02775 27.6574426,5.39441667 28.0587541,4.92258333 C28.4600656,4.45154167 28.999082,4.215625 29.6758033,4.215625 Z" id="Shape" fill="#000000" fill-rule="nonzero" mask="url(#mask-104)"></path>
            </g>
            <g id="Clipped">
                <mask id="mask-106" fill="white">
                    <use xlink:href="#path-105"></use>
                </mask>
                <g id="Rectangle"></g>
                <path d="M32.7816393,4.35258333 L33.5331148,4.35258333 L33.5331148,5.02470833 C33.7558033,4.747625 33.991082,4.54891667 34.2405246,4.42779167 C34.4891803,4.30666667 34.7661639,4.2465 35.0706885,4.2465 C35.7387541,4.2465 36.1896393,4.48083333 36.4241311,4.9495 C36.5523934,5.206 36.616918,5.57254167 36.616918,6.04991667 L36.616918,9.08675 L35.8135082,9.08675 L35.8135082,6.10295833 C35.8135082,5.814 35.7710164,5.58125 35.6860328,5.40470833 C35.5451803,5.11020833 35.2902295,4.96295833 34.9211803,4.96295833 C34.7339016,4.96295833 34.580459,4.98195833 34.4600656,5.01995833 C34.2436721,5.084875 34.0532459,5.21470833 33.8887869,5.40945833 C33.757377,5.56541667 33.6716066,5.72691667 33.6322623,5.89316667 C33.5921311,6.05941667 33.572459,6.29770833 33.572459,6.60725 L33.572459,9.08675 L32.7816393,9.08675 L32.7816393,4.35258333 Z" id="Path" fill="#000000" mask="url(#mask-106)"></path>
            </g>
            <g id="Clipped">
                <mask id="mask-108" fill="white">
                    <use xlink:href="#path-107"></use>
                </mask>
                <g id="Rectangle"></g>
                <path d="M38.2866885,6.77508333 C38.2866885,7.28175 38.3937049,7.70608333 38.6069508,8.04808333 C38.8209836,8.38929167 39.1640656,8.56029167 39.6354098,8.56029167 C40.0013115,8.56029167 40.3026885,8.40195833 40.5379672,8.08529167 C40.7740328,7.768625 40.8920656,7.31420833 40.8920656,6.72204167 C40.8920656,6.12354167 40.7700984,5.681 40.5269508,5.393625 C40.2838033,5.10625 39.984,4.96295833 39.6267541,4.96295833 C39.2278033,4.96295833 38.9051803,5.11575 38.6580984,5.422125 C38.4102295,5.7285 38.2866885,6.17975 38.2866885,6.77508333 Z M39.4772459,4.26866667 C39.8376393,4.26866667 40.1390164,4.34545833 40.3821639,4.49825 C40.5230164,4.58691667 40.6819672,4.74129167 40.8605902,4.96295833 L40.8605902,2.57133333 L41.6207213,2.57133333 L41.6207213,9.08675 L40.909377,9.08675 L40.909377,8.42808333 C40.724459,8.71941667 40.5064918,8.93 40.2546885,9.05983333 C40.0028852,9.18966667 39.7140984,9.25458333 39.3891148,9.25458333 C38.8650492,9.25458333 38.4110164,9.03291667 38.0270164,8.58958333 C37.6438033,8.14545833 37.4518033,7.55566667 37.4518033,6.81941667 C37.4518033,6.129875 37.6264918,5.53216667 37.9766557,5.02708333 C38.3268197,4.52120833 38.8272787,4.26866667 39.4772459,4.26866667 Z" id="Shape" fill="#000000" fill-rule="nonzero" mask="url(#mask-108)"></path>
            </g>
        </g>
        <g id="Group" transform="translate(23.000000, 22.000000)" stroke="#000000" stroke-linejoin="round" stroke-width="0.5">
            <polyline id="Path" points="7.2608871 0.238421053 3.76080645 3.81236842 0.184596774 7.46447368 7.52491935 14.3723684"></polyline>
            <polyline id="Path" points="66.7580645 14.1394737 74.5282258 7.23157895 67.0379032 0.00552631579"></polyline>
            <path d="M0.79233871,7.47473684 L73.5322581,7.20631579" id="Path"></path>
        </g>
        <g id="Group" transform="translate(109.000000, 22.000000)" stroke="#000000" stroke-linejoin="round" stroke-width="0.5">
            <polyline id="Path" points="9.20148305 0.315789474 4.87698305 3.855 0.458694915 7.47157895 9.52777119 14.3115789"></polyline>
            <polyline id="Path" points="82.7093136 14.0810526 92.3088051 7.24105263 83.0545169 0.0852631579"></polyline>
            <path d="M1.20978814,7.48184211 L91.0785254,7.21578947" id="Path"></path>
        </g>
        <g id="Group" transform="translate(213.000000, 26.000000)" stroke="#000000" stroke-linejoin="round" stroke-width="0.5">
            <polyline id="Path" points="5.96526316 0.352 3.17131579 2.90326667 0.317368421 5.51026667 6.17605263 10.4404667"></polyline>
            <polyline id="Path" points="53.4568421 10.274 59.6589474 5.3438 53.6802632 0.186266667"></polyline>
            <path d="M0.802105263,5.5176 L58.8639474,5.32546667" id="Path"></path>
        </g>
        <g id="Group" transform="translate(284.000000, 26.000000)" stroke="#000000" stroke-linejoin="round" stroke-width="0.5">
            <polyline id="Path" points="10.4960611 0.242 5.6501374 2.8435 0.698625954 5.50235714 10.8620458 10.5309286"></polyline>
            <polyline id="Path" points="92.8759695 10.3612143 103.634809 5.33264286 93.2633893 0.0730714286"></polyline>
            <path d="M1.54015267,5.51021429 L102.255817,5.31457143" id="Path"></path>
        </g>
        <g id="Group" transform="translate(399.000000, 28.000000)" stroke="#000000" stroke-linejoin="round" stroke-width="0.5">
            <polyline id="Path" points="7.48646739 0.769214286 4.088 3.24028571 0.614945652 5.764 7.74276087 10.538"></polyline>
            <polyline id="Path" points="65.2588261 10.3777143 72.8032174 5.60292857 65.5301957 0.608928571"></polyline>
            <path d="M1.20529348,5.77107143 L71.8359674,5.58564286" id="Path"></path>
        </g>
        <g id="Group" transform="translate(481.000000, 26.000000)" stroke="#000000" stroke-linejoin="round" stroke-width="0.5">
            <polyline id="Path" points="9.62283465 0.8075 4.90685039 4.19416667 0.0882755906 7.655 9.97911811 14.2016667"></polyline>
            <polyline id="Path" points="89.7913858 13.9808333 100.261189 7.435 90.1683465 0.586666667"></polyline>
            <path d="M0.907409449,7.66583333 L98.9187638,7.41083333" id="Path"></path>
        </g>
    </g>
</svg>