<?xml version="1.0" encoding="UTF-8"?>
<svg width="91px" height="13px" viewBox="0 0 91 13" version="1.1" xmlns="http://www.w3.org/2000/svg" xmlns:xlink="http://www.w3.org/1999/xlink">
    <!-- Generator: Sketch 52.6 (67491) - http://www.bohemiancoding.com/sketch -->
    <title>Group 2</title>
    <desc>Created with Sketch.</desc>
    <defs>
        <rect id="path-1" x="0.0268899863" y="0.00694657981" width="7.5429275" height="2.85381184"></rect>
        <rect id="path-3" x="0.0268899863" y="0.00694657981" width="7.5429275" height="2.85381184"></rect>
        <rect id="path-5" x="0.0268899863" y="0.00694657981" width="7.5429275" height="2.85381184"></rect>
        <rect id="path-7" x="0.0268899863" y="0.00694657981" width="7.5429275" height="2.85381184"></rect>
        <rect id="path-9" x="0.0268899863" y="0.00694657981" width="7.5429275" height="2.85381184"></rect>
        <rect id="path-11" x="0.0268899863" y="0.00694657981" width="7.5429275" height="2.85381184"></rect>
        <rect id="path-13" x="0.0268899863" y="0.00694657981" width="7.5429275" height="2.85381184"></rect>
        <rect id="path-15" x="0.0450656253" y="0.0425384645" width="7.5429275" height="2.85381184"></rect>
        <rect id="path-17" x="0.0450656253" y="0.0425384645" width="7.5429275" height="2.85381184"></rect>
        <rect id="path-19" x="0.0450656253" y="0.0425384645" width="7.5429275" height="2.85381184"></rect>
        <rect id="path-21" x="0.0450656253" y="0.0425384645" width="7.5429275" height="2.85381184"></rect>
        <rect id="path-23" x="0.0450656253" y="0.0425384645" width="7.5429275" height="2.85381184"></rect>
        <rect id="path-25" x="0.0450656253" y="0.0425384645" width="7.5429275" height="2.85381184"></rect>
        <rect id="path-27" x="0.0450656253" y="0.0425384645" width="7.5429275" height="2.85381184"></rect>
        <rect id="path-29" x="0.106676062" y="0.0608883904" width="7.5429275" height="2.85381184"></rect>
        <rect id="path-31" x="0.106676062" y="0.0608883904" width="7.5429275" height="2.85381184"></rect>
        <rect id="path-33" x="0.106676062" y="0.0608883904" width="7.5429275" height="2.85381184"></rect>
        <rect id="path-35" x="0.106676062" y="0.0608883904" width="7.5429275" height="2.85381184"></rect>
        <rect id="path-37" x="0.106676062" y="0.0608883904" width="7.5429275" height="2.85381184"></rect>
        <rect id="path-39" x="0.106676062" y="0.0608883904" width="7.5429275" height="2.85381184"></rect>
        <rect id="path-41" x="0.106676062" y="0.0608883904" width="7.5429275" height="2.85381184"></rect>
        <rect id="path-43" x="0.064859643" y="0.0272634584" width="7.5429275" height="2.85381184"></rect>
        <rect id="path-45" x="0.064859643" y="0.0272634584" width="7.5429275" height="2.85381184"></rect>
        <rect id="path-47" x="0.064859643" y="0.0272634584" width="7.5429275" height="2.85381184"></rect>
        <rect id="path-49" x="0.064859643" y="0.0272634584" width="7.5429275" height="2.85381184"></rect>
        <rect id="path-51" x="0.064859643" y="0.0272634584" width="7.5429275" height="2.85381184"></rect>
        <rect id="path-53" x="0.064859643" y="0.0272634584" width="7.5429275" height="2.85381184"></rect>
        <rect id="path-55" x="0.064859643" y="0.0272634584" width="7.5429275" height="2.85381184"></rect>
        <rect id="path-57" x="0.0912516666" y="0.0239769045" width="7.5429275" height="2.85381184"></rect>
        <rect id="path-59" x="0.0912516666" y="0.0239769045" width="7.5429275" height="2.85381184"></rect>
        <rect id="path-61" x="0.0912516666" y="0.0239769045" width="7.5429275" height="2.85381184"></rect>
        <rect id="path-63" x="0.0912516666" y="0.0239769045" width="7.5429275" height="2.85381184"></rect>
        <rect id="path-65" x="0.0912516666" y="0.0239769045" width="7.5429275" height="2.85381184"></rect>
        <rect id="path-67" x="0.0912516666" y="0.0239769045" width="7.5429275" height="2.85381184"></rect>
        <rect id="path-69" x="0.0912516666" y="0.0239769045" width="7.5429275" height="2.85381184"></rect>
        <rect id="path-71" x="0.119262069" y="0.0918492219" width="7.5429275" height="2.85381184"></rect>
        <rect id="path-73" x="0.119262069" y="0.0918492219" width="7.5429275" height="2.85381184"></rect>
        <rect id="path-75" x="0.119262069" y="0.0918492219" width="7.5429275" height="2.85381184"></rect>
        <rect id="path-77" x="0.119262069" y="0.0918492219" width="7.5429275" height="2.85381184"></rect>
        <rect id="path-79" x="0.119262069" y="0.0918492219" width="7.5429275" height="2.85381184"></rect>
        <rect id="path-81" x="0.119262069" y="0.0918492219" width="7.5429275" height="2.85381184"></rect>
        <rect id="path-83" x="0.119262069" y="0.0918492219" width="7.5429275" height="2.85381184"></rect>
    </defs>
    <g id="Page-1" stroke="none" stroke-width="1" fill="none" fill-rule="evenodd">
        <g id="Group-2" transform="translate(1.000000, 0.000000)">
            <path d="M14.8656808,1.93438594 L15.0989763,12.8859055 C15.0989763,12.8859055 15.7102255,10.7688171 16.7100102,10.3701979 C17.7232398,9.96635017 17.6586291,10.1848313 19.7866728,8.35489304 C21.1584356,7.17528163 20.7100201,10.0797612 22.0446847,10.2429685 C23.7960195,10.4570924 25.8618178,10.7455373 26.4515302,10.122835 C27.9815206,8.50746882 28.9856624,11.6246905 28.9856624,11.6246905 L29.2036456,8.78002871 L29.4654495,5.36327002 L29.7265064,1.95587303" id="Path" stroke="#EB493A" stroke-width="0.5" stroke-linecap="round" stroke-linejoin="round"></path>
            <path d="M59.4469128,2.0037895 L59.6802083,12.9553713 C59.6802083,12.9553713 60.2913331,10.8381584 61.2912422,10.4396637 C62.3044718,10.0356915 62.2398612,10.2542971 64.3677803,8.42428415 C65.7395431,7.24467273 65.2911277,10.149227 66.6259167,10.3123098 C68.3772516,10.5264337 70.4429254,10.8148786 71.0327622,10.1921763 C72.5627526,8.57685992 73.5668944,11.6940318 73.5668944,11.6940318 L73.7848776,8.84941981 L74.0466815,5.43266113 L74.3077385,2.02527659" id="Path" stroke="#EB493A" stroke-width="0.5" stroke-linecap="round" stroke-linejoin="round"></path>
            <path d="M29.712688,1.97846809 L29.946108,12.9299752 C29.946108,12.9299752 30.5572327,10.8128868 31.5570174,10.4142676 C32.570247,10.0104199 32.5056363,10.228901 34.63368,8.39896274 C36.0054427,7.21935133 35.5570273,10.1238309 36.8916919,10.2870382 C38.6431512,10.5011621 40.708825,10.789607 41.2986618,10.1669047 C42.8286523,8.55155097 43.8326696,11.6687602 43.8326696,11.6687602 L44.0506528,8.82409841 L44.3124567,5.40733972 L44.5735136,1.99995518" id="Path" stroke="#EB493A" stroke-width="0.5" stroke-linecap="round" stroke-linejoin="round"></path>
            <path d="M74.29392,2.0478592 L74.5272155,12.999441 C74.5272155,12.999441 75.1384648,10.8822281 76.1382494,10.4837334 C77.151479,10.0797612 77.0868683,10.2983668 79.214912,8.4683663 C80.5865503,7.28875488 80.1381349,10.1932967 81.4729239,10.3563795 C83.2242588,10.5705034 85.2899326,10.8589483 85.8797694,10.236246 C87.4097598,8.62094207 88.4139016,11.7381015 88.4139016,11.7381015 L88.6318848,8.89348951 L88.8936887,5.47674327 L89.1547456,2.06934629" id="Path" stroke="#EB493A" stroke-width="0.5" stroke-linecap="round" stroke-linejoin="round"></path>
            <path d="M0.000846536607,1.9135711 L0.234154515,12.8651156 C0.234154515,12.8651156 0.845329048,10.7480271 1.84513858,10.349408 C2.8583931,9.94543574 2.79376999,10.1640414 4.92177628,8.33406575 C6.29351416,7.15445434 5.84511119,10.0589712 7.17981309,10.2221785 C8.93121019,10.436178 10.996884,10.7247474 11.5867208,10.1019205 C13.1167113,8.48664153 14.1208531,11.6037761 14.1208531,11.6037761 L14.3388362,8.75920142 L14.6006401,5.34244273 L14.8616971,1.93505819" id="Path" stroke="#EB493A" stroke-width="0.5" stroke-linecap="round" stroke-linejoin="round"></path>
            <path d="M44.581979,1.98296221 L44.815399,12.9344569 C44.815399,12.9344569 45.4265237,10.8173684 46.4263084,10.4187493 C47.439538,10.0149015 47.3749273,10.2333827 49.502971,8.40345686 C50.8747337,7.22385789 50.4263183,10.1283125 51.7609829,10.2915198 C53.5124422,10.5056438 55.578116,10.7940887 56.1679529,10.1713863 C57.6979433,8.55604508 58.7019606,11.6732418 58.7019606,11.6732418 L58.9199438,8.82859252 L59.1817477,5.41184628 L59.4429291,2.0044493" id="Path" stroke="#EB493A" stroke-width="0.5" stroke-linecap="round" stroke-linejoin="round"></path>
            <g id="Group" transform="translate(33.612483, 0.497963)">
                <g id="Clipped">
                    <mask id="mask-2" fill="white">
                        <use xlink:href="#path-1"></use>
                    </mask>
                    <g id="Rectangle"></g>
                    <path d="M1.04597067,0.611759638 L1.04597067,0.51585202 C1.1363509,0.50705053 1.19934319,0.492335731 1.23507201,0.471720075 C1.27067635,0.45109197 1.29731735,0.402328972 1.31499503,0.325406182 L1.41371613,0.325406182 L1.41371613,1.31653871 L1.28026213,1.31653871 L1.28026213,0.611759638 L1.04597067,0.611759638 Z" id="Path" fill="#000000" mask="url(#mask-2)"></path>
                </g>
                <g id="Clipped">
                    <mask id="mask-4" fill="white">
                        <use xlink:href="#path-3"></use>
                    </mask>
                    <g id="Rectangle"></g>
                    <path d="M2.26299154,1.08300665 C2.26672626,1.12471103 2.27718347,1.15668023 2.2942387,1.17891427 C2.32573484,1.2192368 2.38051074,1.23939184 2.45831741,1.23939184 C2.50462794,1.23939184 2.54546088,1.22930809 2.58056725,1.20915305 C2.61579812,1.18899801 2.63347579,1.157838 2.63347579,1.115673 C2.63347579,1.0837038 2.61928385,1.05936587 2.59102447,1.04269657 C2.57297332,1.03250078 2.5372445,1.02068662 2.48396249,1.00724162 L2.38461893,0.982218997 C2.32112868,0.966470926 2.27432019,0.948855495 2.24419344,0.929397602 C2.19053796,0.895573485 2.16364798,0.848777439 2.16364798,0.788997016 C2.16364798,0.71857264 2.18891958,0.661580808 2.23971178,0.618021519 C2.29050398,0.574462231 2.35872487,0.552688812 2.44437445,0.552688812 C2.55654055,0.552688812 2.637335,0.585579249 2.68700678,0.651385021 C2.71800496,0.693089398 2.73306833,0.738030533 2.7321969,0.786220874 L2.61393076,0.786220874 C2.61168992,0.75796149 2.60173067,0.732241716 2.58405299,0.709074001 C2.55542014,0.676171115 2.50562387,0.659725896 2.43466418,0.659725896 C2.38735772,0.659725896 2.3516289,0.66876392 2.32722873,0.686827517 C2.30295304,0.704903563 2.29075296,0.728768426 2.29075296,0.758422106 C2.29075296,0.790851927 2.30681225,0.816808233 2.33880636,0.836266126 C2.35723098,0.847843759 2.38461893,0.858039546 2.42072122,0.866841037 L2.50350752,0.886996077 C2.59338979,0.908781946 2.65364328,0.929858218 2.6841435,0.950249791 C2.73281935,0.982218997 2.75721953,1.03250078 2.75721953,1.10107025 C2.75721953,1.16733663 2.73207241,1.224565 2.68177818,1.27275534 C2.63148394,1.32093323 2.55492217,1.34503463 2.45209288,1.34503463 C2.34129617,1.34503463 2.26286705,1.31989996 2.21680549,1.26961817 C2.17061945,1.21934884 2.1459703,1.15714085 2.14273354,1.08300665 L2.26299154,1.08300665 Z" id="Path" fill="#000000" mask="url(#mask-4)"></path>
                </g>
                <g id="Clipped">
                    <mask id="mask-6" fill="white">
                        <use xlink:href="#path-5"></use>
                    </mask>
                    <g id="Rectangle"></g>
                    <path d="M3.21036559,0.555464954 C3.26314964,0.555464954 3.31431531,0.567864225 3.36398709,0.592650319 C3.41353438,0.617436413 3.45125505,0.64953011 3.4772736,0.68891896 C3.50229623,0.7264529 3.51897798,0.770236271 3.52731886,0.820281523 C3.53466381,0.854566256 3.53839853,0.909242561 3.53839853,0.98431044 L2.99275589,0.98431044 C2.99512121,1.05983893 3.01292338,1.1204161 3.04628688,1.16606683 C3.07965038,1.21170511 3.13131401,1.23452425 3.20127777,1.23452425 C3.26663538,1.23452425 3.31879697,1.21297492 3.35763806,1.16988869 C3.37992189,1.14486607 3.39573221,1.11589709 3.40494452,1.08300665 L3.52794131,1.08300665 C3.52470455,1.1103448 3.51399835,1.14080767 3.49569822,1.17439526 C3.4773981,1.20799529 3.45685713,1.23544548 3.43419983,1.25675829 C3.39610568,1.29383161 3.3491727,1.31885424 3.2930274,1.33182617 C3.26290066,1.33924581 3.2289147,1.34294318 3.19082056,1.34294318 C3.09819949,1.34294318 3.01964587,1.30924356 2.95528419,1.24181941 C2.89079802,1.17439526 2.85867943,1.07999397 2.85867943,0.958590666 C2.85867943,0.839042268 2.891047,0.741964438 2.95590665,0.667369624 C3.02076629,0.592762361 3.10566893,0.555464954 3.21036559,0.555464954 Z M3.40979966,0.884917083 C3.40469554,0.830701393 3.39286893,0.787378637 3.37431981,0.754948816 C3.34008488,0.694707777 3.28281917,0.664593482 3.20264717,0.664593482 C3.14525697,0.664593482 3.09707908,0.68532118 3.05811349,0.726789024 C3.01914791,0.768269318 2.99860695,0.820978671 2.99624163,0.884917083 L3.40979966,0.884917083 Z" id="Shape" fill="#000000" fill-rule="nonzero" mask="url(#mask-6)"></path>
                </g>
                <g id="Clipped">
                    <mask id="mask-8" fill="white">
                        <use xlink:href="#path-7"></use>
                    </mask>
                    <g id="Rectangle"></g>
                    <path d="M3.97909553,0.550597369 C4.06287775,0.550597369 4.13109864,0.570988941 4.1837582,0.611759638 C4.23629327,0.652542784 4.2679139,0.722743077 4.2786201,0.822360518 L4.1569927,0.822360518 C4.14952326,0.776485703 4.13271702,0.738379106 4.10620051,0.708028279 C4.07980848,0.677677452 4.03748165,0.662502039 3.97909553,0.662502039 C3.899297,0.662502039 3.84240476,0.701430273 3.80804533,0.779274294 C3.78588599,0.829780162 3.77468183,0.892100195 3.77468183,0.966234394 C3.77468183,1.04084166 3.79049215,1.10362231 3.82198829,1.15458879 C3.85348443,1.20556772 3.90303172,1.23105096 3.97075465,1.23105096 C4.02266726,1.23105096 4.06374919,1.2151784 4.09412491,1.18343328 C4.12437615,1.1517006 4.14541507,1.10825336 4.1569927,1.05311644 L4.2786201,1.05311644 C4.26467714,1.15181265 4.22994424,1.22397989 4.17429691,1.26961817 C4.11877407,1.31526891 4.04768989,1.33808805 3.96091989,1.33808805 C3.86369267,1.33808805 3.78601048,1.30252106 3.72812232,1.23139954 C3.67023415,1.16026556 3.64122783,1.07141657 3.64122783,0.964840098 C3.64122783,0.834174683 3.67297295,0.732465799 3.73646319,0.659725896 C3.79995344,0.586973544 3.88087238,0.550597369 3.97909553,0.550597369 Z" id="Path" fill="#000000" mask="url(#mask-8)"></path>
                </g>
                <g id="Clipped">
                    <mask id="mask-10" fill="white">
                        <use xlink:href="#path-9"></use>
                    </mask>
                    <g id="Rectangle"></g>
                    <path d="M4.6991496,1.2359061 C4.7820604,1.2359061 4.83895264,1.204522 4.86970183,1.1417289 C4.90057552,1.07894825 4.91601236,1.00909653 4.91601236,0.932173744 C4.91601236,0.862670599 4.9048082,0.806139382 4.88264886,0.762592543 C4.847418,0.694010629 4.78666655,0.659725896 4.700519,0.659725896 C4.62408173,0.659725896 4.56843439,0.68891896 4.53370149,0.747292639 C4.49896859,0.805678767 4.4815399,0.876115592 4.4815399,0.958590666 C4.4815399,1.03782898 4.49896859,1.10385884 4.53370149,1.15668023 C4.56843439,1.20950163 4.62358376,1.2359061 4.6991496,1.2359061 Z M4.70400474,0.550597369 C4.79986256,0.550597369 4.88103048,0.582579024 4.94725952,0.646517436 C5.01348856,0.710455848 5.04660309,0.804521003 5.04660309,0.928700454 C5.04660309,1.04870947 5.01747227,1.14787874 4.95908614,1.22618338 C4.90070001,1.30448801 4.8100708,1.34364033 4.68732299,1.34364033 C4.58486716,1.34364033 4.50357475,1.30900703 4.44332126,1.23974041 C4.38306777,1.17046135 4.35294103,1.07744192 4.35294103,0.960682109 C4.35294103,0.835568978 4.38468615,0.735951538 4.4481764,0.661804891 C4.51166664,0.587670692 4.59694276,0.550597369 4.70400474,0.550597369 Z" id="Shape" fill="#000000" fill-rule="nonzero" mask="url(#mask-10)"></path>
                </g>
                <g id="Clipped">
                    <mask id="mask-12" fill="white">
                        <use xlink:href="#path-11"></use>
                    </mask>
                    <g id="Rectangle"></g>
                    <path d="M5.19536944,0.572146705 L5.31425804,0.572146705 L5.31425804,0.677789494 C5.3494889,0.634242655 5.38671162,0.602958147 5.42617516,0.58396087 C5.46551421,0.564963593 5.50933493,0.555464954 5.55751283,0.555464954 C5.66308092,0.555464954 5.73453857,0.592301745 5.7715123,0.665975328 C5.79192877,0.70628541 5.80213701,0.76397439 5.80213701,0.839042268 L5.80213701,1.31653871 L5.67490753,1.31653871 L5.67490753,0.847383144 C5.67490753,0.801968945 5.66818504,0.765368685 5.65474004,0.737569917 C5.6325807,0.691234487 5.59224572,0.668066772 5.5338596,0.668066772 C5.50423082,0.668066772 5.47983064,0.671079446 5.46090806,0.677104795 C5.42654863,0.687288132 5.39642189,0.707679705 5.37052783,0.738267065 C5.34961339,0.762816626 5.3361684,0.788187827 5.32981938,0.814368216 C5.32359484,0.840548606 5.32048258,0.877970503 5.32048258,0.92662146 L5.32048258,1.31653871 L5.19536944,1.31653871 L5.19536944,0.572146705 Z" id="Path" fill="#000000" mask="url(#mask-12)"></path>
                </g>
                <g id="Clipped">
                    <mask id="mask-14" fill="white">
                        <use xlink:href="#path-13"></use>
                    </mask>
                    <g id="Rectangle"></g>
                    <path d="M6.06630622,0.953025933 C6.06630622,1.03272486 6.08311247,1.09945187 6.11697393,1.15320694 C6.15083539,1.20694957 6.20498884,1.2338271 6.27968325,1.2338271 C6.33757141,1.2338271 6.38512685,1.20891652 6.42247405,1.1591078 C6.45982126,1.10929908 6.47837037,1.03782898 6.47837037,0.944685057 C6.47837037,0.85063235 6.4591988,0.781004714 6.42073118,0.735827048 C6.38226356,0.690649381 6.33483262,0.668066772 6.27818936,0.668066772 C6.21519707,0.668066772 6.1641559,0.692155718 6.12494133,0.740346059 C6.08585126,0.7885364 6.06630622,0.859433841 6.06630622,0.953025933 Z M6.25466062,0.558938244 C6.31155286,0.558938244 6.35935728,0.570988941 6.3978249,0.595090337 C6.41998424,0.608983496 6.44525585,0.633308975 6.47351523,0.668066772 L6.47351523,0.29204268 L6.59377323,0.29204268 L6.59377323,1.31653871 L6.48123365,1.31653871 L6.48123365,1.21297492 C6.45197834,1.25884973 6.41749443,1.2919767 6.37765741,1.31236827 C6.33782039,1.33275985 6.29213231,1.34294318 6.24071766,1.34294318 C6.15780687,1.34294318 6.08597575,1.30808579 6.0252243,1.23834612 C5.96459734,1.16860644 5.93422162,1.07582354 5.93422162,0.959984962 C5.93422162,0.851553581 5.96185855,0.757612916 6.0172569,0.678138068 C6.07265525,0.598675668 6.15170683,0.558938244 6.25466062,0.558938244 Z" id="Shape" fill="#000000" fill-rule="nonzero" mask="url(#mask-14)"></path>
                </g>
            </g>
            <g id="Group" transform="translate(18.424620, 0.000000)">
                <g id="Clipped">
                    <mask id="mask-16" fill="white">
                        <use xlink:href="#path-15"></use>
                    </mask>
                    <g id="Rectangle"></g>
                    <path d="M1.06414631,0.647363972 L1.06414631,0.551456354 C1.15452654,0.542642414 1.21751883,0.527940065 1.25324765,0.50731196 C1.28897647,0.486696304 1.31561748,0.437933305 1.33317067,0.361010516 L1.43189177,0.361010516 L1.43189177,1.35214304 L1.29843777,1.35214304 L1.29843777,0.647363972 L1.06414631,0.647363972 Z" id="Path" fill="#000000" mask="url(#mask-16)"></path>
                </g>
                <g id="Clipped">
                    <mask id="mask-18" fill="white">
                        <use xlink:href="#path-17"></use>
                    </mask>
                    <g id="Rectangle"></g>
                    <path d="M2.28116717,1.11861098 C2.2849019,1.16030291 2.29535911,1.19228457 2.31253883,1.2145186 C2.34403497,1.25482868 2.39868637,1.27498372 2.47649305,1.27498372 C2.52280358,1.27498372 2.56363652,1.26491243 2.59886738,1.24475739 C2.63409825,1.22460235 2.65165143,1.19344233 2.65165143,1.15127734 C2.65165143,1.11929568 2.63758398,1.0949702 2.6093246,1.07828845 C2.59114896,1.06809267 2.55554463,1.0562785 2.50226262,1.04284596 L2.40279457,1.01782333 C2.33930432,1.00207526 2.29262032,0.984459829 2.26249357,0.965001936 C2.2087136,0.931177819 2.18182361,0.884381773 2.18182361,0.82460135 C2.18182361,0.754176973 2.20721971,0.697172692 2.25788742,0.653625853 C2.30867961,0.610066565 2.37690051,0.588293146 2.46255009,0.588293146 C2.57471619,0.588293146 2.65563513,0.621183583 2.70518242,0.686989355 C2.7361806,0.728681283 2.75124397,0.773634866 2.75037254,0.821825208 L2.63223089,0.821825208 C2.62986556,0.793553375 2.61990631,0.76784605 2.60235312,0.744678335 C2.57359578,0.711775449 2.52379951,0.69533023 2.45283982,0.69533023 C2.40565785,0.69533023 2.36980454,0.704355804 2.34552886,0.722431851 C2.32112868,0.740507897 2.30905309,0.764360311 2.30905309,0.794026439 C2.30905309,0.826456261 2.32498789,0.852400118 2.356982,0.87187046 C2.37553111,0.883448093 2.40279457,0.893643879 2.43902135,0.90244537 L2.52168316,0.922600411 C2.61156543,0.94438628 2.67181892,0.965462551 2.70244363,0.985854124 C2.75099499,1.01782333 2.77539516,1.06809267 2.77539516,1.13667458 C2.77539516,1.20294097 2.75024805,1.26015688 2.69995381,1.30834722 C2.64965958,1.35653757 2.57309781,1.38063896 2.47026851,1.38063896 C2.35947181,1.38063896 2.28104268,1.35550429 2.23498113,1.30522251 C2.18891958,1.25495317 2.16414594,1.19274518 2.16090918,1.11861098 L2.28116717,1.11861098 Z" id="Path" fill="#000000" mask="url(#mask-18)"></path>
                </g>
                <g id="Clipped">
                    <mask id="mask-20" fill="white">
                        <use xlink:href="#path-19"></use>
                    </mask>
                    <g id="Rectangle"></g>
                    <path d="M3.22854123,0.591069288 C3.28132528,0.591069288 3.33261544,0.603468559 3.38216273,0.628254653 C3.43171002,0.653040747 3.46955518,0.685134444 3.49544924,0.724510845 C3.52047187,0.762044784 3.53715362,0.805840605 3.5454945,0.855873408 C3.55283945,0.89017059 3.55657417,0.944846895 3.55657417,1.01991477 L3.01105602,1.01991477 C3.01329685,1.09544327 3.03109902,1.15602043 3.06446252,1.20165871 C3.09782602,1.24730945 3.14948965,1.27012859 3.21945341,1.27012859 C3.28481102,1.27012859 3.33697261,1.24857925 3.37593819,1.20548058 C3.39809753,1.18045795 3.41390785,1.15150142 3.42312016,1.11861098 L3.54624144,1.11861098 C3.54288019,1.14594914 3.53217399,1.176412 3.51387386,1.20999959 C3.49557373,1.24359962 3.47503277,1.27104982 3.45237547,1.29236262 C3.41440581,1.32943595 3.36734834,1.35445857 3.31120304,1.3674305 C3.28120079,1.3748377 3.24709034,1.37854752 3.20912068,1.37854752 C3.11637513,1.37854752 3.03782151,1.34483544 2.97345983,1.27742374 C2.90909815,1.20999959 2.87685507,1.11559831 2.87685507,0.994195 C2.87685507,0.874646602 2.90934713,0.777568772 2.97420678,0.702973958 C3.03906642,0.628366695 3.12384457,0.591069288 3.22854123,0.591069288 Z M3.4279753,0.920521417 C3.42287118,0.866305727 3.41116905,0.822982971 3.39261994,0.7905407 C3.35826052,0.730312111 3.3011193,0.700185367 3.2209473,0.700185367 C3.16343261,0.700185367 3.11525471,0.720925513 3.07628913,0.762393358 C3.03744804,0.803861203 3.01678259,0.856570556 3.01441727,0.920521417 L3.4279753,0.920521417 Z" id="Shape" fill="#000000" fill-rule="nonzero" mask="url(#mask-20)"></path>
                </g>
                <g id="Clipped">
                    <mask id="mask-22" fill="white">
                        <use xlink:href="#path-21"></use>
                    </mask>
                    <g id="Rectangle"></g>
                    <path d="M3.99727116,0.586201702 C4.08117788,0.586201702 4.14939877,0.606593275 4.20193384,0.647363972 C4.25459339,0.688147118 4.28621403,0.758347411 4.29679573,0.857964851 L4.17516834,0.857964851 C4.16782339,0.812090037 4.15089266,0.77398344 4.12450064,0.743632613 C4.09798412,0.713281786 4.05565729,0.698106372 3.99727116,0.698106372 C3.91759713,0.698106372 3.8605804,0.737022158 3.82622097,0.814866179 C3.80406163,0.865384496 3.79298196,0.927704529 3.79298196,1.00183873 C3.79298196,1.07643354 3.80866779,1.13922664 3.84016393,1.19019312 C3.87166007,1.24115961 3.92133185,1.26664285 3.98893029,1.26664285 C4.0408429,1.26664285 4.08192483,1.25078274 4.11230055,1.21903761 C4.14267628,1.18729249 4.16359071,1.14385769 4.17516834,1.08872077 L4.29679573,1.08872077 C4.28297727,1.18741698 4.24811988,1.25958423 4.19259704,1.30522251 C4.1369497,1.35086079 4.06586553,1.37367993 3.97922002,1.37367993 C3.88186831,1.37367993 3.80431061,1.33812539 3.74629796,1.26699142 C3.68840979,1.1958699 3.65952796,1.1070209 3.65952796,1.00044443 C3.65952796,0.869779017 3.69127308,0.768070133 3.75463883,0.69533023 C3.81812908,0.622577878 3.89904802,0.586201702 3.99727116,0.586201702 Z" id="Path" fill="#000000" mask="url(#mask-22)"></path>
                </g>
                <g id="Clipped">
                    <mask id="mask-24" fill="white">
                        <use xlink:href="#path-23"></use>
                    </mask>
                    <g id="Rectangle"></g>
                    <path d="M4.71732524,1.27151043 C4.80023603,1.27151043 4.85712827,1.24012633 4.88800196,1.17733324 C4.91875116,1.11455259 4.934188,1.04470087 4.934188,0.967778078 C4.934188,0.898274933 4.92310833,0.841743716 4.9008245,0.798196877 C4.86559364,0.729614963 4.80484219,0.69533023 4.71869464,0.69533023 C4.64225736,0.69533023 4.58661003,0.724510845 4.55187713,0.782896973 C4.51714423,0.841283101 4.49984003,0.911719926 4.49984003,0.994195 C4.49984003,1.07343332 4.51714423,1.13945072 4.55187713,1.19228457 C4.58661003,1.24510596 4.6417594,1.27151043 4.71732524,1.27151043 Z M4.72218038,0.586201702 C4.81816269,0.586201702 4.89920612,0.618170908 4.96543516,0.682121769 C5.0316642,0.746060181 5.06490321,0.840125337 5.06490321,0.964304788 C5.06490321,1.0843138 5.03564791,1.18347063 4.97726178,1.26178771 C4.91887565,1.34009235 4.82824644,1.37924467 4.70549863,1.37924467 C4.60316729,1.37924467 4.52175039,1.34461136 4.4614969,1.2753323 C4.4013679,1.20606568 4.37124116,1.11304625 4.37124116,0.996273994 C4.37124116,0.871173312 4.40298628,0.771543423 4.46647653,0.697409225 C4.52984228,0.623275026 4.6151184,0.586201702 4.72218038,0.586201702 Z" id="Shape" fill="#000000" fill-rule="nonzero" mask="url(#mask-24)"></path>
                </g>
                <g id="Clipped">
                    <mask id="mask-26" fill="white">
                        <use xlink:href="#path-25"></use>
                    </mask>
                    <g id="Rectangle"></g>
                    <path d="M5.21354508,0.607751039 L5.33243368,0.607751039 L5.33243368,0.713393828 C5.36766454,0.669834539 5.40501175,0.638562481 5.4443508,0.619565204 C5.48368985,0.600567926 5.52751057,0.591069288 5.57568846,0.591069288 C5.68138105,0.591069288 5.75271421,0.627906079 5.78981243,0.701579662 C5.81010441,0.741889744 5.82031265,0.799578724 5.82031265,0.874646602 L5.82031265,1.35214304 L5.69320766,1.35214304 L5.69320766,0.882987477 C5.69320766,0.837573278 5.68648517,0.800973019 5.67304017,0.773174251 C5.65075634,0.726838821 5.61042136,0.703671106 5.55203524,0.703671106 C5.52240645,0.703671106 5.49813077,0.706671331 5.4790837,0.71269668 C5.44484876,0.722892466 5.41472202,0.743284039 5.38870347,0.77385895 C5.36791352,0.79842096 5.35434404,0.82379216 5.34811951,0.84997255 C5.34177048,0.876152939 5.33865821,0.913562388 5.33865821,0.962225794 L5.33865821,1.35214304 L5.21354508,1.35214304 L5.21354508,0.607751039 Z" id="Path" fill="#000000" mask="url(#mask-26)"></path>
                </g>
                <g id="Clipped">
                    <mask id="mask-28" fill="white">
                        <use xlink:href="#path-27"></use>
                    </mask>
                    <g id="Rectangle"></g>
                    <path d="M6.08448186,0.988630266 C6.08448186,1.0683292 6.1014126,1.1350562 6.13514957,1.18879883 C6.16901103,1.2425539 6.22328897,1.26943144 6.29785888,1.26943144 C6.35574705,1.26943144 6.40342698,1.24452085 6.44064969,1.19471213 C6.4779969,1.14490341 6.4966705,1.07343332 6.4966705,0.980289391 C6.4966705,0.886224235 6.47737444,0.816609048 6.43890682,0.771431381 C6.4004392,0.726253714 6.35300825,0.703671106 6.29648949,0.703671106 C6.2334972,0.703671106 6.18233154,0.727760052 6.14324146,0.775950393 C6.1040269,0.824140734 6.08448186,0.895038175 6.08448186,0.988630266 Z M6.27283626,0.594542578 C6.32985299,0.594542578 6.37753292,0.606593275 6.41600054,0.630682221 C6.43828437,0.64458783 6.46355598,0.668913308 6.49181536,0.703671106 L6.49181536,0.327647014 L6.61194886,0.327647014 L6.61194886,1.35214304 L6.49940929,1.35214304 L6.49940929,1.24857925 C6.47027847,1.29445406 6.43567006,1.32758103 6.39583305,1.34797261 C6.35599603,1.36835173 6.31030795,1.37854752 6.2588933,1.37854752 C6.17598251,1.37854752 6.10415139,1.34367768 6.04352443,1.27395045 C5.98277298,1.20421077 5.95239725,1.11142787 5.95239725,0.995576846 C5.95239725,0.887157915 5.98015868,0.793204801 6.03543254,0.713742401 C6.09083089,0.634280002 6.17000696,0.594542578 6.27283626,0.594542578 Z" id="Shape" fill="#000000" fill-rule="nonzero" mask="url(#mask-28)"></path>
                </g>
            </g>
            <g id="Group" transform="translate(3.610230, 0.124491)">
                <g id="Clipped">
                    <mask id="mask-30" fill="white">
                        <use xlink:href="#path-29"></use>
                    </mask>
                    <g id="Rectangle"></g>
                    <path d="M1.12578165,0.665713898 L1.12578165,0.569793831 C1.21613698,0.56099234 1.27915416,0.546277542 1.31483319,0.525661886 C1.35051222,0.50504623 1.37715322,0.456270782 1.3947562,0.379360442 L1.49345241,0.379360442 L1.49345241,1.37048052 L1.36001086,1.37048052 L1.36001086,0.665713898 L1.12578165,0.665713898 Z" id="Path" fill="#000000" mask="url(#mask-30)"></path>
                </g>
                <g id="Clipped">
                    <mask id="mask-32" fill="white">
                        <use xlink:href="#path-31"></use>
                    </mask>
                    <g id="Rectangle"></g>
                    <path d="M2.34279006,1.13694846 C2.34649988,1.17865284 2.3569322,1.21062204 2.37407457,1.23286853 C2.40558316,1.27317861 2.46025946,1.29333365 2.53810348,1.29333365 C2.58443891,1.29333365 2.62520961,1.2832499 2.66042802,1.26309486 C2.69564644,1.24293982 2.71324942,1.21177981 2.71324942,1.16961481 C2.71324942,1.13764561 2.69911973,1.11332013 2.67086034,1.09663838 C2.6527843,1.08644259 2.61710527,1.07462843 2.56382326,1.06119588 L2.4644299,1.03617326 C2.4009521,1.02041274 2.35414361,1.00280975 2.32402932,0.983351862 C2.27027424,0.949515296 2.24340915,0.90271925 2.24340915,0.842951276 C2.24340915,0.77251445 2.2687679,0.715522618 2.3195103,0.67196333 C2.3702527,0.628416491 2.43847359,0.606630622 2.52419788,0.606630622 C2.63633908,0.606630622 2.71719577,0.639533509 2.76676796,0.705326832 C2.79781594,0.747031209 2.81287931,0.791972343 2.81194563,0.840162684 L2.69379153,0.840162684 C2.691476,0.811903301 2.68151674,0.786183527 2.66390131,0.763015812 C2.63518131,0.730112925 2.58536015,0.713667707 2.51447515,0.713667707 C2.46720604,0.713667707 2.43141497,0.72270573 2.4070895,0.740781777 C2.38276402,0.758845374 2.37060128,0.782710237 2.37060128,0.812363916 C2.37060128,0.844806187 2.38658588,0.870750044 2.41855509,0.890207937 C2.43709175,0.901798019 2.4644299,0.911993805 2.50056954,0.920795296 L2.58328115,0.940950337 C2.67317587,0.962723756 2.73340446,0.983812477 2.76399182,1.0041916 C2.81264278,1.03617326 2.83696825,1.08644259 2.83696825,1.15502451 C2.83696825,1.22127844 2.81183359,1.27850681 2.7615518,1.32669715 C2.71128247,1.37488749 2.63470825,1.39897644 2.5318416,1.39897644 C2.42110715,1.39897644 2.34267802,1.37384177 2.29657912,1.32357243 C2.25046777,1.27329065 2.22579372,1.21108266 2.22255696,1.13694846 L2.34279006,1.13694846 Z" id="Path" fill="#000000" mask="url(#mask-32)"></path>
                </g>
                <g id="Clipped">
                    <mask id="mask-34" fill="white">
                        <use xlink:href="#path-33"></use>
                    </mask>
                    <g id="Rectangle"></g>
                    <path d="M3.29013922,0.609419214 C3.34296061,0.609419214 3.39416363,0.621806036 3.44373582,0.646604579 C3.49332045,0.671390673 3.53107848,0.703471921 3.55703478,0.742860771 C3.58205741,0.78039471 3.59873916,0.824178081 3.60708003,0.874223334 C3.61448723,0.908508066 3.61819705,0.963184372 3.61819705,1.03825225 L3.07259176,1.03825225 C3.07490729,1.11378074 3.0927468,1.17437036 3.1261103,1.22000864 C3.1594738,1.26564692 3.21113743,1.28846606 3.28110119,1.28846606 C3.3464339,1.28846606 3.39855815,1.26691673 3.43748638,1.2238305 C3.45973287,1.19880788 3.47548094,1.16985135 3.48474305,1.13694846 L3.60776473,1.13694846 C3.60452797,1.16428661 3.59375953,1.19474948 3.57544695,1.22834952 C3.55714682,1.2619371 3.53664321,1.28939974 3.51393611,1.31071255 C3.47594155,1.34777342 3.42890898,1.37279605 3.37285082,1.38578043 C3.34272408,1.39318762 3.30867588,1.39689744 3.27068133,1.39689744 C3.17799802,1.39689744 3.0994693,1.36318537 3.03505782,1.29576122 C2.97064634,1.22834952 2.9384406,1.13393579 2.9384406,1.01253248 C2.9384406,0.892996528 2.97088288,0.795918698 3.03575497,0.721311435 C3.10062706,0.646716621 3.18541766,0.609419214 3.29013922,0.609419214 Z M3.48961063,0.938858894 C3.48451896,0.884655653 3.4727048,0.841320448 3.45416813,0.808890626 C3.4198834,0.748649587 3.36265504,0.718535292 3.28249549,0.718535292 C3.22503059,0.718535292 3.17684025,0.739275439 3.13792447,0.780743284 C3.09899623,0.822211129 3.07838058,0.874920482 3.07606505,0.938858894 L3.48961063,0.938858894 Z" id="Shape" fill="#000000" fill-rule="nonzero" mask="url(#mask-34)"></path>
                </g>
                <g id="Clipped">
                    <mask id="mask-36" fill="white">
                        <use xlink:href="#path-35"></use>
                    </mask>
                    <g id="Rectangle"></g>
                    <path d="M4.0588567,0.604551628 C4.14272607,0.604551628 4.21094696,0.624930752 4.26354427,0.665713898 C4.31612914,0.706484595 4.34776222,0.776684888 4.35841862,0.876314777 L4.23677878,0.876314777 C4.22937158,0.830439963 4.2124533,0.792320917 4.18604883,0.76197009 C4.15963191,0.731619263 4.11723038,0.716443849 4.0588567,0.716443849 C3.97915777,0.716443849 3.92216594,0.755372084 3.88786876,0.833216105 C3.86563472,0.883721972 3.85450526,0.946042006 3.85450526,1.02018865 C3.85450526,1.09478347 3.87026578,1.15756412 3.90177437,1.20854305 C3.93328296,1.25950953 3.98285514,1.28499277 4.05051583,1.28499277 C4.10240354,1.28499277 4.14353526,1.26912021 4.17388609,1.23738754 C4.20423692,1.20564242 4.22520115,1.16220762 4.23677878,1.10705825 L4.35841862,1.10705825 C4.34451301,1.20575446 4.30976766,1.2779217 4.25415768,1.32357243 C4.19856014,1.36921072 4.12742617,1.39202986 4.04078066,1.39202986 C3.94347874,1.39202986 3.86585881,1.35646287 3.80794574,1.28534135 C3.75002023,1.21421982 3.7210637,1.12537083 3.7210637,1.01879436 C3.7210637,0.888128942 3.75279637,0.786420059 3.81628662,0.713667707 C3.87976441,0.640927804 3.96062111,0.604551628 4.0588567,0.604551628 Z" id="Path" fill="#000000" mask="url(#mask-36)"></path>
                </g>
                <g id="Clipped">
                    <mask id="mask-38" fill="white">
                        <use xlink:href="#path-37"></use>
                    </mask>
                    <g id="Rectangle"></g>
                    <path d="M4.77894813,1.28986036 C4.86185892,1.28986036 4.91875116,1.25846381 4.94950036,1.19568316 C4.98037404,1.13289006 4.99581089,1.06303834 4.99581089,0.986128004 C4.99581089,0.916624859 4.98460673,0.860093642 4.96244739,0.816534354 C4.92721653,0.74795244 4.86646507,0.713667707 4.78031753,0.713667707 C4.70385535,0.713667707 4.64824537,0.742860771 4.61350002,0.801246899 C4.57874222,0.859633026 4.56136332,0.930057403 4.56136332,1.01253248 C4.56136332,1.09177079 4.57874222,1.15780065 4.61350002,1.21062204 C4.64824537,1.26344344 4.70338229,1.28986036 4.77894813,1.28986036 Z M4.78380326,0.604551628 C4.87966109,0.604551628 4.96082901,0.636520834 5.02705805,0.700459246 C5.09328709,0.764410107 5.12640161,0.858475263 5.12640161,0.982654714 C5.12640161,1.10266373 5.09727079,1.20182055 5.03888466,1.28012519 C4.98049854,1.35844227 4.88986932,1.39759459 4.76712151,1.39759459 C4.66469058,1.39759459 4.58337327,1.36294884 4.52314468,1.29368222 C4.46290365,1.22440316 4.43278935,1.13138373 4.43278935,1.01462392 C4.43278935,0.889510789 4.46452202,0.789893349 4.52799982,0.71575915 C4.59149007,0.641612503 4.67674128,0.604551628 4.78380326,0.604551628 Z" id="Shape" fill="#000000" fill-rule="nonzero" mask="url(#mask-38)"></path>
                </g>
                <g id="Clipped">
                    <mask id="mask-40" fill="white">
                        <use xlink:href="#path-39"></use>
                    </mask>
                    <g id="Rectangle"></g>
                    <path d="M5.27516797,0.626088515 L5.39405657,0.626088515 L5.39405657,0.731743753 C5.42928743,0.688184465 5.46651014,0.656912407 5.50597369,0.63791513 C5.54531274,0.618917852 5.58913346,0.609419214 5.63731135,0.609419214 C5.74287944,0.609419214 5.81433709,0.646256005 5.85131082,0.719929588 C5.8717273,0.760239669 5.88193553,0.817928649 5.88193553,0.892996528 L5.88193553,1.37048052 L5.75470606,1.37048052 L5.75470606,0.901324954 C5.75470606,0.855923204 5.74798356,0.819310496 5.73453857,0.791511728 C5.71237923,0.745176297 5.67204425,0.722008582 5.61365812,0.722008582 C5.58402934,0.722008582 5.55962917,0.725021257 5.54070658,0.731046606 C5.50634716,0.741242392 5.47622041,0.761621516 5.45032635,0.792208875 C5.42941192,0.816770886 5.41596693,0.842142086 5.4096179,0.868322476 C5.40339337,0.894490416 5.4002811,0.931912314 5.4002811,0.980563271 L5.4002811,1.37048052 L5.27516797,1.37048052 L5.27516797,0.626088515 Z" id="Path" fill="#000000" mask="url(#mask-40)"></path>
                </g>
                <g id="Clipped">
                    <mask id="mask-42" fill="white">
                        <use xlink:href="#path-41"></use>
                    </mask>
                    <g id="Rectangle"></g>
                    <path d="M6.14610475,1.00698019 C6.14610475,1.08667912 6.16303548,1.15339368 6.19677245,1.20714875 C6.23063392,1.26090383 6.28478736,1.28776892 6.35948177,1.28776892 C6.41736994,1.28776892 6.46492537,1.26287078 6.50227258,1.21306206 C6.53961978,1.16324089 6.55816889,1.09177079 6.55816889,0.998639317 C6.55816889,0.904574161 6.53899733,0.834958974 6.50052971,0.789781307 C6.46206209,0.74460364 6.41463114,0.722008582 6.35798788,0.722008582 C6.2949956,0.722008582 6.24395442,0.746109978 6.20473986,0.794300319 C6.16564979,0.842478211 6.14610475,0.913375652 6.14610475,1.00698019 Z M6.33445914,0.612892504 C6.39135138,0.612892504 6.4391558,0.624930752 6.47762342,0.649032147 C6.49978276,0.662937756 6.52505437,0.687263234 6.55331376,0.722008582 L6.55331376,0.34599694 L6.67357175,0.34599694 L6.67357175,1.37048052 L6.56103218,1.37048052 L6.56103218,1.26691673 C6.53177687,1.31279154 6.49729295,1.34593096 6.45745593,1.36631008 C6.41761892,1.38670166 6.37193084,1.39689744 6.32051619,1.39689744 C6.2376054,1.39689744 6.16577428,1.3620276 6.10502283,1.29228793 C6.04439587,1.2225607 6.01402014,1.12976535 6.01402014,1.01392677 C6.01402014,0.905495392 6.04165707,0.811554727 6.09705542,0.732092327 C6.15245377,0.652617479 6.23150535,0.612892504 6.33445914,0.612892504 Z" id="Shape" fill="#000000" fill-rule="nonzero" mask="url(#mask-42)"></path>
                </g>
            </g>
            <g id="Group" transform="translate(48.302383, 0.373472)">
                <g id="Clipped">
                    <mask id="mask-44" fill="white">
                        <use xlink:href="#path-43"></use>
                    </mask>
                    <g id="Rectangle"></g>
                    <path d="M1.08394033,0.632088966 L1.08394033,0.536181348 C1.17432056,0.527379857 1.23731284,0.512665059 1.27291718,0.492036954 C1.308646,0.471421298 1.33528701,0.422658299 1.35284019,0.34573551 L1.4515613,0.34573551 L1.4515613,1.33686804 L1.31810729,1.33686804 L1.31810729,0.632088966 L1.08394033,0.632088966 Z" id="Path" fill="#000000" mask="url(#mask-44)"></path>
                </g>
                <g id="Clipped">
                    <mask id="mask-46" fill="white">
                        <use xlink:href="#path-45"></use>
                    </mask>
                    <g id="Rectangle"></g>
                    <path d="M2.30096119,1.10333598 C2.30469591,1.1450279 2.31502864,1.17700956 2.33220835,1.19924359 C2.36370449,1.23955368 2.4183559,1.25972117 2.49628707,1.25972117 C2.5425976,1.25972117 2.58330605,1.24963742 2.61853691,1.22948238 C2.65376777,1.20932734 2.67144545,1.17816732 2.67144545,1.13600233 C2.67144545,1.10402068 2.65725351,1.0796952 2.62899413,1.06301345 C2.61094298,1.05283011 2.57521416,1.04100349 2.52193215,1.02757095 L2.42258858,1.00254832 C2.35909834,0.986800253 2.31228984,0.969184823 2.2821631,0.94972693 C2.22838313,0.915902813 2.20149314,0.869106767 2.20149314,0.809326344 C2.20149314,0.738901967 2.22688924,0.681910135 2.27768144,0.638350847 C2.32834914,0.594791559 2.39657003,0.57301814 2.48234411,0.57301814 C2.59451021,0.57301814 2.67530466,0.605908577 2.72485195,0.671714349 C2.75597462,0.713418726 2.77103799,0.75835986 2.77004207,0.806550201 L2.65190041,0.806550201 C2.64965958,0.778278369 2.63970033,0.752571044 2.62202265,0.729403329 C2.5932653,0.696500443 2.54346903,0.680055224 2.47263384,0.680055224 C2.42532738,0.680055224 2.38959855,0.689080798 2.36519838,0.707156845 C2.3409227,0.725232891 2.32872261,0.749097754 2.32872261,0.778751433 C2.32872261,0.811181255 2.34478191,0.837125112 2.37665152,0.856595454 C2.39520064,0.868173087 2.42258858,0.878368873 2.45869088,0.887170364 L2.54147718,0.907325405 C2.63135945,0.929111274 2.69148845,0.950187545 2.72211315,0.970579118 C2.77078901,1.00254832 2.79506469,1.05283011 2.79506469,1.12139957 C2.79506469,1.18766596 2.76991757,1.24488188 2.71974783,1.29307222 C2.6694536,1.34126256 2.59289183,1.36536395 2.48993804,1.36536395 C2.37926583,1.36536395 2.3008367,1.34022929 2.25477515,1.2899475 C2.20858911,1.23967817 2.18393996,1.17747018 2.1807032,1.10333598 L2.30096119,1.10333598 Z" id="Path" fill="#000000" mask="url(#mask-46)"></path>
                </g>
                <g id="Clipped">
                    <mask id="mask-48" fill="white">
                        <use xlink:href="#path-47"></use>
                    </mask>
                    <g id="Rectangle"></g>
                    <path d="M3.24833525,0.575794282 C3.3011193,0.575794282 3.35228496,0.588193553 3.40183225,0.612979647 C3.45150403,0.637765741 3.48922471,0.669859438 3.51511877,0.709248288 C3.5401414,0.746769778 3.55682315,0.790565598 3.56516402,0.840610851 C3.57263346,0.874895583 3.57636818,0.929571889 3.57636818,1.00463977 L3.03072554,1.00463977 C3.03309087,1.08016826 3.05089303,1.14074543 3.08425654,1.18638371 C3.11762004,1.23203444 3.16928367,1.25485358 3.23924743,1.25485358 C3.30460503,1.25485358 3.35664214,1.23330424 3.39560772,1.19020557 C3.41789155,1.16519539 3.43357738,1.13622641 3.44291418,1.10333598 L3.56591097,1.10333598 C3.56267421,1.13067413 3.55184352,1.161137 3.53354339,1.19472458 C3.51524326,1.22832462 3.49482679,1.25577481 3.472045,1.27708762 C3.43407534,1.31416094 3.38701786,1.33918357 3.33099706,1.35215549 C3.30087031,1.35957514 3.26675987,1.36327251 3.22879021,1.36327251 C3.13616915,1.36327251 3.05761553,1.32957288 2.99325385,1.26214873 C2.92876768,1.19472458 2.89652459,1.1003233 2.89652459,0.978919994 C2.89652459,0.859371596 2.92901666,0.762293766 2.9938763,0.687698952 C3.05873595,0.613091689 3.1435141,0.575794282 3.24833525,0.575794282 Z M3.44776931,0.905246411 C3.4426652,0.851030721 3.43083858,0.807707965 3.41228947,0.775265694 C3.37805453,0.715037104 3.32078882,0.68491036 3.24061683,0.68491036 C3.18322662,0.68491036 3.13492424,0.705650507 3.09608315,0.747118352 C3.05711757,0.788598646 3.03657661,0.84129555 3.03421128,0.905246411 L3.44776931,0.905246411 Z" id="Shape" fill="#000000" fill-rule="nonzero" mask="url(#mask-48)"></path>
                </g>
                <g id="Clipped">
                    <mask id="mask-50" fill="white">
                        <use xlink:href="#path-49"></use>
                    </mask>
                    <g id="Rectangle"></g>
                    <path d="M4.01694069,0.570926696 C4.10084741,0.570926696 4.1690683,0.591318269 4.22172786,0.632088966 C4.27426292,0.672872112 4.30588355,0.743072405 4.31658975,0.842689845 L4.19496236,0.842689845 C4.18749292,0.796815031 4.17056219,0.758708434 4.14417016,0.728357607 C4.11777814,0.69800678 4.07532682,0.682831366 4.01694069,0.682831366 C3.93726666,0.682831366 3.88024993,0.721759601 3.84601499,0.799603622 C3.82373116,0.85010949 3.81265149,0.912429523 3.81265149,0.986563721 C3.81265149,1.06117098 3.82846181,1.12395163 3.85995795,1.17491812 C3.89145409,1.2258846 3.94100138,1.25138029 4.00859982,1.25138029 C4.06051243,1.25138029 4.10171884,1.23550773 4.13197008,1.20376261 C4.1623458,1.17202993 4.18338473,1.12858269 4.19496236,1.07344577 L4.31658975,1.07344577 C4.3026468,1.17214197 4.2679139,1.24430922 4.21226656,1.2899475 C4.15674372,1.33558578 4.08553505,1.35841737 3.99888954,1.35841737 C3.90166232,1.35841737 3.82398014,1.32285039 3.76609198,1.25171642 C3.70820381,1.18059489 3.67919748,1.09174589 3.67919748,0.985169426 C3.67919748,0.85450401 3.71094261,0.752795127 3.77443285,0.680055224 C3.8379231,0.607302872 3.91871755,0.570926696 4.01694069,0.570926696 Z" id="Path" fill="#000000" mask="url(#mask-50)"></path>
                </g>
                <g id="Clipped">
                    <mask id="mask-52" fill="white">
                        <use xlink:href="#path-51"></use>
                    </mask>
                    <g id="Rectangle"></g>
                    <path d="M4.73699477,1.25623543 C4.82003005,1.25623543 4.87692229,1.22485133 4.90767149,1.16205823 C4.93854518,1.09927758 4.95385753,1.02942586 4.95385753,0.952503072 C4.95385753,0.882999927 4.94277786,0.82646871 4.92049403,0.782921871 C4.88538766,0.714339957 4.82463621,0.680055224 4.73848866,0.680055224 C4.66205138,0.680055224 4.60640405,0.709248288 4.57167115,0.767621967 C4.53693825,0.826008094 4.51950956,0.89644492 4.51950956,0.978919994 C4.51950956,1.05815831 4.53693825,1.12418817 4.57167115,1.17700956 C4.60640405,1.22983095 4.66155342,1.25623543 4.73699477,1.25623543 Z M4.7419744,0.570926696 C4.83783222,0.570926696 4.91887565,0.602895902 4.98522918,0.666846763 C5.05145822,0.730785175 5.08457274,0.824850331 5.08457274,0.949029782 C5.08457274,1.0690388 5.05544192,1.16819562 4.9970558,1.2465127 C4.93866967,1.32481734 4.84804045,1.36396966 4.72529265,1.36396966 C4.62283682,1.36396966 4.54154441,1.32933635 4.48129092,1.26005729 C4.42103743,1.19079068 4.39091069,1.09777124 4.39091069,0.980998988 C4.39091069,0.855898306 4.42265581,0.756268417 4.48614605,0.682134218 C4.5496363,0.60800002 4.63491241,0.570926696 4.7419744,0.570926696 Z" id="Shape" fill="#000000" fill-rule="nonzero" mask="url(#mask-52)"></path>
                </g>
                <g id="Clipped">
                    <mask id="mask-54" fill="white">
                        <use xlink:href="#path-53"></use>
                    </mask>
                    <g id="Rectangle"></g>
                    <path d="M5.2333391,0.592476032 L5.3522277,0.592476032 L5.3522277,0.698118821 C5.38733407,0.654571982 5.42468127,0.623287475 5.46402033,0.604290198 C5.50348387,0.58529292 5.5471801,0.575794282 5.59548248,0.575794282 C5.70105058,0.575794282 5.77238374,0.612631073 5.80948196,0.686304656 C5.82989843,0.726614737 5.84010666,0.784303717 5.84010666,0.859371596 L5.84010666,1.33686804 L5.71287719,1.33686804 L5.71287719,0.867712471 C5.71287719,0.822298272 5.70615469,0.785698013 5.6927097,0.757899245 C5.67055036,0.711563815 5.63021538,0.688396099 5.57182925,0.688396099 C5.54220047,0.688396099 5.5178003,0.691408774 5.49887772,0.697421674 C5.46451829,0.70761746 5.43439155,0.728009033 5.40849748,0.758596393 C5.38758305,0.783145954 5.37401357,0.808517154 5.36778903,0.834697544 C5.3615645,0.860877933 5.35845223,0.898299831 5.35845223,0.946950788 L5.35845223,1.33686804 L5.2333391,1.33686804 L5.2333391,0.592476032 Z" id="Path" fill="#000000" mask="url(#mask-54)"></path>
                </g>
                <g id="Clipped">
                    <mask id="mask-56" fill="white">
                        <use xlink:href="#path-55"></use>
                    </mask>
                    <g id="Rectangle"></g>
                    <path d="M6.10415139,0.97335526 C6.10415139,1.05305419 6.12108212,1.1197812 6.15494359,1.17353627 C6.18880505,1.2272789 6.2429585,1.25415643 6.31752841,1.25415643 C6.37554107,1.25415643 6.42309651,1.22924585 6.46044371,1.17943713 C6.49766642,1.12962841 6.51634002,1.05815831 6.51634002,0.965014385 C6.51634002,0.870961678 6.49716846,0.801334042 6.45870084,0.756156375 C6.42023322,0.710978708 6.37267778,0.688396099 6.31615901,0.688396099 C6.25316673,0.688396099 6.20212555,0.712485046 6.16291099,0.760675387 C6.12382092,0.808865728 6.10415139,0.879763169 6.10415139,0.97335526 Z M6.29250579,0.579267572 C6.34952252,0.579267572 6.39732694,0.591318269 6.43579456,0.615407215 C6.4579539,0.629312824 6.4832255,0.653638302 6.51148489,0.688396099 L6.51148489,0.312372008 L6.63174288,0.312372008 L6.63174288,1.33686804 L6.51907882,1.33686804 L6.51907882,1.23330424 C6.489948,1.27917906 6.45546408,1.31230603 6.41562707,1.3326976 C6.37579005,1.35307672 6.33010197,1.36327251 6.27868732,1.36327251 C6.19565204,1.36327251 6.12394541,1.32840267 6.06319396,1.25867544 C6.00244251,1.18893577 5.97219127,1.09615286 5.97219127,0.980314289 C5.97219127,0.871882909 5.9998282,0.777942244 6.05522655,0.698467395 C6.11062491,0.619004996 6.18967649,0.579267572 6.29250579,0.579267572 Z" id="Shape" fill="#000000" fill-rule="nonzero" mask="url(#mask-56)"></path>
                </g>
            </g>
            <g id="Group" transform="translate(62.867792, 0.248981)">
                <g id="Clipped">
                    <mask id="mask-58" fill="white">
                        <use xlink:href="#path-57"></use>
                    </mask>
                    <g id="Rectangle"></g>
                    <path d="M1.11033235,0.628802412 L1.11033235,0.532894794 C1.20071258,0.524080854 1.26370487,0.509378505 1.29943369,0.4887504 C1.33503803,0.468134744 1.36167903,0.419371745 1.37935671,0.342448956 L1.47807781,0.342448956 L1.47807781,1.33358148 L1.34462381,1.33358148 L1.34462381,0.628802412 L1.11033235,0.628802412 Z" id="Path" fill="#000000" mask="url(#mask-58)"></path>
                </g>
                <g id="Clipped">
                    <mask id="mask-60" fill="white">
                        <use xlink:href="#path-59"></use>
                    </mask>
                    <g id="Rectangle"></g>
                    <path d="M2.32735322,1.10003697 C2.33108794,1.14174135 2.34154515,1.17372301 2.35860038,1.19595704 C2.39022101,1.23626712 2.44487242,1.25642216 2.52267909,1.25642216 C2.56898962,1.25642216 2.60982256,1.24635087 2.64505343,1.22619583 C2.68028429,1.20604079 2.69783747,1.17488077 2.69783747,1.13271578 C2.69783747,1.10073412 2.68364554,1.07640864 2.65538615,1.05972689 C2.637335,1.04953111 2.60173067,1.03771694 2.54844866,1.0242844 L2.44898061,0.99926177 C2.38549036,0.9835137 2.33868187,0.965898269 2.30855512,0.946440376 C2.25489964,0.912616259 2.22800966,0.865820213 2.22800966,0.80603979 C2.22800966,0.735615413 2.25340575,0.678611132 2.30407346,0.635064293 C2.35486566,0.591505005 2.42308655,0.569731586 2.50873613,0.569731586 C2.62090223,0.569731586 2.70182117,0.602622023 2.75136846,0.668427795 C2.78236664,0.710119723 2.79743001,0.755073306 2.79655858,0.803263648 L2.67841693,0.803263648 C2.6760516,0.774991815 2.66609235,0.74928449 2.64853916,0.726116775 C2.61978182,0.693213889 2.56998555,0.67676867 2.49902586,0.67676867 C2.45184389,0.67676867 2.41599058,0.685794244 2.3917149,0.703870291 C2.36731472,0.721946337 2.35511464,0.745798751 2.35511464,0.775464879 C2.35511464,0.807894701 2.37117393,0.833838558 2.40316804,0.8533089 C2.42171715,0.864886533 2.44898061,0.875082319 2.4852074,0.88388381 L2.56786921,0.904038851 C2.65775147,0.92582472 2.71800496,0.946900991 2.74862967,0.967292564 C2.79718103,0.99926177 2.82158121,1.04953111 2.82158121,1.11811302 C2.82158121,1.18437941 2.79643409,1.24159532 2.74613986,1.28978566 C2.69584562,1.33797601 2.61928385,1.3620774 2.51645456,1.3620774 C2.40565785,1.3620774 2.32722873,1.33693028 2.28116717,1.28666095 C2.23510562,1.23639161 2.21033198,1.17418362 2.20709522,1.10003697 L2.32735322,1.10003697 Z" id="Path" fill="#000000" mask="url(#mask-60)"></path>
                </g>
                <g id="Clipped">
                    <mask id="mask-62" fill="white">
                        <use xlink:href="#path-61"></use>
                    </mask>
                    <g id="Rectangle"></g>
                    <path d="M3.27472727,0.572507728 C3.32751132,0.572507728 3.37880148,0.584906999 3.42834877,0.609693093 C3.47789606,0.634479187 3.51561673,0.666572884 3.54163528,0.705949285 C3.56665791,0.743483224 3.58333966,0.787279045 3.59168054,0.837311848 C3.59902549,0.87160903 3.60276021,0.926285335 3.60276021,1.00135321 L3.05711757,1.00135321 C3.05948289,1.07686926 3.07728506,1.13745887 3.11064856,1.18309715 C3.14401206,1.22873544 3.19567569,1.25156703 3.26563945,1.25156703 C3.33099706,1.25156703 3.38315865,1.23001769 3.42212423,1.18691902 C3.44428357,1.16189639 3.46009389,1.13293986 3.4693062,1.10003697 L3.59230299,1.10003697 C3.58906623,1.12738758 3.57836003,1.15785044 3.5600599,1.19143803 C3.54175978,1.22503806 3.52121881,1.25248826 3.49856151,1.27380106 C3.46046736,1.31087439 3.41353438,1.33589701 3.35738908,1.34886894 C3.32726234,1.35627614 3.29327638,1.35998596 3.25530673,1.35998596 C3.16256117,1.35998596 3.08400755,1.32627388 3.01964587,1.25886218 C2.95528419,1.19143803 2.92304111,1.09703675 2.92304111,0.97563344 C2.92304111,0.856085042 2.95540868,0.759007212 3.02026833,0.684412398 C3.08525246,0.609805135 3.17003061,0.572507728 3.27472727,0.572507728 Z M3.47416134,0.901959857 C3.46905722,0.847744167 3.45723061,0.804421411 3.43880599,0.77197914 C3.40444656,0.711750551 3.34718085,0.681623807 3.26700885,0.681623807 C3.20961865,0.681623807 3.16144076,0.702363953 3.12247517,0.743831798 C3.08363408,0.785299643 3.06296863,0.838008996 3.06060331,0.901959857 L3.47416134,0.901959857 Z" id="Shape" fill="#000000" fill-rule="nonzero" mask="url(#mask-62)"></path>
                </g>
                <g id="Clipped">
                    <mask id="mask-64" fill="white">
                        <use xlink:href="#path-63"></use>
                    </mask>
                    <g id="Rectangle"></g>
                    <path d="M4.04345721,0.567640142 C4.12723943,0.567640142 4.19558481,0.588031715 4.24811988,0.628802412 C4.30065495,0.669585558 4.33227558,0.739785851 4.34298178,0.839403291 L4.22135438,0.839403291 C4.21400943,0.793528477 4.1970787,0.75542188 4.17056219,0.725071053 C4.14417016,0.694720226 4.10184333,0.679544812 4.04345721,0.679544812 C3.96378317,0.679544812 3.90676644,0.718460598 3.87240701,0.796304619 C3.85024767,0.846810487 3.83904351,0.909142969 3.83904351,0.983277167 C3.83904351,1.05787198 3.85485383,1.12066508 3.88634997,1.17163156 C3.91784611,1.22259805 3.9673934,1.24808129 4.03511633,1.24808129 C4.08702894,1.24808129 4.12811087,1.23222118 4.15848659,1.20047605 C4.18886232,1.16873093 4.20977675,1.12529613 4.22135438,1.07015921 L4.34298178,1.07015921 C4.32903882,1.16885542 4.29430592,1.24102267 4.23878308,1.28666095 C4.18313575,1.33229923 4.11205157,1.35511837 4.02540606,1.35511837 C3.92805435,1.35511837 3.85049666,1.31956383 3.792484,1.24842986 C3.73459583,1.17730834 3.70558951,1.08845934 3.70558951,0.981882872 C3.70558951,0.851217457 3.73733463,0.749508573 3.80082488,0.67676867 C3.86431512,0.604016318 3.94523406,0.567640142 4.04345721,0.567640142 Z" id="Path" fill="#000000" mask="url(#mask-64)"></path>
                </g>
                <g id="Clipped">
                    <mask id="mask-66" fill="white">
                        <use xlink:href="#path-65"></use>
                    </mask>
                    <g id="Rectangle"></g>
                    <path d="M4.76351128,1.25294887 C4.84642208,1.25294887 4.90331432,1.22156477 4.934188,1.15877168 C4.9649372,1.09599103 4.98037404,1.02613931 4.98037404,0.949216518 C4.98037404,0.879713373 4.96916988,0.823182156 4.94701054,0.779622868 C4.91177968,0.711053403 4.85102823,0.67676867 4.76488068,0.67676867 C4.68844341,0.67676867 4.63279607,0.705949285 4.59806317,0.764335413 C4.56333028,0.82272154 4.54590158,0.893158366 4.54590158,0.97563344 C4.54590158,1.05485931 4.56333028,1.12088916 4.59806317,1.17372301 C4.63279607,1.2265444 4.68794544,1.25294887 4.76351128,1.25294887 Z M4.76836642,0.567640142 C4.86422424,0.567640142 4.94539216,0.599609348 5.0116212,0.663560209 C5.07785025,0.727498621 5.11096477,0.821563777 5.11096477,0.945743228 C5.11096477,1.06575224 5.08183395,1.16490907 5.02344782,1.24322615 C4.96506169,1.32153079 4.87443248,1.36068311 4.75168467,1.36068311 C4.64922884,1.36068311 4.56793643,1.3260498 4.50768294,1.25677074 C4.44742945,1.18750412 4.41730271,1.09448469 4.41730271,0.977712434 C4.41730271,0.852611752 4.44904783,0.752981863 4.51253808,0.678847664 C4.57602832,0.604713466 4.66130444,0.567640142 4.76836642,0.567640142 Z" id="Shape" fill="#000000" fill-rule="nonzero" mask="url(#mask-66)"></path>
                </g>
                <g id="Clipped">
                    <mask id="mask-68" fill="white">
                        <use xlink:href="#path-67"></use>
                    </mask>
                    <g id="Rectangle"></g>
                    <path d="M5.25973113,0.589189479 L5.37861972,0.589189479 L5.37861972,0.694832267 C5.41385058,0.651272979 5.4510733,0.620000921 5.49053684,0.601003644 C5.5298759,0.582006366 5.57369661,0.572507728 5.62187451,0.572507728 C5.72756709,0.572507728 5.79890025,0.609344519 5.83599847,0.683018102 C5.85629045,0.723328184 5.86649869,0.781017164 5.86649869,0.856085042 L5.86649869,1.33358148 L5.73926921,1.33358148 L5.73926921,0.864425917 C5.73926921,0.819011718 5.73267121,0.782411459 5.71922622,0.754612691 C5.69694238,0.708277261 5.6566074,0.685109546 5.59822128,0.685109546 C5.5685925,0.685109546 5.54431681,0.688109771 5.52526974,0.69413512 C5.49091031,0.704330906 5.46090806,0.724722479 5.43488951,0.75529739 C5.41409957,0.7798594 5.40053008,0.8052306 5.39430555,0.83141099 C5.38795652,0.857591379 5.38484426,0.895000828 5.38484426,0.943664234 L5.38484426,1.33358148 L5.25973113,1.33358148 L5.25973113,0.589189479 Z" id="Path" fill="#000000" mask="url(#mask-68)"></path>
                </g>
                <g id="Clipped">
                    <mask id="mask-70" fill="white">
                        <use xlink:href="#path-69"></use>
                    </mask>
                    <g id="Rectangle"></g>
                    <path d="M6.1306679,0.970068706 C6.1306679,1.04976764 6.14759864,1.11649464 6.18133561,1.17023727 C6.21519707,1.22399234 6.26947501,1.25086988 6.34404493,1.25086988 C6.40193309,1.25086988 6.44948853,1.22595929 6.48683573,1.17615057 C6.52418294,1.12634185 6.54285654,1.05485931 6.54285654,0.961727831 C6.54285654,0.867662675 6.52356048,0.798047488 6.48509286,0.752869821 C6.44662524,0.707692154 6.3991943,0.685109546 6.34267553,0.685109546 C6.27955876,0.685109546 6.22851758,0.709198492 6.1894275,0.757388833 C6.15021294,0.805579174 6.1306679,0.876476615 6.1306679,0.970068706 Z M6.3190223,0.575981018 C6.37603903,0.575981018 6.42371896,0.588031715 6.46218658,0.612120661 C6.48447041,0.62602627 6.50961753,0.650351748 6.53787691,0.685109546 L6.53787691,0.309085454 L6.65813491,0.309085454 L6.65813491,1.33358148 L6.54559533,1.33358148 L6.54559533,1.23001769 C6.51634002,1.2758925 6.48185611,1.30901947 6.44201909,1.32941105 C6.40218207,1.34979017 6.35649399,1.35998596 6.30507934,1.35998596 C6.22216855,1.35998596 6.15033743,1.32511612 6.08958598,1.25538889 C6.02895902,1.18564921 5.9985833,1.09286631 5.9985833,0.977015286 C5.9985833,0.868596355 6.02622023,0.774643241 6.08161858,0.695180841 C6.13701693,0.615718442 6.21606851,0.575981018 6.3190223,0.575981018 Z" id="Shape" fill="#000000" fill-rule="nonzero" mask="url(#mask-70)"></path>
                </g>
            </g>
            <g id="Group" transform="translate(77.931164, 0.000000)">
                <g id="Clipped">
                    <mask id="mask-72" fill="white">
                        <use xlink:href="#path-71"></use>
                    </mask>
                    <g id="Rectangle"></g>
                    <path d="M1.13846725,0.69667473 L1.13846725,0.600754662 C1.22872299,0.591953172 1.29183976,0.577238374 1.32744409,0.556622717 C1.36317292,0.536007061 1.38981392,0.487231614 1.40736711,0.410308824 L1.50608822,0.410308824 L1.50608822,1.40144135 L1.37263421,1.40144135 L1.37263421,0.69667473 L1.13846725,0.69667473 Z" id="Path" fill="#000000" mask="url(#mask-72)"></path>
                </g>
                <g id="Clipped">
                    <mask id="mask-74" fill="white">
                        <use xlink:href="#path-73"></use>
                    </mask>
                    <g id="Rectangle"></g>
                    <path d="M2.35548811,1.16790929 C2.35909834,1.20961367 2.36955556,1.24158287 2.38673527,1.26382936 C2.41823141,1.30413944 2.47288282,1.32429448 2.55068949,1.32429448 C2.59712451,1.32429448 2.63783297,1.31421074 2.67306383,1.29405569 C2.70829469,1.27390065 2.72584787,1.24274064 2.72584787,1.20057564 C2.72584787,1.16860644 2.71178043,1.14428096 2.68352104,1.12759921 C2.6654699,1.11740342 2.62974107,1.10558926 2.57645906,1.09214426 L2.4771155,1.06713409 C2.41362526,1.05137357 2.36681676,1.03377059 2.33669002,1.01430024 C2.28291004,0.980476127 2.25602006,0.933680081 2.25602006,0.873912107 C2.25602006,0.803475282 2.28141616,0.74648345 2.33220835,0.702924162 C2.38287606,0.659377323 2.45109695,0.637591454 2.53687103,0.637591454 C2.64903713,0.637591454 2.72983158,0.67049434 2.77937887,0.736287663 C2.81050154,0.77799204 2.82556491,0.822933175 2.82456898,0.871123516 L2.70642733,0.871123516 C2.70406201,0.842864132 2.69410275,0.817144358 2.67654957,0.793976643 C2.64779222,0.761073757 2.59799595,0.744628538 2.52716075,0.744628538 C2.4798543,0.744628538 2.44400098,0.753666562 2.4197253,0.771742608 C2.39544962,0.789806205 2.38324953,0.813671068 2.38324953,0.843324748 C2.38324953,0.875767018 2.39918434,0.901710875 2.43117844,0.921168768 C2.44972755,0.93275885 2.4771155,0.942942188 2.5132178,0.951756128 L2.59587961,0.971911168 C2.68576188,0.993684588 2.74601536,1.01477331 2.77664007,1.03515243 C2.82531593,1.06713409 2.84959161,1.11740342 2.84959161,1.18598534 C2.84959161,1.25223928 2.82444449,1.30946764 2.77415026,1.35765798 C2.72398051,1.40584832 2.64729426,1.42993727 2.54446496,1.42993727 C2.43379275,1.42993727 2.35536362,1.4048026 2.30917758,1.35453327 C2.26311603,1.30425148 2.23846687,1.24204349 2.23523011,1.16790929 L2.35548811,1.16790929 Z" id="Path" fill="#000000" mask="url(#mask-74)"></path>
                </g>
                <g id="Clipped">
                    <mask id="mask-76" fill="white">
                        <use xlink:href="#path-75"></use>
                    </mask>
                    <g id="Rectangle"></g>
                    <path d="M3.30273767,0.640367596 C3.35564621,0.640367596 3.40681188,0.652766868 3.45635917,0.677552961 C3.50590646,0.702351504 3.54375163,0.734432752 3.56964569,0.773821602 C3.59466831,0.811355542 3.61135006,0.855138913 3.61969094,0.905184165 C3.62716038,0.939468898 3.6308951,0.994145203 3.6308951,1.06921308 L3.08525246,1.06921308 C3.08749329,1.14474158 3.10541995,1.20533119 3.13878345,1.25096947 C3.17214695,1.29660775 3.22381058,1.31942689 3.29377435,1.31942689 C3.35913195,1.31942689 3.41116905,1.29787756 3.45013464,1.25479133 C3.47241847,1.22976871 3.48810429,1.20081218 3.49744109,1.16790929 L3.62043788,1.16790929 C3.61720113,1.19524744 3.60637044,1.22571031 3.58807031,1.25931035 C3.56977018,1.29289793 3.54922922,1.32036057 3.52657191,1.34167338 C3.48860226,1.37873425 3.44154478,1.40375688 3.38552398,1.41672881 C3.35539723,1.42414845 3.32128679,1.42785827 3.28331713,1.42785827 C3.19069606,1.42785827 3.11214245,1.3941462 3.04765628,1.32672205 C2.9832946,1.25931035 2.95105151,1.16489662 2.95105151,1.04349331 C2.95105151,0.92394491 2.98354358,0.826879529 3.04840322,0.752272266 C3.11326286,0.677677452 3.19804101,0.640367596 3.30273767,0.640367596 Z M3.50229623,0.969819725 C3.49719211,0.915604035 3.4853655,0.872281279 3.46681639,0.839851458 C3.43258145,0.779610419 3.37531574,0.749496124 3.29514374,0.749496124 C3.23762905,0.749496124 3.18945116,0.770236271 3.15061007,0.811704116 C3.11164448,0.85317196 3.09097903,0.905881313 3.0887382,0.969819725 L3.50229623,0.969819725 Z" id="Shape" fill="#000000" fill-rule="nonzero" mask="url(#mask-76)"></path>
                </g>
                <g id="Clipped">
                    <mask id="mask-78" fill="white">
                        <use xlink:href="#path-77"></use>
                    </mask>
                    <g id="Rectangle"></g>
                    <path d="M4.07146761,0.63551246 C4.15537432,0.63551246 4.22359522,0.655891584 4.27613028,0.69667473 C4.32878984,0.737445426 4.36041047,0.807645719 4.37111667,0.907275609 L4.24936479,0.907275609 C4.24201984,0.861400794 4.2250891,0.823281749 4.19869708,0.792930921 C4.17230506,0.762580094 4.12985374,0.747404681 4.07146761,0.747404681 C3.99179357,0.747404681 3.93477684,0.786332915 3.90054191,0.864176936 C3.87825808,0.914682804 3.86717841,0.977002837 3.86717841,1.05113704 C3.86717841,1.1257443 3.88286423,1.18852495 3.91436037,1.23950388 C3.94598101,1.29047036 3.99552829,1.3159536 4.06312673,1.3159536 C4.11503935,1.3159536 4.15612127,1.30008104 4.18649699,1.26834837 C4.21687272,1.23660325 4.23778715,1.19316845 4.24936479,1.13801908 L4.37111667,1.13801908 C4.35717371,1.23671529 4.32244081,1.30888253 4.26679348,1.35453327 C4.21114615,1.40017155 4.14006197,1.42299069 4.05341646,1.42299069 C3.95606475,1.42299069 3.87850706,1.3874237 3.82061889,1.31630218 C3.76260624,1.24518065 3.7337244,1.15633166 3.7337244,1.04975519 C3.7337244,0.919089774 3.76546952,0.81738089 3.82895977,0.744628538 C3.89245001,0.671876187 3.97324446,0.63551246 4.07146761,0.63551246 Z" id="Path" fill="#000000" mask="url(#mask-78)"></path>
                </g>
                <g id="Clipped">
                    <mask id="mask-80" fill="white">
                        <use xlink:href="#path-79"></use>
                    </mask>
                    <g id="Rectangle"></g>
                    <path d="M4.79152169,1.32082119 C4.87455697,1.32082119 4.93132472,1.28942464 4.96219841,1.22664399 C4.9929476,1.1638509 5.00838445,1.09399918 5.00838445,1.01708884 C5.00838445,0.94758569 4.99730478,0.891054473 4.97502095,0.847495185 C4.93979008,0.778913271 4.87916312,0.744628538 4.79289108,0.744628538 C4.71645381,0.744628538 4.66093097,0.773821602 4.62619807,0.83220773 C4.59134068,0.890593858 4.57403647,0.961018234 4.57403647,1.04349331 C4.57403647,1.12273162 4.59134068,1.18876148 4.62619807,1.24158287 C4.66093097,1.29440427 4.71608034,1.32082119 4.79152169,1.32082119 Z M4.79637682,0.63551246 C4.89235914,0.63551246 4.97340257,0.667481666 5.03963161,0.731420078 C5.10598514,0.795370939 5.13909966,0.889436095 5.13909966,1.01361555 C5.13909966,1.13362456 5.10984435,1.23278138 5.05145822,1.31108602 C4.99307209,1.38939066 4.90256737,1.42855542 4.77969507,1.42855542 C4.67736374,1.42855542 4.59607132,1.39390967 4.53581784,1.32464305 C4.47556435,1.25536399 4.4454376,1.16234456 4.4454376,1.04558475 C4.4454376,0.92047162 4.47718273,0.82085418 4.54067297,0.746719982 C4.60416322,0.672573334 4.68943933,0.63551246 4.79637682,0.63551246 Z" id="Shape" fill="#000000" fill-rule="nonzero" mask="url(#mask-80)"></path>
                </g>
                <g id="Clipped">
                    <mask id="mask-82" fill="white">
                        <use xlink:href="#path-81"></use>
                    </mask>
                    <g id="Rectangle"></g>
                    <path d="M5.28786602,0.657049347 L5.40663012,0.657049347 L5.40663012,0.762704585 C5.44186099,0.719145297 5.47920819,0.687873239 5.51854724,0.668875961 C5.55801079,0.649878684 5.60170702,0.640367596 5.64988491,0.640367596 C5.75557749,0.640367596 5.82691065,0.677216837 5.86400887,0.75089042 C5.88442534,0.791200501 5.89463358,0.848889481 5.89463358,0.92394491 L5.89463358,1.40144135 L5.76740411,1.40144135 L5.76740411,0.932285786 C5.76740411,0.886884036 5.76068161,0.850271327 5.74723662,0.822472559 C5.72495279,0.776137129 5.6847423,0.752969414 5.62635617,0.752969414 C5.5966029,0.752969414 5.57232722,0.755982088 5.55328014,0.762007437 C5.51904521,0.772203224 5.48891846,0.792582347 5.4630244,0.823169707 C5.44210997,0.847731718 5.42854048,0.873090469 5.42231595,0.899270858 C5.41609142,0.925451248 5.41297915,0.962873145 5.41297915,1.0115241 L5.41297915,1.40144135 L5.28786602,1.40144135 L5.28786602,0.657049347 Z" id="Path" fill="#000000" mask="url(#mask-82)"></path>
                </g>
                <g id="Clipped">
                    <mask id="mask-84" fill="white">
                        <use xlink:href="#path-83"></use>
                    </mask>
                    <g id="Rectangle"></g>
                    <path d="M6.15867831,1.03794102 C6.15867831,1.11763996 6.17560904,1.18435451 6.2094705,1.23810958 C6.24320748,1.29186466 6.29748541,1.31872975 6.37205533,1.31872975 C6.42994349,1.31872975 6.47762342,1.29383161 6.51497063,1.24402289 C6.55219334,1.19420172 6.57086694,1.12273162 6.57086694,1.02960015 C6.57086694,0.935534992 6.55169538,0.865919806 6.51322776,0.820742139 C6.47476014,0.775564472 6.4272047,0.752969414 6.37068593,0.752969414 C6.30769365,0.752969414 6.25652798,0.777070809 6.21743791,0.825248701 C6.17822334,0.873439043 6.15867831,0.944336483 6.15867831,1.03794102 Z M6.3470327,0.643853335 C6.40404943,0.643853335 6.45172936,0.655891584 6.49019698,0.679992979 C6.51248081,0.693886138 6.53775242,0.718224066 6.5660118,0.752969414 L6.5660118,0.376957772 L6.6862698,0.376957772 L6.6862698,1.40144135 L6.57360574,1.40144135 L6.57360574,1.29787756 C6.54447492,1.34375237 6.509991,1.37689179 6.47002949,1.39727092 C6.43019248,1.41766249 6.38462889,1.42785827 6.33321424,1.42785827 C6.25017896,1.42785827 6.17834783,1.39298844 6.11772087,1.32324876 C6.05696942,1.25352153 6.0265937,1.16072618 6.0265937,1.0448876 C6.0265937,0.936456223 6.05435512,0.842515558 6.10975347,0.763053159 C6.16502733,0.68357831 6.2442034,0.643853335 6.3470327,0.643853335 Z" id="Shape" fill="#000000" fill-rule="nonzero" mask="url(#mask-84)"></path>
                </g>
            </g>
            <g id="Group" transform="translate(30.624707, 1.618379)" stroke="#000000" stroke-linejoin="round" stroke-width="0.5">
                <polyline id="Path" points="1.32420734 0.134138705 0.725905141 0.660983252 0.114531423 1.19928094 1.36927296 2.2174653"></polyline>
                <polyline id="Path" points="11.4940998 2.18318056 12.8222908 1.16499621 11.5419042 0.0998539724"></polyline>
                <path d="M0.218481139,1.20084952 L12.6519876,1.16123659" id="Path"></path>
            </g>
            <g id="Group" transform="translate(15.561335, 1.244907)" stroke="#000000" stroke-linejoin="round" stroke-width="0.5">
                <polyline id="Path" points="1.2178923 0.0452523613 0.619590102 0.572096909 0.00834087539 1.11038215 1.26295792 2.12857895"></polyline>
                <polyline id="Path" points="11.3877847 2.09429422 12.7159758 1.07610987 11.4355891 0.0109676287"></polyline>
                <path d="M0.1121661,1.11195073 L12.5456725,1.07235025" id="Path"></path>
            </g>
            <g id="Group" transform="translate(0.995925, 1.369397)" stroke="#000000" stroke-linejoin="round" stroke-width="0.5">
                <polyline id="Path" points="1.32941105 0.113211822 0.731133749 0.640056369 0.119859624 1.17835406 1.37455137 2.19653841"></polyline>
                <polyline id="Path" points="11.4993284 2.16225368 12.8275194 1.14406933 11.5471328 0.0789270895"></polyline>
                <path d="M0.223734646,1.17992264 L12.6572162,1.14030971" id="Path"></path>
            </g>
            <g id="Group" transform="translate(45.439097, 1.493888)" stroke="#000000" stroke-linejoin="round" stroke-width="0.5">
                <polyline id="Path" points="1.23756183 0.154468033 0.63938412 0.68131258 0.0280104024 1.21961027 1.28275194 2.23779462"></polyline>
                <polyline id="Path" points="11.4075787 2.20350989 12.7356453 1.18532554 11.4552587 0.1201833"></polyline>
                <path d="M0.131960118,1.2211664 L12.5654665,1.18156592" id="Path"></path>
            </g>
            <g id="Group" transform="translate(60.004507, 1.369397)" stroke="#000000" stroke-linejoin="round" stroke-width="0.5">
                <polyline id="Path" points="1.26407834 0.151181479 0.665776143 0.678026026 0.0545269168 1.21631127 1.30914396 2.23450807"></polyline>
                <polyline id="Path" points="11.4339708 2.20022334 12.7621618 1.18202653 11.4817752 0.116896746"></polyline>
                <path d="M0.158352142,1.21787985 L12.5918586,1.17827936" id="Path"></path>
            </g>
            <g id="Group" transform="translate(75.067879, 1.244907)" stroke="#000000" stroke-linejoin="round" stroke-width="0.5">
                <polyline id="Path" points="1.29208874 0.0945631186 0.693786546 0.621395217 0.0825373192 1.15969291 1.33727886 2.17787726"></polyline>
                <polyline id="Path" points="11.4621057 2.14359253 12.7901722 1.12540817 11.5097856 0.0602783861"></polyline>
                <path d="M0.186362544,1.16126149 L12.6199935,1.12164856" id="Path"></path>
            </g>
        </g>
    </g>
</svg>