<?xml version="1.0" encoding="UTF-8"?>
<svg width="602px" height="86px" viewBox="0 0 602 86" version="1.1" xmlns="http://www.w3.org/2000/svg" xmlns:xlink="http://www.w3.org/1999/xlink">
    <!-- Generator: Sketch 52.6 (67491) - http://www.bohemiancoding.com/sketch -->
    <title>Group 3</title>
    <desc>Created with Sketch.</desc>
    <defs>
        <rect id="path-1" x="0.18330976" y="0.0452961073" width="51.4203395" height="18.6086637"></rect>
        <rect id="path-3" x="0.18330976" y="0.0452961073" width="51.4203395" height="18.6086637"></rect>
        <rect id="path-5" x="0.18330976" y="0.0452961073" width="51.4203395" height="18.6086637"></rect>
        <rect id="path-7" x="0.18330976" y="0.0452961073" width="51.4203395" height="18.6086637"></rect>
        <rect id="path-9" x="0.18330976" y="0.0452961073" width="51.4203395" height="18.6086637"></rect>
        <rect id="path-11" x="0.18330976" y="0.0452961073" width="51.4203395" height="18.6086637"></rect>
        <rect id="path-13" x="0.18330976" y="0.0452961073" width="51.4203395" height="18.6086637"></rect>
        <rect id="path-15" x="0.307213579" y="0.289985856" width="51.4203395" height="19.454512"></rect>
        <rect id="path-17" x="0.307213579" y="0.289985856" width="51.4203395" height="19.454512"></rect>
        <rect id="path-19" x="0.307213579" y="0.289985856" width="51.4203395" height="19.454512"></rect>
        <rect id="path-21" x="0.307213579" y="0.289985856" width="51.4203395" height="19.454512"></rect>
        <rect id="path-23" x="0.307213579" y="0.289985856" width="51.4203395" height="19.454512"></rect>
        <rect id="path-25" x="0.307213579" y="0.289985856" width="51.4203395" height="19.454512"></rect>
        <rect id="path-27" x="0.307213579" y="0.289985856" width="51.4203395" height="19.454512"></rect>
        <rect id="path-29" x="0.715484327" y="0.415077793" width="50.5909791" height="19.454512"></rect>
        <rect id="path-31" x="0.715484327" y="0.415077793" width="50.5909791" height="19.454512"></rect>
        <rect id="path-33" x="0.715484327" y="0.415077793" width="50.5909791" height="19.454512"></rect>
        <rect id="path-35" x="0.715484327" y="0.415077793" width="50.5909791" height="19.454512"></rect>
        <rect id="path-37" x="0.715484327" y="0.415077793" width="50.5909791" height="19.454512"></rect>
        <rect id="path-39" x="0.715484327" y="0.415077793" width="50.5909791" height="19.454512"></rect>
        <rect id="path-41" x="0.715484327" y="0.415077793" width="50.5909791" height="19.454512"></rect>
        <rect id="path-43" x="0.435018479" y="0.185855728" width="50.5909791" height="19.454512"></rect>
        <rect id="path-45" x="0.435018479" y="0.185855728" width="50.5909791" height="19.454512"></rect>
        <rect id="path-47" x="0.435018479" y="0.185855728" width="50.5909791" height="19.454512"></rect>
        <rect id="path-49" x="0.435018479" y="0.185855728" width="50.5909791" height="19.454512"></rect>
        <rect id="path-51" x="0.435018479" y="0.185855728" width="50.5909791" height="19.454512"></rect>
        <rect id="path-53" x="0.435018479" y="0.185855728" width="50.5909791" height="19.454512"></rect>
        <rect id="path-55" x="0.435018479" y="0.185855728" width="50.5909791" height="19.454512"></rect>
        <rect id="path-57" x="0.612031756" y="0.163451202" width="50.5909791" height="19.454512"></rect>
        <rect id="path-59" x="0.612031756" y="0.163451202" width="50.5909791" height="19.454512"></rect>
        <rect id="path-61" x="0.612031756" y="0.163451202" width="50.5909791" height="19.454512"></rect>
        <rect id="path-63" x="0.612031756" y="0.163451202" width="50.5909791" height="19.454512"></rect>
        <rect id="path-65" x="0.612031756" y="0.163451202" width="50.5909791" height="19.454512"></rect>
        <rect id="path-67" x="0.612031756" y="0.163451202" width="50.5909791" height="19.454512"></rect>
        <rect id="path-69" x="0.612031756" y="0.163451202" width="50.5909791" height="19.454512"></rect>
        <rect id="path-71" x="0.799899621" y="0.626138614" width="50.5909791" height="19.454512"></rect>
        <rect id="path-73" x="0.799899621" y="0.626138614" width="50.5909791" height="19.454512"></rect>
        <rect id="path-75" x="0.799899621" y="0.626138614" width="50.5909791" height="19.454512"></rect>
        <rect id="path-77" x="0.799899621" y="0.626138614" width="50.5909791" height="19.454512"></rect>
        <rect id="path-79" x="0.799899621" y="0.626138614" width="50.5909791" height="19.454512"></rect>
        <rect id="path-81" x="0.799899621" y="0.626138614" width="50.5909791" height="19.454512"></rect>
        <rect id="path-83" x="0.799899621" y="0.626138614" width="50.5909791" height="19.454512"></rect>
    </defs>
    <g id="Page-1" stroke="none" stroke-width="1" fill="none" fill-rule="evenodd">
        <g id="Group-3" transform="translate(1.000000, -2.000000)">
            <g id="Group-2">
                <path d="M100.141443,12.7298444 L101.713532,85.7142857 C101.713532,85.7142857 105.832508,71.6053288 112.569676,68.9488028 C119.397444,66.2574317 118.962058,67.7134602 133.302133,55.5181643 C142.54592,47.6568552 139.524219,67.0132391 148.518015,68.1009048 C160.319593,69.5278956 174.240221,71.450185 178.214068,67.3002966 C188.524091,56.5349782 195.29062,77.3091438 195.29062,77.3091438 L196.759525,58.3514048 L198.523722,35.5810284 L200.282885,12.8730413" id="Path" stroke="#EB493A" stroke-width="0.5" stroke-linecap="round" stroke-linejoin="round"></path>
                <path d="M399.717115,14.427157 L401.289204,87.4115983 C401.289204,87.4115983 405.407341,73.3018919 412.145348,70.6462107 C418.973116,67.9540253 418.53773,69.4108751 432.876966,57.2151507 C442.120753,49.3538864 439.099052,68.710658 448.093687,69.7974878 C459.895265,71.2244706 473.815054,73.146749 477.78974,68.9968842 C488.099763,58.2319589 494.866292,79.0056745 494.866292,79.0056745 L496.335197,60.0483751 L498.099394,37.2781281 L499.858557,14.5703531" id="Path" stroke="#EB493A" stroke-width="0.5" stroke-linecap="round" stroke-linejoin="round"></path>
                <path d="M200.282885,12.7298444 L201.855814,85.7142857 C201.855814,85.7142857 205.973951,71.6053127 212.711119,68.9487838 C219.538887,66.2574096 219.1035,67.7134397 233.443576,55.51813 C242.687363,47.656812 239.665662,67.0132178 248.659458,68.1008848 C260.461875,69.5278772 274.381664,71.4501688 278.35635,67.3002756 C288.666372,56.535028 295.432063,77.3091343 295.432063,77.3091343 L296.900968,58.3513737 L298.665165,35.5809714 L300.424328,12.8730414" id="Path" stroke="#EB493A" stroke-width="0.5" stroke-linecap="round" stroke-linejoin="round"></path>
                <path d="M499.858557,14.427157 L501.430647,87.4115983 C501.430647,87.4115983 505.549623,73.3018919 512.28679,70.6462107 C519.114559,67.9540253 518.679172,69.4108751 533.019248,57.2152337 C542.262196,49.3539693 539.240495,68.710658 548.23513,69.7974878 C560.036708,71.2244706 573.956497,73.146749 577.931183,68.9968842 C588.241205,58.2320418 595.007734,79.0056745 595.007734,79.0056745 L596.47664,60.0483751 L598.240837,37.2782111 L600,14.5703531" id="Path" stroke="#EB493A" stroke-width="0.5" stroke-linecap="round" stroke-linejoin="round"></path>
                <path d="M0,12.7298444 L1.57217095,85.7142857 C1.57217095,85.7142857 5.6906364,71.6053608 12.4279606,68.9488409 C19.2558854,66.2566463 18.8204156,67.7135011 33.1602153,55.517984 C42.4038188,47.6566929 39.3822071,67.0132816 48.3762397,68.1009448 C60.1782177,69.5271028 74.0979833,71.4502174 78.0726623,67.2995088 C88.3826677,56.5347957 95.1491854,77.3083333 95.1491854,77.3083333 L96.6180886,58.3512181 L98.3822823,35.5808934 L100.141443,12.873041" id="Path" stroke="#EB493A" stroke-width="0.5" stroke-linecap="round" stroke-linejoin="round"></path>
                <path d="M299.575672,12.7298444 L301.148587,85.7142857 C301.148587,85.7142857 305.26669,71.6052967 312.003801,68.9487647 C318.831512,66.2573875 318.396129,67.7134193 332.736084,55.5181786 C341.979794,47.6569347 338.958118,67.0131966 347.951839,68.1008647 C359.754157,69.5278588 373.67383,71.4501526 377.648482,67.3002547 C387.958418,56.5350778 394.724052,77.3091247 394.724052,77.3091247 L396.192945,58.3514255 L397.957127,35.5810803 L399.717115,12.8730416" id="Path" stroke="#EB493A" stroke-width="0.5" stroke-linecap="round" stroke-linejoin="round"></path>
                <g id="Group" transform="translate(225.742574, 4.243281)">
                    <g id="Clipped">
                        <mask id="mask-2" fill="white">
                            <use xlink:href="#path-1"></use>
                        </mask>
                        <g id="Rectangle"></g>
                        <path d="M7.13041018,3.98906094 L7.13041018,3.36368243 C7.74653465,3.30629113 8.17595474,3.21034131 8.41951909,3.07591415 C8.66223479,2.94140582 8.84384724,2.62344013 8.96435644,2.12185474 L9.63734088,2.12185474 L9.63734088,8.58466761 L8.72758133,8.58466761 L8.72758133,3.98906094 L7.13041018,3.98906094 Z" id="Path" fill="#000000" mask="url(#mask-2)"></path>
                    </g>
                    <g id="Clipped">
                        <mask id="mask-4" fill="white">
                            <use xlink:href="#path-3"></use>
                        </mask>
                        <g id="Rectangle"></g>
                        <path d="M15.4268741,7.06189041 C15.4523338,7.33382941 15.5236209,7.54228891 15.6398868,7.68726893 C15.8545969,7.9501974 16.2280057,8.08162106 16.7584158,8.08162106 C17.074116,8.08162106 17.3524752,8.01586864 17.5917963,7.88444499 C17.8319661,7.75302134 17.9524752,7.54983826 17.9524752,7.27489576 C17.9524752,7.06643626 17.8557284,6.90773753 17.6630835,6.79904311 C17.5400283,6.73256011 17.2964639,6.65552426 16.933239,6.56785438 L16.2560113,6.40469098 C15.8231966,6.30200357 15.5041018,6.18713978 15.298727,6.06026198 C14.9329562,5.83970728 14.7496464,5.53456737 14.7496464,5.14476108 C14.7496464,4.68554947 14.9219236,4.31392657 15.2681754,4.02989238 C15.6144272,3.74585819 16.0794908,3.60388168 16.6633663,3.60388168 C17.4280057,3.60388168 17.9787836,3.8183482 18.3173975,4.24744358 C18.5287129,4.51938257 18.6314003,4.81242728 18.6254597,5.12665888 L17.8192362,5.12665888 C17.8039604,4.94238977 17.7360679,4.77468052 17.6155587,4.62361232 C17.4203678,4.40906463 17.0809052,4.30183138 16.5971711,4.30183138 C16.2746818,4.30183138 16.0311174,4.36076502 15.8647808,4.47855113 C15.6992928,4.59641842 15.6161245,4.75203247 15.6161245,4.94539327 C15.6161245,5.15685628 15.7256011,5.32610787 15.9437058,5.45298567 C16.0693069,5.52847918 16.2560113,5.59496218 16.5021216,5.65235348 L17.0664781,5.78377714 C17.6792079,5.92583482 18.0899576,6.06326548 18.2978784,6.19623147 C18.629703,6.40469098 18.7960396,6.73256011 18.7960396,7.17967653 C18.7960396,7.61177541 18.624611,7.98494066 18.2817539,8.29917225 C17.9388967,8.61332267 17.4169731,8.77047906 16.715983,8.77047906 C15.9606789,8.77047906 15.4260255,8.60658508 15.1120226,8.27871595 C14.7971711,7.95092799 14.6291372,7.54529242 14.6070721,7.06189041 L15.4268741,7.06189041 Z" id="Path" fill="#000000" mask="url(#mask-4)"></path>
                    </g>
                    <g id="Clipped">
                        <mask id="mask-6" fill="white">
                            <use xlink:href="#path-5"></use>
                        </mask>
                        <g id="Rectangle"></g>
                        <path d="M21.8851485,3.62198389 C22.2449788,3.62198389 22.5937765,3.702835 22.9323904,3.86445606 C23.2701556,4.02607712 23.5272984,4.23534838 23.7046676,4.49218867 C23.8752475,4.73693377 23.9889675,5.02242912 24.0458274,5.34875592 C24.0958982,5.57231413 24.1213579,5.92883832 24.1213579,6.41832852 L20.4016973,6.41832852 C20.4178218,6.91082221 20.5391796,7.30582375 20.7666195,7.60349548 C20.9940594,7.90108603 21.3462518,8.04988131 21.8231966,8.04988131 C22.2687412,8.04988131 22.6243281,7.90936597 22.8891089,7.62841646 C23.0410184,7.46525306 23.1487977,7.27635693 23.2115983,7.06189041 L24.0500707,7.06189041 C24.0280057,7.24015251 23.9550212,7.43878974 23.8302687,7.6578021 C23.7055163,7.87689564 23.565488,8.05588832 23.4110325,8.19486132 C23.1513437,8.43660291 22.8314003,8.59976631 22.4486563,8.68435152 C22.2432815,8.7327323 22.0115983,8.75684152 21.7519095,8.75684152 C21.1205092,8.75684152 20.5850071,8.53709858 20.1462518,8.09745034 C19.7066478,7.6578021 19.4876945,7.04224586 19.4876945,6.25061927 C19.4876945,5.47108788 19.7083451,4.83807884 20.150495,4.35167333 C20.592645,3.86518664 21.1714286,3.62198389 21.8851485,3.62198389 Z M23.2446959,5.77022077 C23.209901,5.41670008 23.1292786,5.13420823 23.0028289,4.92274522 C22.7694484,4.52993543 22.3790665,4.33357112 21.8325318,4.33357112 C21.4413013,4.33357112 21.1128713,4.46872886 20.8472419,4.73912552 C20.5816124,5.00960335 20.4415842,5.35330176 20.4254597,5.77022077 L23.2446959,5.77022077 Z" id="Shape" fill="#000000" fill-rule="nonzero" mask="url(#mask-6)"></path>
                    </g>
                    <g id="Clipped">
                        <mask id="mask-8" fill="white">
                            <use xlink:href="#path-7"></use>
                        </mask>
                        <g id="Rectangle"></g>
                        <path d="M27.1256011,3.59024414 C27.6967468,3.59024414 28.1618105,3.72321013 28.5207921,3.98906094 C28.878925,4.25499293 29.0944837,4.71274337 29.1674682,5.36231228 L28.338331,5.36231228 C28.2874116,5.06317939 28.172843,4.8147002 27.9920792,4.61679356 C27.8121641,4.41888691 27.5236209,4.31993358 27.1256011,4.31993358 C26.5816124,4.31993358 26.1937765,4.57377037 25.9595474,5.08136277 C25.8084866,5.41069307 25.7321075,5.81705922 25.7321075,6.30046123 C25.7321075,6.78694791 25.8398868,7.19631757 26.0545969,7.52865137 C26.2693069,7.86106636 26.6070721,8.02723326 27.0687412,8.02723326 C27.4226308,8.02723326 27.7026874,7.92373409 27.9097595,7.71673575 C28.115983,7.50981858 28.2594059,7.22651497 28.338331,6.86698727 L29.1674682,6.86698727 C29.0724187,7.51054917 28.8356436,7.98112539 28.4562942,8.27871595 C28.0777935,8.57638768 27.5932107,8.72518295 27.0016973,8.72518295 C26.3388967,8.72518295 25.8093352,8.49326364 25.41471,8.02950618 C25.0200849,7.56566755 24.8223479,6.98631572 24.8223479,6.29136953 C24.8223479,5.43934813 25.0387553,4.77614169 25.47157,4.30183138 C25.9043847,3.82743989 26.4560113,3.59024414 27.1256011,3.59024414 Z" id="Path" fill="#000000" mask="url(#mask-8)"></path>
                    </g>
                    <g id="Clipped">
                        <mask id="mask-10" fill="white">
                            <use xlink:href="#path-9"></use>
                        </mask>
                        <g id="Rectangle"></g>
                        <path d="M32.0342291,8.05889183 C32.5994342,8.05889183 32.9872702,7.85424759 33.1968883,7.44479675 C33.407355,7.0354271 33.5125884,6.57994957 33.5125884,6.07836418 C33.5125884,5.62515958 33.4362093,5.25654019 33.2851485,4.97258717 C33.0449788,4.52538958 32.6308345,4.30183138 32.0435644,4.30183138 C31.5224894,4.30183138 31.14314,4.49218867 30.9063649,4.87282209 C30.6695898,5.25353668 30.5507779,5.71282947 30.5507779,6.25061927 C30.5507779,6.76730336 30.6695898,7.19785991 30.9063649,7.54228891 C31.14314,7.88671791 31.5190948,8.05889183 32.0342291,8.05889183 Z M32.0673267,3.59024414 C32.7207921,3.59024414 33.274116,3.79878482 33.7256011,4.21570383 C34.1770863,4.63262284 34.4028289,5.24598733 34.4028289,6.05571613 C34.4028289,6.83825103 34.2042433,7.48489761 33.8062235,7.99549351 C33.4082037,8.50608942 32.7903819,8.76138737 31.9536068,8.76138737 C31.2551627,8.76138737 30.7009901,8.53555624 30.2902405,8.08389398 C29.8794908,7.63215054 29.674116,7.02560482 29.674116,6.26425681 C29.674116,5.44843983 29.8905233,4.79887092 30.323338,4.31538774 C30.7561528,3.83198573 31.3374823,3.59024414 32.0673267,3.59024414 Z" id="Shape" fill="#000000" fill-rule="nonzero" mask="url(#mask-10)"></path>
                    </g>
                    <g id="Clipped">
                        <mask id="mask-12" fill="white">
                            <use xlink:href="#path-11"></use>
                        </mask>
                        <g id="Rectangle"></g>
                        <path d="M35.4169731,3.73075949 L36.2274399,3.73075949 L36.2274399,4.41961749 C36.4676096,4.13566447 36.7213579,3.93166964 36.9903819,3.80779534 C37.2585573,3.68392104 37.5572843,3.62198389 37.8857143,3.62198389 C38.6053748,3.62198389 39.0925035,3.86218314 39.3445545,4.34258164 C39.4837341,4.60542894 39.5533239,4.98159769 39.5533239,5.47108788 L39.5533239,8.58466761 L38.6859972,8.58466761 L38.6859972,5.52547568 C38.6859972,5.22934629 38.6401697,4.99068938 38.5485149,4.80942377 C38.397454,4.50728737 38.1224894,4.35621917 37.7244696,4.35621917 C37.5224894,4.35621917 37.3561528,4.37586372 37.227157,4.41515282 C36.9929279,4.48155464 36.787553,4.61452063 36.6110325,4.81396962 C36.4684583,4.97404834 36.3768034,5.13948466 36.3335219,5.3101974 C36.2910891,5.48091015 36.2698727,5.72492467 36.2698727,6.04215977 L36.2698727,8.58466761 L35.4169731,8.58466761 L35.4169731,3.73075949 Z" id="Path" fill="#000000" mask="url(#mask-12)"></path>
                    </g>
                    <g id="Clipped">
                        <mask id="mask-14" fill="white">
                            <use xlink:href="#path-13"></use>
                        </mask>
                        <g id="Rectangle"></g>
                        <path d="M41.3541726,6.21433368 C41.3541726,6.73402128 41.4687412,7.16912367 41.6995757,7.51964086 C41.9304102,7.87007687 42.2995757,8.04533547 42.8087694,8.04533547 C43.2033946,8.04533547 43.5275813,7.88290265 43.7821782,7.5581182 C44.0367751,7.23333374 44.1632249,6.76730336 44.1632249,6.15994588 C44.1632249,5.54666257 44.0325318,5.09264621 43.770297,4.79805916 C43.5080622,4.50347211 43.1847242,4.35621917 42.7985856,4.35621917 C42.3691655,4.35621917 42.0212164,4.51329439 41.7538897,4.82752598 C41.4874116,5.14175758 41.3541726,5.60405387 41.3541726,6.21433368 Z M42.6381895,3.64463194 C43.0260255,3.64463194 43.3519095,3.72321013 43.6141443,3.88036652 C43.7652051,3.97095874 43.9374823,4.12957629 44.1301273,4.35621917 L44.1301273,1.90430355 L44.9499293,1.90430355 L44.9499293,8.58466761 L44.182744,8.58466761 L44.182744,7.90936597 C43.9833098,8.20849886 43.748232,8.42450772 43.476662,8.55747371 C43.2050919,8.6904397 42.8936351,8.75684152 42.54314,8.75684152 C41.9779349,8.75684152 41.4882603,8.52954923 41.074116,8.07480229 C40.6608204,7.62005535 40.4537482,7.01505196 40.4537482,6.25971096 C40.4537482,5.55266958 40.6421499,4.94011684 41.019802,4.42189041 C41.397454,3.90374516 41.9363508,3.64463194 42.6381895,3.64463194 Z" id="Shape" fill="#000000" fill-rule="nonzero" mask="url(#mask-14)"></path>
                    </g>
                </g>
                <g id="Group" transform="translate(123.903819, 0.000000)">
                    <g id="Clipped">
                        <mask id="mask-16" fill="white">
                            <use xlink:href="#path-15"></use>
                        </mask>
                        <g id="Rectangle"></g>
                        <path d="M7.254314,4.4130976 L7.254314,3.75929279 C7.87043847,3.69920792 8.29985856,3.59898161 8.54342291,3.45835926 C8.78698727,3.31782178 8.96859972,2.98540311 9.08826025,2.46101839 L9.7612447,2.46101839 L9.7612447,9.21759547 L8.85148515,9.21759547 L8.85148515,4.4130976 L7.254314,4.4130976 Z" id="Path" fill="#000000" mask="url(#mask-16)"></path>
                    </g>
                    <g id="Clipped">
                        <mask id="mask-18" fill="white">
                            <use xlink:href="#path-17"></use>
                        </mask>
                        <g id="Rectangle"></g>
                        <path d="M15.5507779,7.62560113 C15.5762376,7.90981612 15.6475248,8.12783593 15.7646393,8.27940594 C15.9793494,8.55420085 16.3519095,8.6915983 16.8823197,8.6915983 C17.1980198,8.6915983 17.4763791,8.62294201 17.7165488,8.48554455 C17.9567185,8.3481471 18.0763791,8.13572843 18.0763791,7.84828854 C18.0763791,7.63026874 17.9804809,7.4644413 17.7878359,7.35072136 C17.6639321,7.28121641 17.4212164,7.20067893 17.0579915,7.10910891 L16.3799151,6.938529 C15.9471004,6.83117397 15.6288543,6.71108911 15.4234795,6.57844413 C15.05686,6.34786421 14.8735502,6.02885431 14.8735502,5.62132956 C14.8735502,5.1412447 15.0466761,4.75264498 15.3920792,4.45578501 C15.738331,4.15884017 16.2033946,4.01041018 16.7872702,4.01041018 C17.5519095,4.01041018 18.1035361,4.23462518 18.4413013,4.68322489 C18.6526167,4.96743989 18.7553041,5.27388967 18.7493635,5.60240453 L17.9439887,5.60240453 C17.9278642,5.40967468 17.8599717,5.23442716 17.7403112,5.07649222 C17.5442716,4.85219236 17.2048091,4.74008487 16.721075,4.74008487 C16.3994342,4.74008487 16.1550212,4.80161245 15.9895332,4.92483734 C15.8231966,5.04806223 15.7408769,5.21066478 15.7408769,5.41289958 C15.7408769,5.63397454 15.849505,5.81083451 16.0676096,5.94356436 C16.1940594,6.02248939 16.3799151,6.09199434 16.6268741,6.15199434 L17.1903819,6.2893918 C17.8031117,6.43790665 18.2138614,6.58158416 18.4226308,6.72059406 C18.7536068,6.938529 18.9199434,7.28121641 18.9199434,7.74874116 C18.9199434,8.20048091 18.7485149,8.59052334 18.4056577,8.91903819 C18.0628006,9.24755304 17.5408769,9.4118529 16.8398868,9.4118529 C16.0845827,9.4118529 15.5499293,9.24050919 15.2359264,8.89773692 C14.9219236,8.5550495 14.753041,8.13097595 14.730976,7.62560113 L15.5507779,7.62560113 Z" id="Path" fill="#000000" mask="url(#mask-18)"></path>
                    </g>
                    <g id="Clipped">
                        <mask id="mask-20" fill="white">
                            <use xlink:href="#path-19"></use>
                        </mask>
                        <g id="Rectangle"></g>
                        <path d="M22.0090523,4.02933522 C22.3688826,4.02933522 22.718529,4.11386139 23.0562942,4.28282885 C23.3940594,4.45179632 23.6520509,4.67057992 23.8285714,4.9390099 C23.9991513,5.19487977 24.1128713,5.49343706 24.1697313,5.83451202 C24.219802,6.06831683 24.2452617,6.44104668 24.2452617,6.95278642 L20.5264498,6.95278642 C20.5417256,7.4676662 20.6630835,7.88062235 20.8905233,8.19173975 C21.1179632,8.50294201 21.4701556,8.65850071 21.9471004,8.65850071 C22.392645,8.65850071 22.748232,8.5115983 23.0138614,8.21779349 C23.1649222,8.04721358 23.2727016,7.84981612 23.3355021,7.62560113 L24.1748232,7.62560113 C24.1519095,7.81196605 24.078925,8.01963225 23.9541726,8.24859972 C23.8294201,8.47765205 23.6893918,8.66478076 23.5349364,8.81007072 C23.2760962,9.06280057 22.9553041,9.23338048 22.5725601,9.32181047 C22.3680339,9.37230552 22.1355021,9.39759547 21.876662,9.39759547 C21.244413,9.39759547 20.7089109,9.16777935 20.2701556,8.70823197 C19.8314003,8.24859972 19.6115983,7.60506365 19.6115983,6.77745403 C19.6115983,5.96248939 19.8330976,5.30070721 20.2752475,4.79219236 C20.7173975,4.28359264 21.2953324,4.02933522 22.0090523,4.02933522 Z M23.3685997,6.27521924 C23.3338048,5.90562942 23.2540311,5.61029703 23.1275813,5.3891372 C22.8933522,4.97855728 22.503819,4.77318246 21.9572843,4.77318246 C21.5652051,4.77318246 21.2367751,4.9145686 20.9711457,5.19725601 C20.7063649,5.47994342 20.565488,5.8392645 20.5493635,6.27521924 L23.3685997,6.27521924 Z" id="Shape" fill="#000000" fill-rule="nonzero" mask="url(#mask-20)"></path>
                    </g>
                    <g id="Clipped">
                        <mask id="mask-22" fill="white">
                            <use xlink:href="#path-21"></use>
                        </mask>
                        <g id="Rectangle"></g>
                        <path d="M27.249505,3.99615276 C27.8214993,3.99615276 28.2865629,4.13516266 28.6446959,4.4130976 C29.0036775,4.6911174 29.2192362,5.16967468 29.291372,5.84876945 L28.4622348,5.84876945 C28.4121641,5.5360396 28.2967468,5.27626591 28.1168317,5.06936351 C27.9360679,4.8624611 27.6475248,4.7590099 27.249505,4.7590099 C26.7063649,4.7590099 26.3176803,5.02429986 26.0834512,5.55496464 C25.9323904,5.89934936 25.85686,6.3241867 25.85686,6.82956153 C25.85686,7.33807638 25.9637907,7.76613861 26.1785007,8.1135785 C26.3932107,8.46101839 26.7318246,8.63473833 27.192645,8.63473833 C27.5465347,8.63473833 27.8265912,8.52661952 28.0336634,8.31021216 C28.2407355,8.09380481 28.3833098,7.79770863 28.4622348,7.42183876 L29.291372,7.42183876 C29.1971711,8.09465347 28.9595474,8.58661952 28.5810467,8.89773692 C28.2016973,9.20885431 27.7171146,9.36441301 27.1264498,9.36441301 C26.4628006,9.36441301 25.9340877,9.12203678 25.5386139,8.63711457 C25.1439887,8.15227723 24.9471004,7.54659123 24.9471004,6.82005658 C24.9471004,5.92930693 25.1635078,5.23595474 25.5954738,4.74008487 C26.0282885,4.24413013 26.5799151,3.99615276 27.249505,3.99615276 Z" id="Path" fill="#000000" mask="url(#mask-22)"></path>
                    </g>
                    <g id="Clipped">
                        <mask id="mask-24" fill="white">
                            <use xlink:href="#path-23"></use>
                        </mask>
                        <g id="Rectangle"></g>
                        <path d="M32.158133,8.66792079 C32.723338,8.66792079 33.111174,8.45397454 33.3216407,8.02591231 C33.5312588,7.59793494 33.6364922,7.12175389 33.6364922,6.59736917 C33.6364922,6.12356436 33.5609618,5.73818953 33.4090523,5.44132956 C33.1688826,4.97380481 32.7547383,4.74008487 32.1674682,4.74008487 C31.6463932,4.74008487 31.2670438,4.9390099 31.0302687,5.3370297 C30.7934936,5.7350495 30.6755304,6.21521924 30.6755304,6.77745403 C30.6755304,7.31762376 30.7934936,7.7676662 31.0302687,8.12783593 C31.2670438,8.48792079 31.6429986,8.66792079 32.158133,8.66792079 Z M32.1912306,3.99615276 C32.8455446,3.99615276 33.3980198,4.21408769 33.849505,4.65004243 C34.3009901,5.08591231 34.5275813,5.727157 34.5275813,6.57369165 C34.5275813,7.39179632 34.3281471,8.06775106 33.9301273,8.60164074 C33.5321075,9.13544554 32.9142857,9.40234795 32.0775106,9.40234795 C31.3799151,9.40234795 30.8248939,9.16625177 30.4141443,8.69397454 C30.0042433,8.22178218 29.7988685,7.5876662 29.7988685,6.79162659 C29.7988685,5.93881188 30.0152758,5.25963225 30.4480905,4.75425743 C30.8800566,4.2488826 31.4613861,3.99615276 32.1912306,3.99615276 Z" id="Shape" fill="#000000" fill-rule="nonzero" mask="url(#mask-24)"></path>
                    </g>
                    <g id="Clipped">
                        <mask id="mask-26" fill="white">
                            <use xlink:href="#path-25"></use>
                        </mask>
                        <g id="Rectangle"></g>
                        <path d="M35.5408769,4.14305516 L36.3513437,4.14305516 L36.3513437,4.86322489 C36.5915134,4.56628006 36.8461103,4.3530976 37.1142857,4.22359264 C37.3824611,4.09408769 37.6811881,4.02933522 38.0096181,4.02933522 C38.7301273,4.02933522 39.2164074,4.28045262 39.4693069,4.78268741 C39.6076379,5.05748232 39.6772277,5.45074965 39.6772277,5.96248939 L39.6772277,9.21759547 L38.8107496,9.21759547 L38.8107496,6.01934936 C38.8107496,5.70975955 38.7649222,5.4602546 38.6732673,5.27074965 C38.5213579,4.95487977 38.2463932,4.79694484 37.8483734,4.79694484 C37.6463932,4.79694484 37.4809052,4.81739745 37.3510608,4.85847242 C37.1176803,4.92797737 36.9123055,5.06698727 36.7349364,5.27541726 C36.5932107,5.44285714 36.5007072,5.6158133 36.4582744,5.79428571 C36.4149929,5.97275813 36.3937765,6.22777935 36.3937765,6.55951909 L36.3937765,9.21759547 L35.5408769,9.21759547 L35.5408769,4.14305516 Z" id="Path" fill="#000000" mask="url(#mask-26)"></path>
                    </g>
                    <g id="Clipped">
                        <mask id="mask-28" fill="white">
                            <use xlink:href="#path-27"></use>
                        </mask>
                        <g id="Rectangle"></g>
                        <path d="M41.4780764,6.73951909 C41.4780764,7.28282885 41.5934936,7.73770863 41.8234795,8.10407355 C42.054314,8.47052334 42.4243281,8.65374823 42.9326733,8.65374823 C43.3272984,8.65374823 43.6523338,8.48393211 43.906082,8.14438472 C44.1606789,7.80483734 44.2879774,7.31762376 44.2879774,6.68265912 C44.2879774,6.04141443 44.1564356,5.56684583 43.8942008,5.25886846 C43.6319661,4.95089109 43.308628,4.79694484 42.923338,4.79694484 C42.493918,4.79694484 42.1451202,4.96115983 41.8786421,5.28967468 C41.6113154,5.61818953 41.4780764,6.10149929 41.4780764,6.73951909 Z M42.7620934,4.05301273 C43.1507779,4.05301273 43.4758133,4.13516266 43.7380481,4.29937765 C43.8899576,4.39417256 44.0622348,4.56 44.2548798,4.79694484 L44.2548798,2.2335785 L45.0738331,2.2335785 L45.0738331,9.21759547 L44.3066478,9.21759547 L44.3066478,8.5115983 C44.1080622,8.82432815 43.8721358,9.05015559 43.6005658,9.18916549 C43.3289958,9.32809052 43.0175389,9.39759547 42.6670438,9.39759547 C42.1018388,9.39759547 41.6121641,9.15988685 41.1988685,8.68455446 C40.7847242,8.2091372 40.5776521,7.57663366 40.5776521,6.78687412 C40.5776521,6.04777935 40.7669024,5.40729844 41.1437058,4.86560113 C41.5213579,4.32390382 42.0611033,4.05301273 42.7620934,4.05301273 Z" id="Shape" fill="#000000" fill-rule="nonzero" mask="url(#mask-28)"></path>
                    </g>
                </g>
                <g id="Group" transform="translate(23.762376, 1.697313)">
                    <g id="Clipped">
                        <mask id="mask-30" fill="white">
                            <use xlink:href="#path-29"></use>
                        </mask>
                        <g id="Rectangle"></g>
                        <path d="M7.55070174,4.53818953 L7.55070174,3.88429986 C8.15672172,3.82429986 8.57938267,3.72398868 8.81868458,3.5834512 C9.05798649,3.44291372 9.23666971,3.11041018 9.35473422,2.58611033 L10.0166971,2.58611033 L10.0166971,9.34260255 L9.12169457,9.34260255 L9.12169457,4.53818953 L7.55070174,4.53818953 Z" id="Path" fill="#000000" mask="url(#mask-30)"></path>
                    </g>
                    <g id="Clipped">
                        <mask id="mask-32" fill="white">
                            <use xlink:href="#path-31"></use>
                        </mask>
                        <g id="Rectangle"></g>
                        <path d="M15.7132682,7.7506082 C15.7381503,8.03490806 15.8081206,8.252843 15.9230958,8.40449788 C16.1344262,8.67929279 16.5011443,8.81669024 17.02325,8.81669024 C17.3340252,8.81669024 17.6074773,8.74794908 17.8436898,8.61055163 C18.0799024,8.47315417 18.1979669,8.2607355 18.1979669,7.97329562 C18.1979669,7.75536068 18.103198,7.58953324 17.9136602,7.4758133 C17.7924228,7.40630835 17.5531209,7.32577086 17.1957544,7.23420085 L16.5291158,7.06362093 C16.1033654,6.95618105 15.7894173,6.83618105 15.5874385,6.70353607 C15.2268992,6.47287129 15.0467131,6.15386139 15.0467131,5.7464215 C15.0467131,5.26625177 15.2167961,4.87773692 15.5571292,4.58079208 C15.8974622,4.28393211 16.3550249,4.13541726 16.929984,4.13541726 C17.6821235,4.13541726 18.2244354,4.35971711 18.5569197,4.80823197 C18.7651608,5.09253182 18.866192,5.39889675 18.8599297,5.7274116 L18.0674613,5.7274116 C18.0519309,5.53476662 17.9851335,5.35943423 17.8669854,5.20149929 C17.6743583,4.97719943 17.340204,4.86509194 16.864773,4.86509194 C16.5477355,4.86509194 16.3076822,4.92670438 16.1445294,5.04992928 C15.9813766,5.17306931 15.8998002,5.33575672 15.8998002,5.53790665 C15.8998002,5.75906648 16.0070101,5.93592645 16.2214299,6.06857143 C16.3457567,6.14758133 16.5291158,6.21708628 16.771507,6.27708628 L17.32626,6.41448373 C17.9291906,6.56291372 18.3331482,6.7066761 18.5382999,6.84560113 C18.8646056,7.06362093 19.0277584,7.40630835 19.0277584,7.8738331 C19.0277584,8.32548798 18.8591783,8.71561528 18.5219346,9.04413013 C18.1847744,9.37264498 17.6711854,9.53685997 16.9812511,9.53685997 C16.2385468,9.53685997 15.7125168,9.36551627 15.403328,9.02282885 C15.0940558,8.68005658 14.928565,8.25598303 14.9068559,7.7506082 L15.7132682,7.7506082 Z" id="Path" fill="#000000" mask="url(#mask-32)"></path>
                    </g>
                    <g id="Clipped">
                        <mask id="mask-34" fill="white">
                            <use xlink:href="#path-33"></use>
                        </mask>
                        <g id="Rectangle"></g>
                        <path d="M22.0672099,4.15442716 C22.421487,4.15442716 22.7649094,4.23886846 23.0973938,4.40792079 C23.4299617,4.57688826 23.6832076,4.79558699 23.8572984,5.06410184 C24.0251271,5.31997171 24.1370128,5.61844413 24.1929557,5.95960396 C24.2426363,6.1933239 24.2675184,6.56605375 24.2675184,7.07779349 L20.6081028,7.07779349 C20.6236333,7.59267327 20.7432842,8.00571429 20.9670557,8.31683168 C21.1908272,8.62794908 21.5373391,8.78350778 22.0065912,8.78350778 C22.4447826,8.78350778 22.7943838,8.63660537 23.0554784,8.34288543 C23.2046872,8.17230552 23.3103107,7.97490806 23.3724324,7.7506082 L24.197548,7.7506082 C24.1758388,7.93697313 24.1036141,8.14463932 23.9807903,8.37369165 C23.8580499,8.60265912 23.7205306,8.7898727 23.5682324,8.93516266 C23.3134001,9.18780764 22.9979491,9.35838755 22.6219629,9.4469024 C22.4199005,9.49739745 22.1915367,9.52268741 21.9367044,9.52268741 C21.3150705,9.52268741 20.7883725,9.29287129 20.3563599,8.83323904 C19.9243473,8.37369165 19.708341,7.73007072 19.708341,6.9024611 C19.708341,6.08758133 19.9259338,5.42579915 20.3610357,4.91719943 C20.7961377,4.40868458 21.3648346,4.15442716 22.0672099,4.15442716 Z M23.4050796,6.40022631 C23.3709294,6.03072136 23.2916909,5.7353041 23.1673641,5.51422914 C22.9374139,5.10356436 22.553579,4.8982744 22.0159429,4.8982744 C21.6305215,4.8982744 21.3073053,5.03966054 21.0462942,5.32234795 C20.7851996,5.60503536 20.6469289,5.96435644 20.6313985,6.40022631 L23.4050796,6.40022631 Z" id="Shape" fill="#000000" fill-rule="nonzero" mask="url(#mask-34)"></path>
                    </g>
                    <g id="Clipped">
                        <mask id="mask-36" fill="white">
                            <use xlink:href="#path-35"></use>
                        </mask>
                        <g id="Rectangle"></g>
                        <path d="M27.2230556,4.1212447 C27.7855738,4.1212447 28.2431364,4.26016973 28.5959105,4.53818953 C28.9486011,4.81612447 29.1607665,5.29468175 29.2322398,5.97386139 L28.4163923,5.97386139 C28.3667117,5.66113154 28.2532395,5.40127298 28.0761427,5.19437058 C27.8989624,4.98746818 27.6145722,4.88401697 27.2230556,4.88401697 C26.6885089,4.88401697 26.3062604,5.1493918 26.0762267,5.68005658 C25.9271013,6.02435644 25.8524552,6.44919378 25.8524552,6.95465347 C25.8524552,7.46316832 25.9581622,7.89114569 26.1694926,8.23867044 C26.3808231,8.58611033 26.7133075,8.75983027 27.1671127,8.75983027 C27.5151275,8.75983027 27.791001,8.65162659 27.9945663,8.4353041 C28.1981316,8.21889675 28.3387402,7.92280057 28.4163923,7.54684583 L29.2322398,7.54684583 C29.1389739,8.21966054 28.9059342,8.71162659 28.5329539,9.02282885 C28.160057,9.33394625 27.6829562,9.48950495 27.1018182,9.48950495 C26.449207,9.48950495 25.9286043,9.24704385 25.540177,8.76220651 C25.1516663,8.27736917 24.9574527,7.67168317 24.9574527,6.94514851 C24.9574527,6.05439887 25.1702861,5.36104668 25.5961199,4.86509194 C26.0218702,4.36922207 26.5641821,4.1212447 27.2230556,4.1212447 Z" id="Path" fill="#000000" mask="url(#mask-36)"></path>
                    </g>
                    <g id="Clipped">
                        <mask id="mask-38" fill="white">
                            <use xlink:href="#path-37"></use>
                        </mask>
                        <g id="Rectangle"></g>
                        <path d="M32.0527627,8.79301273 C32.6088516,8.79301273 32.9904321,8.57898161 33.1966693,8.15100424 C33.4037414,7.72294201 33.5072775,7.24676096 33.5072775,6.7224611 C33.5072775,6.24865629 33.4321303,5.86328147 33.283506,5.56633663 C33.0472099,5.09881188 32.6397454,4.86509194 32.0619473,4.86509194 C31.5491098,4.86509194 31.1761295,5.06410184 30.9430898,5.46212164 C30.7099667,5.86014144 30.5934051,6.34022631 30.5934051,6.9024611 C30.5934051,7.44263083 30.7099667,7.89275813 30.9430898,8.252843 C31.1761295,8.61292786 31.5459369,8.79301273 32.0527627,8.79301273 Z M32.0853265,4.1212447 C32.728252,4.1212447 33.2726514,4.33917963 33.7168545,4.7750495 C34.1610576,5.21100424 34.3831592,5.85224894 34.3831592,6.69878359 C34.3831592,7.51688826 34.1877766,8.192843 33.7961765,8.72664781 C33.4045764,9.26053748 32.7967194,9.52743989 31.9734407,9.52743989 C31.2864288,9.52743989 30.7410275,9.29125884 30.3370699,8.81906648 C29.9330287,8.34678925 29.7310499,7.71267327 29.7310499,6.91671853 C29.7310499,6.06381895 29.9438833,5.38472419 30.3696336,4.87934936 C30.7954674,4.37388967 31.3672537,4.1212447 32.0853265,4.1212447 Z" id="Shape" fill="#000000" fill-rule="nonzero" mask="url(#mask-38)"></path>
                    </g>
                    <g id="Clipped">
                        <mask id="mask-40" fill="white">
                            <use xlink:href="#path-39"></use>
                        </mask>
                        <g id="Rectangle"></g>
                        <path d="M35.3809463,4.26806223 L36.178341,4.26806223 L36.178341,4.98831683 C36.414637,4.69137199 36.6642926,4.47818953 36.9289775,4.34868458 C37.1928275,4.21917963 37.4867363,4.15442716 37.8098691,4.15442716 C38.5179222,4.15442716 38.997194,4.40554455 39.2451795,4.90777935 C39.3821143,5.18257426 39.4505817,5.57584158 39.4505817,6.08758133 L39.4505817,9.34260255 L38.5972441,9.34260255 L38.5972441,6.14435644 C38.5972441,5.83485149 38.5521559,5.58526167 38.4619793,5.39575672 C38.3133549,5.07988685 38.0428252,4.92195191 37.6512251,4.92195191 C37.4525026,4.92195191 37.2888488,4.94248939 37.1619337,4.98356436 C36.9314824,5.05306931 36.7294201,5.19199434 36.5557467,5.40050919 C36.415472,5.56794908 36.3252954,5.74090523 36.2827121,5.91937765 C36.2409636,6.09776521 36.2200894,6.35287129 36.2200894,6.68452617 L36.2200894,9.34260255 L35.3809463,9.34260255 L35.3809463,4.26806223 Z" id="Path" fill="#000000" mask="url(#mask-40)"></path>
                    </g>
                    <g id="Clipped">
                        <mask id="mask-42" fill="white">
                            <use xlink:href="#path-41"></use>
                        </mask>
                        <g id="Rectangle"></g>
                        <path d="M41.2223845,6.86461103 C41.2223845,7.40792079 41.3359401,7.8627157 41.5622165,8.22916549 C41.7893279,8.59561528 42.1525391,8.7787553 42.6535201,8.7787553 C43.0417804,8.7787553 43.3607382,8.60902405 43.6112287,8.26947666 C43.8617192,7.92984441 43.9861295,7.44263083 43.9861295,6.80775106 C43.9861295,6.16650636 43.8575444,5.69193777 43.5995392,5.3839604 C43.341534,5.07598303 43.0234111,4.92195191 42.6435005,4.92195191 C42.2210065,4.92195191 41.8786695,5.08625177 41.6156545,5.41476662 C41.3534745,5.74319661 41.2223845,6.22650636 41.2223845,6.86461103 Z M42.4856915,4.17810467 C42.867272,4.17810467 43.1878998,4.26016973 43.445905,4.42446959 C43.5945294,4.5192645 43.7640279,4.68509194 43.9535657,4.92195191 L43.9535657,2.35867044 L44.7601451,2.35867044 L44.7601451,9.34260255 L44.0053338,9.34260255 L44.0053338,8.63660537 C43.8091162,8.94933522 43.57783,9.17524752 43.3106401,9.31417256 C43.0434503,9.45318246 42.7370169,9.52268741 42.392175,9.52268741 C41.8360861,9.52268741 41.3543094,9.28497878 40.9468449,8.80956153 C40.5402154,8.33422914 40.3364831,7.70164074 40.3364831,6.91196605 C40.3364831,6.17278642 40.5218461,5.53239038 40.8934069,4.99069307 C41.2649678,4.44891089 41.7951727,4.17810467 42.4856915,4.17810467 Z" id="Shape" fill="#000000" fill-rule="nonzero" mask="url(#mask-42)"></path>
                    </g>
                </g>
                <g id="Group" transform="translate(325.884017, 2.545969)">
                    <g id="Clipped">
                        <mask id="mask-44" fill="white">
                            <use xlink:href="#path-43"></use>
                        </mask>
                        <g id="Rectangle"></g>
                        <path d="M7.2700689,4.30896747 L7.2700689,3.65516266 C7.87625587,3.59516266 8.29874983,3.49485149 8.53755076,3.35422914 C8.77718666,3.21369165 8.95586987,2.88127298 9.0736004,2.35688826 L9.73573026,2.35688826 L9.73573026,9.11346535 L8.84064425,9.11346535 L8.84064425,4.30896747 L7.2700689,4.30896747 Z" id="Path" fill="#000000" mask="url(#mask-44)"></path>
                    </g>
                    <g id="Clipped">
                        <mask id="mask-46" fill="white">
                            <use xlink:href="#path-45"></use>
                        </mask>
                        <g id="Rectangle"></g>
                        <path d="M15.4327189,7.521471 C15.4577679,7.805686 15.5270703,8.0237058 15.6422959,8.17527581 C15.8535429,8.45007072 16.220094,8.58755304 16.7427841,8.58755304 C17.0533923,8.58755304 17.326427,8.51881188 17.562723,8.38141443 C17.799019,8.24401697 17.9175845,8.0315983 17.9175845,7.74415842 C17.9175845,7.52613861 17.8223981,7.36031117 17.6328603,7.24659123 C17.5117899,7.17717115 17.272154,7.0965488 16.9147876,7.00497878 L16.2484829,6.83439887 C15.8226491,6.72704385 15.508701,6.60695898 15.3066387,6.474314 C14.9459324,6.24373409 14.7655792,5.92472419 14.7655792,5.51719943 C14.7655792,5.03711457 14.9359128,4.64859972 15.2765798,4.35165488 C15.6164119,4.05471004 16.0739745,3.90628006 16.6492677,3.90628006 C17.4015741,3.90628006 17.9434685,4.13049505 18.2757859,4.57909477 C18.484528,4.86339463 18.5855592,5.16975955 18.5788794,5.4982744 L17.7864945,5.4982744 C17.7714651,5.30554455 17.7046676,5.13029703 17.5861021,4.97236209 C17.3932244,4.74806223 17.0592371,4.63595474 16.5841402,4.63595474 C16.2668522,4.63595474 16.0272163,4.69748232 15.8635625,4.82070721 C15.7007437,4.94393211 15.6189168,5.10661952 15.6189168,5.30876945 C15.6189168,5.52984441 15.7266277,5.70670438 15.9403796,5.83943423 C16.0647899,5.91835926 16.2484829,5.98786421 16.4906237,6.04786421 L17.0458776,6.18526167 C17.6487247,6.33377652 18.0520144,6.47745403 18.2574166,6.61646393 C18.5838892,6.83439887 18.746708,7.17717115 18.746708,7.64461103 C18.746708,8.09635078 18.5780444,8.48639321 18.2415522,8.81490806 C17.904225,9.14342291 17.3907195,9.30772277 16.7002008,9.30772277 C15.9579139,9.30772277 15.4318839,9.13637907 15.1229457,8.79360679 C14.8131724,8.45091938 14.6478487,8.02684583 14.6261395,7.521471 L15.4327189,7.521471 Z" id="Path" fill="#000000" mask="url(#mask-46)"></path>
                    </g>
                    <g id="Clipped">
                        <mask id="mask-48" fill="white">
                            <use xlink:href="#path-47"></use>
                        </mask>
                        <g id="Rectangle"></g>
                        <path d="M21.7868276,3.92520509 C22.1408541,3.92520509 22.4840261,4.00973126 22.8163435,4.17869873 C23.1494958,4.3476662 23.4024912,4.56644979 23.5761646,4.83496464 C23.7439932,5.09074965 23.855879,5.38930693 23.9118219,5.73046676 C23.96192,5.9641867 23.986969,6.33691655 23.986969,6.84865629 L20.327303,6.84865629 C20.3431674,7.36353607 20.4625679,7.77649222 20.6863394,8.08760962 C20.9101109,8.39881188 21.2566227,8.55437058 21.7258749,8.55437058 C22.1642332,8.55437058 22.51325,8.40746818 22.7745951,8.11366337 C22.9240544,7.94316832 23.0292604,7.745686 23.091883,7.521471 L23.9168317,7.521471 C23.8951225,7.70783593 23.8224803,7.91550212 23.6997399,8.14446959 C23.5769996,8.37352192 23.4400648,8.56065064 23.2872656,8.70594059 C23.0326003,8.95867044 22.7169823,9.12925035 22.3412465,9.21768034 C22.1391842,9.26826025 21.9104029,9.29346535 21.6557376,9.29346535 C21.0345211,9.29346535 20.5076562,9.06373409 20.0759776,8.60410184 C19.643464,8.14446959 19.4272072,7.50093352 19.4272072,6.6733239 C19.4272072,5.85835926 19.6451339,5.19657709 20.0801524,4.68806223 C20.5151709,4.17946252 21.0837843,3.92520509 21.7868276,3.92520509 Z M23.1244468,6.17108911 C23.0902131,5.80149929 23.0108911,5.5061669 22.8864808,5.28500707 C22.6568645,4.87442716 22.2727791,4.66905233 21.7350595,4.66905233 C21.3501392,4.66905233 21.0261715,4.81043847 20.7656614,5.09312588 C20.5043163,5.37589816 20.3665465,5.73513437 20.3506821,6.17108911 L23.1244468,6.17108911 Z" id="Shape" fill="#000000" fill-rule="nonzero" mask="url(#mask-48)"></path>
                    </g>
                    <g id="Clipped">
                        <mask id="mask-50" fill="white">
                            <use xlink:href="#path-49"></use>
                        </mask>
                        <g id="Rectangle"></g>
                        <path d="M26.9419218,3.89202263 C27.5046904,3.89202263 27.962253,4.03103253 28.3154446,4.30896747 C28.6678013,4.58698727 28.8798832,5.06554455 28.9516905,5.74463932 L28.1359264,5.74463932 C28.0858284,5.43190948 27.9722727,5.17213579 27.7952594,4.96523338 C27.6182461,4.75833098 27.3335219,4.65487977 26.9419218,4.65487977 C26.4075421,4.65487977 26.0251266,4.9202546 25.7955103,5.45091938 C25.646051,5.79521924 25.5717388,6.22005658 25.5717388,6.7254314 C25.5717388,7.23403112 25.6777798,7.66200849 25.8890268,8.00944837 C26.1002738,8.35688826 26.4325911,8.53069307 26.8859789,8.53069307 C27.2341607,8.53069307 27.5105352,8.42248939 27.7134325,8.20608204 C27.9171648,7.98975955 28.0582744,7.6935785 28.1359264,7.31770863 L28.9516905,7.31770863 C28.858174,7.99052334 28.6252179,8.48248939 28.251987,8.79360679 C27.8795912,9.10472419 27.4019893,9.26036775 26.8208514,9.26036775 C26.1687412,9.26036775 25.6477209,9.01790665 25.2594607,8.53298444 C24.8712004,8.0481471 24.6766528,7.4424611 24.6766528,6.71592645 C24.6766528,5.8251768 24.8895697,5.13182461 25.3154036,4.63595474 C25.7412374,4.14 26.2831318,3.89202263 26.9419218,3.89202263 Z" id="Path" fill="#000000" mask="url(#mask-50)"></path>
                    </g>
                    <g id="Clipped">
                        <mask id="mask-52" fill="white">
                            <use xlink:href="#path-51"></use>
                        </mask>
                        <g id="Rectangle"></g>
                        <path d="M31.7713784,8.56379066 C32.3283022,8.56379066 32.7098827,8.34984441 32.9161199,7.92178218 C33.123192,7.49380481 33.2258931,7.01762376 33.2258931,6.49323904 C33.2258931,6.01943423 33.151581,5.63405941 33.0021216,5.33719943 C32.7666606,4.86967468 32.3591961,4.63595474 31.781398,4.63595474 C31.2687275,4.63595474 30.8954966,4.83496464 30.6625405,5.23289958 C30.4295843,5.63091938 30.3126888,6.11108911 30.3126888,6.6733239 C30.3126888,7.21349364 30.4295843,7.66362093 30.6625405,8.0237058 C30.8954966,8.38379066 31.2653876,8.56379066 31.7713784,8.56379066 Z M31.8047771,3.89202263 C32.4477027,3.89202263 32.9912671,4.10995757 33.4363052,4.54591231 C33.8805083,4.98178218 34.1026098,5.62302687 34.1026098,6.46956153 C34.1026098,7.2876662 33.9072273,7.96362093 33.5156271,8.49751061 C33.124027,9.03131542 32.5161701,9.29821782 31.6928914,9.29821782 C31.0057125,9.29821782 30.4604782,9.06212164 30.0563535,8.58984441 C29.6522289,8.11765205 29.4501665,7.48353607 29.4501665,6.68749646 C29.4501665,5.83468175 29.6630835,5.15550212 30.0889173,4.6501273 C30.5147511,4.14475248 31.0867044,3.89202263 31.8047771,3.89202263 Z" id="Shape" fill="#000000" fill-rule="nonzero" mask="url(#mask-52)"></path>
                    </g>
                    <g id="Clipped">
                        <mask id="mask-54" fill="white">
                            <use xlink:href="#path-53"></use>
                        </mask>
                        <g id="Rectangle"></g>
                        <path d="M35.100397,4.03892504 L35.8977917,4.03892504 L35.8977917,4.75909477 C36.1332527,4.46223479 36.3837432,4.24896747 36.6475932,4.11946252 C36.9122781,3.98995757 37.205352,3.92520509 37.5293197,3.92520509 C38.2373728,3.92520509 38.7158096,4.17632249 38.9646302,4.67855728 C39.101565,4.95335219 39.1700324,5.34661952 39.1700324,5.85835926 L39.1700324,9.11346535 L38.3166948,9.11346535 L38.3166948,5.91521924 C38.3166948,5.60562942 38.2716065,5.35612447 38.1814299,5.16661952 C38.0328056,4.85074965 37.7622759,4.69281471 37.3706757,4.69281471 C37.1719533,4.69281471 37.0082995,4.71335219 36.8813843,4.75434229 C36.6509331,4.82384724 36.4488707,4.96285714 36.2751973,5.17137199 C36.1349227,5.33872702 36.0439111,5.51168317 36.0021627,5.69015559 C35.9604143,5.86862801 35.9395401,6.12373409 35.9395401,6.45538897 L35.9395401,9.11346535 L35.100397,9.11346535 L35.100397,4.03892504 Z" id="Path" fill="#000000" mask="url(#mask-54)"></path>
                    </g>
                    <g id="Clipped">
                        <mask id="mask-56" fill="white">
                            <use xlink:href="#path-55"></use>
                        </mask>
                        <g id="Rectangle"></g>
                        <path d="M40.9410001,6.63538897 C40.9410001,7.17869873 41.0545558,7.6335785 41.2816672,8.00002829 C41.5087786,8.36639321 41.8719898,8.5496181 42.3721358,8.5496181 C42.761231,8.5496181 43.0801889,8.37980198 43.3306794,8.0402546 C43.5803349,7.70070721 43.7055801,7.21349364 43.7055801,6.578529 C43.7055801,5.93736917 43.576995,5.4627157 43.3189898,5.15473833 C43.0609846,4.84676096 42.7420267,4.69281471 42.3629511,4.69281471 C41.9404572,4.69281471 41.5981202,4.8570297 41.3351052,5.18554455 C41.0729251,5.51405941 40.9410001,5.99736917 40.9410001,6.63538897 Z M42.2043072,3.9488826 C42.5867226,3.9488826 42.9073505,4.03103253 43.1653557,4.19524752 C43.31398,4.29004243 43.4834786,4.45586987 43.6730164,4.69281471 L43.6730164,2.12944837 L44.4795957,2.12944837 L44.4795957,9.11346535 L43.7239494,9.11346535 L43.7239494,8.40746818 C43.5285669,8.72019802 43.2972806,8.94602546 43.0300908,9.08503536 C42.7629009,9.2239604 42.4564676,9.29346535 42.1116257,9.29346535 C41.5547018,9.29346535 41.0737601,9.05575672 40.6662956,8.58042433 C40.258831,8.10500707 40.0559338,7.47250354 40.0559338,6.68282885 C40.0559338,5.94364922 40.2412967,5.30325318 40.6128576,4.761471 C40.9844185,4.21977369 41.5146234,3.9488826 42.2043072,3.9488826 Z" id="Shape" fill="#000000" fill-rule="nonzero" mask="url(#mask-56)"></path>
                    </g>
                </g>
                <g id="Group" transform="translate(422.630835, 1.697313)">
                    <g id="Clipped">
                        <mask id="mask-58" fill="white">
                            <use xlink:href="#path-57"></use>
                        </mask>
                        <g id="Rectangle"></g>
                        <path d="M7.44708217,4.28656294 L7.44708217,3.63275813 C8.05326915,3.57267327 8.47576311,3.47244696 8.71539901,3.33182461 C8.95419994,3.19128713 9.13288315,2.85886846 9.25144865,2.33448373 L9.9135785,2.33448373 L9.9135785,9.09106082 L9.01849249,9.09106082 L9.01849249,4.28656294 L7.44708217,4.28656294 Z" id="Path" fill="#000000" mask="url(#mask-58)"></path>
                    </g>
                    <g id="Clipped">
                        <mask id="mask-60" fill="white">
                            <use xlink:href="#path-59"></use>
                        </mask>
                        <g id="Rectangle"></g>
                        <path d="M15.6097322,7.49898161 C15.6347812,7.78328147 15.7049186,8.00130127 15.8193092,8.15287129 C16.0313912,8.4276662 16.3979422,8.56506365 16.9197974,8.56506365 C17.2304056,8.56506365 17.5042752,8.49640736 17.7405712,8.3590099 C17.9768673,8.22161245 18.0945978,8.00919378 18.0945978,7.72175389 C18.0945978,7.50373409 17.9994114,7.33790665 17.8098736,7.2241867 C17.6888032,7.15468175 17.4500023,7.07414427 17.0926359,6.98257426 L16.4254962,6.81199434 C15.9996624,6.70463932 15.6857143,6.58455446 15.483652,6.45190948 C15.1237806,6.22132956 14.9434275,5.90231966 14.9434275,5.49479491 C14.9434275,5.01471004 15.113761,4.62611033 15.4535931,4.32925035 C15.7942602,4.03230552 16.2518228,3.88387553 16.826281,3.88387553 C17.5785874,3.88387553 18.1213168,4.10809052 18.4536342,4.55669024 C18.6615413,4.84090523 18.7625724,5.14735502 18.7567277,5.47586987 L17.9643427,5.47586987 C17.9484784,5.28314003 17.8816809,5.1078925 17.7639504,4.94995757 C17.5710727,4.72565771 17.2370854,4.61355021 16.7611534,4.61355021 C16.4447005,4.61355021 16.2042296,4.67507779 16.0414108,4.79830269 C15.877757,4.92152758 15.7959301,5.08413013 15.7959301,5.28636492 C15.7959301,5.50743989 15.903641,5.68429986 16.1182279,5.8170297 C16.2426381,5.89595474 16.4254962,5.96545969 16.668472,6.02545969 L17.2228909,6.16285714 C17.825738,6.31137199 18.2298627,6.4550495 18.4352649,6.59405941 C18.7609025,6.81199434 18.9245563,7.15468175 18.9245563,7.62220651 C18.9245563,8.07394625 18.7558927,8.46398868 18.4185655,8.79250354 C18.0812383,9.12101839 17.5677328,9.28531825 16.878049,9.28531825 C16.1349272,9.28531825 15.6088972,9.11388967 15.2999589,8.77120226 C14.9910207,8.42851485 14.824862,8.0044413 14.8031528,7.49898161 L15.6097322,7.49898161 Z" id="Path" fill="#000000" mask="url(#mask-60)"></path>
                    </g>
                    <g id="Clipped">
                        <mask id="mask-62" fill="white">
                            <use xlink:href="#path-61"></use>
                        </mask>
                        <g id="Rectangle"></g>
                        <path d="M21.9638409,3.90280057 C22.3178674,3.90280057 22.6618743,3.98732673 22.9941917,4.1562942 C23.3265091,4.32526167 23.5795045,4.54404526 23.7540129,4.81247525 C23.9218415,5.06834512 24.0337272,5.3669024 24.0896701,5.70797737 C24.1389332,5.94178218 24.1639823,6.31451202 24.1639823,6.82625177 L20.5043163,6.82625177 C20.5201807,7.34104668 20.6395811,7.75408769 20.8633526,8.06520509 C21.0871242,8.37632249 21.433636,8.53196605 21.9028882,8.53196605 C22.3412465,8.53196605 22.6910982,8.38506365 22.9524433,8.09125884 C23.1010677,7.92067893 23.2071086,7.72328147 23.2688963,7.49898161 L24.093845,7.49898161 C24.0721358,7.6854314 24.0003285,7.8930976 23.8775882,8.12206506 C23.7548478,8.3511174 23.6170781,8.53824611 23.4651138,8.68353607 C23.2096135,8.93626591 22.8948305,9.10684583 22.5182598,9.19527581 C22.3161975,9.24577086 22.0882511,9.27106082 21.8335858,9.27106082 C21.2115344,9.27106082 20.6846694,9.0412447 20.2529908,8.58169731 C19.8213122,8.12206506 19.6050554,7.478529 19.6050554,6.65091938 C19.6050554,5.83595474 19.8221472,5.17417256 20.2571657,4.66565771 C20.6930191,4.15705799 21.2616325,3.90280057 21.9638409,3.90280057 Z M23.3014601,6.14868458 C23.2672264,5.77909477 23.1879044,5.48376238 23.0643291,5.26260255 C22.8338778,4.85202263 22.4497924,4.64664781 21.9120728,4.64664781 C21.5271524,4.64664781 21.2040197,4.78803395 20.9426746,5.07072136 C20.6821645,5.35340877 20.5435598,5.71272984 20.5276954,6.14868458 L23.3014601,6.14868458 Z" id="Shape" fill="#000000" fill-rule="nonzero" mask="url(#mask-62)"></path>
                    </g>
                    <g id="Clipped">
                        <mask id="mask-64" fill="white">
                            <use xlink:href="#path-63"></use>
                        </mask>
                        <g id="Rectangle"></g>
                        <path d="M27.11977,3.8696181 C27.6817037,3.8696181 28.1401013,4.00862801 28.4924579,4.28656294 C28.8448145,4.56458274 29.0568965,5.04314003 29.1287037,5.72223479 L28.3129397,5.72223479 C28.2636766,5.40950495 28.1501209,5.14973126 27.9722727,4.94282885 C27.7952594,4.73592645 27.5113702,4.63247525 27.11977,4.63247525 C26.5853903,4.63247525 26.2029749,4.89776521 25.9725236,5.42842999 C25.8238993,5.77272984 25.7487521,6.19765205 25.7487521,6.70302687 C25.7487521,7.21154173 25.8547931,7.63960396 26.0660401,7.98704385 C26.277287,8.33448373 26.6096044,8.50820368 27.0638272,8.50820368 C27.4120089,8.50820368 27.6875485,8.40008487 27.8912807,8.18367751 C28.095013,7.96727016 28.2352877,7.67117397 28.3129397,7.2953041 L29.1287037,7.2953041 C29.0351873,7.96811881 28.8022311,8.46008487 28.4298353,8.77120226 C28.0566045,9.08231966 27.5798376,9.23787836 26.9986996,9.23787836 C26.3457544,9.23787836 25.8255692,8.99550212 25.436474,8.51057992 C25.0482137,8.02574257 24.8536661,7.42005658 24.8536661,6.69352192 C24.8536661,5.80277228 25.066583,5.10942008 25.4924168,4.61355021 C25.9182507,4.11759547 26.4609801,3.8696181 27.11977,3.8696181 Z" id="Path" fill="#000000" mask="url(#mask-64)"></path>
                    </g>
                    <g id="Clipped">
                        <mask id="mask-66" fill="white">
                            <use xlink:href="#path-65"></use>
                        </mask>
                        <g id="Rectangle"></g>
                        <path d="M31.9492266,8.54138614 C32.5053155,8.54138614 32.886896,8.32743989 33.0939682,7.89937765 C33.3002053,7.47140028 33.4037414,6.99521924 33.4037414,6.47083451 C33.4037414,5.9970297 33.3285942,5.61165488 33.1799699,5.31471004 C32.9436739,4.84727016 32.5362093,4.61355021 31.9584113,4.61355021 C31.4457407,4.61355021 31.0725099,4.81247525 30.8395538,5.21049505 C30.6065976,5.60851485 30.4897021,6.08868458 30.4897021,6.65091938 C30.4897021,7.19100424 30.6065976,7.64113154 30.8395538,8.00130127 C31.0725099,8.36138614 31.4424009,8.54138614 31.9492266,8.54138614 Z M31.9817904,3.8696181 C32.624716,3.8696181 33.1691153,4.08755304 33.6133184,4.52350778 C34.0575216,4.95937765 34.2796231,5.60062235 34.2796231,6.447157 C34.2796231,7.26526167 34.0842405,7.94121641 33.6926404,8.47510608 C33.3010403,9.00891089 32.6931834,9.2758133 31.8699046,9.2758133 C31.1827257,9.2758133 30.6374914,9.03971711 30.2333668,8.56743989 C29.8292421,8.09524752 29.6271798,7.46113154 29.6271798,6.66509194 C29.6271798,5.81227723 29.8400967,5.1330976 30.2659306,4.62772277 C30.6917644,4.12234795 31.2637177,3.8696181 31.9817904,3.8696181 Z" id="Shape" fill="#000000" fill-rule="nonzero" mask="url(#mask-66)"></path>
                    </g>
                    <g id="Clipped">
                        <mask id="mask-68" fill="white">
                            <use xlink:href="#path-67"></use>
                        </mask>
                        <g id="Rectangle"></g>
                        <path d="M35.2774102,4.01652051 L36.0748049,4.01652051 L36.0748049,4.73669024 C36.311101,4.4397454 36.5607565,4.22656294 36.8254414,4.09705799 C37.0892914,3.96755304 37.3832003,3.90280057 37.706333,3.90280057 C38.4152211,3.90280057 38.8936579,4.15391796 39.1424784,4.65615276 C39.2785783,4.93094767 39.3470457,5.32421499 39.3470457,5.83595474 L39.3470457,9.09106082 L38.4937081,9.09106082 L38.4937081,5.89281471 C38.4937081,5.58322489 38.4494548,5.33371994 38.3592782,5.14421499 C38.2098189,4.82834512 37.9392891,4.67041018 37.547689,4.67041018 C37.3489666,4.67041018 37.1861477,4.6908628 37.0583976,4.73193777 C36.8279463,4.80144272 36.626719,4.94045262 36.4522106,5.1488826 C36.3127709,5.31632249 36.2217594,5.48927864 36.180011,5.66775106 C36.1374276,5.84622348 36.1165534,6.1012447 36.1165534,6.43298444 L36.1165534,9.09106082 L35.2774102,9.09106082 L35.2774102,4.01652051 Z" id="Path" fill="#000000" mask="url(#mask-68)"></path>
                    </g>
                    <g id="Clipped">
                        <mask id="mask-70" fill="white">
                            <use xlink:href="#path-69"></use>
                        </mask>
                        <g id="Rectangle"></g>
                        <path d="M41.1188484,6.61298444 C41.1188484,7.1562942 41.2324041,7.61117397 41.4586805,7.9775389 C41.6857919,8.34398868 42.049838,8.52721358 42.549984,8.52721358 C42.9382443,8.52721358 43.2572022,8.35739745 43.5076927,8.01785007 C43.7581831,7.67830269 43.8834284,7.19100424 43.8834284,6.55612447 C43.8834284,5.91487977 43.7540083,5.44031117 43.4960031,5.1323338 C43.2379979,4.82435644 42.919875,4.67041018 42.5407994,4.67041018 C42.1174705,4.67041018 41.7751335,4.83462518 41.5129534,5.16314003 C41.2499384,5.49165488 41.1188484,5.97496464 41.1188484,6.61298444 Z M42.3821554,3.92647808 C42.7645709,3.92647808 43.0843637,4.00862801 43.3423689,4.172843 C43.4918283,4.26763791 43.6604919,4.43346535 43.8500297,4.67041018 L43.8500297,2.10704385 L44.656609,2.10704385 L44.656609,9.09106082 L43.9017977,9.09106082 L43.9017977,8.38506365 C43.7055801,8.69779349 43.4742939,8.92362093 43.2071041,9.06263083 C42.9399142,9.20155587 42.6334809,9.27106082 42.288639,9.27106082 C41.7325501,9.27106082 41.2507734,9.03335219 40.8433088,8.5580198 C40.4366793,8.08260255 40.232947,7.45009901 40.232947,6.66033946 C40.232947,5.9212447 40.41831,5.28076379 40.7898709,4.73906648 C41.1614318,4.19736917 41.6916366,3.92647808 42.3821554,3.92647808 Z" id="Shape" fill="#000000" fill-rule="nonzero" mask="url(#mask-70)"></path>
                    </g>
                </g>
                <g id="Group" transform="translate(524.469590, 0.000000)">
                    <g id="Clipped">
                        <mask id="mask-72" fill="white">
                            <use xlink:href="#path-71"></use>
                        </mask>
                        <g id="Rectangle"></g>
                        <path d="M7.63578501,4.74925035 L7.63578501,4.09536068 C8.24113702,4.03536068 8.66446594,3.9350495 8.90326687,3.79451202 C9.14290277,3.65397454 9.32158598,3.321471 9.43931651,2.79708628 L10.1014464,2.79708628 L10.1014464,9.55366337 L9.20636036,9.55366337 L9.20636036,4.74925035 L7.63578501,4.74925035 Z" id="Path" fill="#000000" mask="url(#mask-72)"></path>
                    </g>
                    <g id="Clipped">
                        <mask id="mask-74" fill="white">
                            <use xlink:href="#path-73"></use>
                        </mask>
                        <g id="Rectangle"></g>
                        <path d="M15.798435,7.96166902 C15.8226491,8.24596888 15.8927864,8.46390382 16.008012,8.6155587 C16.219259,8.89035361 16.5858101,9.02775106 17.1076653,9.02775106 C17.4191085,9.02775106 17.6921431,8.9590099 17.9284391,8.82161245 C18.1647351,8.68421499 18.2824657,8.47179632 18.2824657,8.18435644 C18.2824657,7.9664215 18.1881142,7.80059406 17.9985764,7.68687412 C17.877506,7.61736917 17.6378701,7.53683168 17.2805037,7.4451768 L16.614199,7.27468175 C16.1883652,7.16724187 15.8744171,7.04724187 15.6723548,6.91451202 C15.3116485,6.68393211 15.1312953,6.36492221 15.1312953,5.95748232 C15.1312953,5.47731259 15.3016289,5.08879774 15.6422959,4.7918529 C15.982128,4.49499293 16.4396907,4.34647808 17.0149838,4.34647808 C17.7672902,4.34647808 18.3091847,4.57077793 18.641502,5.01929279 C18.8502441,5.30359264 18.9512753,5.60995757 18.9445955,5.93847242 L18.1522106,5.93847242 C18.1363462,5.74582744 18.0695488,5.57049505 17.9518182,5.41256011 C17.7589405,5.18826025 17.4249532,5.07615276 16.9498563,5.07615276 C16.6325683,5.07615276 16.3920975,5.13776521 16.2292786,5.2609901 C16.0664598,5.38413013 15.9846329,5.54681754 15.9846329,5.74896747 C15.9846329,5.9701273 16.0915089,6.14698727 16.3060957,6.27963225 C16.430506,6.35864215 16.614199,6.42806223 16.8563398,6.4881471 L17.4107588,6.62554455 C18.0136059,6.77397454 18.4177305,6.91773692 18.6231327,7.05666195 C18.9496053,7.27468175 19.1124241,7.61736917 19.1124241,8.08489392 C19.1124241,8.5365488 18.9437606,8.9266761 18.6064334,9.25519095 C18.2699411,9.5837058 17.7556007,9.74792079 17.0659169,9.74792079 C16.3236301,9.74792079 15.7976,9.57657709 15.4878268,9.23388967 C15.1788885,8.8911174 15.0135648,8.46704385 14.9918556,7.96166902 L15.798435,7.96166902 Z" id="Path" fill="#000000" mask="url(#mask-74)"></path>
                    </g>
                    <g id="Clipped">
                        <mask id="mask-76" fill="white">
                            <use xlink:href="#path-75"></use>
                        </mask>
                        <g id="Rectangle"></g>
                        <path d="M22.1517087,4.36540311 C22.5065702,4.36540311 22.8497422,4.44992928 23.1820596,4.61889675 C23.514377,4.78794908 23.7682073,5.00664781 23.9418807,5.27516266 C24.1097094,5.53103253 24.2215951,5.82950495 24.277538,6.17066478 C24.3276361,6.40438472 24.3526851,6.77711457 24.3526851,7.28885431 L20.6930191,7.28885431 C20.7080485,7.80373409 20.828284,8.21677511 21.0520555,8.5278925 C21.275827,8.8390099 21.6223388,8.9945686 22.091591,8.9945686 C22.5299494,8.9945686 22.8789661,8.8476662 23.1403112,8.55394625 C23.2897705,8.38336634 23.3949765,8.18596888 23.4575991,7.96166902 L24.2825478,7.96166902 C24.2608386,8.14803395 24.1881964,8.35570014 24.065456,8.58475248 C23.9427157,8.81371994 23.8049459,9.00093352 23.6529817,9.14622348 C23.3983164,9.39886846 23.0826984,9.56944837 22.7069626,9.65787836 C22.5049003,9.70845827 22.276119,9.73374823 22.0214537,9.73374823 C21.4002373,9.73374823 20.8733723,9.50393211 20.4408587,9.04429986 C20.0091801,8.58475248 19.7929233,7.94113154 19.7929233,7.11352192 C19.7929233,6.29855728 20.01085,5.63685997 20.4458685,5.12826025 C20.880887,4.6197454 21.4495004,4.36540311 22.1517087,4.36540311 Z M23.4901629,6.61128713 C23.4559292,6.24169731 23.3766072,5.94636492 23.2521969,5.72528996 C23.0225806,5.31462518 22.6384952,5.10933522 22.1007757,5.10933522 C21.7150203,5.10933522 21.3918876,5.25072136 21.1313775,5.53340877 C20.8700324,5.81609618 20.7314277,6.17541726 20.7163982,6.61128713 L23.4901629,6.61128713 Z" id="Shape" fill="#000000" fill-rule="nonzero" mask="url(#mask-76)"></path>
                    </g>
                    <g id="Clipped">
                        <mask id="mask-78" fill="white">
                            <use xlink:href="#path-77"></use>
                        </mask>
                        <g id="Rectangle"></g>
                        <path d="M27.3076379,4.33230552 C27.8704065,4.33230552 28.3279692,4.47123055 28.6803258,4.74925035 C29.0335174,5.02718529 29.2455993,5.50574257 29.3174066,6.18492221 L28.5008076,6.18492221 C28.4515445,5.87219236 28.3379888,5.6123338 28.1609755,5.4054314 C27.9839622,5.198529 27.699238,5.09507779 27.3076379,5.09507779 C26.7732582,5.09507779 26.3908427,5.36045262 26.1612264,5.8911174 C26.0117671,6.23541726 25.9374549,6.6602546 25.9374549,7.16562942 C25.9374549,7.67422914 26.0426609,8.10220651 26.2539079,8.44973126 C26.4659899,8.79717115 26.7983073,8.97089109 27.251695,8.97089109 C27.5998768,8.97089109 27.8754163,8.86268741 28.0791486,8.64636492 C28.2828809,8.42995757 28.4231555,8.13386139 28.5008076,7.75790665 L29.3174066,7.75790665 C29.2238901,8.43072136 28.990934,8.92268741 28.6177032,9.23388967 C28.2444723,9.54500707 27.7677054,9.70056577 27.1865675,9.70056577 C26.5336223,9.70056577 26.0134371,9.45810467 25.6251768,8.97326733 C25.2360816,8.48842999 25.0423689,7.88274399 25.0423689,7.15620934 C25.0423689,6.26545969 25.2552859,5.5721075 25.6811197,5.07615276 C26.1069535,4.58019802 26.6488479,4.33230552 27.3076379,4.33230552 Z" id="Path" fill="#000000" mask="url(#mask-78)"></path>
                    </g>
                    <g id="Clipped">
                        <mask id="mask-80" fill="white">
                            <use xlink:href="#path-79"></use>
                        </mask>
                        <g id="Rectangle"></g>
                        <path d="M32.1370945,9.00407355 C32.6940183,9.00407355 33.0747639,8.79004243 33.281836,8.36206506 C33.4880732,7.93400283 33.5916093,7.45782178 33.5916093,6.93352192 C33.5916093,6.45971711 33.5172971,6.07434229 33.3678378,5.77739745 C33.1315417,5.3098727 32.7249122,5.07615276 32.1462791,5.07615276 C31.6336086,5.07615276 31.2612128,5.27516266 31.0282566,5.67318246 C30.7944655,6.07120226 30.6784049,6.55128713 30.6784049,7.11352192 C30.6784049,7.65369165 30.7944655,8.10381895 31.0282566,8.46390382 C31.2612128,8.82398868 31.6311037,9.00407355 32.1370945,9.00407355 Z M32.1696583,4.33230552 C32.8134188,4.33230552 33.3569832,4.55024045 33.8011863,4.98611033 C34.2462244,5.42206506 34.468326,6.06330976 34.468326,6.90984441 C34.468326,7.72794908 34.2721084,8.40390382 33.8805083,8.93770863 C33.4889082,9.47151344 32.8818862,9.73850071 32.0577725,9.73850071 C31.3714286,9.73850071 30.8261943,9.50231966 30.4220696,9.0301273 C30.017945,8.55785007 29.8158826,7.92373409 29.8158826,7.12777935 C29.8158826,6.27487977 30.0287996,5.59578501 30.4546334,5.09041018 C30.8804672,4.5849505 31.4524205,4.33230552 32.1696583,4.33230552 Z" id="Shape" fill="#000000" fill-rule="nonzero" mask="url(#mask-80)"></path>
                    </g>
                    <g id="Clipped">
                        <mask id="mask-82" fill="white">
                            <use xlink:href="#path-81"></use>
                        </mask>
                        <g id="Rectangle"></g>
                        <path d="M35.4661131,4.47912306 L36.2626728,4.47912306 L36.2626728,5.19937765 C36.4989688,4.90243281 36.7494593,4.68925035 37.0133093,4.5597454 C37.2779943,4.43024045 37.5710681,4.36540311 37.8942008,4.36540311 C38.6030889,4.36540311 39.0815258,4.61660537 39.3303463,5.11884017 C39.4672811,5.39363508 39.5357485,5.7869024 39.5357485,6.29855728 L39.5357485,9.55366337 L38.6824109,9.55366337 L38.6824109,6.35541726 C38.6824109,6.04591231 38.6373226,5.79632249 38.5471461,5.60681754 C38.3976867,5.29094767 38.127992,5.13301273 37.7363918,5.13301273 C37.5368344,5.13301273 37.3740156,5.15355021 37.2462655,5.19462518 C37.0166492,5.26413013 36.8145869,5.40305516 36.6409134,5.61157001 C36.5006388,5.7790099 36.4096272,5.95188119 36.3678788,6.13035361 C36.3261304,6.30882603 36.3052562,6.56393211 36.3052562,6.89558699 L36.3052562,9.55366337 L35.4661131,9.55366337 L35.4661131,4.47912306 Z" id="Path" fill="#000000" mask="url(#mask-82)"></path>
                    </g>
                    <g id="Clipped">
                        <mask id="mask-84" fill="white">
                            <use xlink:href="#path-83"></use>
                        </mask>
                        <g id="Rectangle"></g>
                        <path d="M41.3067162,7.07567185 C41.3067162,7.61898161 41.4202719,8.07377652 41.6473833,8.44022631 C41.8736597,8.8066761 42.2377059,8.98981612 42.7378519,8.98981612 C43.1261122,8.98981612 43.445905,8.82008487 43.6963955,8.48053748 C43.946051,8.14090523 44.0712963,7.65369165 44.0712963,7.01881188 C44.0712963,6.37756719 43.9427111,5.90299859 43.6847059,5.59502122 C43.4267007,5.28704385 43.1077428,5.13301273 42.7286672,5.13301273 C42.3061733,5.13301273 41.9630013,5.29731259 41.7008213,5.62574257 C41.4378063,5.95425743 41.3067162,6.43756719 41.3067162,7.07567185 Z M42.5700233,4.38916549 C42.9524387,4.38916549 43.2722316,4.47123055 43.5302368,4.63553041 C43.6796961,4.73024045 43.8491947,4.89615276 44.0387325,5.13301273 L44.0387325,2.56973126 L44.8453119,2.56973126 L44.8453119,9.55366337 L44.0896656,9.55366337 L44.0896656,8.8476662 C43.894283,9.16039604 43.6629968,9.38630835 43.3949719,9.52523338 C43.1277821,9.66424328 42.8221837,9.73374823 42.4773418,9.73374823 C41.9204179,9.73374823 41.4386412,9.4960396 41.0320117,9.02062235 C40.6245472,8.54528996 40.4208149,7.91270156 40.4208149,7.12302687 C40.4208149,6.38384724 40.6070128,5.7434512 40.9785737,5.20175389 C41.3492996,4.65997171 41.8803395,4.38916549 42.5700233,4.38916549 Z" id="Shape" fill="#000000" fill-rule="nonzero" mask="url(#mask-84)"></path>
                    </g>
                </g>
                <g id="Group" transform="translate(205.374823, 10.183876)" stroke="#000000" stroke-linejoin="round" stroke-width="0.5">
                    <polyline id="Path" points="8.8518724 0.965228666 4.85242718 4.75627063 0.765603329 8.62972654 9.15312067 15.9563272"></polyline>
                    <polyline id="Path" points="76.8341193 15.7096228 85.7126214 8.38302216 77.1536755 0.718524281"></polyline>
                    <path d="M1.46047157,8.64101367 L84.5742025,8.35596888" id="Path"></path>
                </g>
                <g id="Group" transform="translate(106.082037, 8.486563)" stroke="#000000" stroke-linejoin="round" stroke-width="0.5">
                    <polyline id="Path" points="8.14119279 0.325624705 4.14174757 4.11666667 0.0557558946 7.990033 8.44244105 15.3167232"></polyline>
                    <polyline id="Path" points="76.1234397 15.0700189 85.0019417 7.7434182 76.4429958 0.0789203206"></polyline>
                    <path d="M0.749791956,8.00132013 L83.8635229,7.71636492" id="Path"></path>
                </g>
                <g id="Group" transform="translate(6.789250, 8.486563)" stroke="#000000" stroke-linejoin="round" stroke-width="0.5">
                    <polyline id="Path" points="8.97549015 0.814644036 4.93623382 4.605686 0.809229681 8.47914191 9.28025405 15.8057426"></polyline>
                    <polyline id="Path" points="77.6374687 15.5590382 86.604722 8.23243753 77.9602192 0.567939651"></polyline>
                    <path d="M1.51053966,8.49042904 L85.4549233,8.20538425" id="Path"></path>
                </g>
                <g id="Group" transform="translate(305.516266, 11.032532)" stroke="#000000" stroke-linejoin="round" stroke-width="0.5">
                    <polyline id="Path" points="8.27267684 0.262857143 4.2740638 4.0538991 0.187239945 7.92735502 8.57475728 15.2539557"></polyline>
                    <polyline id="Path" points="76.2557559 15.0072513 85.1334258 7.68065064 76.5744799 0.0161527581"></polyline>
                    <path d="M0.882108183,7.93855257 L83.9958391,7.65359736" id="Path"></path>
                </g>
                <g id="Group" transform="translate(403.960396, 8.486563)" stroke="#000000" stroke-linejoin="round" stroke-width="0.5">
                    <polyline id="Path" points="8.44993065 1.08786421 4.45048544 4.87890618 0.364493759 8.75227251 8.75117892 16.0789628"></polyline>
                    <polyline id="Path" points="76.4321775 15.8322584 85.3106796 8.50556813 76.7517337 0.84115983"></polyline>
                    <path d="M1.05852982,8.76355964 L84.1722607,8.47860443" id="Path"></path>
                </g>
                <g id="Group" transform="translate(505.799151, 8.486563)" stroke="#000000" stroke-linejoin="round" stroke-width="0.5">
                    <polyline id="Path" points="8.6371706 0.680452617 4.63772538 4.471405 0.551733703 8.34486091 8.93925104 15.6714616"></polyline>
                    <polyline id="Path" points="76.6202497 15.4247572 85.4979196 8.09815653 76.9389736 0.433748232"></polyline>
                    <path d="M1.24576976,8.35614804 L84.3603329,8.07110325" id="Path"></path>
                </g>
            </g>
        </g>
    </g>
</svg>