<?xml version="1.0" encoding="UTF-8" standalone="no"?>
<!DOCTYPE svg PUBLIC "-//W3C//DTD SVG 1.1//EN" "http://www.w3.org/Graphics/SVG/1.1/DTD/svg11.dtd">
<!-- Created with Vectornator (http://vectornator.io/) -->
<svg height="100%" stroke-miterlimit="10" style="fill-rule:nonzero;clip-rule:evenodd;stroke-linecap:round;stroke-linejoin:round;" version="1.1" viewBox="0 0 769.603 480.001" width="100%" xml:space="preserve" xmlns="http://www.w3.org/2000/svg" xmlns:vectornator="http://vectornator.io" xmlns:xlink="http://www.w3.org/1999/xlink">
<defs>
<clipPath id="TextBounds">
<rect height="116.398" width="61.1693" x="0.257459" y="153.844"/>
</clipPath>
<clipPath id="TextBounds_2">
<rect height="51.7425" width="164.848" x="335.337" y="8.76379"/>
</clipPath>
<clipPath id="TextBounds_3">
<rect height="47.5053" width="185.149" x="325.071" y="177.832"/>
</clipPath>
<clipPath id="TextBounds_4">
<rect height="47.5053" width="189.801" x="320.925" y="305.182"/>
</clipPath>
<clipPath id="TextBounds_5">
<rect height="47.5053" width="69.2546" x="374.522" y="443.834"/>
</clipPath>
<clipPath id="TextBounds_6">
<rect height="22.931" width="1.25266" x="451.217" y="280.962"/>
</clipPath>
</defs>
<g id="Layer-1" vectornator:layerName="Layer 1">
<path d="M73.0172 287.234C93.1704 281.894 96.8311 247.348 149.484 245.351C201.971 243.361 199.238 288.58 234.962 287.202C266.798 285.974 279.491 246.552 320.547 246.544C366.985 246.534 362.902 289.043 403.173 288.244C449.038 287.334 434.985 243.814 491.667 246.177C545.814 248.435 538.235 286.3 587.265 286.805C634.08 287.288 615.866 245.627 675.006 245.39C697.106 245.301 720.733 285.719 750.321 286.278" fill="none" opacity="1" stroke="#eb493a" stroke-linecap="butt" stroke-linejoin="round" stroke-width="1.96939"/>
<g opacity="1">
<path d="M70.6955 135.966L78.1773 120.487L82.8212 129.774L86.6911 111.457L91.593 126.163L93.3989 102.685L97.7848 118.681L102.171 93.9133L107.589 110.683L110.685 91.5914L116.36 107.845L121.778 83.8516L127.196 100.363L132.356 82.3036L136.484 98.0412L142.16 79.2077L145.514 96.4933L153.512 77.9177L152.738 95.2033L165.637 77.1437L167.701 97.2673L176.473 79.7237L176.473 105.523L186.277 84.1096L187.825 110.683L196.081 93.9133L195.823 120.229L204.852 106.039L203.046 131.838L215.43 113.521L214.398 135.45L224.976 115.069L226.266 138.288" fill="none" opacity="1" stroke="#eb493a" stroke-linecap="butt" stroke-linejoin="round" stroke-width="1.96939"/>
<path d="M224.976 139.062L232.458 123.583L237.102 132.87L240.971 114.553L245.873 129.259L247.679 105.781L252.065 121.777L256.451 97.0093L261.869 113.779L264.965 94.6873L270.641 110.941L276.059 86.9475L281.477 103.459L286.636 85.3995L290.764 101.137L296.44 82.3036L299.794 99.5892L307.792 81.0136L307.018 98.2992L319.918 80.2397L321.982 100.363L330.753 82.8196L330.753 108.619L340.557 87.2055L342.105 113.779L350.361 97.0093L350.103 123.325L359.133 109.135L357.327 134.934L369.71 116.617L368.678 138.546L379.256 118.165L380.546 141.384L388.544 118.681L392.672 137.514L399.38 111.457L402.992 135.966L407.12 112.489L408.926 135.192" fill="none" opacity="1" stroke="#eb493a" stroke-linecap="butt" stroke-linejoin="round" stroke-width="1.96939"/>
<path d="M407.894 135.966L415.375 120.487L420.019 129.774L423.889 111.457L428.791 126.163L430.597 102.685L434.983 118.681L439.369 93.9133L444.787 110.683L447.883 91.5914L453.558 107.845L458.976 83.8516L464.394 100.363L469.554 82.3036L473.682 98.0412L479.358 79.2077L482.712 96.4933L490.71 77.9177L489.936 95.2033L502.835 77.1437L504.899 97.2673L513.671 79.7237L513.671 105.523L523.475 84.1096L525.023 110.683L533.279 93.9133L533.021 120.229L542.05 106.039L540.244 131.838L552.628 113.521L551.596 135.45L562.174 115.069L563.464 138.288L571.462 115.585L575.59 134.418L582.297 108.361L585.909 132.87L591.069 103.717L595.713 126.163L597.777 92.6234L601.389 126.163L606.291 96.7513L607.065 122.293L614.031 92.6234L614.547 118.165" fill="none" opacity="1" stroke="#eb493a" stroke-linecap="butt" stroke-linejoin="round" stroke-width="1.96939"/>
<path d="M614.99 118.379L619.375 93.6113L624.793 110.381L627.889 91.2894L633.565 107.543L638.983 83.5495L644.401 100.061L649.561 82.0016L653.689 97.7392L659.364 78.9057L662.718 96.1912L670.716 77.6157L669.942 94.9013L682.842 76.8417L684.906 96.9652L693.678 79.4216L693.678 105.221L703.481 83.8075L705.029 110.381L713.285 93.6113L713.027 119.927L722.057 105.737L720.251 131.536L732.635 113.219L731.603 135.148L742.181 114.767C742.181 114.767 741.149 137.857 743.471 137.986" fill="none" opacity="1" stroke="#eb493a" stroke-linecap="butt" stroke-linejoin="round" stroke-width="1.96939"/>
</g>
<path d="M73.0112 384.238L86.8323 370.155L90.6017 384.925L98.557 371.252L102.44 386.114L110.984 370.403L118.75 385.052L125.74 366.793L128.07 388.237L140.497 366.581L141.273 386.539L147.875 367.642L156.806 385.052L162.631 370.827L168.845 384.628L174.67 370.403L181.659 386.963L186.708 366.581L190.203 387.388L200.688 368.704L201.853 387.6L212.337 370.615L215.056 386.751L222.046 373.8L226.317 384.203L232.531 370.403L236.802 387.176L241.462 368.916L245.734 387.176C245.734 387.176 251.17 365.307 250.005 369.129C248.84 372.95 252.335 387.176 252.335 387.176C252.335 387.176 262.432 364.67 260.879 368.067C259.325 371.464 262.044 387.388 262.044 387.388C262.044 387.388 270.198 365.307 269.422 368.492C268.645 371.676 274.082 385.477 274.082 385.477C274.082 385.477 285.343 365.944 283.79 369.129C282.237 372.313 283.013 390.573 283.013 390.573L293.498 369.766L295.051 387.176L301.265 368.067L305.536 386.326L311.361 365.307L317.963 386.114L321.846 365.732L324.564 386.114L333.884 368.916L337.768 386.326L343.981 368.916L352.136 384.415L359.902 366.793L362.232 387.812C362.232 387.812 378.154 365.307 375.824 368.704C373.494 372.101 378.931 390.148 378.931 390.148L391.745 368.067L395.629 387.6L403.395 371.252L407.667 385.689L413.492 366.581L419.705 385.902C419.705 385.902 427.472 362.122 425.142 365.095C422.812 368.067 427.472 387.812 427.472 387.812C427.472 387.812 443.005 363.184 441.063 366.156C439.122 369.129 443.781 386.114 443.781 386.114L456.985 367.005L461.645 387.176L468.246 368.916L474.071 382.717C474.071 382.717 484.168 365.519 481.838 368.492C479.508 371.464 484.168 386.326 484.168 386.326L489.993 368.492L496.594 383.778L505.914 370.19L512.516 383.566L516.011 368.067L523.001 385.052L527.661 366.793C527.661 366.793 532.32 378.046 533.097 381.231C533.874 384.415 541.64 366.793 541.64 366.793L541.252 385.477L551.737 368.067L557.95 385.265L562.222 366.156L564.552 386.114L573.095 367.43L575.425 383.778C575.425 383.778 591.346 361.061 587.852 364.033C584.357 367.005 591.346 383.991 591.346 383.991L600.666 368.279L603.385 383.991L611.802 370.963C611.802 370.963 614.486 387.316 616.02 384.381C617.554 381.446 622.155 366.351 622.155 366.351L628.291 384.591L639.027 367.609L641.328 385.429L651.298 366.561L650.531 383.123L661.268 370.334L663.952 384.171C663.952 384.171 671.237 360.271 669.32 363.206C667.403 366.141 672.388 383.752 672.388 383.752L680.44 365.932L687.342 383.123L696.929 364.464L693.478 383.333L703.831 365.932L708.432 381.026L721.086 364.883L719.936 379.978L730.673 367.819L734.507 380.607L743.466 368.028L748.451 379.978" fill="none" opacity="1" stroke="#eb493a" stroke-linecap="butt" stroke-linejoin="round" stroke-width="1.96939"/>
<g fill="#000000" opacity="1" stroke="none">
<path clip-path="url(#TextBounds)" d="M8.56902 260.078L8.48928 257.92L15.0053 257.679L14.7022 249.478L8.18617 249.719L8.10643 247.561L23.8759 246.978L23.9557 249.136L16.5808 249.409L16.8839 257.61L24.2588 257.337L24.3385 259.495L8.56902 260.078Z"/>
<path clip-path="url(#TextBounds)" d="M11.8317 239.576C11.8015 238.76 11.9637 237.963 12.3183 237.183C12.6729 236.403 13.1469 235.801 13.7404 235.378C14.3058 234.97 14.9726 234.687 15.7407 234.53C16.2661 234.396 17.1084 234.307 18.2678 234.265L18.5792 242.691C19.7444 242.613 20.67 242.302 21.3559 241.761C22.0417 241.22 22.3647 240.409 22.3248 239.328C22.2875 238.319 21.9249 237.526 21.2372 236.95C20.838 236.621 20.3817 236.394 19.8683 236.269L19.7981 234.369C20.2222 234.404 20.6989 234.553 21.2282 234.816C21.7575 235.08 22.1932 235.381 22.5354 235.719C23.1296 236.285 23.5429 236.997 23.7753 237.856C23.907 238.317 23.9837 238.84 24.0054 239.427C24.0583 240.859 23.5824 242.091 22.5779 243.124C21.5734 244.157 20.1336 244.709 18.2586 244.778C16.4122 244.846 14.8944 244.401 13.7052 243.441C12.5159 242.482 11.8914 241.194 11.8317 239.576ZM16.8061 236.307C15.9717 236.417 15.3093 236.624 14.8189 236.929C13.9081 237.493 13.4756 238.394 13.5214 239.632C13.5542 240.519 13.9019 241.252 14.5647 241.829C15.2274 242.407 16.0532 242.695 17.0422 242.695L16.8061 236.307Z"/>
<path clip-path="url(#TextBounds)" d="M20.1972 230.334C20.7554 230.314 21.188 230.093 21.495 229.674C21.8019 229.254 21.9451 228.765 21.9245 228.206C21.8994 227.527 21.7176 226.874 21.3792 226.249C20.817 225.195 19.942 224.689 18.754 224.733L17.1975 224.791C17.3565 225.021 17.493 225.321 17.6069 225.689C17.7208 226.058 17.8059 226.42 17.8621 226.776L18.0556 227.941C18.1746 228.639 18.3407 229.159 18.554 229.503C18.9124 230.084 19.4601 230.361 20.1972 230.334ZM16.1167 225.798C16.0431 225.357 15.846 225.067 15.5256 224.928C15.3507 224.848 15.1022 224.815 14.7801 224.826C14.1217 224.851 13.6527 225.103 13.373 225.583C13.0933 226.062 12.9696 226.739 13.0019 227.612C13.0392 228.621 13.3376 229.326 13.8971 229.729C14.2064 229.954 14.6594 230.091 15.256 230.141L15.3227 231.944C13.9043 231.961 12.9015 231.537 12.3142 230.674C11.7269 229.811 11.4117 228.796 11.3686 227.629C11.3186 226.277 11.5357 225.168 12.0197 224.305C12.5041 223.449 13.2901 223 14.3779 222.96L21.0013 222.715C21.2017 222.708 21.3612 222.661 21.4798 222.574C21.5985 222.487 21.6529 222.311 21.6431 222.047C21.6399 221.961 21.631 221.864 21.6163 221.757C21.6016 221.65 21.5812 221.537 21.5553 221.416L22.983 221.363C23.08 221.66 23.1421 221.887 23.1694 222.044C23.1967 222.201 23.2154 222.415 23.2254 222.687C23.25 223.352 23.0317 223.844 22.5705 224.162C22.3258 224.329 21.9757 224.453 21.52 224.534C22.0499 224.909 22.518 225.458 22.9246 226.181C23.3311 226.904 23.5508 227.709 23.5836 228.597C23.623 229.663 23.3314 230.546 22.7087 231.246C22.086 231.947 21.288 232.315 20.3147 232.351C19.2484 232.39 18.4095 232.088 17.7981 231.444C17.1866 230.8 16.793 229.94 16.6171 228.865L16.1167 225.798Z"/>
<path clip-path="url(#TextBounds)" d="M11.3605 219.847L11.2926 218.011L13.2786 217.938C12.8866 217.802 12.4024 217.451 11.8261 216.884C11.2498 216.318 10.9475 215.652 10.9192 214.886C10.9178 214.85 10.9192 214.789 10.9232 214.703C10.9271 214.617 10.936 214.47 10.9498 214.261L12.9895 214.186C12.9722 214.301 12.9618 214.407 12.9582 214.504C12.9546 214.601 12.955 214.707 12.9592 214.821C12.9952 215.795 13.3359 216.531 13.9814 217.03C14.6269 217.53 15.3576 217.764 16.1734 217.734L22.7861 217.49L22.8575 219.422L11.3605 219.847Z"/>
<path clip-path="url(#TextBounds)" d="M7.8679 212.311L7.79569 210.358L11.0054 210.239L10.9376 208.403L12.5156 208.345L12.5834 210.181L20.0871 209.903C20.4879 209.889 20.7512 209.743 20.8771 209.466C20.9503 209.313 20.9804 209.061 20.9675 208.71C20.964 208.617 20.9585 208.517 20.951 208.41C20.9434 208.302 20.9299 208.177 20.9103 208.035L22.4346 207.979C22.5072 208.198 22.5623 208.427 22.5997 208.666C22.6372 208.904 22.6611 209.163 22.6715 209.442C22.7048 210.344 22.4966 210.965 22.0469 211.304C21.5972 211.643 21.0038 211.826 20.2667 211.853L12.6556 212.135L12.7132 213.691L11.1351 213.749L11.0776 212.193L7.8679 212.311Z"/>
<path clip-path="url(#TextBounds)" d="M10.6384 200.309L10.5706 198.474L12.5565 198.4C12.1645 198.264 11.6804 197.913 11.104 197.347C10.5277 196.78 10.2254 196.114 10.1971 195.349C10.1958 195.313 10.1971 195.252 10.2011 195.166C10.2051 195.08 10.214 194.932 10.2278 194.724L12.2674 194.649C12.2502 194.764 12.2397 194.87 12.2362 194.967C12.2326 195.064 12.2329 195.169 12.2371 195.284C12.2731 196.257 12.6138 196.994 13.2593 197.493C13.9049 197.992 14.6355 198.227 15.4514 198.197L22.0641 197.952L22.1355 199.884L10.6384 200.309Z"/>
<path clip-path="url(#TextBounds)" d="M18.7527 191.249C19.3109 191.228 19.7435 191.008 20.0505 190.588C20.3574 190.168 20.5006 189.679 20.48 189.121C20.4549 188.441 20.2731 187.788 19.9346 187.163C19.3725 186.109 18.4975 185.604 17.3095 185.648L15.753 185.705C15.912 185.936 16.0484 186.235 16.1624 186.604C16.2763 186.972 16.3614 187.335 16.4176 187.691L16.6111 188.855C16.73 189.553 16.8962 190.074 17.1095 190.417C17.4679 190.999 18.0156 191.276 18.7527 191.249ZM14.6722 186.713C14.5986 186.271 14.4015 185.981 14.0811 185.842C13.9062 185.763 13.6577 185.729 13.3356 185.741C12.6772 185.765 12.2082 186.017 11.9285 186.497C11.6488 186.977 11.5251 187.653 11.5574 188.526C11.5947 189.535 11.8931 190.241 12.4526 190.643C12.7619 190.868 13.2149 191.005 13.8115 191.055L13.8782 192.858C12.4598 192.875 11.457 192.452 10.8697 191.588C10.2824 190.725 9.96722 189.71 9.92411 188.544C9.87412 187.191 10.0912 186.083 10.5752 185.219C11.0596 184.363 11.8456 183.915 12.9334 183.875L19.5568 183.63C19.7572 183.622 19.9167 183.575 20.0353 183.488C20.154 183.402 20.2084 183.226 20.1986 182.961C20.1954 182.875 20.1865 182.779 20.1718 182.672C20.1571 182.565 20.1367 182.451 20.1108 182.33L21.5385 182.277C21.6355 182.575 21.6976 182.802 21.7249 182.958C21.7522 183.115 21.7709 183.329 21.7809 183.601C21.8055 184.267 21.5872 184.759 21.126 185.077C20.8813 185.243 20.5312 185.367 20.0755 185.449C20.6053 185.823 21.0735 186.372 21.4801 187.095C21.8866 187.818 22.1063 188.624 22.1391 189.511C22.1785 190.577 21.8869 191.461 21.2642 192.161C20.6415 192.861 19.8435 193.229 18.8702 193.265C17.8039 193.305 16.965 193.002 16.3536 192.358C15.7421 191.715 15.3485 190.855 15.1725 189.779L14.6722 186.713Z"/>
<path clip-path="url(#TextBounds)" d="M6.69396 180.547L6.62176 178.593L9.83148 178.475L9.76364 176.639L11.3417 176.581L11.4095 178.416L18.9132 178.139C19.3139 178.124 19.5773 177.978 19.7032 177.701C19.7764 177.548 19.8065 177.296 19.7935 176.946C19.7901 176.852 19.7846 176.752 19.777 176.645C19.7695 176.538 19.7559 176.413 19.7363 176.27L21.2607 176.214C21.3333 176.434 21.3883 176.663 21.4258 176.901C21.4633 177.14 21.4872 177.399 21.4975 177.678C21.5308 178.58 21.3227 179.2 20.873 179.539C20.4233 179.878 19.8299 180.062 19.0927 180.089L11.4817 180.37L11.5392 181.927L9.96121 181.985L9.90369 180.428L6.69396 180.547Z"/>
<path clip-path="url(#TextBounds)" d="M9.25765 169.928C9.2275 169.113 9.38971 168.315 9.74428 167.535C10.0989 166.755 10.5729 166.153 11.1664 165.73C11.7318 165.322 12.3986 165.04 13.1667 164.882C13.6921 164.748 14.5344 164.66 15.6938 164.617L16.0052 173.044C17.1704 172.965 18.096 172.655 18.7818 172.113C19.4677 171.572 19.7907 170.761 19.7508 169.68C19.7135 168.671 19.3509 167.879 18.6632 167.302C18.264 166.973 17.8077 166.746 17.2943 166.622L17.2241 164.722C17.6482 164.756 18.1249 164.905 18.6542 165.169C19.1835 165.432 19.6192 165.733 19.9614 166.072C20.5556 166.637 20.9689 167.349 21.2013 168.208C21.333 168.669 21.4097 169.193 21.4314 169.78C21.4842 171.211 21.0084 172.443 20.0039 173.476C18.9994 174.51 17.5596 175.061 15.6846 175.13C13.8382 175.198 12.3204 174.753 11.1312 173.794C9.94193 172.834 9.31742 171.546 9.25765 169.928ZM14.2321 166.66C13.3977 166.769 12.7353 166.976 12.2449 167.281C11.3341 167.845 10.9016 168.746 10.9474 169.984C10.9802 170.872 11.3279 171.604 11.9907 172.182C12.6534 172.759 13.4792 173.047 14.4682 173.047L14.2321 166.66Z"/>
<path clip-path="url(#TextBounds)" d="M38.7561 251.319L38.6835 249.355L50.1269 248.932L50.1995 250.896L38.7561 251.319ZM34.43 251.479L34.3574 249.515L36.5473 249.434L36.6199 251.398L34.43 251.479Z"/>
<path clip-path="url(#TextBounds)" d="M38.5219 246.437L38.4541 244.601L40.0858 244.541C39.393 244.022 38.8886 243.464 38.5727 242.866C38.2568 242.269 38.0851 241.598 38.0576 240.854C37.9973 239.222 38.5255 238.099 39.6422 237.484C40.2532 237.146 41.1384 236.956 42.2978 236.913L49.6726 236.641L49.7452 238.605L42.4992 238.873C41.7978 238.899 41.2363 239.023 40.8146 239.247C40.1116 239.617 39.7768 240.253 39.8101 241.154C39.827 241.612 39.8875 241.986 39.9913 242.276C40.1683 242.8 40.5004 243.254 40.9876 243.637C41.3788 243.945 41.7783 244.14 42.1862 244.222C42.5942 244.303 43.1738 244.33 43.9253 244.302L49.9475 244.08L50.019 246.012L38.5219 246.437Z"/>
<path clip-path="url(#TextBounds)" d="M34.846 233.942L34.7738 231.988L37.9836 231.87L37.9157 230.034L39.4937 229.976L39.5616 231.811L47.0652 231.534C47.466 231.519 47.7294 231.373 47.8553 231.096C47.9284 230.943 47.9586 230.691 47.9456 230.341C47.9422 230.248 47.9367 230.148 47.9291 230.04C47.9216 229.933 47.908 229.808 47.8884 229.666L49.4127 229.609C49.4854 229.829 49.5404 230.058 49.5779 230.296C49.6154 230.535 49.6393 230.794 49.6496 231.073C49.6829 231.975 49.4747 232.595 49.025 232.934C48.5753 233.274 47.9819 233.457 47.2448 233.484L39.6338 233.765L39.6913 235.322L38.1133 235.38L38.0558 233.824L34.846 233.942Z"/>
<path clip-path="url(#TextBounds)" d="M37.4097 223.324C37.3796 222.508 37.5418 221.71 37.8964 220.93C38.2509 220.15 38.725 219.549 39.3185 219.125C39.8839 218.717 40.5506 218.435 41.3188 218.277C41.8441 218.143 42.6865 218.055 43.8459 218.012L44.1573 226.439C45.3225 226.36 46.248 226.05 46.9339 225.509C47.6198 224.967 47.9428 224.156 47.9028 223.076C47.8655 222.066 47.503 221.274 46.8152 220.697C46.4161 220.368 45.9598 220.141 45.4464 220.017L45.3762 218.117C45.8003 218.151 46.277 218.3 46.8063 218.564C47.3356 218.827 47.7713 219.128 48.1134 219.467C48.7077 220.032 49.121 220.744 49.3533 221.603C49.485 222.064 49.5617 222.588 49.5834 223.175C49.6363 224.606 49.1605 225.838 48.156 226.872C47.1515 227.905 45.7117 228.456 43.8367 228.525C41.9903 228.594 40.4725 228.148 39.2832 227.189C38.094 226.229 37.4695 224.941 37.4097 223.324ZM42.3842 220.055C41.5498 220.164 40.8874 220.372 40.397 220.676C39.4862 221.24 39.0537 222.141 39.0995 223.379C39.1323 224.267 39.48 224.999 40.1427 225.577C40.8055 226.154 41.6313 226.443 42.6202 226.442L42.3842 220.055Z"/>
<path clip-path="url(#TextBounds)" d="M37.3904 215.821L37.3226 213.986L39.3085 213.912C38.9165 213.776 38.4324 213.425 37.856 212.859C37.2797 212.292 36.9774 211.626 36.9491 210.86C36.9478 210.825 36.9491 210.764 36.9531 210.678C36.9571 210.591 36.966 210.444 36.9798 210.236L39.0194 210.16C39.0022 210.276 38.9917 210.382 38.9882 210.479C38.9846 210.576 38.9849 210.681 38.9891 210.796C39.0251 211.769 39.3658 212.505 40.0113 213.005C40.6569 213.504 41.3875 213.739 42.2034 213.708L48.8161 213.464L48.8875 215.396L37.3904 215.821Z"/>
<path clip-path="url(#TextBounds)" d="M37.0869 207.609L46.3343 204.193L36.8548 201.329L36.7767 199.214L48.434 203.126L48.5102 205.187L37.1699 209.853L37.0869 207.609Z"/>
<path clip-path="url(#TextBounds)" d="M45.0984 195.768C45.6567 195.747 46.0892 195.527 46.3962 195.107C46.7032 194.687 46.8464 194.198 46.8257 193.64C46.8006 192.96 46.6188 192.308 46.2804 191.682C45.7183 190.628 44.8432 190.123 43.6553 190.167L42.0987 190.225C42.2577 190.455 42.3942 190.755 42.5081 191.123C42.6221 191.492 42.7071 191.854 42.7633 192.21L42.9568 193.375C43.0758 194.073 43.2419 194.593 43.4553 194.936C43.8136 195.518 44.3613 195.795 45.0984 195.768ZM41.018 191.232C40.9443 190.79 40.7473 190.5 40.4268 190.362C40.2519 190.282 40.0034 190.248 39.6814 190.26C39.023 190.284 38.5539 190.537 38.2743 191.016C37.9946 191.496 37.8709 192.172 37.9031 193.045C37.9404 194.055 38.2388 194.76 38.7983 195.162C39.1076 195.387 39.5606 195.525 40.1573 195.574L40.2239 197.378C38.8056 197.394 37.8028 196.971 37.2155 196.108C36.6282 195.244 36.313 194.229 36.2699 193.063C36.2199 191.71 36.4369 190.602 36.921 189.739C37.4053 188.882 38.1914 188.434 39.2792 188.394L45.9026 188.149C46.103 188.142 46.2625 188.095 46.3811 188.008C46.4997 187.921 46.5541 187.745 46.5443 187.48C46.5412 187.394 46.5322 187.298 46.5175 187.191C46.5028 187.084 46.4825 186.97 46.4565 186.849L47.8842 186.797C47.9812 187.094 48.0434 187.321 48.0707 187.478C48.098 187.634 48.1166 187.849 48.1267 188.121C48.1513 188.786 47.933 189.278 47.4717 189.596C47.2271 189.763 46.8769 189.887 46.4213 189.968C46.9511 190.343 47.4193 190.891 47.8258 191.615C48.2324 192.338 48.452 193.143 48.4848 194.03C48.5242 195.097 48.2326 195.98 47.6099 196.68C46.9872 197.38 46.1893 197.749 45.216 197.785C44.1496 197.824 43.3108 197.522 42.6993 196.878C42.0879 196.234 41.6942 195.374 41.5183 194.299L41.018 191.232Z"/>
<path clip-path="url(#TextBounds)" d="M31.9893 185.438L31.9178 183.506L47.6874 182.923L47.7588 184.856L31.9893 185.438Z"/>
<path clip-path="url(#TextBounds)" d="M43.9309 179.01C44.5728 178.929 45.0607 178.749 45.3944 178.472C45.9991 177.962 46.2792 177.106 46.2347 175.904C46.2083 175.188 46.0294 174.564 45.6979 174.032C45.3665 173.499 44.8752 173.245 44.224 173.269C43.7301 173.288 43.3625 173.52 43.121 173.966C42.9739 174.251 42.8117 174.808 42.6346 175.639L42.3049 177.189C42.0978 178.178 41.8526 178.911 41.5692 179.387C41.0774 180.237 40.37 180.678 39.4468 180.712C38.359 180.753 37.4642 180.393 36.7625 179.635C36.0609 178.876 35.6856 177.834 35.6366 176.51C35.5726 174.779 36.0346 173.511 37.0225 172.708C37.6489 172.204 38.3345 171.946 39.0793 171.933L39.1467 173.758C38.7115 173.81 38.32 173.978 37.9722 174.264C37.4805 174.726 37.2549 175.505 37.2954 176.6C37.3223 177.33 37.4823 177.877 37.7753 178.243C38.0683 178.608 38.4438 178.782 38.9018 178.765C39.4028 178.747 39.7944 178.485 40.0768 177.98C40.2451 177.687 40.3869 177.259 40.5023 176.696L40.7664 175.407C41.0514 174.006 41.3427 173.064 41.6401 172.58C42.1061 171.81 42.8687 171.406 43.9279 171.367C44.9513 171.329 45.8495 171.685 46.6225 172.434C47.3954 173.183 47.8113 174.351 47.87 175.94C47.9332 177.651 47.5897 178.876 46.8396 179.617C46.0894 180.358 45.1427 180.774 43.9995 180.867L43.9309 179.01Z"/>
</g>
<g fill="#000000" opacity="1" stroke="none">
<path clip-path="url(#TextBounds_2)" d="M355.225 14.5345C356.822 15.9883 357.621 18.1654 357.621 21.0657C357.621 23.9088 356.822 26.0859 355.225 27.597C354.029 28.8288 352.3 29.4447 350.037 29.4447C347.774 29.4447 346.044 28.8288 344.848 27.597C343.244 26.0859 342.442 23.9088 342.442 21.0657C342.442 18.1654 343.244 15.9883 344.848 14.5345C346.044 13.3027 347.774 12.6868 350.037 12.6868C352.3 12.6868 354.029 13.3027 355.225 14.5345ZM350.037 15.4906C348.726 15.4906 347.68 15.974 346.9 16.9407C346.119 17.9075 345.729 19.2825 345.729 21.0657C345.729 22.849 346.119 24.224 346.9 25.1907C347.68 26.1575 348.726 26.6409 350.037 26.6409C351.347 26.6409 352.387 26.1575 353.157 25.1907C353.927 24.224 354.312 22.849 354.312 21.0657C354.312 19.2897 353.927 17.9165 353.157 16.9461C352.387 15.9757 351.347 15.4906 350.037 15.4906Z"/>
<path clip-path="url(#TextBounds_2)" d="M366.15 20.1312C365.999 20.124 365.878 20.1204 365.785 20.1204C364.553 20.1204 363.726 20.5215 363.303 21.3236C363.067 21.7747 362.949 22.4694 362.949 23.4075L362.949 29.0042L359.866 29.0042L359.866 17.2952L362.788 17.2952L362.788 19.3363C363.26 18.5557 363.672 18.0221 364.023 17.7357C364.596 17.2559 365.341 17.0159 366.257 17.0159C366.315 17.0159 366.363 17.0177 366.402 17.0213C366.442 17.0249 366.529 17.0303 366.665 17.0374L366.665 20.1741C366.472 20.1527 366.3 20.1383 366.15 20.1312Z"/>
<path clip-path="url(#TextBounds_2)" d="M371.607 17.2952L371.607 29.0042L368.502 29.0042L368.502 17.2952L371.607 17.2952ZM371.607 13.0736L371.607 15.8988L368.502 15.8988L368.502 13.0736L371.607 13.0736Z"/>
<path clip-path="url(#TextBounds_2)" d="M377.88 31.056C378.21 31.3353 378.765 31.4749 379.545 31.4749C380.648 31.4749 381.386 31.1061 381.758 30.3685C382.002 29.8958 382.123 29.1009 382.123 27.9837L382.123 27.2318C381.83 27.7331 381.515 28.109 381.178 28.3597C380.569 28.8252 379.778 29.0579 378.804 29.0579C377.3 29.0579 376.099 28.5298 375.2 27.4735C374.301 26.4171 373.852 24.9866 373.852 23.182C373.852 21.4417 374.285 19.979 375.152 18.7938C376.018 17.6086 377.247 17.0159 378.836 17.0159C379.424 17.0159 379.936 17.1055 380.372 17.2845C381.117 17.5924 381.719 18.1582 382.177 18.9818L382.177 17.2952L385.153 17.2952L385.153 28.4027C385.153 29.9137 384.899 31.0524 384.39 31.8187C383.516 33.1364 381.841 33.7952 379.363 33.7952C377.866 33.7952 376.645 33.5016 375.7 32.9144C374.754 32.3271 374.232 31.4499 374.131 30.2825L377.461 30.2825C377.547 30.6406 377.687 30.8984 377.88 31.056ZM379.567 19.6907C378.493 19.6907 377.751 20.1956 377.343 21.2054C377.128 21.7425 377.021 22.4049 377.021 23.1927C377.021 23.873 377.136 24.4782 377.365 25.0081C377.78 25.9964 378.525 26.4906 379.599 26.4906C380.315 26.4906 380.92 26.2202 381.414 25.6795C381.909 25.1388 382.156 24.2777 382.156 23.096C382.156 21.986 381.921 21.1409 381.452 20.5609C380.983 19.9808 380.355 19.6907 379.567 19.6907Z"/>
<path clip-path="url(#TextBounds_2)" d="M391.158 17.2952L391.158 29.0042L388.053 29.0042L388.053 17.2952L391.158 17.2952ZM391.158 13.0736L391.158 15.8988L388.053 15.8988L388.053 13.0736L391.158 13.0736Z"/>
<path clip-path="url(#TextBounds_2)" d="M403.586 17.9613C404.353 18.5986 404.736 19.6514 404.736 21.1195L404.736 29.0042L401.599 29.0042L401.599 21.8822C401.599 21.2663 401.517 20.7936 401.352 20.4642C401.051 19.8626 400.478 19.5618 399.633 19.5618C398.595 19.5618 397.882 20.0023 397.496 20.8831C397.295 21.3486 397.195 21.943 397.195 22.6663L397.195 29.0042L394.144 29.0042L394.144 17.3167L397.098 17.3167L397.098 19.0247C397.492 18.4232 397.864 17.9899 398.215 17.7249C398.845 17.2523 399.644 17.0159 400.611 17.0159C401.821 17.0159 402.813 17.331 403.586 17.9613Z"/>
<path clip-path="url(#TextBounds_2)" d="M408.431 22.763C409.04 22.4121 409.935 22.1615 411.117 22.0111L412.159 21.8822C412.724 21.8105 413.129 21.721 413.372 21.6136C413.809 21.4274 414.028 21.1374 414.028 20.7435C414.028 20.2637 413.861 19.9324 413.528 19.7498C413.195 19.5672 412.706 19.4759 412.062 19.4759C411.339 19.4759 410.827 19.6549 410.526 20.013C410.311 20.278 410.168 20.6361 410.096 21.0872L407.142 21.0872C407.206 20.0631 407.493 19.2217 408.001 18.5628C408.811 17.5316 410.2 17.0159 412.169 17.0159C413.451 17.0159 414.59 17.2702 415.585 17.7786C416.581 18.2871 417.079 19.2467 417.079 20.6575L417.079 26.0286C417.079 26.401 417.086 26.8522 417.1 27.3822C417.122 27.7832 417.182 28.0553 417.283 28.1986C417.383 28.3418 417.533 28.46 417.734 28.5531L417.734 29.0042L414.404 29.0042C414.311 28.7679 414.246 28.5459 414.21 28.3382C414.175 28.1305 414.146 27.8942 414.124 27.6292C413.702 28.0876 413.215 28.4779 412.664 28.8001C412.005 29.1797 411.26 29.3695 410.429 29.3695C409.369 29.3695 408.494 29.0669 407.803 28.4617C407.112 27.8566 406.766 26.999 406.766 25.889C406.766 24.4495 407.321 23.4075 408.431 22.763ZM413.158 26.5657C413.709 26.179 413.996 25.4736 414.017 24.4495L414.017 23.3109C413.824 23.4326 413.629 23.5311 413.432 23.6063C413.235 23.6815 412.964 23.7513 412.621 23.8157L411.933 23.9447C411.289 24.0592 410.827 24.1989 410.547 24.3636C410.075 24.6429 409.838 25.0762 409.838 25.6634C409.838 26.1862 409.983 26.564 410.273 26.7967C410.563 27.0295 410.916 27.1458 411.331 27.1458C411.99 27.1458 412.599 26.9525 413.158 26.5657Z"/>
<path clip-path="url(#TextBounds_2)" d="M419.861 13.1702L422.922 13.1702L422.922 29.0042L419.861 29.0042L419.861 13.1702Z"/>
<path clip-path="url(#TextBounds_2)" d="M435.136 19.6156C434.85 19.8232 434.706 20.0667 434.706 20.346C434.706 20.6969 434.857 20.9512 435.158 21.1087C435.458 21.2734 436.522 21.5563 438.348 21.9573C439.566 22.2438 440.479 22.6771 441.087 23.2572C441.689 23.8444 441.99 24.5784 441.99 25.4593C441.99 26.6195 441.558 27.5666 440.695 28.3006C439.832 29.0347 438.498 29.4017 436.694 29.4017C434.853 29.4017 433.494 29.0132 432.617 28.2362C431.74 27.4591 431.301 26.4691 431.301 25.2659L434.406 25.2659C434.47 25.8102 434.61 26.1969 434.825 26.4261C435.204 26.8343 435.906 27.0384 436.93 27.0384C437.532 27.0384 438.01 26.9489 438.364 26.7698C438.719 26.5908 438.896 26.3223 438.896 25.9642C438.896 25.6204 438.753 25.359 438.466 25.18C438.18 25.001 437.116 24.693 435.276 24.2562C433.951 23.9268 433.016 23.515 432.472 23.0208C431.928 22.5338 431.656 21.832 431.656 20.9154C431.656 19.834 432.08 18.9048 432.929 18.1278C433.777 17.3507 434.971 16.9622 436.511 16.9622C437.972 16.9622 439.163 17.2541 440.083 17.8377C441.003 18.4214 441.531 19.4294 441.667 20.8616L438.606 20.8616C438.563 20.4678 438.452 20.1562 438.273 19.9271C437.936 19.5117 437.363 19.304 436.554 19.304C435.888 19.304 435.415 19.4079 435.136 19.6156Z"/>
<path clip-path="url(#TextBounds_2)" d="M447.404 17.2952L447.404 29.0042L444.299 29.0042L444.299 17.2952L447.404 17.2952ZM447.404 13.0736L447.404 15.8988L444.299 15.8988L444.299 13.0736L447.404 13.0736Z"/>
<path clip-path="url(#TextBounds_2)" d="M453.677 31.056C454.007 31.3353 454.562 31.4749 455.342 31.4749C456.445 31.4749 457.183 31.1061 457.555 30.3685C457.799 29.8958 457.92 29.1009 457.92 27.9837L457.92 27.2318C457.627 27.7331 457.312 28.109 456.975 28.3597C456.366 28.8252 455.575 29.0579 454.601 29.0579C453.097 29.0579 451.896 28.5298 450.997 27.4735C450.098 26.4171 449.649 24.9866 449.649 23.182C449.649 21.4417 450.082 19.979 450.949 18.7938C451.815 17.6086 453.043 17.0159 454.633 17.0159C455.22 17.0159 455.733 17.1055 456.169 17.2845C456.914 17.5924 457.516 18.1582 457.974 18.9818L457.974 17.2952L460.95 17.2952L460.95 28.4027C460.95 29.9137 460.695 31.0524 460.187 31.8187C459.313 33.1364 457.637 33.7952 455.16 33.7952C453.663 33.7952 452.442 33.5016 451.497 32.9144C450.551 32.3271 450.028 31.4499 449.928 30.2825L453.258 30.2825C453.344 30.6406 453.484 30.8984 453.677 31.056ZM455.364 19.6907C454.289 19.6907 453.548 20.1956 453.14 21.2054C452.925 21.7425 452.818 22.4049 452.818 23.1927C452.818 23.873 452.932 24.4782 453.162 25.0081C453.577 25.9964 454.322 26.4906 455.396 26.4906C456.112 26.4906 456.717 26.2202 457.211 25.6795C457.706 25.1388 457.953 24.2777 457.953 23.096C457.953 21.986 457.718 21.1409 457.249 20.5609C456.78 19.9808 456.151 19.6907 455.364 19.6907Z"/>
<path clip-path="url(#TextBounds_2)" d="M473.271 17.9613C474.037 18.5986 474.42 19.6514 474.42 21.1195L474.42 29.0042L471.284 29.0042L471.284 21.8822C471.284 21.2663 471.201 20.7936 471.037 20.4642C470.736 19.8626 470.163 19.5618 469.318 19.5618C468.279 19.5618 467.567 20.0023 467.18 20.8831C466.98 21.3486 466.879 21.943 466.879 22.6663L466.879 29.0042L463.829 29.0042L463.829 17.3167L466.783 17.3167L466.783 19.0247C467.177 18.4232 467.549 17.9899 467.9 17.7249C468.53 17.2523 469.329 17.0159 470.295 17.0159C471.506 17.0159 472.497 17.331 473.271 17.9613Z"/>
<path clip-path="url(#TextBounds_2)" d="M478.116 22.763C478.724 22.4121 479.62 22.1615 480.801 22.0111L481.843 21.8822C482.409 21.8105 482.814 21.721 483.057 21.6136C483.494 21.4274 483.712 21.1374 483.712 20.7435C483.712 20.2637 483.546 19.9324 483.213 19.7498C482.88 19.5672 482.391 19.4759 481.747 19.4759C481.023 19.4759 480.511 19.6549 480.21 20.013C479.996 20.278 479.852 20.6361 479.781 21.0872L476.827 21.0872C476.891 20.0631 477.178 19.2217 477.686 18.5628C478.495 17.5316 479.885 17.0159 481.854 17.0159C483.136 17.0159 484.275 17.2702 485.27 17.7786C486.265 18.2871 486.763 19.2467 486.763 20.6575L486.763 26.0286C486.763 26.401 486.77 26.8522 486.785 27.3822C486.806 27.7832 486.867 28.0553 486.967 28.1986C487.067 28.3418 487.218 28.46 487.418 28.5531L487.418 29.0042L484.088 29.0042C483.995 28.7679 483.931 28.5459 483.895 28.3382C483.859 28.1305 483.831 27.8942 483.809 27.6292C483.386 28.0876 482.9 28.4779 482.348 28.8001C481.689 29.1797 480.944 29.3695 480.114 29.3695C479.054 29.3695 478.178 29.0669 477.487 28.4617C476.796 27.8566 476.451 26.999 476.451 25.889C476.451 24.4495 477.006 23.4075 478.116 22.763ZM482.842 26.5657C483.394 26.179 483.68 25.4736 483.702 24.4495L483.702 23.3109C483.508 23.4326 483.313 23.5311 483.116 23.6063C482.919 23.6815 482.649 23.7513 482.305 23.8157L481.618 23.9447C480.973 24.0592 480.511 24.1989 480.232 24.3636C479.759 24.6429 479.523 25.0762 479.523 25.6634C479.523 26.1862 479.668 26.564 479.958 26.7967C480.248 27.0295 480.601 27.1458 481.016 27.1458C481.675 27.1458 482.284 26.9525 482.842 26.5657Z"/>
<path clip-path="url(#TextBounds_2)" d="M489.545 13.1702L492.607 13.1702L492.607 29.0042L489.545 29.0042L489.545 13.1702Z"/>
<path clip-path="url(#TextBounds_2)" d="M363.121 57.6988C362.626 57.0685 362.1 56.1304 361.541 54.8843C360.546 52.6571 360.048 50.4657 360.048 48.3101C360.048 46.3478 360.467 44.3999 361.305 42.4663C361.871 41.1486 362.698 39.7307 363.787 38.2124L366.096 38.2124L365.441 39.4156C364.539 41.0698 363.912 42.8029 363.561 44.6148C363.332 45.8036 363.217 47.0998 363.217 48.5034C363.217 50.6948 363.536 52.7108 364.173 54.5513C364.546 55.6398 365.205 57.0363 366.15 58.7407L363.883 58.7407L363.121 57.6988Z"/>
<path clip-path="url(#TextBounds_2)" d="M370.962 44.9156C370.676 45.1232 370.533 45.3667 370.533 45.646C370.533 45.9969 370.683 46.2512 370.984 46.4087C371.285 46.5734 372.348 46.8563 374.174 47.2573C375.392 47.5438 376.305 47.9771 376.914 48.5572C377.515 49.1444 377.816 49.8784 377.816 50.7593C377.816 51.9195 377.384 52.8666 376.521 53.6006C375.658 54.3347 374.325 54.7017 372.52 54.7017C370.679 54.7017 369.321 54.3132 368.443 53.5362C367.566 52.7591 367.127 51.7691 367.127 50.5659L370.232 50.5659C370.296 51.1102 370.436 51.4969 370.651 51.7261C371.03 52.1343 371.732 52.3384 372.756 52.3384C373.358 52.3384 373.836 52.2489 374.19 52.0698C374.545 51.8908 374.722 51.6223 374.722 51.2642C374.722 50.9204 374.579 50.659 374.292 50.48C374.006 50.301 372.942 49.993 371.102 49.5562C369.777 49.2268 368.843 48.815 368.298 48.3208C367.754 47.8338 367.482 47.132 367.482 46.2154C367.482 45.134 367.906 44.2048 368.755 43.4278C369.603 42.6507 370.798 42.2622 372.337 42.2622C373.798 42.2622 374.989 42.5541 375.909 43.1377C376.829 43.7214 377.358 44.7294 377.494 46.1616L374.432 46.1616C374.389 45.7678 374.278 45.4562 374.099 45.2271C373.762 44.8117 373.19 44.604 372.38 44.604C371.714 44.604 371.242 44.7079 370.962 44.9156Z"/>
<path clip-path="url(#TextBounds_2)" d="M383.23 42.5952L383.23 54.3042L380.125 54.3042L380.125 42.5952L383.23 42.5952ZM383.23 38.3736L383.23 41.1988L380.125 41.1988L380.125 38.3736L383.23 38.3736Z"/>
<path clip-path="url(#TextBounds_2)" d="M392.769 45.8179C392.511 45.2521 392.006 44.9693 391.254 44.9693C390.381 44.9693 389.793 45.2521 389.493 45.8179C389.328 46.1402 389.246 46.62 389.246 47.2573L389.246 54.3042L386.141 54.3042L386.141 42.6167L389.117 42.6167L389.117 44.3247C389.496 43.716 389.854 43.2827 390.191 43.0249C390.785 42.5666 391.555 42.3374 392.5 42.3374C393.396 42.3374 394.119 42.5344 394.67 42.9282C395.114 43.2935 395.451 43.7626 395.68 44.3355C396.081 43.648 396.579 43.1431 397.173 42.8208C397.803 42.4986 398.505 42.3374 399.279 42.3374C399.794 42.3374 400.303 42.4377 400.804 42.6382C401.305 42.8387 401.76 43.1896 402.168 43.6909C402.498 44.0991 402.72 44.6004 402.834 45.1948C402.906 45.5887 402.942 46.1652 402.942 46.9243L402.92 54.3042L399.784 54.3042L399.784 46.8491C399.784 46.4051 399.712 46.0399 399.569 45.7534C399.297 45.2092 398.795 44.937 398.065 44.937C397.22 44.937 396.636 45.2879 396.314 45.9898C396.149 46.3622 396.067 46.8098 396.067 47.3325L396.067 54.3042L392.984 54.3042L392.984 47.3325C392.984 46.6379 392.912 46.133 392.769 45.8179Z"/>
<path clip-path="url(#TextBounds_2)" d="M409.688 53.939C409.351 53.6812 409.022 53.3052 408.7 52.8111L408.7 58.9126L405.67 58.9126L405.67 42.5952L408.603 42.5952L408.603 44.3247C408.932 43.8163 409.283 43.4152 409.656 43.1216C410.336 42.5988 411.145 42.3374 412.083 42.3374C413.451 42.3374 414.61 42.8423 415.559 43.8521C416.507 44.8618 416.982 46.3443 416.982 48.2993C416.982 50.3618 416.518 51.9338 415.591 53.0152C414.663 54.0965 413.469 54.6372 412.008 54.6372C411.077 54.6372 410.304 54.4045 409.688 53.939ZM411.203 52.0698C412.055 52.0698 412.705 51.7404 413.152 51.0816C413.6 50.4227 413.824 49.5454 413.824 48.4497C413.824 47.5474 413.618 46.7489 413.206 46.0542C412.794 45.3596 412.126 45.0122 411.203 45.0122C410.093 45.0122 409.33 45.5386 408.914 46.5913C408.7 47.1499 408.592 47.8589 408.592 48.7183C408.592 50.079 408.954 51.035 409.677 51.5865C410.107 51.9087 410.615 52.0698 411.203 52.0698Z"/>
<path clip-path="url(#TextBounds_2)" d="M419.259 38.4702L422.321 38.4702L422.321 54.3042L419.259 54.3042L419.259 38.4702Z"/>
<path clip-path="url(#TextBounds_2)" d="M428.455 42.5952L428.455 54.3042L425.35 54.3042L425.35 42.5952L428.455 42.5952ZM428.455 38.3736L428.455 41.1988L425.35 41.1988L425.35 38.3736L428.455 38.3736Z"/>
<path clip-path="url(#TextBounds_2)" d="M437.059 42.7027L437.059 44.8618L435.05 44.8618L435.05 54.3042L431.999 54.3042L431.999 44.8618L430.291 44.8618L430.291 42.7027L431.967 42.7027L431.967 41.9507C431.967 40.7046 432.243 39.7772 432.794 39.1685C433.289 38.5956 434.295 38.3091 435.813 38.3091C435.999 38.3091 436.189 38.3163 436.382 38.3306C436.576 38.3449 436.776 38.3592 436.984 38.3736L436.984 40.8657C436.841 40.8586 436.701 40.8532 436.565 40.8496C436.429 40.8461 436.264 40.8443 436.071 40.8443C435.591 40.8443 435.297 40.9768 435.19 41.2417C435.082 41.5067 435.036 41.9221 435.05 42.4878L435.05 42.7027L437.059 42.7027ZM438.874 54.3042L438.874 42.649L441.925 42.649L441.925 54.3042L438.874 54.3042ZM438.874 41.1665L438.874 38.3736L441.872 38.3736L441.872 41.1665L438.874 41.1665Z"/>
<path clip-path="url(#TextBounds_2)" d="M449.584 54.6909C448.095 54.6909 446.781 54.2111 445.642 53.2515C444.503 52.2919 443.934 50.7307 443.934 48.5679C443.934 46.5412 444.448 44.9872 445.476 43.9058C446.503 42.8244 447.837 42.2837 449.477 42.2837C450.451 42.2837 451.328 42.4663 452.109 42.8316C452.889 43.1968 453.534 43.7733 454.042 44.5611C454.501 45.2557 454.798 46.0614 454.934 46.9781C455.013 47.5152 455.045 48.2886 455.031 49.2984L447.017 49.2984C447.06 50.4728 447.429 51.2964 448.123 51.7691C448.546 52.0627 449.054 52.2095 449.649 52.2095C450.279 52.2095 450.791 52.0305 451.185 51.6724C451.4 51.479 451.59 51.2105 451.754 50.8667L454.88 50.8667C454.802 51.5614 454.44 52.2668 453.795 52.9829C452.793 54.1216 451.389 54.6909 449.584 54.6909ZM449.477 44.8081C448.768 44.8081 448.218 45.0301 447.828 45.4741C447.438 45.9182 447.192 46.5197 447.092 47.2788L451.851 47.2788C451.801 46.4696 451.556 45.8555 451.115 45.4365C450.675 45.0176 450.129 44.8081 449.477 44.8081Z"/>
<path clip-path="url(#TextBounds_2)" d="M463.281 54.1968C462.722 54.5119 462.027 54.6695 461.197 54.6695C459.829 54.6695 458.678 54.1162 457.743 53.0098C456.809 51.9033 456.341 50.4836 456.341 48.7505C456.341 46.7525 456.801 45.1805 457.722 44.0347C458.642 42.8889 459.872 42.3159 461.412 42.3159C462.121 42.3159 462.751 42.4717 463.302 42.7832C463.854 43.0948 464.301 43.5262 464.645 44.0777L464.645 38.4917L467.749 38.4917L467.749 54.3042L464.774 54.3042L464.774 52.6822C464.337 53.3768 463.839 53.8817 463.281 54.1968ZM462.099 44.9907C461.204 44.9907 460.547 45.3291 460.128 46.0059C459.709 46.6826 459.499 47.5223 459.499 48.5249C459.499 49.6063 459.713 50.4711 460.139 51.1192C460.565 51.7673 461.211 52.0913 462.078 52.0913C462.944 52.0913 463.603 51.7691 464.054 51.1245C464.505 50.48 464.731 49.6457 464.731 48.6216C464.731 47.1893 464.369 46.1652 463.646 45.5493C463.202 45.1769 462.686 44.9907 462.099 44.9907Z"/>
<path clip-path="url(#TextBounds_2)" d="M470.038 39.4156L469.382 38.2124L471.692 38.2124C472.78 39.7307 473.608 41.1486 474.173 42.4663C475.011 44.3999 475.43 46.3478 475.43 48.3101C475.43 50.4657 474.932 52.6571 473.937 54.8843C473.378 56.1304 472.852 57.0685 472.358 57.6988L471.595 58.7407L469.329 58.7407C470.274 57.0363 470.933 55.6398 471.305 54.5513C471.942 52.7108 472.261 50.6948 472.261 48.5034C472.261 47.0998 472.147 45.8036 471.917 44.6148C471.567 42.8029 470.94 41.0698 470.038 39.4156Z"/>
</g>
<g fill="#000000" opacity="1" stroke="none">
<path clip-path="url(#TextBounds_3)" d="M334.609 182.239L334.609 195.226L342.45 195.226L342.45 198.073L331.3 198.073L331.3 182.239L334.609 182.239Z"/>
<path clip-path="url(#TextBounds_3)" d="M354.256 187.846C355.244 189.085 355.738 190.55 355.738 192.24C355.738 193.959 355.244 195.428 354.256 196.65C353.268 197.871 351.767 198.481 349.755 198.481C347.743 198.481 346.242 197.871 345.254 196.65C344.266 195.428 343.772 193.959 343.772 192.24C343.772 190.55 344.266 189.085 345.254 187.846C346.242 186.607 347.743 185.988 349.755 185.988C351.767 185.988 353.268 186.607 354.256 187.846ZM351.807 189.522C351.327 188.892 350.639 188.577 349.744 188.577C348.849 188.577 348.16 188.894 347.676 189.527C347.193 190.161 346.951 191.065 346.951 192.24C346.951 193.414 347.193 194.32 347.676 194.958C348.16 195.595 348.849 195.914 349.744 195.914C350.639 195.914 351.327 195.595 351.807 194.958C352.287 194.32 352.526 193.414 352.526 192.24C352.526 191.065 352.287 190.159 351.807 189.522Z"/>
<path clip-path="url(#TextBounds_3)" d="M363.118 198.073L359.939 198.073L356.651 186.364L359.939 186.364L361.765 194.764L363.451 186.364L366.556 186.364L368.339 194.796L370.165 186.364L373.356 186.364L369.961 198.073L366.814 198.073L364.977 189.544L363.118 198.073Z"/>
<path clip-path="url(#TextBounds_3)" d="M379.769 198.46C378.279 198.46 376.965 197.98 375.826 197.02C374.688 196.06 374.118 194.499 374.118 192.337C374.118 190.31 374.632 188.756 375.66 187.674C376.687 186.593 378.021 186.052 379.661 186.052C380.635 186.052 381.512 186.235 382.293 186.6C383.074 186.965 383.718 187.542 384.227 188.33C384.685 189.024 384.982 189.83 385.118 190.747C385.197 191.284 385.229 192.057 385.215 193.067L377.201 193.067C377.244 194.241 377.613 195.065 378.308 195.538C378.73 195.831 379.239 195.978 379.833 195.978C380.463 195.978 380.975 195.799 381.369 195.441C381.584 195.248 381.774 194.979 381.939 194.635L385.065 194.635C384.986 195.33 384.624 196.035 383.98 196.752C382.977 197.89 381.573 198.46 379.769 198.46ZM379.661 188.577C378.952 188.577 378.403 188.799 378.012 189.243C377.622 189.687 377.377 190.288 377.276 191.047L382.035 191.047C381.985 190.238 381.74 189.624 381.299 189.205C380.859 188.786 380.313 188.577 379.661 188.577Z"/>
<path clip-path="url(#TextBounds_3)" d="M393.529 189.2C393.379 189.193 393.257 189.189 393.164 189.189C391.932 189.189 391.105 189.59 390.683 190.392C390.446 190.843 390.328 191.538 390.328 192.476L390.328 198.073L387.245 198.073L387.245 186.364L390.167 186.364L390.167 188.405C390.64 187.624 391.052 187.091 391.402 186.804C391.975 186.324 392.72 186.085 393.637 186.085C393.694 186.085 393.742 186.086 393.782 186.09C393.821 186.094 393.909 186.099 394.045 186.106L394.045 189.243C393.852 189.221 393.68 189.207 393.529 189.2Z"/>
<path clip-path="url(#TextBounds_3)" d="M405.507 186.471L407.516 186.471L407.516 188.63L405.507 188.63L405.507 198.073L402.456 198.073L402.456 188.63L400.748 188.63L400.748 186.471L402.424 186.471L402.424 185.719C402.424 184.466 402.635 183.603 403.058 183.13C403.502 182.429 404.572 182.078 406.27 182.078C406.463 182.078 406.638 182.083 406.796 182.094C406.954 182.105 407.168 182.121 407.441 182.142L407.441 184.634C407.269 184.613 406.98 184.597 406.576 184.586C406.171 184.575 405.892 184.665 405.738 184.855C405.584 185.044 405.507 185.254 405.507 185.483L405.507 186.471Z"/>
<path clip-path="url(#TextBounds_3)" d="M415.529 189.2C415.379 189.193 415.257 189.189 415.164 189.189C413.932 189.189 413.105 189.59 412.683 190.392C412.446 190.843 412.328 191.538 412.328 192.476L412.328 198.073L409.245 198.073L409.245 186.364L412.167 186.364L412.167 188.405C412.64 187.624 413.052 187.091 413.402 186.804C413.975 186.324 414.72 186.085 415.637 186.085C415.694 186.085 415.742 186.086 415.782 186.09C415.821 186.094 415.909 186.099 416.045 186.106L416.045 189.243C415.852 189.221 415.68 189.207 415.529 189.2Z"/>
<path clip-path="url(#TextBounds_3)" d="M422.566 198.46C421.076 198.46 419.762 197.98 418.623 197.02C417.485 196.06 416.915 194.499 416.915 192.337C416.915 190.31 417.429 188.756 418.457 187.674C419.484 186.593 420.818 186.052 422.458 186.052C423.432 186.052 424.309 186.235 425.09 186.6C425.871 186.965 426.515 187.542 427.024 188.33C427.482 189.024 427.779 189.83 427.915 190.747C427.994 191.284 428.026 192.057 428.012 193.067L419.998 193.067C420.041 194.241 420.41 195.065 421.105 195.538C421.527 195.831 422.036 195.978 422.63 195.978C423.26 195.978 423.772 195.799 424.166 195.441C424.381 195.248 424.571 194.979 424.735 194.635L427.861 194.635C427.783 195.33 427.421 196.035 426.776 196.752C425.774 197.89 424.37 198.46 422.566 198.46ZM422.458 188.577C421.749 188.577 421.2 188.799 420.809 189.243C420.419 189.687 420.174 190.288 420.073 191.047L424.832 191.047C424.782 190.238 424.537 189.624 424.096 189.205C423.656 188.786 423.11 188.577 422.458 188.577Z"/>
<path clip-path="url(#TextBounds_3)" d="M436.455 197.879C435.897 198.252 435.137 198.438 434.178 198.438C432.824 198.438 431.671 197.897 430.719 196.816C429.766 195.735 429.29 194.292 429.29 192.487C429.29 190.539 429.768 188.981 430.724 187.814C431.68 186.647 432.86 186.063 434.264 186.063C435.238 186.063 436.026 186.303 436.627 186.783C436.978 187.055 437.336 187.503 437.701 188.126L437.701 186.385L440.655 186.385L440.655 202.713L437.626 202.713L437.626 196.623C437.397 197.095 437.007 197.514 436.455 197.879ZM435.048 188.759C434.275 188.759 433.653 189.057 433.184 189.651C432.715 190.245 432.481 191.148 432.481 192.358C432.481 193.167 432.588 193.83 432.803 194.345C433.204 195.326 433.949 195.817 435.037 195.817C436.09 195.817 436.838 195.366 437.282 194.463C437.569 193.869 437.712 193.117 437.712 192.208C437.712 191.491 437.59 190.851 437.347 190.285C436.91 189.268 436.144 188.759 435.048 188.759Z"/>
<path clip-path="url(#TextBounds_3)" d="M450.893 192.734L450.893 186.364L453.997 186.364L453.997 198.073L451.022 198.073L451.022 196.419C450.993 196.454 450.921 196.562 450.807 196.741C450.692 196.92 450.556 197.077 450.399 197.213C449.919 197.643 449.455 197.937 449.007 198.094C448.56 198.252 448.035 198.331 447.434 198.331C445.701 198.331 444.533 197.708 443.932 196.462C443.595 195.774 443.427 194.761 443.427 193.421L443.427 186.364L446.564 186.364L446.564 193.421C446.564 194.088 446.642 194.589 446.8 194.925C447.079 195.52 447.627 195.817 448.443 195.817C449.489 195.817 450.205 195.394 450.592 194.549C450.792 194.091 450.893 193.486 450.893 192.734Z"/>
<path clip-path="url(#TextBounds_3)" d="M461.678 198.46C460.188 198.46 458.874 197.98 457.735 197.02C456.597 196.06 456.027 194.499 456.027 192.337C456.027 190.31 456.541 188.756 457.569 187.674C458.597 186.593 459.93 186.052 461.57 186.052C462.544 186.052 463.422 186.235 464.202 186.6C464.983 186.965 465.627 187.542 466.136 188.33C466.594 189.024 466.891 189.83 467.027 190.747C467.106 191.284 467.138 192.057 467.124 193.067L459.11 193.067C459.153 194.241 459.522 195.065 460.217 195.538C460.639 195.831 461.148 195.978 461.742 195.978C462.373 195.978 462.885 195.799 463.278 195.441C463.493 195.248 463.683 194.979 463.848 194.635L466.974 194.635C466.895 195.33 466.533 196.035 465.889 196.752C464.886 197.89 463.483 198.46 461.678 198.46ZM461.57 188.577C460.861 188.577 460.312 188.799 459.922 189.243C459.531 189.687 459.286 190.288 459.186 191.047L463.944 191.047C463.894 190.238 463.649 189.624 463.209 189.205C462.768 188.786 462.222 188.577 461.57 188.577Z"/>
<path clip-path="url(#TextBounds_3)" d="M478.651 187.03C479.417 187.667 479.8 188.72 479.8 190.188L479.8 198.073L476.663 198.073L476.663 190.951C476.663 190.335 476.581 189.862 476.416 189.533C476.115 188.931 475.542 188.63 474.697 188.63C473.659 188.63 472.946 189.071 472.56 189.952C472.359 190.417 472.259 191.012 472.259 191.735L472.259 198.073L469.208 198.073L469.208 186.385L472.162 186.385L472.162 188.093C472.556 187.492 472.929 187.059 473.279 186.794C473.91 186.321 474.708 186.085 475.675 186.085C476.885 186.085 477.877 186.4 478.651 187.03Z"/>
<path clip-path="url(#TextBounds_3)" d="M487.577 188.673C486.546 188.673 485.841 189.185 485.461 190.21C485.261 190.754 485.16 191.477 485.16 192.379C485.16 193.239 485.261 193.93 485.461 194.453C485.826 195.427 486.514 195.914 487.524 195.914C488.24 195.914 488.748 195.72 489.049 195.334C489.35 194.947 489.532 194.446 489.597 193.83L492.723 193.83C492.651 194.761 492.315 195.642 491.713 196.472C490.753 197.811 489.332 198.481 487.448 198.481C485.565 198.481 484.179 197.922 483.291 196.805C482.403 195.688 481.959 194.238 481.959 192.455C481.959 190.442 482.45 188.878 483.431 187.76C484.412 186.643 485.765 186.085 487.491 186.085C488.959 186.085 490.161 186.414 491.095 187.073C492.03 187.732 492.583 188.895 492.755 190.564L489.618 190.564C489.561 190.127 489.414 189.733 489.178 189.382C488.834 188.91 488.301 188.673 487.577 188.673Z"/>
<path clip-path="url(#TextBounds_3)" d="M497.772 199.297C497.922 198.911 497.983 198.674 497.954 198.588L493.657 186.364L497.063 186.364L499.619 195.001L502.036 186.364L505.291 186.364L501.274 197.879C500.5 200.1 499.888 201.476 499.437 202.01C498.985 202.543 498.083 202.81 496.73 202.81C496.457 202.81 496.239 202.808 496.074 202.805C495.91 202.801 495.663 202.789 495.333 202.767L495.333 200.318L495.72 200.339C496.021 200.354 496.307 200.343 496.579 200.307C496.851 200.271 497.081 200.189 497.267 200.06C497.446 199.938 497.614 199.684 497.772 199.297Z"/>
<path clip-path="url(#TextBounds_3)" d="M406.227 213.146C407.215 214.385 407.709 215.85 407.709 217.54C407.709 219.259 407.215 220.728 406.227 221.95C405.238 223.171 403.738 223.781 401.726 223.781C399.713 223.781 398.213 223.171 397.225 221.95C396.236 220.728 395.742 219.259 395.742 217.54C395.742 215.85 396.236 214.385 397.225 213.146C398.213 211.907 399.713 211.288 401.726 211.288C403.738 211.288 405.238 211.907 406.227 213.146ZM403.777 214.822C403.298 214.192 402.61 213.877 401.715 213.877C400.82 213.877 400.13 214.194 399.647 214.827C399.164 215.461 398.922 216.365 398.922 217.54C398.922 218.714 399.164 219.62 399.647 220.258C400.13 220.895 400.82 221.214 401.715 221.214C402.61 221.214 403.298 220.895 403.777 220.258C404.257 219.62 404.497 218.714 404.497 217.54C404.497 216.365 404.257 215.459 403.777 214.822Z"/>
<path clip-path="url(#TextBounds_3)" d="M419.364 212.33C420.131 212.967 420.514 214.02 420.514 215.488L420.514 223.373L417.377 223.373L417.377 216.251C417.377 215.635 417.295 215.162 417.13 214.833C416.829 214.231 416.256 213.93 415.411 213.93C414.373 213.93 413.66 214.371 413.274 215.252C413.073 215.717 412.973 216.312 412.973 217.035L412.973 223.373L409.922 223.373L409.922 211.685L412.876 211.685L412.876 213.393C413.27 212.792 413.642 212.359 413.993 212.094C414.624 211.621 415.422 211.385 416.389 211.385C417.599 211.385 418.591 211.7 419.364 212.33Z"/>
<path clip-path="url(#TextBounds_3)" d="M423.403 207.539L426.465 207.539L426.465 223.373L423.403 223.373L423.403 207.539Z"/>
<path clip-path="url(#TextBounds_3)" d="M432.362 224.597C432.513 224.211 432.574 223.974 432.545 223.888L428.248 211.664L431.653 211.664L434.21 220.301L436.627 211.664L439.882 211.664L435.864 223.179C435.091 225.4 434.479 226.776 434.027 227.31C433.576 227.843 432.674 228.11 431.32 228.11C431.048 228.11 430.83 228.108 430.665 228.105C430.5 228.101 430.253 228.089 429.924 228.067L429.924 225.618L430.311 225.639C430.611 225.654 430.898 225.643 431.17 225.607C431.442 225.571 431.671 225.489 431.858 225.36C432.037 225.238 432.205 224.984 432.362 224.597Z"/>
</g>
<g fill="#000000" opacity="1" stroke="none">
<path clip-path="url(#TextBounds_4)" d="M330.292 318.355L330.292 325.423L327.015 325.423L327.015 309.589L330.292 309.589L330.292 315.626L336.479 315.626L336.479 309.589L339.766 309.589L339.766 325.423L336.479 325.423L336.479 318.355L330.292 318.355Z"/>
<path clip-path="url(#TextBounds_4)" d="M345.825 313.714L345.825 325.423L342.72 325.423L342.72 313.714L345.825 313.714ZM345.825 309.492L345.825 312.317L342.72 312.317L342.72 309.492L345.825 309.492Z"/>
<path clip-path="url(#TextBounds_4)" d="M352.098 327.475C352.428 327.754 352.983 327.894 353.763 327.894C354.866 327.894 355.604 327.525 355.976 326.787C356.22 326.315 356.341 325.52 356.341 324.402L356.341 323.65C356.048 324.152 355.733 324.528 355.396 324.778C354.787 325.244 353.996 325.477 353.022 325.477C351.518 325.477 350.317 324.948 349.418 323.892C348.519 322.836 348.07 321.405 348.07 319.601C348.07 317.86 348.503 316.398 349.37 315.212C350.236 314.027 351.464 313.435 353.054 313.435C353.641 313.435 354.154 313.524 354.59 313.703C355.335 314.011 355.937 314.577 356.395 315.4L356.395 313.714L359.371 313.714L359.371 324.821C359.371 326.332 359.116 327.471 358.608 328.237C357.734 329.555 356.058 330.214 353.581 330.214C352.084 330.214 350.863 329.92 349.918 329.333C348.972 328.746 348.449 327.869 348.349 326.701L351.679 326.701C351.765 327.059 351.905 327.317 352.098 327.475ZM353.785 316.109C352.71 316.109 351.969 316.614 351.561 317.624C351.346 318.161 351.239 318.824 351.239 319.611C351.239 320.292 351.353 320.897 351.583 321.427C351.998 322.415 352.743 322.909 353.817 322.909C354.533 322.909 355.138 322.639 355.632 322.098C356.126 321.558 356.374 320.696 356.374 319.515C356.374 318.405 356.139 317.56 355.67 316.98C355.201 316.399 354.572 316.109 353.785 316.109Z"/>
<path clip-path="url(#TextBounds_4)" d="M369.361 316.775C369.082 316.231 368.552 315.959 367.771 315.959C366.962 315.959 366.348 316.229 365.929 316.77C365.51 317.311 365.3 318.082 365.3 319.085L365.3 325.423L362.25 325.423L362.25 309.643L365.3 309.643L365.3 315.239C365.744 314.559 366.258 314.085 366.842 313.816C367.425 313.547 368.04 313.413 368.684 313.413C369.407 313.413 370.064 313.538 370.655 313.789C371.246 314.04 371.731 314.423 372.111 314.939C372.433 315.375 372.63 315.825 372.702 316.287C372.773 316.749 372.809 317.502 372.809 318.548L372.809 325.423L369.683 325.423L369.683 318.301C369.683 317.671 369.576 317.162 369.361 316.775Z"/>
<path clip-path="url(#TextBounds_4)" d="M380.393 325.81C378.904 325.81 377.589 325.33 376.451 324.37C375.312 323.411 374.743 321.849 374.743 319.687C374.743 317.66 375.257 316.106 376.284 315.024C377.312 313.943 378.646 313.402 380.286 313.402C381.26 313.402 382.137 313.585 382.918 313.95C383.698 314.315 384.343 314.892 384.851 315.68C385.309 316.374 385.607 317.18 385.743 318.097C385.821 318.634 385.854 319.407 385.839 320.417L377.826 320.417C377.869 321.592 378.237 322.415 378.932 322.888C379.355 323.181 379.863 323.328 380.458 323.328C381.088 323.328 381.6 323.149 381.994 322.791C382.209 322.598 382.398 322.329 382.563 321.985L385.689 321.985C385.61 322.68 385.249 323.385 384.604 324.102C383.601 325.24 382.198 325.81 380.393 325.81ZM380.286 315.927C379.577 315.927 379.027 316.149 378.637 316.593C378.246 317.037 378.001 317.638 377.901 318.398L382.66 318.398C382.61 317.588 382.364 316.974 381.924 316.555C381.483 316.136 380.937 315.927 380.286 315.927Z"/>
<path clip-path="url(#TextBounds_4)" d="M394.154 316.55C394.003 316.543 393.882 316.539 393.789 316.539C392.557 316.539 391.73 316.94 391.307 317.742C391.071 318.193 390.953 318.888 390.953 319.826L390.953 325.423L387.87 325.423L387.87 313.714L390.792 313.714L390.792 315.755C391.264 314.974 391.676 314.441 392.027 314.154C392.6 313.675 393.345 313.435 394.261 313.435C394.319 313.435 394.367 313.436 394.406 313.44C394.446 313.444 394.533 313.449 394.669 313.456L394.669 316.593C394.476 316.571 394.304 316.557 394.154 316.55Z"/>
<path clip-path="url(#TextBounds_4)" d="M406.131 313.821L408.14 313.821L408.14 315.981L406.131 315.981L406.131 325.423L403.081 325.423L403.081 315.981L401.373 315.981L401.373 313.821L403.048 313.821L403.048 313.069C403.048 311.816 403.26 310.953 403.682 310.481C404.126 309.779 405.197 309.428 406.894 309.428C407.087 309.428 407.263 309.433 407.42 309.444C407.578 309.455 407.793 309.471 408.065 309.492L408.065 311.984C407.893 311.963 407.605 311.947 407.2 311.936C406.796 311.925 406.516 312.015 406.362 312.205C406.208 312.394 406.131 312.604 406.131 312.833L406.131 313.821Z"/>
<path clip-path="url(#TextBounds_4)" d="M416.154 316.55C416.003 316.543 415.882 316.539 415.789 316.539C414.557 316.539 413.73 316.94 413.307 317.742C413.071 318.193 412.953 318.888 412.953 319.826L412.953 325.423L409.87 325.423L409.87 313.714L412.792 313.714L412.792 315.755C413.264 314.974 413.676 314.441 414.027 314.154C414.6 313.675 415.345 313.435 416.261 313.435C416.319 313.435 416.367 313.436 416.406 313.44C416.446 313.444 416.533 313.449 416.669 313.456L416.669 316.593C416.476 316.571 416.304 316.557 416.154 316.55Z"/>
<path clip-path="url(#TextBounds_4)" d="M423.19 325.81C421.7 325.81 420.386 325.33 419.248 324.37C418.109 323.411 417.54 321.849 417.54 319.687C417.54 317.66 418.053 316.106 419.081 315.024C420.109 313.943 421.443 313.402 423.083 313.402C424.057 313.402 424.934 313.585 425.714 313.95C426.495 314.315 427.14 314.892 427.648 315.68C428.106 316.374 428.404 317.18 428.54 318.097C428.618 318.634 428.651 319.407 428.636 320.417L420.623 320.417C420.666 321.592 421.034 322.415 421.729 322.888C422.152 323.181 422.66 323.328 423.254 323.328C423.885 323.328 424.397 323.149 424.791 322.791C425.005 322.598 425.195 322.329 425.36 321.985L428.486 321.985C428.407 322.68 428.045 323.385 427.401 324.102C426.398 325.24 424.995 325.81 423.19 325.81ZM423.083 315.927C422.374 315.927 421.824 316.149 421.434 316.593C421.043 317.037 420.798 317.638 420.698 318.398L425.457 318.398C425.406 317.588 425.161 316.974 424.721 316.555C424.28 316.136 423.734 315.927 423.083 315.927Z"/>
<path clip-path="url(#TextBounds_4)" d="M437.08 325.23C436.521 325.602 435.762 325.788 434.802 325.788C433.449 325.788 432.296 325.247 431.343 324.166C430.391 323.085 429.915 321.642 429.915 319.837C429.915 317.889 430.393 316.331 431.349 315.164C432.305 313.997 433.485 313.413 434.888 313.413C435.862 313.413 436.65 313.653 437.251 314.133C437.602 314.405 437.96 314.853 438.326 315.476L438.326 313.735L441.28 313.735L441.28 330.064L438.251 330.064L438.251 323.973C438.021 324.445 437.631 324.864 437.08 325.23ZM435.672 316.109C434.899 316.109 434.278 316.407 433.809 317.001C433.34 317.595 433.105 318.498 433.105 319.708C433.105 320.517 433.212 321.18 433.427 321.695C433.828 322.676 434.573 323.167 435.662 323.167C436.714 323.167 437.463 322.716 437.907 321.814C438.193 321.219 438.336 320.467 438.336 319.558C438.336 318.842 438.215 318.201 437.971 317.635C437.534 316.618 436.768 316.109 435.672 316.109Z"/>
<path clip-path="url(#TextBounds_4)" d="M451.517 320.084L451.517 313.714L454.622 313.714L454.622 325.423L451.646 325.423L451.646 323.769C451.617 323.804 451.546 323.912 451.431 324.091C451.317 324.27 451.181 324.427 451.023 324.564C450.543 324.993 450.079 325.287 449.632 325.444C449.184 325.602 448.66 325.681 448.058 325.681C446.325 325.681 445.158 325.058 444.556 323.812C444.22 323.124 444.051 322.111 444.051 320.772L444.051 313.714L447.188 313.714L447.188 320.772C447.188 321.438 447.267 321.939 447.424 322.275C447.704 322.87 448.251 323.167 449.068 323.167C450.113 323.167 450.83 322.745 451.216 321.899C451.417 321.441 451.517 320.836 451.517 320.084Z"/>
<path clip-path="url(#TextBounds_4)" d="M462.302 325.81C460.813 325.81 459.499 325.33 458.36 324.37C457.221 323.411 456.652 321.849 456.652 319.687C456.652 317.66 457.166 316.106 458.193 315.024C459.221 313.943 460.555 313.402 462.195 313.402C463.169 313.402 464.046 313.585 464.827 313.95C465.607 314.315 466.252 314.892 466.76 315.68C467.219 316.374 467.516 317.18 467.652 318.097C467.731 318.634 467.763 319.407 467.749 320.417L459.735 320.417C459.778 321.592 460.147 322.415 460.841 322.888C461.264 323.181 461.772 323.328 462.367 323.328C462.997 323.328 463.509 323.149 463.903 322.791C464.118 322.598 464.307 322.329 464.472 321.985L467.598 321.985C467.519 322.68 467.158 323.385 466.513 324.102C465.511 325.24 464.107 325.81 462.302 325.81ZM462.195 315.927C461.486 315.927 460.936 316.149 460.546 316.593C460.156 317.037 459.91 317.638 459.81 318.398L464.569 318.398C464.519 317.588 464.273 316.974 463.833 316.555C463.393 316.136 462.847 315.927 462.195 315.927Z"/>
<path clip-path="url(#TextBounds_4)" d="M479.275 314.38C480.041 315.017 480.424 316.07 480.424 317.538L480.424 325.423L477.288 325.423L477.288 318.301C477.288 317.685 477.205 317.212 477.041 316.883C476.74 316.281 476.167 315.981 475.322 315.981C474.283 315.981 473.571 316.421 473.184 317.302C472.984 317.767 472.883 318.362 472.883 319.085L472.883 325.423L469.833 325.423L469.833 313.735L472.787 313.735L472.787 315.443C473.181 314.842 473.553 314.409 473.904 314.144C474.534 313.671 475.333 313.435 476.299 313.435C477.51 313.435 478.501 313.75 479.275 314.38Z"/>
<path clip-path="url(#TextBounds_4)" d="M488.202 316.023C487.17 316.023 486.465 316.536 486.085 317.56C485.885 318.104 485.785 318.827 485.785 319.73C485.785 320.589 485.885 321.28 486.085 321.803C486.451 322.777 487.138 323.264 488.148 323.264C488.864 323.264 489.373 323.07 489.673 322.684C489.974 322.297 490.157 321.796 490.221 321.18L493.347 321.18C493.276 322.111 492.939 322.992 492.337 323.822C491.378 325.162 489.956 325.831 488.073 325.831C486.189 325.831 484.804 325.273 483.916 324.155C483.028 323.038 482.584 321.588 482.584 319.805C482.584 317.792 483.074 316.228 484.055 315.11C485.036 313.993 486.39 313.435 488.116 313.435C489.584 313.435 490.785 313.764 491.72 314.423C492.654 315.082 493.208 316.246 493.379 317.914L490.243 317.914C490.185 317.477 490.039 317.083 489.802 316.732C489.459 316.26 488.925 316.023 488.202 316.023Z"/>
<path clip-path="url(#TextBounds_4)" d="M498.396 326.648C498.546 326.261 498.607 326.024 498.579 325.939L494.282 313.714L497.687 313.714L500.244 322.351L502.661 313.714L505.916 313.714L501.898 325.23C501.125 327.45 500.512 328.826 500.061 329.36C499.61 329.893 498.708 330.16 497.354 330.16C497.082 330.16 496.863 330.158 496.699 330.155C496.534 330.151 496.287 330.139 495.958 330.117L495.958 327.668L496.344 327.69C496.645 327.704 496.932 327.693 497.204 327.657C497.476 327.621 497.705 327.539 497.891 327.41C498.07 327.288 498.238 327.034 498.396 326.648Z"/>
<path clip-path="url(#TextBounds_4)" d="M404.407 340.496C405.396 341.735 405.89 343.2 405.89 344.89C405.89 346.609 405.396 348.079 404.407 349.3C403.419 350.521 401.919 351.131 399.906 351.131C397.894 351.131 396.394 350.521 395.405 349.3C394.417 348.079 393.923 346.609 393.923 344.89C393.923 343.2 394.417 341.735 395.405 340.496C396.394 339.257 397.894 338.638 399.906 338.638C401.919 338.638 403.419 339.257 404.407 340.496ZM401.958 342.172C401.478 341.542 400.791 341.227 399.896 341.227C399 341.227 398.311 341.544 397.828 342.177C397.344 342.811 397.103 343.715 397.103 344.89C397.103 346.064 397.344 346.97 397.828 347.608C398.311 348.245 399 348.564 399.896 348.564C400.791 348.564 401.478 348.245 401.958 347.608C402.438 346.97 402.678 346.064 402.678 344.89C402.678 343.715 402.438 342.809 401.958 342.172Z"/>
<path clip-path="url(#TextBounds_4)" d="M417.545 339.68C418.311 340.317 418.694 341.37 418.694 342.838L418.694 350.723L415.558 350.723L415.558 343.601C415.558 342.985 415.475 342.512 415.311 342.183C415.01 341.581 414.437 341.281 413.592 341.281C412.553 341.281 411.841 341.721 411.454 342.602C411.254 343.067 411.153 343.662 411.153 344.385L411.153 350.723L408.103 350.723L408.103 339.035L411.057 339.035L411.057 340.743C411.451 340.142 411.823 339.709 412.174 339.444C412.804 338.971 413.603 338.735 414.569 338.735C415.78 338.735 416.772 339.05 417.545 339.68Z"/>
<path clip-path="url(#TextBounds_4)" d="M421.584 334.889L424.646 334.889L424.646 350.723L421.584 350.723L421.584 334.889Z"/>
<path clip-path="url(#TextBounds_4)" d="M430.543 351.948C430.693 351.561 430.754 351.324 430.726 351.239L426.429 339.014L429.834 339.014L432.391 347.651L434.808 339.014L438.063 339.014L434.045 350.53C433.272 352.75 432.659 354.126 432.208 354.66C431.757 355.193 430.855 355.46 429.501 355.46C429.229 355.46 429.01 355.458 428.846 355.455C428.681 355.451 428.434 355.439 428.105 355.417L428.105 352.968L428.491 352.99C428.792 353.004 429.078 352.993 429.351 352.957C429.623 352.921 429.852 352.839 430.038 352.71C430.217 352.588 430.385 352.334 430.543 351.948Z"/>
</g>
<g fill="#000000" opacity="1" stroke="none">
<path clip-path="url(#TextBounds_5)" d="M398.267 448.294L398.267 450.174L392.95 450.174L392.95 464.074L390.78 464.074L390.78 450.174L385.463 450.174L385.463 448.294L398.267 448.294Z"/>
<path clip-path="url(#TextBounds_5)" d="M399.159 452.623L401.125 452.623L401.125 464.074L399.159 464.074L399.159 452.623ZM399.159 448.294L401.125 448.294L401.125 450.486L399.159 450.486L399.159 448.294Z"/>
<path clip-path="url(#TextBounds_5)" d="M404.047 452.57L405.959 452.57L405.959 454.202C406.417 453.637 406.833 453.225 407.205 452.967C407.842 452.53 408.566 452.312 409.375 452.312C410.292 452.312 411.029 452.537 411.588 452.989C411.903 453.246 412.189 453.626 412.447 454.127C412.877 453.511 413.382 453.055 413.962 452.758C414.542 452.46 415.194 452.312 415.917 452.312C417.464 452.312 418.516 452.87 419.075 453.988C419.376 454.589 419.526 455.398 419.526 456.415L419.526 464.074L417.517 464.074L417.517 456.082C417.517 455.316 417.326 454.79 416.943 454.503C416.56 454.217 416.092 454.073 415.541 454.073C414.782 454.073 414.128 454.328 413.58 454.836C413.033 455.345 412.759 456.193 412.759 457.382L412.759 464.074L410.793 464.074L410.793 456.566C410.793 455.785 410.7 455.216 410.514 454.858C410.22 454.321 409.672 454.052 408.87 454.052C408.14 454.052 407.475 454.335 406.877 454.901C406.279 455.466 405.98 456.49 405.98 457.973L405.98 464.074L404.047 464.074L404.047 452.57Z"/>
<path clip-path="url(#TextBounds_5)" d="M427.164 452.312C427.98 452.312 428.772 452.503 429.538 452.886C430.304 453.27 430.888 453.766 431.289 454.374C431.676 454.954 431.933 455.631 432.062 456.405C432.177 456.934 432.234 457.78 432.234 458.94L423.802 458.94C423.837 460.107 424.113 461.043 424.629 461.749C425.144 462.454 425.943 462.807 427.024 462.807C428.034 462.807 428.84 462.474 429.441 461.808C429.785 461.421 430.029 460.974 430.172 460.465L432.073 460.465C432.023 460.888 431.857 461.358 431.574 461.878C431.291 462.397 430.974 462.821 430.623 463.151C430.036 463.724 429.309 464.11 428.442 464.311C427.977 464.425 427.45 464.483 426.863 464.483C425.431 464.483 424.217 463.962 423.222 462.92C422.226 461.878 421.728 460.419 421.728 458.542C421.728 456.695 422.23 455.194 423.232 454.041C424.235 452.888 425.545 452.312 427.164 452.312ZM430.247 457.404C430.168 456.566 429.986 455.896 429.699 455.395C429.169 454.464 428.285 453.998 427.046 453.998C426.158 453.998 425.413 454.319 424.811 454.96C424.21 455.601 423.891 456.415 423.855 457.404L430.247 457.404Z"/>
</g>
<path d="M72.8343 47.4426L72.2088 192.237L71.1752 431.491L759.715 433.208" fill="none" opacity="1" stroke="#000000" stroke-linecap="butt" stroke-linejoin="round" stroke-width="1.96939"/>
<g fill="#000000" opacity="1" stroke="none"/>
</g>
</svg>
